<svg width="24" height="24" viewBox="0 0 24 24" fill="none" xmlns="http://www.w3.org/2000/svg">
<path d="M11.9864 6.46165C11.7423 6.46522 11.5096 6.56556 11.3395 6.7406C11.1694 6.91564 11.0757 7.15107 11.079 7.39516V11.0789H7.39543C7.2734 11.0771 7.15225 11.0997 7.03901 11.1452C6.92577 11.1907 6.8227 11.2583 6.7358 11.3439C6.64889 11.4296 6.57988 11.5317 6.53278 11.6443C6.48568 11.7569 6.46143 11.8777 6.46143 11.9998C6.46143 12.1218 6.48568 12.2427 6.53278 12.3553C6.57988 12.4678 6.64889 12.57 6.7358 12.6556C6.8227 12.7413 6.92577 12.8089 7.03901 12.8544C7.15225 12.8999 7.2734 12.9224 7.39543 12.9207H11.079V16.6044C11.0773 16.7265 11.0998 16.8476 11.1453 16.9609C11.1908 17.0741 11.2584 17.1772 11.3441 17.2641C11.4297 17.351 11.5319 17.42 11.6444 17.4671C11.757 17.5142 11.8778 17.5385 11.9999 17.5385C12.1219 17.5385 12.2428 17.5142 12.3553 17.4671C12.4679 17.42 12.57 17.351 12.6557 17.2641C12.7414 17.1772 12.809 17.0741 12.8545 16.9609C12.9 16.8476 12.9225 16.7265 12.9208 16.6044V12.9207H16.6043C16.7264 12.9224 16.8475 12.8999 16.9608 12.8544C17.074 12.8089 17.1771 12.7413 17.264 12.6556C17.3509 12.57 17.4199 12.4678 17.467 12.3553C17.5141 12.2427 17.5383 12.1218 17.5383 11.9998C17.5383 11.8777 17.5141 11.7569 17.467 11.6443C17.4199 11.5317 17.3509 11.4296 17.264 11.3439C17.1771 11.2583 17.074 11.1907 16.9608 11.1452C16.8475 11.0997 16.7264 11.0771 16.6043 11.0789H12.9208V7.39516C12.9225 7.27203 12.8994 7.14981 12.8531 7.03573C12.8067 6.92165 12.7379 6.81803 12.6508 6.73099C12.5637 6.64396 12.46 6.57528 12.3459 6.52902C12.2318 6.48275 12.1095 6.45984 11.9864 6.46165Z" fill="white"/>
</svg>
