<svg width="18" height="18" viewBox="0 0 18 18" fill="none" xmlns="http://www.w3.org/2000/svg">
<path d="M6.49996 0.666748C3.28817 0.666748 0.666626 3.28829 0.666626 6.50008C0.666626 9.71187 3.28817 12.3334 6.49996 12.3334C7.95662 12.3334 9.28747 11.7901 10.3118 10.9011L10.6666 11.2559V12.3334L15.6666 17.3334L17.3333 15.6667L12.3333 10.6667H11.2558L10.901 10.3119C11.79 9.28759 12.3333 7.95675 12.3333 6.50008C12.3333 3.28829 9.71175 0.666748 6.49996 0.666748ZM6.49996 2.33341C8.81102 2.33341 10.6666 4.18902 10.6666 6.50008C10.6666 8.81114 8.81102 10.6667 6.49996 10.6667C4.1889 10.6667 2.33329 8.81114 2.33329 6.50008C2.33329 4.18902 4.1889 2.33341 6.49996 2.33341Z" fill="#000"/>
</svg>
