<svg width="80" height="96" viewBox="0 0 80 96" fill="none" xmlns="http://www.w3.org/2000/svg">
<g clip-path="url(#clip0)">
<path d="M-0.0108711 48.0014C-0.0108711 33.1205 -0.0108711 18.2396 -0.0108711 3.35595C-0.0108711 1.35555 1.35055 0 3.35975 0C27.7857 0 52.209 0 76.635 0C78.6579 0 80.0083 1.35555 80.0083 3.38614C80.0083 33.126 80.0083 62.8685 80.0083 92.6084C80.0083 94.6554 78.6606 95.9972 76.602 95.9972C52.1651 95.9972 27.7281 95.9972 3.29387 95.9972C1.58386 95.9972 0.299292 94.9188 0.016577 93.245C-0.0163607 93.0474 -0.0136159 92.8443 -0.0136159 92.644C-0.0108711 77.7631 -0.0108711 62.8823 -0.0108711 48.0014Z" fill="#FCC200"/>
<path d="M71.0327 48.0345C71.0327 60.5829 71.0327 73.1287 71.0327 85.6771C71.0327 85.8335 71.0355 85.9899 71.0272 86.1463C70.9943 86.7583 70.5277 87.2357 69.9156 87.2824C69.8168 87.2906 69.7152 87.2851 69.6136 87.2851C49.8648 87.2851 30.1159 87.2851 10.3698 87.2824C10.1832 87.2824 9.9883 87.2714 9.80715 87.2193C9.31583 87.0793 9.00292 86.6704 8.97273 86.1628C8.96449 86.0284 8.96724 85.8939 8.96724 85.7594C8.96724 60.5857 8.96724 35.4147 8.96724 10.2409C8.96724 10.1174 8.96449 9.99393 8.97273 9.8732C9.00566 9.22835 9.48875 8.74814 10.1365 8.7207C10.2271 8.71796 10.3149 8.7207 10.4055 8.7207C30.1434 8.7207 49.8785 8.7207 69.6164 8.72345C69.803 8.72345 69.9979 8.73168 70.1791 8.78107C70.6869 8.92102 71.0025 9.33262 71.03 9.85948C71.0382 10.0159 71.0355 10.1723 71.0355 10.3287C71.0327 22.8936 71.0327 35.464 71.0327 48.0345Z" fill="#14215A"/>
<path d="M4.87965e-05 48.0014C4.87965e-05 33.1205 4.87965e-05 18.2368 4.87965e-05 3.35595C4.87965e-05 1.35555 1.36147 0 3.37067 0C27.7884 0 52.2062 0 76.6267 0C78.6497 0 80.0001 1.35555 80.0001 3.38614C80.0001 33.126 80.0001 62.8685 80.0001 92.6084C80.0001 94.6554 78.6524 95.9972 76.5965 95.9972C52.1678 95.9972 27.7363 95.9972 3.30754 95.9972C1.60027 95.9972 0.312956 94.9188 0.0329864 93.245C-0.00269601 93.0501 4.87965e-05 92.8471 4.87965e-05 92.6468C4.87965e-05 77.7631 4.87965e-05 62.8823 4.87965e-05 48.0014ZM76.1738 47.9904C76.1738 34.0041 76.1738 20.015 76.1738 6.02864C76.1738 4.73071 75.2241 3.75658 73.9588 3.75658C51.3169 3.75658 28.6778 3.75658 6.03587 3.75658C5.90412 3.75658 5.76688 3.76207 5.63788 3.78951C4.47682 4.05019 3.82356 4.88163 3.82356 6.09724C3.82356 33.9601 3.82356 61.8231 3.82356 89.686C3.82356 89.8094 3.82356 89.9329 3.82356 90.0537C3.83728 91.272 4.80346 92.2434 6.02215 92.2434C28.675 92.2434 51.3279 92.2434 73.978 92.2434C74.0988 92.2434 74.225 92.2407 74.3431 92.216C75.5014 91.9663 76.1738 91.1211 76.1738 89.9192C76.1738 75.9438 76.1738 61.9657 76.1738 47.9904Z" fill="#FCC200"/>
<path d="M76.1735 47.9903C76.1735 61.9656 76.1735 75.9437 76.1735 89.9191C76.1735 91.121 75.5037 91.9661 74.3427 92.2158C74.2247 92.2405 74.0984 92.2433 73.9776 92.2433C51.3248 92.2433 28.6719 92.2433 6.02183 92.2433C4.80588 92.2433 3.83697 91.2746 3.82324 90.0536C3.82324 89.9301 3.82324 89.8066 3.82324 89.6858C3.82324 61.8229 3.82324 33.96 3.82324 6.09711C3.82324 4.88151 4.47651 4.05006 5.63756 3.78938C5.76656 3.7592 5.9038 3.75645 6.03555 3.75645C28.6774 3.75371 51.3165 3.75371 73.9584 3.75645C75.2238 3.75645 76.1735 4.73333 76.1735 6.02851C76.1762 20.0148 76.1735 34.0012 76.1735 47.9903ZM73.3024 47.9985C73.3024 44.1541 73.3024 40.3125 73.3024 36.4681C73.3024 27.0945 73.3024 17.7208 73.2997 8.34722C73.2997 8.12495 73.3024 7.89445 73.2448 7.68591C73.0362 6.91758 72.4296 6.50872 71.5485 6.50872C50.5151 6.50872 29.4816 6.50872 8.44823 6.50872C8.38236 6.50872 8.31374 6.50597 8.24786 6.50872C7.51774 6.54439 6.91114 7.01636 6.74097 7.71609C6.68333 7.94934 6.69705 8.20453 6.69705 8.44875C6.6943 34.8162 6.6943 61.1836 6.6943 87.551C6.6943 87.7074 6.68881 87.8638 6.69979 88.0202C6.70803 88.13 6.7245 88.2425 6.75744 88.3468C6.99349 89.1041 7.57539 89.491 8.48117 89.491C29.4926 89.491 50.5013 89.491 71.5128 89.491C71.5787 89.491 71.65 89.5047 71.7132 89.4883C72.0096 89.4032 72.3335 89.3593 72.5915 89.2056C73.1514 88.8709 73.3051 88.3221 73.3051 87.6854C73.2997 74.4565 73.3024 61.2275 73.3024 47.9985Z" fill="#EE7601"/>
<path d="M73.3001 47.9986C73.3001 61.2276 73.2974 74.4565 73.3056 87.6855C73.3056 88.3249 73.1519 88.8709 72.592 89.2057C72.3339 89.3594 72.0101 89.4033 71.7136 89.4884C71.6505 89.5076 71.5791 89.4911 71.5133 89.4911C50.5018 89.4911 29.4931 89.4911 8.4816 89.4911C7.57581 89.4911 6.99117 89.1042 6.75786 88.3468C6.72492 88.2426 6.70846 88.1301 6.70022 88.0203C6.68924 87.8639 6.69473 87.7075 6.69473 87.5511C6.69473 61.1837 6.69473 34.8162 6.69748 8.44882C6.69748 8.2046 6.68375 7.95215 6.74139 7.71616C6.91157 7.01369 7.51817 6.54446 8.24829 6.50879C8.31417 6.50604 8.38279 6.50879 8.44866 6.50879C29.4821 6.50879 50.5155 6.50879 71.5489 6.50879C72.43 6.50879 73.0366 6.92039 73.2452 7.68598C73.3029 7.89727 73.3001 8.12777 73.3001 8.34729C73.3029 17.7209 73.3029 27.0945 73.3029 36.4681C73.3001 40.3125 73.3001 44.1569 73.3001 47.9986ZM71.0302 48.0342C71.0302 35.4638 71.0302 22.8962 71.0302 10.3257C71.0302 10.1693 71.0329 10.0129 71.0247 9.85651C70.9972 9.32965 70.6816 8.91805 70.1738 8.7781C69.9954 8.72871 69.8005 8.72048 69.6111 8.72048C49.8732 8.71774 30.1381 8.71774 10.4002 8.71774C10.3096 8.71774 10.2218 8.71499 10.1312 8.71774C9.48345 8.74518 9.00037 9.22538 8.96743 9.87023C8.96194 9.99371 8.96194 10.1172 8.96194 10.2379C8.96194 35.4117 8.96194 60.5827 8.96194 85.7565C8.96194 85.8909 8.95919 86.0254 8.96743 86.1598C8.99762 86.6675 9.31053 87.0764 9.80185 87.2163C9.98026 87.2684 10.1751 87.2794 10.3645 87.2794C30.1134 87.2822 49.8622 87.2822 69.6084 87.2822C69.7099 87.2822 69.8087 87.2876 69.9103 87.2794C70.5224 87.2328 70.989 86.758 71.0219 86.1434C71.0302 85.987 71.0274 85.8306 71.0274 85.6742C71.0302 73.1284 71.0302 60.58 71.0302 48.0342Z" fill="#D80912"/>
<path d="M44.916 74.5252C44.916 69.6051 44.916 64.7262 44.916 59.8254C44.9874 59.8171 45.0615 59.8007 45.1356 59.8007C47.2354 59.8007 49.3379 59.7924 51.4377 59.8062C52.4917 59.8116 53.5319 59.9516 54.5365 60.2809C56.5979 60.9559 57.9291 62.3416 58.4479 64.4491C58.9172 66.3589 58.8816 68.2797 58.3573 70.1786C57.7562 72.3574 56.3069 73.669 54.1331 74.2178C53.2602 74.4374 52.3736 74.5307 51.4788 74.5361C49.3681 74.5471 47.2546 74.5416 45.1438 74.5389C45.078 74.5361 45.0121 74.5306 44.916 74.5252ZM49.3736 71.3723C50.1833 71.3338 50.9793 71.3503 51.7588 71.246C53.0296 71.0732 53.8696 70.3487 54.1962 69.0865C54.4954 67.934 54.5256 66.7678 54.2923 65.6043C54.0425 64.364 53.3233 63.5243 52.0745 63.1813C51.1906 62.9398 50.2876 63.003 49.3763 63.0002C49.3736 65.7799 49.3736 68.5322 49.3736 71.3723Z" fill="#FDFDFD"/>
<path d="M19.8562 71.8353C19.6284 72.7216 19.3978 73.6134 19.1645 74.5217C17.5918 74.5217 16.019 74.5217 14.416 74.5217C15.9504 69.5413 17.6329 64.6267 19.6092 59.8109C21.5498 59.8109 23.4903 59.8109 25.4364 59.8109C27.4154 64.624 29.0925 69.5303 30.6296 74.5135C29.0458 74.5135 27.4785 74.5135 25.8811 74.5135C25.656 73.6354 25.4254 72.7436 25.1894 71.8353C23.4107 71.8353 21.6513 71.8353 19.8562 71.8353ZM22.5489 62.5357C22.5159 62.5357 22.4857 62.533 22.4528 62.533C21.8078 64.5554 21.1627 66.575 20.5122 68.6193C21.8764 68.6193 23.1747 68.6193 24.5004 68.6193C23.8938 66.5558 23.2735 64.5279 22.5489 62.5357Z" fill="#FDFDFD"/>
<path d="M32.0376 59.809C33.5363 59.809 34.9938 59.809 36.4869 59.809C36.4869 59.9379 36.4869 60.0559 36.4869 60.1767C36.4869 63.2802 36.4842 66.3837 36.4897 69.4899C36.4897 69.789 36.5116 70.0936 36.5528 70.3899C36.6187 70.8372 36.8987 71.1089 37.3378 71.1885C37.6013 71.2351 37.8703 71.2571 38.1366 71.2598C39.465 71.2653 40.7935 71.2625 42.1248 71.2625C42.2346 71.2625 42.3443 71.2625 42.4706 71.2625C42.6902 72.3519 42.907 73.4193 43.1266 74.5142C43.0223 74.5224 42.94 74.5389 42.8576 74.5389C40.5136 74.5389 38.1668 74.5499 35.8227 74.5307C35.3588 74.5279 34.8812 74.4621 34.4366 74.3359C33.0944 73.9517 32.3752 72.9968 32.1282 71.6604C32.0623 71.3119 32.0376 70.9497 32.0376 70.5957C32.0321 67.0779 32.0349 63.5628 32.0349 60.0449C32.0376 59.9736 32.0376 59.9077 32.0376 59.809Z" fill="#FDFDFD"/>
<path d="M61.1797 59.8146C62.6536 59.8146 64.1139 59.8146 65.5851 59.8146C65.5851 64.7182 65.5851 69.6053 65.5851 74.5144C64.1221 74.5144 62.6646 74.5144 61.1797 74.5144C61.1797 69.6272 61.1797 64.7319 61.1797 59.8146Z" fill="#FDFDFD"/>
<path d="M57.367 35.4585C58.9425 35.4557 60.0624 36.1665 60.7376 37.5851C61.465 39.1163 62.1978 40.6447 62.9279 42.1759C62.9499 42.2225 62.9691 42.2719 63.013 42.3735C62.659 42.0442 62.368 41.8301 62.0386 41.6298C61.3881 41.2347 60.6498 41.1716 59.9087 41.1716C59.1429 41.1688 51.2433 41.1688 43.7775 41.1688L45.718 35.4612C51.5096 35.4585 57.0843 35.4585 57.367 35.4585ZM66.3617 50.4382C65.6316 48.907 64.9014 47.3786 64.1713 45.8474C63.4961 44.4287 62.3762 43.7153 60.8007 43.7208C60.4137 43.7208 50.1042 43.7235 42.9074 43.7235L40.9668 49.4284C49.4482 49.4284 62.3515 49.4311 63.3424 49.4339C64.0835 49.4366 64.8219 49.497 65.4724 49.8921C65.799 50.0897 66.09 50.3065 66.4468 50.6357C66.4029 50.537 66.3836 50.4876 66.3617 50.4382ZM46.5854 32.9148C50.7355 32.9175 55.4182 32.9175 56.5326 32.9203C57.2737 32.923 58.012 32.9834 58.6625 33.3785C58.9892 33.5761 59.2801 33.7929 59.6369 34.1221C59.593 34.0206 59.5738 33.974 59.5518 33.9246C58.8217 32.3934 58.0916 30.865 57.3615 29.3338C56.6863 27.9151 55.5664 27.2017 53.9909 27.2072C53.5764 27.2072 50.9634 27.2099 48.526 27.2099L46.5854 32.9148Z" fill="url(#paint0_linear)"/>
<path d="M43.1513 16.7109C42.1989 16.914 41.4276 17.4216 40.9061 18.1872C40.4285 18.887 40.0305 19.6717 39.7395 20.4703C38.9216 22.7176 38.1723 24.9897 37.4037 27.2563C35.7376 32.1598 34.0715 37.0662 32.4082 41.9725C31.9141 43.4296 31.4365 44.8894 30.926 46.341C30.5499 47.4112 30.1712 48.4786 29.7677 49.5378C29.7677 49.5406 29.7649 49.5433 29.7649 49.546C29.6798 49.7875 29.5865 50.029 29.485 50.2622C29.4548 50.3391 29.4246 50.4186 29.3916 50.4955C29.0458 51.3599 28.5188 52.1254 27.753 52.6935C27.6789 52.7483 27.6048 52.7977 27.5307 52.8471C26.946 53.2395 26.2763 53.4453 25.5077 53.4481C24.6925 53.4508 23.8746 53.4508 23.0594 53.4508C23.0512 53.4508 23.0402 53.4508 23.0319 53.4508C22.192 53.4508 21.3521 53.4508 20.5122 53.4508C20.4408 53.4508 20.3722 53.4508 20.3009 53.4508C21.2533 53.2477 22.0246 52.7401 22.5461 51.9745C23.0237 51.2748 23.4217 50.49 23.7126 49.6915C24.5306 47.4441 25.2799 45.1721 26.0485 42.9055C27.7146 38.0019 29.3807 33.0956 31.044 28.1892C31.5381 26.7321 32.0157 25.2723 32.5262 23.8207C32.9022 22.7506 33.281 21.6831 33.6845 20.6239C33.6845 20.6212 33.6873 20.6184 33.6873 20.6157C33.7724 20.3742 33.8657 20.1327 33.9672 19.8995C33.9974 19.8227 34.0276 19.7431 34.0606 19.6663C34.4064 18.8019 34.9334 18.0363 35.6992 17.4683C35.7733 17.4134 35.8447 17.364 35.9215 17.3146C36.5062 16.9222 37.1759 16.7164 37.9445 16.7137C38.7597 16.7109 39.5776 16.7109 40.3928 16.7109C40.401 16.7109 40.412 16.7109 40.4203 16.7109C41.2602 16.7109 42.1001 16.7109 42.94 16.7109C43.0114 16.7109 43.0827 16.7109 43.1513 16.7109ZM34.0551 16.7109C33.2152 16.7109 32.3752 16.7109 31.5353 16.7109C31.5271 16.7109 31.5161 16.7109 31.5079 16.7109C30.6927 16.7109 29.8747 16.7109 29.0595 16.7137C28.291 16.7137 27.6212 16.9222 27.0366 17.3146C26.9625 17.364 26.8884 17.4134 26.8143 17.4683C26.0485 18.0363 25.5215 18.8046 25.1756 19.6663C25.1454 19.7431 25.1152 19.8227 25.0823 19.8995C24.9807 20.1355 24.8874 20.3742 24.8023 20.6157C24.8023 20.6184 13.5459 53.4536 13.5459 53.4536C13.7106 53.4536 13.9823 53.4536 14.147 53.4536C14.1552 53.4536 14.1662 53.4536 14.1745 53.4536C14.9897 53.4536 15.8076 53.4535 16.6228 53.4508C17.3914 53.4508 18.0611 53.2423 18.6457 52.8499C18.7199 52.8005 18.794 52.7511 18.8681 52.6962C19.6339 52.1282 20.1609 51.3598 20.5067 50.4982C20.5369 50.4214 20.5671 50.3418 20.6 50.265C20.7016 50.029 20.7949 49.7903 20.88 49.5488C20.88 49.546 20.8828 49.5433 20.8828 49.5406C21.2862 48.4814 21.665 47.4112 22.0411 46.3438C22.5516 44.8922 23.0292 43.4323 23.5233 41.9753C25.1866 37.0689 26.8527 32.1626 28.5188 27.259C29.2901 24.9952 30.0367 22.7204 30.8546 20.473C31.1456 19.6745 31.5408 18.8897 32.0212 18.19C32.5427 17.4244 33.314 16.9167 34.2664 16.7137C34.1978 16.7109 34.1264 16.7109 34.0551 16.7109ZM51.7563 16.7109C50.9164 16.7109 50.0765 16.7109 49.2366 16.7109C49.2283 16.7109 49.2174 16.7109 49.2091 16.7109C48.3939 16.7109 47.576 16.7109 46.7608 16.7137C45.9922 16.7137 45.3225 16.9222 44.7378 17.3146C44.6637 17.364 44.5896 17.4134 44.5155 17.4683C43.7497 18.0363 43.2227 18.8046 42.8769 19.6663C42.8467 19.7431 42.8165 19.8227 42.7835 19.8995C42.682 20.1355 42.5887 20.3742 42.5036 20.6157C42.5036 20.6184 42.5008 20.6212 42.5008 20.6239C42.0973 21.6831 41.7186 22.7533 41.3425 23.8207C40.832 25.2723 40.3544 26.7321 39.8603 28.1892C38.197 33.0956 36.5309 38.0019 34.8648 42.9055C34.0935 45.1693 33.3469 47.4441 32.529 49.6915C32.238 50.49 31.8428 51.2748 31.3624 51.9745C30.8409 52.7401 30.0696 53.2477 29.1172 53.4508C29.1885 53.4508 29.2571 53.4508 29.3285 53.4508C30.1684 53.4508 31.0083 53.4508 31.8482 53.4508C31.8565 53.4508 31.8675 53.4508 31.8757 53.4508C32.6909 53.4508 33.5088 53.4508 34.3241 53.4481C35.0926 53.4481 35.7623 53.2395 36.347 52.8471C36.4211 52.7977 36.4952 52.7483 36.5693 52.6935C37.3351 52.1254 37.8621 51.3571 38.2079 50.4955C38.2381 50.4186 38.2683 50.3391 38.3013 50.2622C38.4028 50.0262 38.4962 49.7875 38.5812 49.546C38.5812 49.5433 38.584 49.5406 38.584 49.5378C38.9875 48.4786 39.3663 47.4084 39.7423 46.341C40.2528 44.8894 40.7304 43.4296 41.2245 41.9725C42.8878 37.0662 44.5539 32.1598 46.22 27.2563C46.9913 24.9924 47.7379 22.7176 48.5559 20.4703C48.8468 19.6717 49.2421 18.887 49.7224 18.1872C50.2439 17.4216 51.0152 16.914 51.9676 16.7109C51.899 16.7109 51.8277 16.7109 51.7563 16.7109Z" fill="url(#paint1_linear)"/>
</g>
<defs>
<linearGradient id="paint0_linear" x1="39.5238" y1="45.4583" x2="61.6319" y2="37.4093" gradientUnits="userSpaceOnUse">
<stop stop-color="#97D2F0"/>
<stop offset="0.0445" stop-color="#8ACFF0"/>
<stop offset="0.1449" stop-color="#72C9F0"/>
<stop offset="0.2511" stop-color="#60C5F0"/>
<stop offset="0.366" stop-color="#56C3F0"/>
<stop offset="0.5052" stop-color="#53C2F0"/>
<stop offset="0.5692" stop-color="#57C3F0"/>
<stop offset="0.6338" stop-color="#63C7F1"/>
<stop offset="0.6987" stop-color="#77CDF2"/>
<stop offset="0.7639" stop-color="#94D6F3"/>
<stop offset="0.8286" stop-color="#B8E1F5"/>
<stop offset="0.8368" stop-color="#BDE3F5"/>
<stop offset="0.8595" stop-color="#B1DDF1"/>
<stop offset="0.9002" stop-color="#92CCE5"/>
<stop offset="0.9539" stop-color="#60B2D3"/>
<stop offset="1" stop-color="#2F98C1"/>
</linearGradient>
<linearGradient id="paint1_linear" x1="32.7587" y1="53.4532" x2="32.7587" y2="16.7117" gradientUnits="userSpaceOnUse">
<stop stop-color="#2F98C1"/>
<stop offset="0.00711923" stop-color="#389DC4"/>
<stop offset="0.0647" stop-color="#7FC2DE"/>
<stop offset="0.1061" stop-color="#ACDAEF"/>
<stop offset="0.1269" stop-color="#BDE3F5"/>
<stop offset="0.1374" stop-color="#B3E0F5"/>
<stop offset="0.1776" stop-color="#94D7F3"/>
<stop offset="0.2215" stop-color="#7ACFF2"/>
<stop offset="0.2697" stop-color="#66C9F1"/>
<stop offset="0.3245" stop-color="#58C4F0"/>
<stop offset="0.3914" stop-color="#4FC2F0"/>
<stop offset="0.5052" stop-color="#4DC1F0"/>
<stop offset="0.5961" stop-color="#50C2F0"/>
<stop offset="0.6672" stop-color="#5AC5F1"/>
<stop offset="0.7315" stop-color="#6BCAF1"/>
<stop offset="0.7919" stop-color="#82D1F2"/>
<stop offset="0.849" stop-color="#A0DAF4"/>
<stop offset="0.8938" stop-color="#BDE3F5"/>
<stop offset="0.9085" stop-color="#B1DDF1"/>
<stop offset="0.935" stop-color="#92CCE5"/>
<stop offset="0.97" stop-color="#60B2D3"/>
<stop offset="1" stop-color="#2F98C1"/>
</linearGradient>
<clipPath id="clip0">
<rect width="80" height="96" fill="white"/>
</clipPath>
</defs>
</svg>
