<svg width="304" height="304" viewBox="0 0 304 304" fill="none" xmlns="http://www.w3.org/2000/svg">
<path d="M304 0H0V304H304V0Z" fill="#F8F8F8"/>
<g clip-path="url(#clip0)">
<path d="M183.033 152.035C183.033 164.583 183.033 177.129 183.033 189.677C183.033 189.834 183.035 189.99 183.027 190.147C182.994 190.758 182.528 191.236 181.916 191.283C181.817 191.291 181.715 191.285 181.614 191.285C161.865 191.285 142.116 191.285 122.37 191.283C122.183 191.283 121.988 191.272 121.807 191.219C121.316 191.08 121.003 190.671 120.973 190.163C120.964 190.029 120.967 189.894 120.967 189.76C120.967 164.586 120.967 139.415 120.967 114.241C120.967 114.118 120.964 113.994 120.973 113.873C121.006 113.229 121.489 112.748 122.137 112.721C122.227 112.718 122.315 112.721 122.405 112.721C142.143 112.721 161.879 112.721 181.616 112.724C181.803 112.724 181.998 112.732 182.179 112.781C182.687 112.921 183.002 113.333 183.03 113.86C183.038 114.016 183.035 114.172 183.035 114.329C183.033 126.894 183.033 139.464 183.033 152.035Z" fill="#14215A"/>
<path d="M112 152.001C112 137.12 112 122.237 112 107.356C112 105.356 113.361 104 115.371 104C139.788 104 164.206 104 188.627 104C190.65 104 192 105.356 192 107.386C192 137.126 192 166.868 192 196.608C192 198.655 190.652 199.997 188.597 199.997C164.168 199.997 139.736 199.997 115.308 199.997C113.6 199.997 112.313 198.919 112.033 197.245C111.997 197.05 112 196.847 112 196.647C112 181.763 112 166.882 112 152.001ZM188.174 151.99C188.174 138.004 188.174 124.015 188.174 110.029C188.174 108.731 187.224 107.757 185.959 107.757C163.317 107.757 140.678 107.757 118.036 107.757C117.904 107.757 117.767 107.762 117.638 107.79C116.477 108.05 115.824 108.882 115.824 110.097C115.824 137.96 115.824 165.823 115.824 193.686C115.824 193.809 115.824 193.933 115.824 194.054C115.837 195.272 116.803 196.243 118.022 196.243C140.675 196.243 163.328 196.243 185.978 196.243C186.099 196.243 186.225 196.241 186.343 196.216C187.501 195.966 188.174 195.121 188.174 193.919C188.174 179.944 188.174 165.966 188.174 151.99Z" fill="#FCC200"/>
<path d="M188.174 151.991C188.174 165.966 188.174 179.944 188.174 193.92C188.174 195.122 187.504 195.967 186.343 196.216C186.225 196.241 186.099 196.244 185.978 196.244C163.325 196.244 140.672 196.244 118.022 196.244C116.806 196.244 115.837 195.275 115.824 194.054C115.824 193.931 115.824 193.807 115.824 193.686C115.824 165.823 115.824 137.96 115.824 110.098C115.824 108.882 116.477 108.051 117.638 107.79C117.767 107.76 117.904 107.757 118.036 107.757C140.678 107.754 163.317 107.754 185.959 107.757C187.224 107.757 188.174 108.734 188.174 110.029C188.177 124.015 188.174 138.002 188.174 151.991ZM185.303 151.999C185.303 148.155 185.303 144.313 185.303 140.469C185.303 131.095 185.303 121.721 185.3 112.348C185.3 112.125 185.303 111.895 185.245 111.686C185.037 110.918 184.43 110.509 183.549 110.509C162.516 110.509 141.482 110.509 120.449 110.509C120.383 110.509 120.314 110.506 120.248 110.509C119.518 110.545 118.912 111.017 118.741 111.717C118.684 111.95 118.698 112.205 118.698 112.449C118.695 138.817 118.695 165.184 118.695 191.551C118.695 191.708 118.689 191.864 118.7 192.021C118.709 192.13 118.725 192.243 118.758 192.347C118.994 193.105 119.576 193.492 120.482 193.492C141.493 193.492 162.502 193.492 183.513 193.492C183.579 193.492 183.651 193.505 183.714 193.489C184.01 193.404 184.334 193.36 184.592 193.206C185.152 192.871 185.306 192.322 185.306 191.686C185.3 178.457 185.303 165.228 185.303 151.999Z" fill="#EE7601"/>
<path d="M185.3 151.999C185.3 165.228 185.297 178.457 185.306 191.686C185.306 192.325 185.152 192.871 184.592 193.206C184.334 193.36 184.01 193.404 183.714 193.489C183.65 193.508 183.579 193.491 183.513 193.491C162.502 193.491 141.493 193.491 120.482 193.491C119.576 193.491 118.991 193.104 118.758 192.347C118.725 192.243 118.708 192.13 118.7 192.021C118.689 191.864 118.695 191.708 118.695 191.551C118.695 165.184 118.695 138.817 118.697 112.449C118.697 112.205 118.684 111.952 118.741 111.716C118.912 111.014 119.518 110.545 120.248 110.509C120.314 110.506 120.383 110.509 120.449 110.509C141.482 110.509 162.515 110.509 183.549 110.509C184.43 110.509 185.037 110.921 185.245 111.686C185.303 111.898 185.3 112.128 185.3 112.348C185.303 121.721 185.303 131.095 185.303 140.468C185.3 144.313 185.3 148.157 185.3 151.999ZM183.03 152.035C183.03 139.464 183.03 126.896 183.03 114.326C183.03 114.17 183.033 114.013 183.025 113.857C182.997 113.33 182.682 112.918 182.174 112.778C181.995 112.729 181.8 112.721 181.611 112.721C161.873 112.718 142.138 112.718 122.4 112.718C122.31 112.718 122.222 112.715 122.131 112.718C121.483 112.745 121 113.226 120.967 113.87C120.962 113.994 120.962 114.117 120.962 114.238C120.962 139.412 120.962 164.583 120.962 189.757C120.962 189.891 120.959 190.026 120.967 190.16C120.998 190.668 121.311 191.077 121.802 191.216C121.98 191.269 122.175 191.28 122.364 191.28C142.113 191.282 161.862 191.282 181.608 191.282C181.71 191.282 181.809 191.288 181.91 191.28C182.522 191.233 182.989 190.758 183.022 190.144C183.03 189.987 183.027 189.831 183.027 189.674C183.03 177.129 183.03 164.58 183.03 152.035Z" fill="#D80912"/>
<path d="M156.916 178.525C156.916 173.605 156.916 168.726 156.916 163.825C156.987 163.817 157.061 163.8 157.136 163.8C159.235 163.8 161.338 163.792 163.438 163.806C164.492 163.811 165.532 163.951 166.537 164.28C168.598 164.955 169.929 166.341 170.448 168.449C170.917 170.358 170.882 172.279 170.357 174.178C169.756 176.357 168.307 177.669 166.133 178.217C165.26 178.437 164.374 178.53 163.479 178.536C161.368 178.547 159.255 178.541 157.144 178.538C157.078 178.536 157.012 178.53 156.916 178.525ZM161.374 175.372C162.183 175.333 162.979 175.35 163.759 175.246C165.03 175.073 165.87 174.348 166.196 173.086C166.495 171.934 166.526 170.767 166.292 169.604C166.042 168.364 165.323 167.524 164.074 167.181C163.191 166.939 162.288 167.003 161.376 167C161.374 169.78 161.374 172.532 161.374 175.372Z" fill="#FDFDFD"/>
<path d="M131.856 175.835C131.628 176.721 131.397 177.613 131.164 178.521C129.591 178.521 128.019 178.521 126.416 178.521C127.95 173.541 129.632 168.626 131.609 163.81C133.549 163.81 135.49 163.81 137.436 163.81C139.415 168.624 141.092 173.53 142.629 178.513C141.045 178.513 139.478 178.513 137.881 178.513C137.656 177.635 137.425 176.743 137.189 175.835C135.41 175.835 133.651 175.835 131.856 175.835ZM134.548 166.535C134.515 166.535 134.485 166.533 134.452 166.533C133.807 168.555 133.162 170.575 132.512 172.619C133.876 172.619 135.174 172.619 136.5 172.619C135.893 170.555 135.273 168.527 134.548 166.535Z" fill="#FDFDFD"/>
<path d="M144.037 163.809C145.536 163.809 146.993 163.809 148.487 163.809C148.487 163.938 148.487 164.056 148.487 164.176C148.487 167.28 148.484 170.383 148.489 173.489C148.489 173.789 148.511 174.093 148.552 174.39C148.618 174.837 148.898 175.108 149.337 175.188C149.601 175.235 149.87 175.257 150.136 175.259C151.465 175.265 152.793 175.262 154.124 175.262C154.234 175.262 154.344 175.262 154.47 175.262C154.69 176.352 154.907 177.419 155.126 178.514C155.022 178.522 154.94 178.539 154.857 178.539C152.513 178.539 150.166 178.549 147.822 178.53C147.358 178.528 146.881 178.462 146.436 178.335C145.094 177.951 144.375 176.996 144.128 175.66C144.062 175.312 144.037 174.949 144.037 174.595C144.032 171.077 144.034 167.562 144.034 164.045C144.037 163.973 144.037 163.907 144.037 163.809Z" fill="#FDFDFD"/>
<path d="M173.179 163.815C174.653 163.815 176.113 163.815 177.584 163.815C177.584 168.718 177.584 173.605 177.584 178.514C176.121 178.514 174.664 178.514 173.179 178.514C173.179 173.627 173.179 168.732 173.179 163.815Z" fill="#FDFDFD"/>
<path d="M169.367 139.458C170.942 139.456 172.062 140.166 172.737 141.585C173.465 143.116 174.197 144.645 174.927 146.176C174.949 146.222 174.969 146.272 175.013 146.373C174.658 146.044 174.368 145.83 174.038 145.63C173.388 145.235 172.649 145.171 171.908 145.171C171.142 145.169 163.243 145.169 155.777 145.169L157.718 139.461C163.509 139.458 169.084 139.458 169.367 139.458ZM178.361 154.438C177.631 152.907 176.901 151.378 176.171 149.847C175.496 148.429 174.376 147.715 172.8 147.721C172.413 147.721 162.104 147.723 154.907 147.723L152.966 153.428C161.448 153.428 174.351 153.431 175.342 153.434C176.083 153.436 176.821 153.497 177.472 153.892C177.799 154.09 178.089 154.306 178.446 154.636C178.402 154.537 178.383 154.487 178.361 154.438ZM158.585 136.915C162.735 136.917 167.418 136.917 168.532 136.92C169.273 136.923 170.012 136.983 170.662 137.378C170.989 137.576 171.28 137.793 171.636 138.122C171.593 138.02 171.573 137.974 171.551 137.924C170.821 136.393 170.091 134.865 169.361 133.334C168.686 131.915 167.566 131.202 165.99 131.207C165.576 131.207 162.963 131.21 160.526 131.21L158.585 136.915Z" fill="url(#paint0_linear)"/>
<path d="M155.151 120.711C154.198 120.914 153.427 121.422 152.906 122.187C152.428 122.887 152.03 123.672 151.739 124.47C150.921 126.718 150.172 128.99 149.403 131.256C147.737 136.16 146.071 141.066 144.408 145.973C143.914 147.43 143.436 148.889 142.926 150.341C142.549 151.411 142.171 152.479 141.767 153.538C141.767 153.541 141.764 153.543 141.764 153.546C141.679 153.788 141.586 154.029 141.485 154.262C141.454 154.339 141.424 154.419 141.391 154.496C141.045 155.36 140.518 156.125 139.753 156.694C139.678 156.748 139.604 156.798 139.53 156.847C138.946 157.24 138.276 157.445 137.507 157.448C136.692 157.451 135.874 157.451 135.059 157.451C135.051 157.451 135.04 157.451 135.031 157.451C134.192 157.451 133.352 157.451 132.512 157.451C132.44 157.451 132.372 157.451 132.3 157.451C133.253 157.248 134.024 156.74 134.546 155.975C135.023 155.275 135.421 154.49 135.712 153.692C136.53 151.444 137.279 149.172 138.048 146.906C139.714 142.002 141.38 137.096 143.044 132.189C143.538 130.732 144.015 129.272 144.526 127.821C144.902 126.751 145.281 125.683 145.684 124.624C145.684 124.621 145.687 124.618 145.687 124.616C145.772 124.374 145.865 124.133 145.967 123.9C145.997 123.823 146.027 123.743 146.06 123.666C146.406 122.802 146.933 122.036 147.699 121.468C147.773 121.413 147.844 121.364 147.921 121.315C148.506 120.922 149.175 120.716 149.944 120.714C150.759 120.711 151.577 120.711 152.392 120.711C152.401 120.711 152.412 120.711 152.42 120.711C153.26 120.711 154.1 120.711 154.94 120.711C155.011 120.711 155.082 120.711 155.151 120.711ZM146.055 120.711C145.215 120.711 144.375 120.711 143.535 120.711C143.527 120.711 143.516 120.711 143.507 120.711C142.692 120.711 141.874 120.711 141.059 120.714C140.291 120.714 139.621 120.922 139.036 121.315C138.962 121.364 138.888 121.413 138.814 121.468C138.048 122.036 137.521 122.805 137.175 123.666C137.145 123.743 137.115 123.823 137.082 123.9C136.98 124.136 136.887 124.374 136.802 124.616C136.802 124.618 125.545 157.454 125.545 157.454C125.71 157.454 125.982 157.454 126.147 157.454C126.155 157.454 126.166 157.454 126.174 157.454C126.989 157.454 127.807 157.454 128.622 157.451C129.391 157.451 130.061 157.242 130.645 156.85C130.719 156.801 130.794 156.751 130.868 156.696C131.633 156.128 132.16 155.36 132.506 154.498C132.536 154.421 132.567 154.342 132.6 154.265C132.701 154.029 132.794 153.79 132.88 153.549C132.88 153.546 132.882 153.543 132.882 153.541C133.286 152.481 133.665 151.411 134.041 150.344C134.551 148.892 135.029 147.432 135.523 145.975C137.186 141.069 138.852 136.163 140.518 131.259C141.29 128.995 142.036 126.72 142.854 124.473C143.145 123.675 143.54 122.89 144.021 122.19C144.542 121.424 145.314 120.917 146.266 120.714C146.197 120.711 146.126 120.711 146.055 120.711ZM163.756 120.711C162.916 120.711 162.076 120.711 161.236 120.711C161.228 120.711 161.217 120.711 161.209 120.711C160.393 120.711 159.576 120.711 158.76 120.714C157.992 120.714 157.322 120.922 156.737 121.315C156.663 121.364 156.589 121.413 156.515 121.468C155.749 122.036 155.222 122.805 154.876 123.666C154.846 123.743 154.816 123.823 154.783 123.9C154.682 124.136 154.588 124.374 154.503 124.616C154.503 124.618 154.5 124.621 154.5 124.624C154.097 125.683 153.718 126.753 153.342 127.821C152.832 129.272 152.354 130.732 151.86 132.189C150.197 137.096 148.53 142.002 146.864 146.906C146.093 149.169 145.346 151.444 144.528 153.692C144.238 154.49 143.842 155.275 143.362 155.975C142.84 156.74 142.069 157.248 141.117 157.451C141.188 157.451 141.257 157.451 141.328 157.451C142.168 157.451 143.008 157.451 143.848 157.451C143.856 157.451 143.867 157.451 143.875 157.451C144.69 157.451 145.508 157.451 146.324 157.448C147.092 157.448 147.762 157.24 148.347 156.847C148.421 156.798 148.495 156.748 148.569 156.694C149.335 156.125 149.862 155.357 150.207 154.496C150.238 154.419 150.268 154.339 150.301 154.262C150.402 154.026 150.496 153.788 150.581 153.546C150.581 153.543 150.584 153.541 150.584 153.538C150.987 152.479 151.366 151.408 151.742 150.341C152.252 148.889 152.73 147.43 153.224 145.973C154.887 141.066 156.553 136.16 158.22 131.256C158.991 128.992 159.737 126.718 160.555 124.47C160.846 123.672 161.242 122.887 161.722 122.187C162.243 121.422 163.015 120.914 163.967 120.711C163.899 120.711 163.827 120.711 163.756 120.711Z" fill="url(#paint1_linear)"/>
</g>
<defs>
<linearGradient id="paint0_linear" x1="151.523" y1="149.458" x2="173.631" y2="141.409" gradientUnits="userSpaceOnUse">
<stop stop-color="#97D2F0"/>
<stop offset="0.0445" stop-color="#8ACFF0"/>
<stop offset="0.1449" stop-color="#72C9F0"/>
<stop offset="0.2511" stop-color="#60C5F0"/>
<stop offset="0.366" stop-color="#56C3F0"/>
<stop offset="0.5052" stop-color="#53C2F0"/>
<stop offset="0.5692" stop-color="#57C3F0"/>
<stop offset="0.6338" stop-color="#63C7F1"/>
<stop offset="0.6987" stop-color="#77CDF2"/>
<stop offset="0.7639" stop-color="#94D6F3"/>
<stop offset="0.8286" stop-color="#B8E1F5"/>
<stop offset="0.8368" stop-color="#BDE3F5"/>
<stop offset="0.8595" stop-color="#B1DDF1"/>
<stop offset="0.9002" stop-color="#92CCE5"/>
<stop offset="0.9539" stop-color="#60B2D3"/>
<stop offset="1" stop-color="#2F98C1"/>
</linearGradient>
<linearGradient id="paint1_linear" x1="144.758" y1="157.453" x2="144.758" y2="120.712" gradientUnits="userSpaceOnUse">
<stop stop-color="#2F98C1"/>
<stop offset="0.00711923" stop-color="#389DC4"/>
<stop offset="0.0647" stop-color="#7FC2DE"/>
<stop offset="0.1061" stop-color="#ACDAEF"/>
<stop offset="0.1269" stop-color="#BDE3F5"/>
<stop offset="0.1374" stop-color="#B3E0F5"/>
<stop offset="0.1776" stop-color="#94D7F3"/>
<stop offset="0.2215" stop-color="#7ACFF2"/>
<stop offset="0.2697" stop-color="#66C9F1"/>
<stop offset="0.3245" stop-color="#58C4F0"/>
<stop offset="0.3914" stop-color="#4FC2F0"/>
<stop offset="0.5052" stop-color="#4DC1F0"/>
<stop offset="0.5961" stop-color="#50C2F0"/>
<stop offset="0.6672" stop-color="#5AC5F1"/>
<stop offset="0.7315" stop-color="#6BCAF1"/>
<stop offset="0.7919" stop-color="#82D1F2"/>
<stop offset="0.849" stop-color="#A0DAF4"/>
<stop offset="0.8938" stop-color="#BDE3F5"/>
<stop offset="0.9085" stop-color="#B1DDF1"/>
<stop offset="0.935" stop-color="#92CCE5"/>
<stop offset="0.97" stop-color="#60B2D3"/>
<stop offset="1" stop-color="#2F98C1"/>
</linearGradient>
<clipPath id="clip0">
<rect width="80" height="96" fill="white" transform="translate(112 104)"/>
</clipPath>
</defs>
</svg>
