<svg width="323" height="286" viewBox="0 0 323 286" fill="none" xmlns="http://www.w3.org/2000/svg">
<path d="M317 0H6C2.68629 0 0 2.68629 0 6V280C0 283.314 2.68629 286 6 286H317C320.314 286 323 283.314 323 280V6C323 2.68629 320.314 0 317 0Z" fill="#F8F8F8"/>
<path d="M149.611 109.32H157.867V114.504H149.611V122.76H143.995V114.504H135.691V109.32H143.995V101.016H149.611V109.32ZM175.787 106.536C179.403 106.536 182.251 107.624 184.331 109.8C186.379 111.976 187.403 114.68 187.403 117.912C187.403 121.496 186.235 124.36 183.899 126.504C181.531 128.68 178.475 129.768 174.731 129.768C171.531 129.768 168.827 128.952 166.619 127.32C163.003 124.568 161.195 119.592 161.195 112.392C161.195 106.504 162.363 101.976 164.699 98.808C167.035 95.64 170.411 94.056 174.827 94.056C178.123 94.056 180.843 94.904 182.987 96.6C185.131 98.264 186.443 100.584 186.923 103.56H180.827C180.219 100.552 178.235 99.048 174.875 99.048C172.379 99.048 170.507 99.992 169.259 101.88C168.043 103.768 167.371 106.744 167.243 110.808C169.163 107.96 172.011 106.536 175.787 106.536ZM168.251 118.008C168.251 119.928 168.859 121.496 170.075 122.712C171.291 123.928 172.843 124.536 174.731 124.536C176.619 124.536 178.171 123.928 179.387 122.712C180.539 121.528 181.115 119.96 181.115 118.008C181.115 116.088 180.523 114.52 179.339 113.304C178.155 112.088 176.619 111.48 174.731 111.48C172.811 111.48 171.243 112.088 170.027 113.304C168.843 114.52 168.251 116.088 168.251 118.008Z" fill="#929292"/>
<path d="M118.849 166.152H119.521V168C119.169 168.048 118.777 168.072 118.345 168.072C117.577 168.072 117.001 167.936 116.617 167.664C116.249 167.376 116.025 166.928 115.945 166.32C115.113 167.632 113.769 168.288 111.913 168.288C110.553 168.288 109.473 167.968 108.673 167.328C107.889 166.672 107.497 165.768 107.497 164.616C107.497 162.376 109.049 161.096 112.153 160.776L113.977 160.584C114.617 160.504 115.081 160.344 115.369 160.104C115.673 159.848 115.825 159.488 115.825 159.024C115.825 158.4 115.625 157.952 115.225 157.68C114.841 157.392 114.193 157.248 113.281 157.248C112.289 157.248 111.577 157.416 111.145 157.752C110.713 158.072 110.465 158.648 110.401 159.48H108.025C108.201 156.712 109.953 155.328 113.281 155.328C116.545 155.328 118.177 156.544 118.177 158.976V165.528C118.177 165.944 118.401 166.152 118.849 166.152ZM112.273 166.416C113.297 166.416 114.145 166.128 114.817 165.552C115.489 164.976 115.825 164.16 115.825 163.104V161.808C115.521 162.064 115.009 162.232 114.289 162.312L112.561 162.504C111.633 162.616 110.969 162.84 110.569 163.176C110.169 163.496 109.969 163.952 109.969 164.544C109.969 165.136 110.161 165.6 110.545 165.936C110.945 166.256 111.521 166.416 112.273 166.416ZM123.293 168H120.893V150.912H123.293V168ZM128.259 168H125.859V150.912H128.259V168ZM142.712 153.864H140.264V151.296H142.712V153.864ZM142.688 168H140.288V155.616H142.688V168ZM154.35 157.296V150.912H156.75V168H154.446V166.176C153.518 167.584 152.15 168.288 150.342 168.288C148.614 168.288 147.238 167.704 146.214 166.536C145.19 165.368 144.678 163.792 144.678 161.808C144.678 159.824 145.19 158.248 146.214 157.08C147.238 155.912 148.614 155.328 150.342 155.328C152.086 155.328 153.422 155.984 154.35 157.296ZM147.174 161.904C147.174 163.28 147.502 164.344 148.158 165.096C148.814 165.848 149.694 166.224 150.798 166.224C151.934 166.224 152.822 165.832 153.462 165.048C154.102 164.296 154.422 163.216 154.422 161.808C154.422 160.416 154.102 159.328 153.462 158.544C152.822 157.776 151.934 157.392 150.798 157.392C149.694 157.392 148.814 157.792 148.158 158.592C147.502 159.392 147.174 160.496 147.174 161.904ZM170.521 161.904V162.6H161.185C161.297 163.816 161.657 164.736 162.265 165.36C162.873 165.968 163.697 166.272 164.737 166.272C166.305 166.272 167.329 165.584 167.809 164.208H170.233C169.897 165.472 169.241 166.472 168.265 167.208C167.305 167.928 166.113 168.288 164.689 168.288C162.913 168.288 161.481 167.696 160.393 166.512C159.305 165.328 158.761 163.76 158.761 161.808C158.761 159.856 159.305 158.288 160.393 157.104C161.481 155.92 162.897 155.328 164.641 155.328C166.465 155.328 167.905 155.944 168.961 157.176C170.001 158.408 170.521 159.984 170.521 161.904ZM164.641 157.344C163.697 157.344 162.921 157.632 162.313 158.208C161.721 158.784 161.353 159.616 161.209 160.704H168.049C167.937 159.696 167.577 158.888 166.969 158.28C166.377 157.656 165.601 157.344 164.641 157.344ZM178.722 155.328C180.082 155.328 181.146 155.712 181.914 156.48C182.682 157.232 183.066 158.304 183.066 159.696V168H180.666V160.032C180.666 158.304 179.794 157.44 178.05 157.44C177.25 157.44 176.53 157.744 175.89 158.352C175.25 158.976 174.93 159.864 174.93 161.016V168H172.53V155.616H174.834V157.464C175.778 156.04 177.074 155.328 178.722 155.328ZM191.087 155.616V157.584H188.591V165.024C188.591 165.392 188.695 165.664 188.903 165.84C189.127 166 189.495 166.08 190.007 166.08H191.087V168C190.559 168.048 190.071 168.072 189.623 168.072C188.455 168.072 187.591 167.848 187.031 167.4C186.471 166.952 186.191 166.232 186.191 165.24V157.584H184.199V155.616H186.191V152.064H188.591V155.616H191.087ZM195.315 153.864H192.867V151.296H195.315V153.864ZM195.291 168H192.891V155.616H195.291V168ZM203.737 155.616V157.584H201.241V165.024C201.241 165.392 201.345 165.664 201.553 165.84C201.777 166 202.145 166.08 202.657 166.08H203.737V168C203.209 168.048 202.721 168.072 202.273 168.072C201.105 168.072 200.241 167.848 199.681 167.4C199.121 166.952 198.841 166.232 198.841 165.24V157.584H196.849V155.616H198.841V152.064H201.241V155.616H203.737ZM212.07 159.864L213.51 155.616H216.054L211.014 169.56C210.598 170.744 210.046 171.576 209.358 172.056C208.67 172.536 207.694 172.776 206.43 172.776C205.998 172.776 205.582 172.752 205.182 172.704V170.76H206.382C207.454 170.76 208.174 170.264 208.542 169.272C208.574 169.176 208.622 169.024 208.686 168.816C208.766 168.608 208.83 168.448 208.878 168.336L204.294 155.616H206.91L208.35 159.864C209.118 162.232 209.734 164.208 210.198 165.792C210.822 163.76 211.446 161.784 212.07 159.864ZM136.504 185.864H134.056V183.296H136.504V185.864ZM136.48 200H134.08V187.616H136.48V200ZM144.926 187.616V189.584H142.43V197.024C142.43 197.392 142.534 197.664 142.742 197.84C142.966 198 143.334 198.08 143.846 198.08H144.926V200C144.398 200.048 143.91 200.072 143.462 200.072C142.294 200.072 141.43 199.848 140.87 199.4C140.31 198.952 140.03 198.232 140.03 197.24V189.584H138.038V187.616H140.03V184.064H142.43V187.616H144.926ZM157.68 193.904V194.6H148.344C148.456 195.816 148.816 196.736 149.424 197.36C150.032 197.968 150.856 198.272 151.896 198.272C153.464 198.272 154.488 197.584 154.968 196.208H157.392C157.056 197.472 156.4 198.472 155.424 199.208C154.464 199.928 153.272 200.288 151.848 200.288C150.072 200.288 148.64 199.696 147.552 198.512C146.464 197.328 145.92 195.76 145.92 193.808C145.92 191.856 146.464 190.288 147.552 189.104C148.64 187.92 150.056 187.328 151.8 187.328C153.624 187.328 155.064 187.944 156.12 189.176C157.16 190.408 157.68 191.984 157.68 193.904ZM151.8 189.344C150.856 189.344 150.08 189.632 149.472 190.208C148.88 190.784 148.512 191.616 148.368 192.704H155.208C155.096 191.696 154.736 190.888 154.128 190.28C153.536 189.656 152.76 189.344 151.8 189.344ZM173.225 187.328C174.569 187.328 175.617 187.728 176.369 188.528C177.121 189.312 177.497 190.368 177.497 191.696V200H175.073V192.008C175.073 190.296 174.281 189.44 172.697 189.44C171.849 189.44 171.153 189.768 170.609 190.424C170.065 191.064 169.793 191.992 169.793 193.208V200H167.393V192.008C167.393 190.296 166.593 189.44 164.993 189.44C164.145 189.44 163.449 189.768 162.905 190.424C162.361 191.08 162.089 192.008 162.089 193.208V200H159.689V187.616H161.993V189.464C162.841 188.04 164.033 187.328 165.569 187.328C167.441 187.328 168.713 188.104 169.385 189.656C170.265 188.104 171.545 187.328 173.225 187.328ZM184.637 200.312C181.197 200.312 179.389 198.896 179.213 196.064H181.613C181.709 196.928 181.989 197.536 182.453 197.888C182.917 198.24 183.653 198.416 184.661 198.416C186.485 198.416 187.397 197.84 187.397 196.688C187.397 196.192 187.205 195.808 186.821 195.536C186.437 195.264 185.749 195.04 184.757 194.864L183.485 194.624C180.861 194.144 179.549 192.912 179.549 190.928C179.549 189.824 179.973 188.952 180.821 188.312C181.669 187.656 182.837 187.328 184.325 187.328C187.733 187.328 189.477 188.712 189.557 191.48H187.229C187.181 190.648 186.925 190.064 186.461 189.728C185.997 189.376 185.285 189.2 184.325 189.2C183.557 189.2 182.965 189.344 182.549 189.632C182.133 189.92 181.925 190.328 181.925 190.856C181.925 191.336 182.109 191.712 182.477 191.984C182.845 192.24 183.429 192.448 184.229 192.608L185.525 192.824C187.045 193.112 188.141 193.544 188.813 194.12C189.485 194.696 189.821 195.496 189.821 196.52C189.821 197.72 189.365 198.656 188.453 199.328C187.541 199.984 186.269 200.312 184.637 200.312Z" fill="#929292"/>
</svg>
