<svg width="154" height="46" viewBox="0 0 154 46" fill="none" xmlns="http://www.w3.org/2000/svg">
<g clip-path="url(#clip0)">
<path d="M126.581 28.7971L131.196 13.4278L135.821 28.7971H126.581ZM92.7357 33.846H89.8869V12.5661H92.6986C96.9639 12.5661 101.698 14.3461 101.698 23.1523C101.698 30.9659 97.5071 33.846 92.7357 33.846ZM17.669 28.7971L22.3897 13.2422L27.0282 28.7971H17.669ZM139.612 1.52663H123.734L114.66 27.8827C115.086 25.6924 115.155 23.9515 115.155 23.1816C115.155 12.1421 108.861 1.52663 94.0741 1.52663H77.1123L77.1436 27.7498C75.686 20.3016 68.9255 18.291 60.516 15.7256C57.3624 14.7623 55.6352 13.2129 56.2643 11.765C56.8016 10.5087 58.7243 10.114 61.0689 10.4442C64.6367 10.9444 67.4836 12.1519 70.2366 13.6505L73.992 4.31679C73.1401 3.87716 67.0635 0.233154 59.455 0.233154C48.8141 0.233154 42.0419 5.4266 42.0419 13.123C42.0419 19.9655 46.2486 23.9515 53.9646 26.2004C62.2569 28.6017 64.3632 29.5826 64.117 31.9917C63.8903 34.0453 58.7458 36.5697 46.1588 28.7971L42.4307 36.5638L30.8617 1.52663H14.9961L0 45.0867H12.5186L14.4627 38.9222H30.2384L32.0986 45.0867H45.2483L43.7496 40.8292C48.1869 43.4064 53.7047 45.7667 60.2893 45.7667C70.3655 45.7667 75.8189 40.2274 77.1338 34.9128V45.0867H94.0585C104.152 45.0867 109.436 40.245 112.187 35.0672L108.74 45.0867H121.245L123.257 38.9222H139.02L140.835 45.0867H154L139.612 1.52663Z" fill="#7DC242"/>
</g>
<defs>
<clipPath id="clip0">
<rect width="154" height="45.5335" fill="white" transform="translate(0 0.233154)"/>
</clipPath>
</defs>
</svg>
