<svg width="323" height="286" viewBox="0 0 323 286" fill="none" xmlns="http://www.w3.org/2000/svg">
<path d="M317 0H6C2.68629 0 0 2.68629 0 6V280C0 283.314 2.68629 286 6 286H317C320.314 286 323 283.314 323 280V6C323 2.68629 320.314 0 317 0Z" fill="#F8F8F8"/>
<path d="M149.892 125.32H158.148V130.504H149.892V138.76H144.276V130.504H135.972V125.32H144.276V117.016H149.892V125.32ZM181.636 126.856C185.604 128.392 187.588 131.208 187.588 135.304C187.588 138.504 186.388 141.032 183.988 142.888C181.556 144.808 178.292 145.768 174.196 145.768C170.1 145.768 166.852 144.808 164.452 142.888C162.052 141.032 160.852 138.504 160.852 135.304C160.852 131.272 162.82 128.456 166.756 126.856C163.748 125.288 162.244 122.84 162.244 119.512C162.244 116.6 163.348 114.296 165.556 112.6C167.796 110.904 170.676 110.056 174.196 110.056C177.716 110.056 180.596 110.904 182.836 112.6C185.044 114.296 186.148 116.6 186.148 119.512C186.148 122.84 184.644 125.288 181.636 126.856ZM180.244 119.896C180.244 118.328 179.7 117.112 178.612 116.248C177.524 115.384 176.052 114.952 174.196 114.952C172.404 114.952 170.948 115.384 169.828 116.248C168.708 117.112 168.148 118.328 168.148 119.896C168.148 121.4 168.692 122.584 169.78 123.448C170.868 124.312 172.34 124.744 174.196 124.744C176.052 124.744 177.524 124.312 178.612 123.448C179.7 122.584 180.244 121.4 180.244 119.896ZM174.196 140.584C176.404 140.584 178.1 140.088 179.284 139.096C180.5 138.104 181.108 136.712 181.108 134.92C181.108 133.096 180.5 131.688 179.284 130.696C178.068 129.704 176.372 129.208 174.196 129.208C172.02 129.208 170.324 129.704 169.108 130.696C167.892 131.688 167.284 133.096 167.284 134.92C167.284 136.712 167.892 138.104 169.108 139.096C170.324 140.088 172.02 140.584 174.196 140.584Z" fill="#929292"/>
<path d="M110.093 184.288C108.333 184.288 106.909 183.696 105.821 182.512C104.733 181.328 104.189 179.76 104.189 177.808C104.189 175.84 104.733 174.264 105.821 173.08C106.893 171.912 108.317 171.328 110.093 171.328C111.613 171.328 112.861 171.744 113.837 172.576C114.829 173.408 115.421 174.528 115.613 175.936H113.165C113.005 175.12 112.645 174.496 112.085 174.064C111.541 173.632 110.877 173.416 110.093 173.416C109.053 173.416 108.221 173.8 107.597 174.568C106.989 175.32 106.685 176.4 106.685 177.808C106.685 179.216 106.989 180.304 107.597 181.072C108.221 181.824 109.053 182.2 110.093 182.2C110.893 182.2 111.573 181.976 112.133 181.528C112.693 181.08 113.045 180.432 113.189 179.584H115.637C115.445 181.024 114.845 182.168 113.837 183.016C112.829 183.864 111.581 184.288 110.093 184.288ZM128.098 182.152H128.77V184C128.418 184.048 128.026 184.072 127.594 184.072C126.826 184.072 126.25 183.936 125.866 183.664C125.498 183.376 125.274 182.928 125.194 182.32C124.362 183.632 123.018 184.288 121.162 184.288C119.802 184.288 118.722 183.968 117.922 183.328C117.138 182.672 116.746 181.768 116.746 180.616C116.746 178.376 118.298 177.096 121.402 176.776L123.226 176.584C123.866 176.504 124.33 176.344 124.618 176.104C124.922 175.848 125.074 175.488 125.074 175.024C125.074 174.4 124.874 173.952 124.474 173.68C124.09 173.392 123.442 173.248 122.53 173.248C121.538 173.248 120.826 173.416 120.394 173.752C119.962 174.072 119.714 174.648 119.65 175.48H117.274C117.45 172.712 119.202 171.328 122.53 171.328C125.794 171.328 127.426 172.544 127.426 174.976V181.528C127.426 181.944 127.65 182.152 128.098 182.152ZM121.522 182.416C122.546 182.416 123.394 182.128 124.066 181.552C124.738 180.976 125.074 180.16 125.074 179.104V177.808C124.77 178.064 124.258 178.232 123.538 178.312L121.81 178.504C120.882 178.616 120.218 178.84 119.818 179.176C119.418 179.496 119.218 179.952 119.218 180.544C119.218 181.136 119.41 181.6 119.794 181.936C120.194 182.256 120.77 182.416 121.522 182.416ZM143.772 171.328C145.116 171.328 146.164 171.728 146.916 172.528C147.668 173.312 148.044 174.368 148.044 175.696V184H145.62V176.008C145.62 174.296 144.828 173.44 143.244 173.44C142.396 173.44 141.7 173.768 141.156 174.424C140.612 175.064 140.34 175.992 140.34 177.208V184H137.94V176.008C137.94 174.296 137.14 173.44 135.54 173.44C134.692 173.44 133.996 173.768 133.452 174.424C132.908 175.08 132.636 176.008 132.636 177.208V184H130.236V171.616H132.54V173.464C133.388 172.04 134.58 171.328 136.116 171.328C137.988 171.328 139.26 172.104 139.932 173.656C140.812 172.104 142.092 171.328 143.772 171.328ZM157.033 171.328C158.761 171.328 160.137 171.912 161.161 173.08C162.185 174.248 162.697 175.824 162.697 177.808C162.697 179.776 162.185 181.344 161.161 182.512C160.121 183.696 158.745 184.288 157.033 184.288C155.273 184.288 153.929 183.616 153.001 182.272V188.704H150.601V171.616H152.905V173.488C153.833 172.048 155.209 171.328 157.033 171.328ZM153.937 181.048C154.577 181.832 155.457 182.224 156.577 182.224C157.697 182.224 158.585 181.824 159.241 181.024C159.881 180.24 160.201 179.136 160.201 177.712C160.201 176.336 159.881 175.272 159.241 174.52C158.601 173.768 157.713 173.392 156.577 173.392C155.473 173.392 154.593 173.776 153.937 174.544C153.281 175.344 152.953 176.432 152.953 177.808C152.953 179.184 153.281 180.264 153.937 181.048ZM175.152 182.152H175.824V184C175.472 184.048 175.08 184.072 174.648 184.072C173.88 184.072 173.304 183.936 172.92 183.664C172.552 183.376 172.328 182.928 172.248 182.32C171.416 183.632 170.072 184.288 168.216 184.288C166.856 184.288 165.776 183.968 164.976 183.328C164.192 182.672 163.8 181.768 163.8 180.616C163.8 178.376 165.352 177.096 168.456 176.776L170.28 176.584C170.92 176.504 171.384 176.344 171.672 176.104C171.976 175.848 172.128 175.488 172.128 175.024C172.128 174.4 171.928 173.952 171.528 173.68C171.144 173.392 170.496 173.248 169.584 173.248C168.592 173.248 167.88 173.416 167.448 173.752C167.016 174.072 166.768 174.648 166.704 175.48H164.328C164.504 172.712 166.256 171.328 169.584 171.328C172.848 171.328 174.48 172.544 174.48 174.976V181.528C174.48 181.944 174.704 182.152 175.152 182.152ZM168.576 182.416C169.6 182.416 170.448 182.128 171.12 181.552C171.792 180.976 172.128 180.16 172.128 179.104V177.808C171.824 178.064 171.312 178.232 170.592 178.312L168.864 178.504C167.936 178.616 167.272 178.84 166.872 179.176C166.472 179.496 166.272 179.952 166.272 180.544C166.272 181.136 166.464 181.6 166.848 181.936C167.248 182.256 167.824 182.416 168.576 182.416ZM179.621 169.864H177.173V167.296H179.621V169.864ZM179.597 184H177.197V171.616H179.597V184ZM191.355 173.368V171.616H193.659V183.544C193.659 185.24 193.147 186.568 192.123 187.528C191.099 188.504 189.643 188.992 187.755 188.992C186.139 188.992 184.851 188.624 183.891 187.888C182.947 187.152 182.411 186.144 182.283 184.864H184.683C184.875 186.32 185.907 187.048 187.779 187.048C190.099 187.048 191.259 185.896 191.259 183.592V182.224C190.315 183.504 188.987 184.144 187.275 184.144C185.547 184.144 184.171 183.56 183.147 182.392C182.107 181.208 181.587 179.656 181.587 177.736C181.587 175.816 182.107 174.264 183.147 173.08C184.171 171.912 185.539 171.328 187.251 171.328C189.059 171.328 190.427 172.008 191.355 173.368ZM187.707 182.08C188.827 182.08 189.707 181.696 190.347 180.928C191.003 180.144 191.331 179.08 191.331 177.736C191.331 176.392 191.003 175.336 190.347 174.568C189.707 173.784 188.827 173.392 187.707 173.392C186.603 173.392 185.723 173.784 185.067 174.568C184.411 175.352 184.083 176.408 184.083 177.736C184.083 179.08 184.411 180.144 185.067 180.928C185.723 181.696 186.603 182.08 187.707 182.08ZM202.438 171.328C203.798 171.328 204.862 171.712 205.63 172.48C206.398 173.232 206.782 174.304 206.782 175.696V184H204.382V176.032C204.382 174.304 203.51 173.44 201.766 173.44C200.966 173.44 200.246 173.744 199.606 174.352C198.966 174.976 198.646 175.864 198.646 177.016V184H196.246V171.616H198.55V173.464C199.494 172.04 200.79 171.328 202.438 171.328ZM213.952 184.312C210.512 184.312 208.704 182.896 208.528 180.064H210.928C211.024 180.928 211.304 181.536 211.768 181.888C212.232 182.24 212.968 182.416 213.976 182.416C215.8 182.416 216.712 181.84 216.712 180.688C216.712 180.192 216.52 179.808 216.136 179.536C215.752 179.264 215.064 179.04 214.072 178.864L212.8 178.624C210.176 178.144 208.864 176.912 208.864 174.928C208.864 173.824 209.288 172.952 210.136 172.312C210.984 171.656 212.152 171.328 213.64 171.328C217.048 171.328 218.792 172.712 218.872 175.48H216.544C216.496 174.648 216.24 174.064 215.776 173.728C215.312 173.376 214.6 173.2 213.64 173.2C212.872 173.2 212.28 173.344 211.864 173.632C211.448 173.92 211.24 174.328 211.24 174.856C211.24 175.336 211.424 175.712 211.792 175.984C212.16 176.24 212.744 176.448 213.544 176.608L214.84 176.824C216.36 177.112 217.456 177.544 218.128 178.12C218.8 178.696 219.136 179.496 219.136 180.52C219.136 181.72 218.68 182.656 217.768 183.328C216.856 183.984 215.584 184.312 213.952 184.312Z" fill="#929292"/>
</svg>
