<svg width="164" height="30" viewBox="0 0 164 30" fill="none" xmlns="http://www.w3.org/2000/svg">
<g clip-path="url(#clip0)">
<path d="M132.405 1.12722C132.461 1.06375 132.539 1.02469 132.623 1.01855C132.651 1.02029 132.678 1.02764 132.703 1.04016C132.728 1.05267 132.75 1.07009 132.768 1.09138C132.786 1.11266 132.799 1.13737 132.807 1.16401C132.816 1.19065 132.818 1.21868 132.816 1.24641C132.81 1.33446 132.771 1.41707 132.707 1.47777C129.829 5.05681 127.736 9.2423 127.736 15.0473C127.736 20.8523 129.839 24.9501 132.707 28.5292C132.771 28.5899 132.81 28.6725 132.816 28.7605C132.818 28.7883 132.816 28.8163 132.807 28.8429C132.799 28.8696 132.786 28.8943 132.768 28.9156C132.75 28.9369 132.728 28.9543 132.703 28.9668C132.678 28.9793 132.651 28.9867 132.623 28.9884C132.581 28.9855 132.54 28.9745 132.503 28.9558C132.466 28.9372 132.433 28.9113 132.405 28.8797L120.136 17.0138C119.825 16.78 119.572 16.477 119.398 16.1287C119.224 15.7803 119.134 15.3963 119.134 15.007C119.134 14.6176 119.224 14.2336 119.398 13.8853C119.572 13.537 119.825 13.234 120.136 13.0001L132.405 1.13073" fill="#ED1C24"/>
<path d="M141.831 0.121216C137.029 0.121216 135.153 6.92877 135.153 15.0438C135.153 23.1589 137.029 29.8788 141.831 29.8788C144.713 29.8788 147.17 28.1892 147.18 26.8011C147.179 26.6419 147.146 26.4846 147.082 26.3387C147.018 26.1929 146.925 26.0616 146.809 25.9527C145.442 24.6347 144.909 23.3132 144.902 22.1494C144.902 19.9269 146.823 18.2723 148.6 18.2723C151.054 18.2723 152.484 20.1933 152.484 22.6787C152.484 25.0343 151.478 27.0009 150.381 28.5713C150.34 28.6299 150.318 28.6996 150.318 28.7711C150.314 28.7979 150.316 28.8251 150.324 28.8511C150.331 28.8771 150.344 28.9013 150.361 28.9223C150.378 28.9433 150.399 28.9606 150.423 28.9731C150.447 28.9857 150.473 28.9933 150.5 28.9955C150.588 28.986 150.67 28.9434 150.728 28.8763L162.997 17.0104C163.308 16.7766 163.561 16.4735 163.735 16.1252C163.909 15.7769 163.999 15.3929 163.999 15.0035C163.999 14.6142 163.909 14.2302 163.735 13.8819C163.561 13.5335 163.308 13.2305 162.997 12.9967L150.728 1.12727C150.67 1.06012 150.588 1.01752 150.5 1.00809C150.388 1.00809 150.318 1.10975 150.318 1.23594C150.318 1.30742 150.34 1.37714 150.381 1.43575C151.471 3.00619 152.484 4.96923 152.484 7.32488C152.484 9.81023 151.043 11.7347 148.6 11.7347C146.823 11.7347 144.895 10.0766 144.902 7.8542C144.902 6.6939 145.442 5.37235 146.809 4.05081C146.925 3.94185 147.018 3.81051 147.082 3.6647C147.145 3.5189 147.179 3.36166 147.18 3.20249C147.18 1.80032 144.727 0.124721 141.831 0.124721" fill="#005BAB"/>
<path d="M16.3792 20.0672C16.3682 19.499 16.4955 18.9366 16.7501 18.4285C17.0048 17.9204 17.3792 17.4819 17.841 17.1507C18.9279 16.4186 20.2191 16.0504 21.5287 16.099C22.3994 16.0882 23.2642 16.2428 24.0771 16.5547V15.1526C24.0561 13.7504 23.5268 12.9582 21.9529 12.9406C21.4466 12.9576 20.9452 13.0449 20.463 13.2C20.5157 13.398 20.5439 13.6017 20.5472 13.8065C20.5576 14.2511 20.4041 14.684 20.116 15.0229C19.9635 15.1898 19.7769 15.3219 19.5688 15.4102C19.3608 15.4985 19.1361 15.541 18.9101 15.5347C18.6985 15.5324 18.4895 15.4884 18.2949 15.4052C18.1003 15.322 17.9241 15.2012 17.7763 15.0498C17.6284 14.8984 17.5119 14.7193 17.4334 14.5228C17.3549 14.3263 17.3159 14.1162 17.3187 13.9046C17.3397 12.2045 19.4009 11.0617 22.1562 11.0582C24.3436 11.0582 25.7142 11.577 26.4503 12.52C27.1164 13.3683 27.1514 14.6022 27.1514 16.3479V20.905C27.1514 21.7849 27.6632 22.0232 28.7569 22.195H28.8831V22.3212C28.82 23.52 27.9366 24.0178 26.9902 24.0914C26.9095 24.0914 26.8254 24.0914 26.7448 24.0914C26.2725 24.1045 25.8068 23.9786 25.4055 23.7293C25.0041 23.4801 24.6849 23.1184 24.4873 22.6893C23.4778 23.5575 22.2006 24.0525 20.8697 24.0914C18.3282 24.0914 16.3967 22.3738 16.3932 20.0251L16.3792 20.0672ZM94.4242 23.499C94.1973 23.1384 94.0425 22.7372 93.9685 22.3177C93.8423 22.4614 93.695 22.6121 93.4672 22.8295C92.6154 23.636 91.4854 24.083 90.3123 24.0774C89.7119 24.0971 89.1144 23.9849 88.5621 23.7487C88.0097 23.5125 87.5159 23.158 87.1153 22.7103C86.0041 21.3817 86.0111 19.6991 86.0111 17.3084V15.0053C85.9866 14.0729 85.6956 13.7539 84.8298 13.7329C84.7127 13.7337 84.5957 13.7407 84.4793 13.7539H84.3776L84.339 13.6558C84.2738 13.4978 84.2393 13.3289 84.2374 13.158C84.2654 12.0433 85.6746 11.4473 86.5019 11.2756C86.775 11.2249 87.0516 11.1944 87.3292 11.1844C87.6069 11.1637 87.8857 11.2078 88.1436 11.313C88.4015 11.4182 88.6315 11.5818 88.8155 11.7909C89.1337 12.2424 89.2883 12.789 89.2537 13.3403L89.2326 17.2734C89.2326 18.7246 89.3343 19.8113 89.6568 20.5124C89.9793 21.2135 90.4735 21.5325 91.378 21.5395C91.7702 21.5648 92.1617 21.4797 92.5081 21.2938C92.8544 21.1079 93.1418 20.8287 93.3375 20.4878C93.7089 19.7775 93.8878 18.9822 93.8563 18.1813V14.9983C93.8318 14.0659 93.5373 13.7469 92.675 13.7259C92.5578 13.7266 92.4408 13.7336 92.3244 13.7469H92.2193L92.1807 13.6487C92.1132 13.5088 92.0705 13.3581 92.0545 13.2036C92.0825 12.0888 93.4917 11.4929 94.3225 11.3211C94.5956 11.2704 94.8722 11.2399 95.1498 11.23C95.428 11.2096 95.7073 11.2537 95.9657 11.3589C96.2241 11.4641 96.4547 11.6275 96.6396 11.8364C96.9606 12.2867 97.1166 12.8339 97.0813 13.3858C97.0813 13.838 97.0392 14.6373 97.0392 17.9885C97.0392 19.3906 97.0147 20.1583 97.0147 20.3862C97.0357 21.3502 97.3652 21.7884 98.2556 21.7884C98.3503 21.7884 98.4484 21.7884 98.5606 21.7884H98.6622L98.7008 21.8865C98.7651 22.0399 98.7996 22.204 98.8025 22.3703C98.7674 23.4569 97.3547 23.8951 96.5344 24.0564C96.2786 24.1041 96.0197 24.1334 95.7597 24.144C95.5061 24.1637 95.2516 24.1194 95.0195 24.0153C94.7874 23.9112 94.5852 23.7506 94.4312 23.5481L94.4242 23.499ZM49.7194 17.8027C49.6625 16.0242 50.2898 14.2915 51.4721 12.9617C52.0698 12.3397 52.7906 11.8492 53.5885 11.5214C54.3865 11.1937 55.244 11.0359 56.1063 11.0582C56.8232 11.0298 57.5379 11.1546 58.2029 11.4242C58.8678 11.6937 59.4676 12.102 59.9623 12.6216C60.7595 13.5015 61.2028 14.6453 61.2067 15.8326C61.2169 16.443 61.0722 17.0461 60.786 17.5853L60.7475 17.6555H53.0215C53.1512 19.9094 54.5849 21.4869 57.0843 21.5114C57.669 21.5154 58.2481 21.3975 58.7847 21.1651C59.3213 20.9327 59.8035 20.591 60.2006 20.1618L60.2848 20.0567L60.3934 20.1373C60.5499 20.2531 60.6742 20.4069 60.7546 20.5842C60.835 20.7615 60.8687 20.9564 60.8526 21.1504C60.8526 22.4509 59.3208 24.116 55.945 24.116C55.1203 24.116 54.3039 23.9523 53.543 23.6341C52.7821 23.316 52.092 22.8499 51.5128 22.2629C50.9336 21.6758 50.4768 20.9795 50.1689 20.2145C49.861 19.4494 49.7082 18.6308 49.7194 17.8062V17.8027ZM77.1774 24.0984C76.3466 24.1088 75.522 23.9549 74.7508 23.6457C73.9796 23.3365 73.277 22.8781 72.6835 22.2966C72.0719 21.6718 71.5916 20.9308 71.2707 20.1175C70.9499 19.3042 70.7949 18.4349 70.8151 17.5608C70.8034 16.7066 70.9625 15.8587 71.2833 15.0669C71.604 14.2752 72.0798 13.5555 72.6828 12.9503C73.2857 12.3451 74.0035 11.8666 74.794 11.5429C75.5846 11.2191 76.4319 11.0567 77.2861 11.0652C78.1304 11.0425 78.9708 11.189 79.7576 11.496C80.5444 11.8031 81.2619 12.2645 81.8677 12.853C82.7971 13.7714 83.4308 14.9465 83.6875 16.2276C83.9443 17.5087 83.8123 18.8373 83.3086 20.0428C82.8049 21.2484 81.9525 22.2759 80.8606 22.9936C79.7688 23.7112 78.4874 24.0862 77.1809 24.0704L77.1774 24.0984ZM100.92 23.7198C100.38 23.5726 100.033 23.2782 100.036 22.833C100.045 22.6365 100.095 22.4441 100.184 22.2686L100.212 22.2055H100.278C100.586 22.1451 100.875 22.0144 101.123 21.8234C101.446 21.5605 101.568 21.1924 101.568 20.1583V14.9317C101.544 14.0554 101.344 13.7504 100.615 13.7294C100.42 13.7325 100.227 13.7537 100.036 13.7925L99.9242 13.8135L99.8821 13.7083C99.8104 13.5311 99.7724 13.3421 99.77 13.151C99.7875 12.0993 100.927 11.5735 101.691 11.3352C101.97 11.2461 102.26 11.1988 102.553 11.1949C103.605 11.1949 104.159 11.9416 104.397 12.9021C105.077 11.7839 106.15 11.0442 107.233 11.0407C108.239 11.0407 109.249 11.6997 109.252 12.9477C109.27 13.4097 109.105 13.8601 108.792 14.2009C108.48 14.5417 108.045 14.7451 107.584 14.767C107.211 14.7756 106.847 14.6544 106.554 14.4241C106.261 14.1939 106.058 13.869 105.978 13.505C105.389 13.6978 104.555 14.441 104.548 17.0105V20.1653C104.548 21.1959 104.695 21.5675 104.986 21.8269C105.336 22.0242 105.72 22.1538 106.118 22.209H106.185L106.213 22.2721C106.31 22.4616 106.365 22.6696 106.374 22.8821C106.374 23.3027 106.062 23.5831 105.557 23.7304C104.813 23.8995 104.049 23.9691 103.286 23.9372C102.491 23.9671 101.696 23.8941 100.92 23.7198ZM63.4116 23.7198C62.8718 23.5726 62.5212 23.2747 62.5212 22.8295C62.5279 22.6343 62.5769 22.4429 62.665 22.2686L62.693 22.2055H62.7631C63.073 22.1451 63.3653 22.0157 63.6184 21.8269C63.9304 21.5605 64.0566 21.1924 64.0636 20.1618V13.2982L62.2268 13.2351L62.1952 13.1545C62.1061 12.9509 62.0584 12.7317 62.055 12.5095C62.0538 12.359 62.0835 12.2099 62.142 12.0714C62.2005 11.9328 62.2868 11.8076 62.3954 11.7036C62.5041 11.5995 62.6329 11.5187 62.7738 11.4662C62.9148 11.4137 63.0651 11.3906 63.2153 11.3983H64.011V10.6411C64.011 8.81124 64.3616 7.77013 64.8173 7.07255C65.5184 5.96133 66.7768 5.19714 68.6733 5.19714C71.0535 5.19714 73.0515 6.30486 73.0621 8.08562C73.0695 8.3087 73.0323 8.53102 72.9525 8.73948C72.8727 8.94794 72.752 9.13831 72.5975 9.29938C72.4429 9.46044 72.2577 9.58894 72.0528 9.67729C71.8478 9.76564 71.6272 9.81205 71.404 9.8138C70.9819 9.80763 70.5784 9.63862 70.278 9.34207C69.9775 9.04551 69.8032 8.64434 69.7915 8.22233C69.7957 7.90114 69.8905 7.58767 70.0649 7.31793C69.7199 7.07258 69.303 6.94923 68.8801 6.96739C68.1404 6.96739 67.7373 7.22679 67.4779 7.65095C67.2116 8.19508 67.0908 8.79895 67.1274 9.40366V11.3702H70.2823L70.3173 11.4543C70.4066 11.6626 70.4531 11.8867 70.454 12.1134C70.4644 12.4233 70.3564 12.7255 70.1519 12.9586C69.9475 13.1917 69.6619 13.3382 69.3533 13.3683C69.1202 13.3882 68.8862 13.3964 68.6522 13.3928C68.1264 13.3928 67.6006 13.3543 67.222 13.3473V20.1338C67.222 21.1609 67.3938 21.536 67.7058 21.7954C68.0177 22.0548 68.7574 22.1459 68.9923 22.1775H69.0589L69.0869 22.2441C69.1671 22.4056 69.2114 22.5826 69.2166 22.7629C69.2166 23.2326 68.8345 23.527 68.2561 23.6848C67.4443 23.8662 66.6126 23.9428 65.7813 23.9126C64.983 23.943 64.1841 23.87 63.4046 23.6953L63.4116 23.7198ZM41.3905 23.6953C40.8541 23.5481 40.5071 23.2536 40.5106 22.8084C40.5201 22.6133 40.5702 22.4222 40.6578 22.2476L40.6859 22.1845H40.756C41.0659 22.1241 41.3582 21.9947 41.6113 21.8059C41.9233 21.5395 42.053 21.1714 42.0565 20.1408V14.9317C42.032 14.0554 41.8252 13.7504 41.0995 13.7294C40.9052 13.7325 40.7116 13.7537 40.5211 13.7925L40.409 13.8135L40.3669 13.7083C40.2919 13.5283 40.2526 13.3355 40.2512 13.1405C40.2687 12.0888 41.408 11.5735 42.1792 11.3352C42.4534 11.2466 42.7394 11.1993 43.0275 11.1949C44.0791 11.1949 44.64 11.9311 44.8854 12.8775C45.5865 11.7733 46.6591 11.0442 47.7283 11.0372C48.7203 11.0372 49.7404 11.6927 49.7439 12.9406C49.7619 13.405 49.5948 13.8575 49.2793 14.1987C48.9638 14.5398 48.5257 14.7417 48.0613 14.76C47.6904 14.7687 47.3282 14.6472 47.0374 14.4167C46.7467 14.1862 46.5459 13.8611 46.4699 13.498C45.8739 13.6943 45.0291 14.434 45.0186 17.0034V20.1583C45.0186 21.1889 45.1728 21.5605 45.4813 21.8199C45.8288 22.0203 46.2124 22.1501 46.6101 22.202H46.6767L46.7082 22.2651C46.8018 22.4529 46.8544 22.6584 46.8625 22.868C46.8625 23.2887 46.5505 23.5691 46.0422 23.7198C45.2953 23.8902 44.5291 23.961 43.7637 23.9302C42.9689 23.9603 42.1735 23.8872 41.3975 23.7128L41.3905 23.6953ZM30.9934 23.7128C30.457 23.5656 30.1135 23.2712 30.1135 22.826C30.1212 22.631 30.1702 22.4398 30.2572 22.2651L30.2853 22.202H30.3554C30.6653 22.1416 30.9576 22.0122 31.2107 21.8234C31.5227 21.557 31.6524 21.1889 31.6559 20.1583V14.9317C31.6278 14.0554 31.4245 13.7504 30.6954 13.7294C30.5011 13.7325 30.3074 13.7537 30.117 13.7925L30.0048 13.8135L29.9628 13.7083C29.8878 13.5283 29.8485 13.3355 29.8471 13.1405C29.8646 12.0888 31.0039 11.5735 31.7751 11.3352C32.0482 11.2468 32.3329 11.1995 32.6199 11.1949C33.6715 11.1949 34.2324 11.9311 34.4778 12.874C35.1789 11.7733 36.2515 11.0442 37.3207 11.0372C38.3127 11.0372 39.3363 11.6927 39.3398 12.9441C39.3578 13.4085 39.1907 13.861 38.8752 14.2022C38.5596 14.5433 38.1215 14.7452 37.6572 14.7635C37.2864 14.7715 36.9245 14.6498 36.634 14.4194C36.3434 14.189 36.1424 13.8643 36.0657 13.5015C35.4698 13.6978 34.625 14.4375 34.618 17.0069V20.1618C34.618 21.1924 34.7687 21.564 35.0807 21.8234C35.428 22.0241 35.8116 22.154 36.2094 22.2055H36.2796L36.3076 22.2686C36.4026 22.456 36.4564 22.6616 36.4653 22.8715C36.4653 23.2922 36.1499 23.5726 35.6416 23.7234C34.8947 23.8938 34.1285 23.9646 33.363 23.9337C32.5682 23.9636 31.7729 23.8906 30.9969 23.7163L30.9934 23.7128ZM74.3801 17.2068C74.3801 20.6245 75.8734 22.0968 77.3317 22.1144C78.9968 22.1144 80.2026 20.6421 80.2132 17.7641C80.2132 16.2603 79.8801 15.0579 79.3368 14.2587C79.1165 13.8847 78.8039 13.5735 78.4289 13.355C78.0538 13.1365 77.629 13.0179 77.195 13.0108C75.4633 13.0108 74.3906 14.5777 74.3906 17.2383L74.3801 17.2068ZM22.1001 17.9604C20.726 17.9604 19.804 18.6194 19.797 19.8954C19.797 21.1013 20.6173 21.911 21.9003 21.9181C22.3279 21.9025 22.747 21.7945 23.1288 21.6014C23.5107 21.4084 23.8461 21.1349 24.1122 20.7998V19.0471C24.0949 18.8978 24.0401 18.7553 23.9531 18.6328C23.8661 18.5102 23.7496 18.4116 23.6144 18.346C23.151 18.0935 22.6274 17.9723 22.1001 17.9955V17.9604ZM57.6522 15.9273C57.8976 15.9273 57.9642 15.8677 58.0027 15.7871C58.0559 15.6414 58.0763 15.4858 58.0623 15.3313C58.0582 15.0253 57.9935 14.723 57.8719 14.4421C57.7504 14.1611 57.5743 13.907 57.354 13.6945C57.1337 13.482 56.8734 13.3153 56.5882 13.2039C56.3031 13.0926 55.9987 13.0388 55.6926 13.0458C53.9014 13.0458 53.1757 14.4795 53.0636 15.9273H57.6382H57.6522ZM2.49069 21.8515C0.979847 20.3021 0.00533664 18.0375 0.00533664 15.2192C-0.0421454 12.796 0.835288 10.4457 2.45914 8.64649C3.17447 7.85967 4.04479 7.22928 5.01543 6.79494C5.98606 6.36059 7.03603 6.13168 8.09938 6.12258C11.9238 6.12258 14.623 8.80423 14.637 11.1178C14.637 12.3552 13.8518 13.3122 12.7932 13.3157C12.2869 13.3237 11.7966 13.1381 11.4225 12.7969C11.231 12.6109 11.0803 12.3871 10.9801 12.1396C10.8799 11.8922 10.8324 11.6265 10.8406 11.3597C10.8464 11.0831 10.9066 10.8104 11.0179 10.5572C11.1292 10.304 11.2893 10.0752 11.4891 9.88391C10.9703 8.99703 9.97479 8.29595 8.41487 8.29595C7.08982 8.29595 5.96107 8.99703 5.16884 10.1959C4.37661 11.3947 3.88936 13.144 3.88936 15.2016C3.88936 17.2593 4.38362 18.984 5.2109 20.1899C6.03819 21.3957 7.17745 22.0793 8.50251 22.0828C10.0624 22.0828 11.058 21.3817 11.5592 20.4913C11.1586 20.1062 10.9268 19.5781 10.9142 19.0226C10.9064 18.7552 10.9541 18.4892 11.0542 18.2412C11.1544 17.9933 11.3049 17.7687 11.4961 17.5818C11.8701 17.24 12.3601 17.0532 12.8668 17.0595C13.9184 17.0595 14.7071 18.013 14.7106 19.2469C14.7106 21.571 11.9974 24.2351 8.17299 24.2457C7.11325 24.2475 6.06392 24.0366 5.08723 23.6253C4.11054 23.214 3.22638 22.6108 2.48718 21.8515H2.49069ZM2.48718 21.8515C0.976342 20.3021 0.00183121 18.0375 0.00183121 15.2192C-0.0456509 12.796 0.831783 10.4457 2.45563 8.64649C3.17096 7.85966 4.04128 7.22928 5.01192 6.79494C5.98256 6.36059 7.03253 6.13168 8.09587 6.12258C11.9203 6.12258 14.6195 8.80423 14.6335 11.1178C14.6335 12.3552 13.8483 13.3122 12.7896 13.3157C12.2834 13.3237 11.7931 13.1381 11.419 12.7969C11.2275 12.6109 11.0768 12.3871 10.9766 12.1396C10.8764 11.8922 10.8289 11.6265 10.8371 11.3597C10.8429 11.0831 10.9031 10.8104 11.0144 10.5572C11.1257 10.304 11.2858 10.0752 11.4856 9.88391C10.9703 8.99703 9.97479 8.29595 8.41487 8.29595C7.08982 8.29595 5.96107 8.99703 5.16884 10.1959C4.37661 11.3947 3.88936 13.144 3.88936 15.2016C3.88936 17.2593 4.38362 18.984 5.2109 20.1899C6.03819 21.3957 7.17745 22.0793 8.50251 22.0828C10.0624 22.0828 11.058 21.3817 11.5592 20.4913C11.1586 20.1062 10.9268 19.5781 10.9142 19.0226C10.9064 18.7552 10.9541 18.4892 11.0542 18.2412C11.1544 17.9933 11.3049 17.7687 11.4961 17.5818C11.8701 17.24 12.3601 17.0532 12.8668 17.0595C13.9184 17.0595 14.7071 18.013 14.7106 19.2469C14.7106 21.571 11.9974 24.2351 8.17299 24.2457C7.11325 24.2475 6.06392 24.0366 5.08723 23.6253C4.11054 23.214 3.22638 22.6108 2.48718 21.8515ZM2.48718 21.8515C0.976342 20.3021 0.00183121 18.0375 0.00183121 15.2192C-0.0456509 12.796 0.831783 10.4457 2.45563 8.64649C3.17096 7.85966 4.04128 7.22928 5.01192 6.79494C5.98256 6.36059 7.03253 6.13168 8.09587 6.12258C11.9203 6.12258 14.6195 8.80423 14.6335 11.1178C14.6335 12.3552 13.8483 13.3122 12.7896 13.3157C12.2834 13.3237 11.7931 13.1381 11.419 12.7969C11.2275 12.6109 11.0768 12.3871 10.9766 12.1396C10.8764 11.8922 10.8289 11.6265 10.8371 11.3597C10.8429 11.0831 10.9031 10.8104 11.0144 10.5572C11.1257 10.304 11.2858 10.0752 11.4856 9.88391C10.9703 8.99703 9.97479 8.29595 8.41487 8.29595C7.08982 8.29595 5.96107 8.99703 5.16884 10.1959C4.37661 11.3947 3.88936 13.144 3.88936 15.2016C3.88936 17.2593 4.38362 18.984 5.2109 20.1899C6.03819 21.3957 7.17745 22.0793 8.50251 22.0828C10.0624 22.0828 11.058 21.3817 11.5592 20.4913C11.1586 20.1062 10.9268 19.5781 10.9142 19.0226C10.9064 18.7552 10.9541 18.4892 11.0542 18.2412C11.1544 17.9933 11.3049 17.7687 11.4961 17.5818C11.8701 17.24 12.3601 17.0532 12.8668 17.0595C13.9184 17.0595 14.7071 18.013 14.7106 19.2469C14.7106 21.571 11.9974 24.2351 8.17299 24.2457C7.11325 24.2475 6.06392 24.0366 5.08723 23.6253C4.11054 23.214 3.22638 22.6108 2.48718 21.8515Z" fill="#005BAB"/>
</g>
<defs>
<clipPath id="clip0">
<rect width="164" height="29.7576" fill="white" transform="translate(0 0.121216)"/>
</clipPath>
</defs>
</svg>
