<svg width="160" height="48" viewBox="0 0 160 48" fill="none" xmlns="http://www.w3.org/2000/svg">
<path d="M157.563 11.1557C154.83 7.84206 150.008 5.94184 144.336 5.94184C138.335 5.94184 132.933 7.98239 129.192 11.2943L129.802 7.47076L128.18 6.9882C125.883 6.30374 123.334 5.94184 120.806 5.94184C116.461 5.94184 112.306 7.2851 108.95 9.49847L109.916 6.31574H83.9374L83.6293 7.33215C81.321 6.40385 78.7817 5.94184 75.9207 5.94184C70.5725 5.94184 64.7837 8.01747 61.7781 12.0138C61.5813 11.7212 61.3751 11.4329 61.1458 11.1557C58.4122 7.84206 53.5911 5.94184 47.9186 5.94184C42.0956 5.94184 36.8296 7.86176 33.1044 11.0034L34.5546 2.18673L32.9068 1.7102C30.0928 0.896548 26.9657 0.466187 23.8625 0.466187C12.4783 0.466187 2.11646 7.70261 0.273555 16.9394C-0.511004 20.869 0.405314 24.6754 2.85139 27.6588C4.93642 30.2007 8.01562 32.0128 11.674 32.9386H0.395045V47.3652H57.8475L57.9365 47.189L57.9476 47.3652H64.8632L65.801 45.8363L65.5109 47.3652H81.1465L81.3758 46.1597C82.7498 47.0495 84.5337 47.5329 86.5879 47.5329C88.424 47.5329 90.1274 47.1522 91.5956 46.4754L91.427 47.3652H113.349L113.387 47.1693C114.403 47.3986 115.471 47.5338 116.491 47.5338C117.11 47.5338 117.749 47.4781 118.384 47.3661H126.742L127.362 46.0493H127.919L128.089 47.3661H153.868L155.149 40.6156H154.679L154.855 39.6882H155.192L156.475 32.9386H155.762C156.344 32.4124 156.767 31.7365 156.913 30.9673C157.086 30.0536 156.849 29.1236 156.263 28.4169C156.111 28.2338 155.936 28.0729 155.748 27.9283C157.793 25.8279 159.211 23.286 159.762 20.4284C160.435 16.9231 159.676 13.7164 157.563 11.1557ZM142.648 40.1108H141.857L143.051 33.8344C143.323 33.7993 143.595 33.7599 143.863 33.7171L142.648 40.1108ZM124.199 19.6934C124.117 20.1127 124.06 20.5268 124.018 20.9349C122.279 22.0985 120.649 22.6486 118.905 22.6486C117.726 22.6486 116.704 22.2636 116.173 21.6185C115.87 21.2523 115.768 20.8425 115.862 20.3659C116.173 18.7583 118.354 17.3483 120.528 17.3483C121.888 17.3483 123.166 17.8292 124.42 18.8131C124.342 19.1048 124.255 19.3949 124.199 19.6934ZM125.96 32.9377L125.111 34.3366L124.405 33.9413C123.94 33.6804 123.442 33.4793 122.927 33.3047C123.304 33.2149 123.656 33.1139 123.962 33.0027L124.952 32.6434L125.925 28.3784C126.056 28.5615 126.181 28.7488 126.327 28.9251C127.795 30.7038 129.91 32.0642 132.464 32.9368L125.96 32.9377ZM134.569 33.5281L134.231 35.3034L133.762 33.3313C134.028 33.4006 134.295 33.4682 134.569 33.5281ZM142.841 17.5349C143.9 17.5349 144.715 17.8163 145.138 18.3271C145.526 18.7977 145.512 19.3974 145.429 19.8192C145.092 21.5586 143.306 22.7735 141.081 22.7735C139.999 22.7735 139.143 22.4878 138.732 21.9898C138.448 21.645 138.364 21.1616 138.482 20.5516C138.77 19.0526 140.361 17.5349 142.841 17.5349ZM93.9168 34.2339C93.6122 34.0277 93.2811 33.8455 92.9354 33.6812H94.0228L93.9168 34.2339ZM87.9355 40.1091C87.7951 40.234 87.5667 40.3179 87.3023 40.3333C87.4375 40.2169 87.6497 40.1211 87.9355 40.1091ZM86.2354 17.6974L84.9452 21.9445C84.8623 20.81 84.5089 19.779 83.8895 18.8618C83.6336 18.4862 83.3291 18.144 82.9937 17.8189L86.2354 17.6974ZM49.0104 19.8184C48.6741 21.5586 46.886 22.7735 44.6623 22.7735C43.5809 22.7735 42.7245 22.4878 42.3138 21.9898C42.0289 21.645 41.945 21.1616 42.0631 20.5516C42.3532 19.0518 43.9436 17.5349 46.4231 17.5349C47.4823 17.5349 48.2985 17.8163 48.7203 18.3271C49.107 18.7977 49.0916 19.3983 49.0104 19.8184ZM63.9204 33.6282L63.8785 33.7171L63.8699 33.6205C63.887 33.6222 63.9033 33.6256 63.9204 33.6282ZM83.1169 27.9737L81.6102 32.9377H75.824C78.7817 31.9615 81.434 30.3248 83.1169 27.9737ZM83.7449 33.6812H84.0674C83.9476 33.7317 83.8313 33.783 83.7158 33.8369L83.7449 33.6812ZM21.4935 20.6602C19.8422 20.6602 18.4117 20.1178 17.6665 19.21C17.2353 18.6847 17.0907 18.1029 17.2241 17.4322C17.6554 15.2718 20.5361 13.4469 23.5143 13.4469C25.5249 13.4469 27.3875 14.2015 29.2064 15.7424C28.7256 16.6408 28.3432 17.5819 28.0651 18.5633C25.8432 19.9852 23.7445 20.6602 21.4935 20.6602ZM55.5281 30.8886L57.4078 31.7348C58.4465 32.2019 59.6006 32.6015 60.8087 32.9386H57.312L56.9372 33.6889L56.8893 32.9386H50.8439C52.5345 32.4192 54.1044 31.7288 55.5281 30.8886ZM101.341 40.1108L102.704 32.9377H96.0856L100.724 17.6529L102.138 17.7068C101.877 18.405 101.657 19.1159 101.514 19.8492C100.855 23.2603 101.656 26.5526 103.775 29.1184C105.17 30.8099 107.087 32.095 109.329 32.9368H103.497L102.132 40.11L101.341 40.1108ZM27.6185 32.4013L28.6152 32.0505L29.4862 28.3493C29.6257 28.5435 29.7557 28.7403 29.9097 28.9259C31.377 30.7047 33.492 32.065 36.045 32.9377H25.489C26.2872 32.788 27.0213 32.6109 27.6185 32.4013ZM147.263 32.9377C148.12 32.6733 148.945 32.367 149.739 32.0188C149.855 32.2977 149.996 32.5672 150.192 32.8042C150.234 32.8539 150.289 32.8915 150.332 32.9377H147.263Z" fill="white"/>
<path d="M55.0766 34.8695L55.4753 41.1742H55.5762C55.7824 40.53 56.0117 39.8575 56.3334 39.2269L58.5066 34.8695H62.0375L62.5714 41.1742H62.6723C62.8563 40.5573 63.0634 39.9123 63.3457 39.3108L65.4675 34.8695H70.2596L63.7795 45.4332H59.7608L59.4066 39.6889H59.2552C59.1012 40.2365 58.966 40.7678 58.7162 41.2863L56.65 45.4332H52.7315L50.3008 34.8695H55.0766Z" fill="#005DAA"/>
<path d="M69.9232 34.8695H74.3619L73.686 38.4278H76.5102L77.187 34.8695H81.6257L79.6185 45.4332H75.1798L75.8771 41.7629H73.052L72.3547 45.4332H67.916L69.9232 34.8695Z" fill="#005DAA"/>
<path d="M94.6263 40.1791C93.9821 43.5698 90.4511 45.6009 86.5857 45.6009C82.7176 45.6009 79.9584 43.5689 80.6035 40.1791C81.2341 36.8587 84.8061 34.7009 88.6561 34.7009C92.5062 34.7009 95.256 36.8587 94.6263 40.1791ZM85.2338 40.2348C85.0037 41.4394 85.8225 42.2667 87.2179 42.2667C88.6142 42.2667 89.7461 41.4394 89.9763 40.2348C90.1885 39.1131 89.4595 38.1754 87.9965 38.1754C86.5318 38.1763 85.446 39.114 85.2338 40.2348ZM95.6359 34.8695H100.243L98.8794 42.0426H102.747L102.102 45.4324H93.6279L95.6359 34.8695ZM113.647 41.6499L113.852 41.8047C114.574 42.3369 115.483 42.7715 116.543 42.7715C116.998 42.7715 117.75 42.6167 117.841 42.141C117.931 41.6653 117.334 41.6234 116.929 41.5523L116.029 41.4129C114.28 41.146 112.936 40.263 113.249 38.6109C113.727 36.1032 116.733 34.7018 119.49 34.7018C120.936 34.7018 122.21 34.997 123.333 35.6267L121.575 38.3311C120.87 37.8828 120.045 37.532 119.053 37.532C118.65 37.532 118.036 37.6569 117.956 38.0915C117.881 38.4834 118.441 38.5399 118.782 38.61L119.788 38.806C121.668 39.1713 122.916 40.0388 122.576 41.8321C122.095 44.3543 119.101 45.6009 116.36 45.6009C114.764 45.6009 112.983 45.2364 111.668 44.6341L113.647 41.6499Z" fill="#005DAA"/>
<path d="M129.475 41.608L129.291 39.7446C129.241 39.2962 129.245 38.8342 129.247 38.3851H129.079L127.627 41.608H129.475ZM125.464 45.4332H120.588L127.001 34.8695H132.095L134.611 45.4332H129.735L129.565 44.1165H126.086L125.464 45.4332Z" fill="#005DAA"/>
<path d="M136.234 34.8695H140.841L139.477 42.0426H143.345L142.7 45.4324H134.227L136.234 34.8695ZM145.564 34.8695H154.09L153.54 37.7562H149.655L149.463 38.7649H153.011L152.49 41.5113H148.942L148.746 42.5474H152.765L152.215 45.4332H143.556L145.564 34.8695Z" fill="#005DAA"/>
<path d="M83.0543 15.8843L88.8714 15.6661L83.9903 31.75H94.4274L99.3068 15.6661L104.993 15.8843L107.31 8.24743H85.3695L83.0543 15.8843ZM61.4434 20.0603C59.9838 27.6022 51.9876 32.123 43.2266 32.123C34.4664 32.123 28.2182 27.603 29.6778 20.0603C31.1066 12.6725 39.196 7.87354 47.9186 7.87354C56.6403 7.87354 62.8722 12.6733 61.4434 20.0603ZM40.1654 20.1852C39.6477 22.8657 41.5018 24.7052 44.6614 24.7052C47.8227 24.7052 50.3877 22.8666 50.9062 20.1852C51.3888 17.6921 49.7358 15.6045 46.4222 15.6045C43.1085 15.6028 40.6479 17.6921 40.1654 20.1852Z" fill="#E31837"/>
<path d="M58.2002 29.9722C61.1785 31.3112 65.2116 32.1231 68.8298 32.1231C75.0387 32.1231 81.8217 29.3493 82.9065 23.7385C83.6783 19.7489 80.854 17.8162 76.5916 17.006L74.314 16.5696C73.544 16.4131 72.2735 16.289 72.4421 15.4155C72.6286 14.4495 74.0163 14.168 74.9309 14.168C77.1768 14.168 79.0462 14.9475 80.6427 15.9451L84.6246 9.92956C82.0767 8.52728 79.1951 7.87361 75.9191 7.87361C69.6726 7.87361 62.8605 10.9905 61.7816 16.5696C61.0698 20.2477 64.1182 22.2113 68.0786 22.8042L70.1132 23.1148C71.0355 23.2722 72.389 23.3646 72.1837 24.4238C71.9783 25.483 70.2749 25.8261 69.2457 25.8261C66.8458 25.8261 64.7855 24.8601 63.1488 23.676L62.6825 23.3329L58.2002 29.9722ZM127.626 8.83955C125.538 8.21584 123.165 7.87361 120.803 7.87361C112.386 7.87361 104.736 13.3595 103.409 20.2169C102.112 26.9186 107.504 32.1239 115.694 32.1239C117.559 32.1239 121.498 31.8433 123.302 31.1888L125.308 22.3995C123.371 23.7393 121.305 24.5812 118.906 24.5812C115.784 24.5812 113.464 22.586 113.966 20.0005C114.46 17.444 117.405 15.4189 120.528 15.4189C122.889 15.4189 124.772 16.5098 126.203 17.7889L127.626 8.83955ZM144.337 7.87361C135.615 7.87361 127.525 12.6725 126.096 20.0604C124.637 27.6023 130.885 32.1231 139.646 32.1231C148.406 32.1231 156.404 27.6031 157.862 20.0604C159.289 12.6734 153.057 7.87361 144.337 7.87361ZM142.841 15.6028C146.155 15.6028 147.809 17.6904 147.324 20.1836C146.807 22.8641 144.241 24.7036 141.079 24.7036C137.918 24.7036 136.065 22.8649 136.583 20.1836C137.066 17.6922 139.527 15.6028 142.841 15.6028ZM32.3688 3.56497C29.7636 2.81121 26.8067 2.39709 23.861 2.39709C13.3623 2.39709 3.82006 9.02779 2.16624 17.3166C0.55006 25.4171 7.27486 31.7081 17.4878 31.7081C19.8158 31.7081 24.7294 31.3693 26.977 30.5788L29.4778 19.9534C27.0642 21.5739 24.4864 22.5912 21.4928 22.5912C17.5973 22.5912 14.7064 20.1793 15.3301 17.0513C15.9469 13.9627 19.6191 11.5124 23.5136 11.5124C26.4585 11.5124 28.8079 12.8317 30.59 14.376L32.3688 3.56497Z" fill="#E31837"/>
<path d="M151.44 30.607C151.596 29.7865 152.511 29.1251 153.507 29.1251C154.495 29.1251 155.165 29.7865 155.009 30.607C154.851 31.4326 153.932 32.094 152.942 32.094C151.947 32.094 151.284 31.4317 151.44 30.607ZM154.544 30.607C154.669 29.9465 154.195 29.5127 153.431 29.5127C152.656 29.5127 152.03 29.9465 151.906 30.607C151.78 31.2683 152.24 31.7064 153.016 31.7064C153.779 31.7064 154.418 31.2692 154.544 30.607ZM153.908 31.383H153.447L153.157 30.725H152.855L152.73 31.383H152.338L152.633 29.8293H153.537C153.936 29.8293 154.152 29.9396 154.083 30.305C154.031 30.571 153.823 30.7079 153.583 30.7267L153.908 31.383ZM153.336 30.4281C153.532 30.4281 153.701 30.4281 153.733 30.2622C153.759 30.1253 153.59 30.1253 153.394 30.1253H152.969L152.914 30.4281H153.336Z" fill="#E31837"/>
<path d="M2.89551 45.4504H51.7427L51.7393 45.4332H51.699L51.0813 42.7468H2.89551V45.4504ZM2.89551 41.6106H50.8195L50.1967 38.9078H2.89551V41.6106ZM2.89551 37.7545H49.916L49.7047 36.7697L49.2726 34.89H2.89551V37.7545ZM104.966 34.8695H113.491L112.943 37.7562H109.058L108.866 38.7649H112.413L111.892 41.5113H108.345L108.148 42.5474H112.167L111.618 45.4332H102.957L104.966 34.8695Z" fill="#005DAA"/>
</svg>
