<svg width="304" height="304" viewBox="0 0 304 304" fill="none" xmlns="http://www.w3.org/2000/svg">
<rect width="304" height="304" fill="#F8F8F8"/>
<path fill-rule="evenodd" clip-rule="evenodd" d="M140.012 198H163.036V174.972H140.012V198Z" fill="#EC1D24"/>
<path fill-rule="evenodd" clip-rule="evenodd" d="M174.965 106.021H117.005V129.022H147.591C154.453 119.007 163.918 111.054 174.965 106.021Z" fill="#F4811F"/>
<path fill-rule="evenodd" clip-rule="evenodd" d="M165.221 152.01C166.974 146.985 169.722 142.365 173.301 138.426C176.88 134.488 181.217 131.311 186.052 129.087V106C164.085 112.037 146.944 129.728 141.686 152.01H165.221Z" fill="#ED2525"/>
<path fill-rule="evenodd" clip-rule="evenodd" d="M140.054 175.032L140.012 197.996H163.007L163.036 175.032H140.054Z" fill="#ED2525"/>
<path fill-rule="evenodd" clip-rule="evenodd" d="M168.933 177.655C169.246 177.655 169.42 177.502 169.42 177.244C169.42 176.974 169.246 176.821 168.933 176.821H168.572V177.655H168.933ZM168.572 179.154H168.046V176.362H169.009C169.552 176.362 169.954 176.744 169.954 177.237C169.954 177.422 169.895 177.603 169.785 177.751C169.675 177.9 169.52 178.01 169.343 178.064L169.968 179.154H169.364L168.781 178.113H168.572V179.154ZM168.892 179.843C170.004 179.843 170.878 178.947 170.878 177.78C170.878 176.612 170.004 175.725 168.892 175.725C167.781 175.725 166.905 176.612 166.905 177.78C166.905 178.947 167.781 179.843 168.892 179.843ZM168.892 175.216C170.301 175.216 171.441 176.369 171.441 177.78C171.442 178.458 171.175 179.109 170.697 179.591C170.22 180.072 169.571 180.345 168.892 180.35C167.488 180.35 166.364 179.189 166.364 177.78C166.364 176.369 167.488 175.215 168.892 175.215V175.216Z" fill="#007F5F"/>
<path fill-rule="evenodd" clip-rule="evenodd" d="M132.575 155.488H127.675V171.694H136.799V168.212H132.573V155.488H132.575ZM162.914 171.694H172.036V168.212H167.811V164.884H172.036V161.846H167.811V159.098H172.036V155.488H162.914V171.694ZM138.354 171.694H147.476V168.212H143.25V164.884H147.476V161.846H143.25V159.098H147.476V155.488H138.354V171.694ZM117 171.693H126.122V168.212H121.896V164.884H126.122V161.846H121.896V159.098H126.122V155.488H117V171.694V171.693ZM181.794 155.493C180.25 155.493 179.384 155.838 178.489 156.409V155.494H173.59V171.694H178.489V160.664C178.489 159.99 179.039 159.44 179.713 159.44H179.926C180.599 159.44 181.148 159.991 181.148 160.664V171.694H186.044V160.552C186.044 157.096 184.481 155.493 181.794 155.493ZM161.609 155.465L157.918 171.67H152.472L148.78 155.465H153.258L155.195 166.412L157.132 155.465H161.609Z" fill="#008062"/>
</svg>
