<svg width="324" height="286" viewBox="0 0 324 286" fill="none" xmlns="http://www.w3.org/2000/svg">
<path d="M318 0H6C2.68629 0 0 2.68629 0 6V280C0 283.314 2.68629 286 6 286H318C321.314 286 324 283.314 324 280V6C324 2.68629 321.314 0 318 0Z" fill="#F8F8F8"/>
<path d="M150.392 125.32H158.648V130.504H150.392V138.76H144.776V130.504H136.472V125.32H144.776V117.016H150.392V125.32ZM182.136 126.856C186.104 128.392 188.088 131.208 188.088 135.304C188.088 138.504 186.888 141.032 184.488 142.888C182.056 144.808 178.792 145.768 174.696 145.768C170.6 145.768 167.352 144.808 164.952 142.888C162.552 141.032 161.352 138.504 161.352 135.304C161.352 131.272 163.32 128.456 167.256 126.856C164.248 125.288 162.744 122.84 162.744 119.512C162.744 116.6 163.848 114.296 166.056 112.6C168.296 110.904 171.176 110.056 174.696 110.056C178.216 110.056 181.096 110.904 183.336 112.6C185.544 114.296 186.648 116.6 186.648 119.512C186.648 122.84 185.144 125.288 182.136 126.856ZM180.744 119.896C180.744 118.328 180.2 117.112 179.112 116.248C178.024 115.384 176.552 114.952 174.696 114.952C172.904 114.952 171.448 115.384 170.328 116.248C169.208 117.112 168.648 118.328 168.648 119.896C168.648 121.4 169.192 122.584 170.28 123.448C171.368 124.312 172.84 124.744 174.696 124.744C176.552 124.744 178.024 124.312 179.112 123.448C180.2 122.584 180.744 121.4 180.744 119.896ZM174.696 140.584C176.904 140.584 178.6 140.088 179.784 139.096C181 138.104 181.608 136.712 181.608 134.92C181.608 133.096 181 131.688 179.784 130.696C178.568 129.704 176.872 129.208 174.696 129.208C172.52 129.208 170.824 129.704 169.608 130.696C168.392 131.688 167.784 133.096 167.784 134.92C167.784 136.712 168.392 138.104 169.608 139.096C170.824 140.088 172.52 140.584 174.696 140.584Z" fill="#929292"/>
<path d="M139.953 177.904V178.6H130.617C130.729 179.816 131.089 180.736 131.697 181.36C132.305 181.968 133.129 182.272 134.169 182.272C135.737 182.272 136.761 181.584 137.241 180.208H139.665C139.329 181.472 138.673 182.472 137.697 183.208C136.737 183.928 135.545 184.288 134.121 184.288C132.345 184.288 130.913 183.696 129.825 182.512C128.737 181.328 128.193 179.76 128.193 177.808C128.193 175.856 128.737 174.288 129.825 173.104C130.913 171.92 132.329 171.328 134.073 171.328C135.897 171.328 137.337 171.944 138.393 173.176C139.433 174.408 139.953 175.984 139.953 177.904ZM134.073 173.344C133.129 173.344 132.353 173.632 131.745 174.208C131.153 174.784 130.785 175.616 130.641 176.704H137.481C137.369 175.696 137.009 174.888 136.401 174.28C135.809 173.656 135.033 173.344 134.073 173.344ZM148.048 176.152L149.704 171.616H152.248L147.496 184H144.832L140.104 171.616H142.696L144.376 176.152C145.512 179.528 146.12 181.368 146.2 181.672C146.248 181.512 146.352 181.192 146.512 180.712C146.672 180.232 146.896 179.576 147.184 178.744C147.472 177.896 147.76 177.032 148.048 176.152ZM164.065 177.904V178.6H154.729C154.841 179.816 155.201 180.736 155.809 181.36C156.417 181.968 157.241 182.272 158.281 182.272C159.849 182.272 160.873 181.584 161.353 180.208H163.777C163.441 181.472 162.785 182.472 161.809 183.208C160.849 183.928 159.657 184.288 158.233 184.288C156.457 184.288 155.025 183.696 153.937 182.512C152.849 181.328 152.305 179.76 152.305 177.808C152.305 175.856 152.849 174.288 153.937 173.104C155.025 171.92 156.441 171.328 158.185 171.328C160.009 171.328 161.449 171.944 162.505 173.176C163.545 174.408 164.065 175.984 164.065 177.904ZM158.185 173.344C157.241 173.344 156.465 173.632 155.857 174.208C155.265 174.784 154.897 175.616 154.753 176.704H161.593C161.481 175.696 161.121 174.888 160.513 174.28C159.921 173.656 159.145 173.344 158.185 173.344ZM172.265 171.328C173.625 171.328 174.689 171.712 175.457 172.48C176.225 173.232 176.609 174.304 176.609 175.696V184H174.209V176.032C174.209 174.304 173.337 173.44 171.593 173.44C170.793 173.44 170.073 173.744 169.433 174.352C168.793 174.976 168.473 175.864 168.473 177.016V184H166.073V171.616H168.377V173.464C169.321 172.04 170.617 171.328 172.265 171.328ZM184.63 171.616V173.584H182.134V181.024C182.134 181.392 182.238 181.664 182.446 181.84C182.67 182 183.038 182.08 183.55 182.08H184.63V184C184.102 184.048 183.614 184.072 183.166 184.072C181.998 184.072 181.134 183.848 180.574 183.4C180.014 182.952 179.734 182.232 179.734 181.24V173.584H177.742V171.616H179.734V168.064H182.134V171.616H184.63ZM190.948 184.312C187.508 184.312 185.7 182.896 185.524 180.064H187.924C188.02 180.928 188.3 181.536 188.764 181.888C189.228 182.24 189.964 182.416 190.972 182.416C192.796 182.416 193.708 181.84 193.708 180.688C193.708 180.192 193.516 179.808 193.132 179.536C192.748 179.264 192.06 179.04 191.068 178.864L189.796 178.624C187.172 178.144 185.86 176.912 185.86 174.928C185.86 173.824 186.284 172.952 187.132 172.312C187.98 171.656 189.148 171.328 190.636 171.328C194.044 171.328 195.788 172.712 195.868 175.48H193.54C193.492 174.648 193.236 174.064 192.772 173.728C192.308 173.376 191.596 173.2 190.636 173.2C189.868 173.2 189.276 173.344 188.86 173.632C188.444 173.92 188.236 174.328 188.236 174.856C188.236 175.336 188.42 175.712 188.788 175.984C189.156 176.24 189.74 176.448 190.54 176.608L191.836 176.824C193.356 177.112 194.452 177.544 195.124 178.12C195.796 178.696 196.132 179.496 196.132 180.52C196.132 181.72 195.676 182.656 194.764 183.328C193.852 183.984 192.58 184.312 190.948 184.312Z" fill="#929292"/>
</svg>
