<svg width="40" height="40" viewBox="0 0 40 40" fill="none" xmlns="http://www.w3.org/2000/svg">
<path d="M19.871 39.7419C30.8454 39.7419 39.7419 30.8454 39.7419 19.871C39.7419 8.89653 30.8454 0 19.871 0C8.89653 0 0 8.89653 0 19.871C0 30.8454 8.89653 39.7419 19.871 39.7419Z" fill="#FDB635"/>
<path d="M11.6345 23.6372C13.0718 23.6372 14.2368 24.8161 14.2368 26.2703C14.2368 27.7245 13.0718 28.9034 11.6345 28.9034C10.1973 28.9034 9.03223 27.7245 9.03223 26.2703C9.03223 24.8161 10.1973 23.6372 11.6345 23.6372ZM22.1703 10.9008V18.246H28.3433V10.9008H32.5161V28.639H28.3429V21.9684H22.1703V28.639H18.0222V10.9008H22.1703ZM13.6911 10.8389V22.4995H9.578V10.8389H13.6911Z" fill="black"/>
</svg>
