<svg width="244" height="117" viewBox="0 0 244 117" fill="none" xmlns="http://www.w3.org/2000/svg">
<path d="M24.8979 13.1852L11.2041 25.5102H14.9388V36.7142H23.6531V29.2449H26.1428V36.7142H34.8571V25.5102H38.5918L24.8979 13.1852ZM24.8979 16.5357L32.3673 23.2586V24.2653V34.2244H28.6326V26.7551H21.1633V34.2244H17.4286V23.2586L24.8979 16.5357Z" fill="#00529F"/>
<rect x="1.2449" y="1.85708" width="47.3061" height="47.3061" rx="23.6531" stroke="#00529F" stroke-width="2.4898"/>
<rect y="66.5918" width="49.7959" height="49.7959" rx="24.898" fill="#00529F"/>
<path d="M24.8979 79.1649L11.2041 91.4899H14.9388V102.694H23.6531V95.2246H26.1428V102.694H34.8571V91.4899H38.5918L24.8979 79.1649ZM24.8979 82.5154L32.3673 89.2384V90.245V100.204H28.6326V92.7348H21.1633V100.204H17.4286V89.2384L24.8979 82.5154Z" fill="white"/>
<path d="M84.2275 13.0613C83.2358 13.0613 82.3307 13.6578 81.9396 14.5688L78.8516 21.7756H77.1861C76.7964 21.7756 76.4306 21.9567 76.1941 22.2667C75.96 22.5755 75.8804 22.9764 75.9825 23.3511L79.1701 34.8859C79.4677 35.9615 80.4545 36.7143 81.57 36.7143H97.6953C98.8107 36.7143 99.7964 35.9627 100.093 34.8883L103.28 23.3536C103.384 22.9789 103.305 22.5755 103.071 22.2667C102.835 21.9567 102.468 21.7756 102.079 21.7756H100.414L97.3233 14.5712H97.3257C96.9352 13.656 96.0271 13.0613 95.0353 13.0613H84.2275ZM84.2275 15.5511H95.0353L97.7026 21.7756H81.5627L84.2275 15.5511ZM78.82 24.2654H100.445L97.6929 34.2245H81.57L78.82 24.2654ZM84.653 26.7552C83.9659 26.7552 83.4081 27.3129 83.4081 28.0001V30.4899C83.4081 31.177 83.9659 31.7347 84.653 31.7347C85.3402 31.7347 85.8979 31.177 85.8979 30.4899V28.0001C85.8979 27.3129 85.3402 26.7552 84.653 26.7552ZM89.6326 26.7552C88.9454 26.7552 88.3877 27.3129 88.3877 28.0001V30.4899C88.3877 31.177 88.9454 31.7347 89.6326 31.7347C90.3198 31.7347 90.8775 31.177 90.8775 30.4899V28.0001C90.8775 27.3129 90.3198 26.7552 89.6326 26.7552ZM94.6122 26.7552C93.925 26.7552 93.3673 27.3129 93.3673 28.0001V30.4899C93.3673 31.177 93.925 31.7347 94.6122 31.7347C95.2994 31.7347 95.8571 31.177 95.8571 30.4899V28.0001C95.8571 27.3129 95.2994 26.7552 94.6122 26.7552Z" fill="#00529F"/>
<rect x="65.9796" y="1.8572" width="47.3061" height="47.3061" rx="23.6531" stroke="#00529F" stroke-width="2.4898"/>
<rect x="64.7347" y="66.5918" width="49.7959" height="49.7959" rx="24.898" fill="#00529F"/>
<path d="M84.2275 79.0408C83.2358 79.0408 82.3307 79.6373 81.9396 80.5483L78.8516 87.7551H77.1861C76.7964 87.7551 76.4306 87.9362 76.1941 88.2462C75.96 88.5549 75.8804 88.9559 75.9825 89.3306L79.1701 100.865C79.4677 101.941 80.4545 102.694 81.57 102.694H97.6953C98.8107 102.694 99.7964 101.942 100.093 100.868L103.28 89.3331C103.384 88.9583 103.305 88.5549 103.071 88.2462C102.835 87.9362 102.468 87.7551 102.079 87.7551H100.414L97.3233 80.5507H97.3257C96.9352 79.6355 96.0271 79.0408 95.0353 79.0408H84.2275ZM84.2275 81.5306H95.0353L97.7026 87.7551H81.5627L84.2275 81.5306ZM78.82 90.2449H100.445L97.6929 100.204H81.57L78.82 90.2449ZM84.653 92.7346C83.9659 92.7346 83.4081 93.2924 83.4081 93.9795V96.4693C83.4081 97.1565 83.9659 97.7142 84.653 97.7142C85.3402 97.7142 85.8979 97.1565 85.8979 96.4693V93.9795C85.8979 93.2924 85.3402 92.7346 84.653 92.7346ZM89.6326 92.7346C88.9454 92.7346 88.3877 93.2924 88.3877 93.9795V96.4693C88.3877 97.1565 88.9454 97.7142 89.6326 97.7142C90.3198 97.7142 90.8775 97.1565 90.8775 96.4693V93.9795C90.8775 93.2924 90.3198 92.7346 89.6326 92.7346ZM94.6122 92.7346C93.925 92.7346 93.3673 93.2924 93.3673 93.9795V96.4693C93.3673 97.1565 93.925 97.7142 94.6122 97.7142C95.2994 97.7142 95.8571 97.1565 95.8571 96.4693V93.9795C95.8571 93.2924 95.2994 92.7346 94.6122 92.7346Z" fill="white"/>
<path d="M143.163 16.7959C141.788 16.7959 140.673 17.9101 140.673 19.2857V32.9796H143.163C143.163 35.0424 144.835 36.7143 146.898 36.7143C148.961 36.7143 150.633 35.0424 150.633 32.9796H156.857H158.102C158.102 35.0424 159.774 36.7143 161.837 36.7143C163.9 36.7143 165.571 35.0424 165.571 32.9796H166.816H168.061V26.7551L164.669 19.9738C164.459 19.5518 164.03 19.2857 163.558 19.2857H159.347V16.7959H143.163ZM143.163 19.2857H156.857V24.2653V26.7551V30.4898H149.663C148.979 29.7312 148 29.2449 146.898 29.2449C145.796 29.2449 144.817 29.7312 144.133 30.4898H143.163V19.2857ZM159.347 21.7755H162.787L164.032 24.2653H159.347V21.7755ZM159.347 26.7551H165.277L165.571 27.3435V28V29.6898V30.4898H164.601C163.918 29.7312 162.938 29.2449 161.837 29.2449C160.876 29.2449 160.009 29.6186 159.347 30.215V28.6686V28V26.7551ZM146.898 31.4234C147.756 31.4234 148.454 32.1218 148.454 32.9796C148.454 33.8373 147.756 34.5357 146.898 34.5357C146.04 34.5357 145.342 33.8373 145.342 32.9796C145.342 32.1218 146.04 31.4234 146.898 31.4234ZM161.837 31.4234C162.694 31.4234 163.393 32.1218 163.393 32.9796C163.393 33.8373 162.694 34.5357 161.837 34.5357C160.979 34.5357 160.281 33.8373 160.281 32.9796C160.281 32.1218 160.979 31.4234 161.837 31.4234Z" fill="#00529F"/>
<rect x="130.714" y="1.8572" width="47.3061" height="47.3061" rx="23.6531" stroke="#00529F" stroke-width="2.4898"/>
<path d="M215.367 13.0613C210.569 13.0613 206.653 16.9775 206.653 21.7756C206.653 26.5736 210.569 30.4899 215.367 30.4899C217.543 30.4899 219.531 29.6782 221.062 28.3502L221.592 28.8802V30.4899L229.061 37.9592L231.551 35.4694L224.082 28.0001H222.472L221.942 27.47C223.27 25.9398 224.082 23.9516 224.082 21.7756C224.082 16.9775 220.165 13.0613 215.367 13.0613ZM215.367 15.5511C218.82 15.5511 221.592 18.3231 221.592 21.7756C221.592 25.228 218.82 28.0001 215.367 28.0001C211.915 28.0001 209.143 25.228 209.143 21.7756C209.143 18.3231 211.915 15.5511 215.367 15.5511Z" fill="#00529F"/>
<rect x="195.449" y="1.8572" width="47.3061" height="47.3061" rx="23.6531" stroke="#00529F" stroke-width="2.4898"/>
<rect x="194.204" y="66.5918" width="49.7959" height="49.7959" rx="24.898" fill="#00529F"/>
<path d="M215.367 79.0408C210.569 79.0408 206.653 82.957 206.653 87.7551C206.653 92.5531 210.569 96.4693 215.367 96.4693C217.543 96.4693 219.531 95.6577 221.062 94.3297L221.592 94.8597V96.4693L229.061 103.939L231.551 101.449L224.082 93.9795H222.472L221.942 93.4495C223.27 91.9193 224.082 89.9311 224.082 87.7551C224.082 82.957 220.165 79.0408 215.367 79.0408ZM215.367 81.5306C218.82 81.5306 221.592 84.3026 221.592 87.7551C221.592 91.2075 218.82 93.9795 215.367 93.9795C211.915 93.9795 209.143 91.2075 209.143 87.7551C209.143 84.3026 211.915 81.5306 215.367 81.5306Z" fill="white"/>
<rect x="129.469" y="66.5918" width="49.7959" height="49.7959" rx="24.898" fill="#00529F"/>
<path d="M143.163 82.7755C141.788 82.7755 140.673 83.8897 140.673 85.2653V98.9592H143.163C143.163 101.022 144.835 102.694 146.898 102.694C148.961 102.694 150.633 101.022 150.633 98.9592H156.857H158.102C158.102 101.022 159.774 102.694 161.837 102.694C163.9 102.694 165.571 101.022 165.571 98.9592H166.816H168.061V92.7347L164.669 85.9534C164.459 85.5314 164.03 85.2653 163.558 85.2653H159.347V82.7755H143.163ZM143.163 85.2653H156.857V90.2449V92.7347V96.4694H149.663C148.979 95.7108 148 95.2245 146.898 95.2245C145.796 95.2245 144.817 95.7108 144.133 96.4694H143.163V85.2653ZM159.347 87.7551H162.787L164.032 90.2449H159.347V87.7551ZM159.347 92.7347H165.277L165.571 93.3231V93.9796V95.6694V96.4694H164.601C163.918 95.7108 162.938 95.2245 161.837 95.2245C160.876 95.2245 160.009 95.5982 159.347 96.1946V94.6482V93.9796V92.7347ZM146.898 97.4031C147.756 97.4031 148.454 98.1015 148.454 98.9592C148.454 99.8169 147.756 100.515 146.898 100.515C146.04 100.515 145.342 99.8169 145.342 98.9592C145.342 98.1015 146.04 97.4031 146.898 97.4031ZM161.837 97.4031C162.694 97.4031 163.393 98.1015 163.393 98.9592C163.393 99.8169 162.694 100.515 161.837 100.515C160.979 100.515 160.281 99.8169 160.281 98.9592C160.281 98.1015 160.979 97.4031 161.837 97.4031Z" fill="white"/>
</svg>
