<svg width="100" height="100" viewBox="0 0 100 100" fill="none" xmlns="http://www.w3.org/2000/svg">
<path d="M0 0V100H100V0H0Z" fill="white"/>
<path d="M0.869141 0.869507H99.1301V99.1304H0.869141V0.869507Z" fill="#0050AA"/>
<path d="M50.0001 3.47827C40.7972 3.47655 31.8005 6.20384 24.1476 11.3153C16.4948 16.4267 10.5295 23.6926 7.00616 32.1943C3.48281 40.696 2.55963 50.0516 4.35336 59.0779C6.1471 68.1043 10.5772 76.3961 17.0834 82.9047C23.5896 89.4133 31.8798 93.8464 40.9055 95.6434C49.9312 97.4404 59.2871 96.5206 67.79 93.0004C76.293 89.4801 83.5612 83.5175 88.6754 75.8665C93.7896 68.2155 96.5201 59.2198 96.5218 50.0169C96.5194 37.6778 91.6177 25.8445 82.8942 17.1178C74.1707 8.39112 62.3392 3.48519 50.0001 3.47827Z" fill="#E60A14"/>
<path fill-rule="evenodd" clip-rule="evenodd" d="M49.9996 6.41736C41.3805 6.41736 32.955 8.973 25.7882 13.7611C18.6215 18.5493 13.0354 25.3549 9.7362 33.3176C6.43703 41.2803 5.57293 50.0424 7.25317 58.4961C8.9334 66.9498 13.0825 74.7156 19.1759 80.8114C25.2693 86.9072 33.0334 91.0594 41.4864 92.743C49.9395 94.4266 58.7019 93.566 66.6659 90.27C74.6299 86.974 81.4378 81.3907 86.2288 74.2258C91.0198 67.061 93.5788 58.6364 93.5823 50.0174C93.5823 38.4569 88.9911 27.3697 80.8183 19.1937C72.6454 11.0176 61.5601 6.42197 49.9996 6.41736Z" fill="#FFF000"/>
<path fill-rule="evenodd" clip-rule="evenodd" d="M47.2957 51.226L39.6 43.5304L30.7305 52.4173V55.4L32.9653 53.1565L39.1566 59.3652L36.8696 61.6434L38.3566 63.1391L50.7392 50.7391V47.7652L47.2957 51.226Z" fill="#E60A14"/>
<path fill-rule="evenodd" clip-rule="evenodd" d="M11.374 41.9131H25.0784V44.8696H22.7914V54.4348L30.7305 50.0174V58.1131H11.374V55.1392H13.6697V44.8696H11.374V41.9131ZM69.1566 41.9131V44.8696H71.4523V55.1392H69.1566V58.1131H88.5305V50.0174L80.5827 54.4348V44.8696H82.8783V41.9131H69.1566Z" fill="#0050AA"/>
<path fill-rule="evenodd" clip-rule="evenodd" d="M38.4691 32.7044C39.4347 32.7044 40.3785 32.9909 41.1811 33.5277C41.9837 34.0645 42.609 34.8274 42.9777 35.7198C43.3464 36.6122 43.442 37.594 43.2523 38.5408C43.0627 39.4875 42.5963 40.3567 41.9124 41.0382C41.2284 41.7198 40.3575 42.183 39.4101 42.3693C38.4627 42.5555 37.4813 42.4564 36.5902 42.0846C35.6991 41.7127 34.9384 41.0847 34.4045 40.2802C33.8706 39.4757 33.5874 38.5308 33.5909 37.5652C33.5908 36.9254 33.7172 36.2919 33.9625 35.701C34.2079 35.1102 34.5675 34.5735 35.0207 34.1219C35.4739 33.6703 36.0118 33.3126 36.6036 33.0694C37.1953 32.8261 37.8293 32.7021 38.4691 32.7044Z" fill="#E60A14"/>
<path d="M48.4786 41.9123V44.8692H50.7663V55.1392H48.4531V58.113H61.4966C71.1836 58.113 71.3047 41.9122 61.5221 41.9122H48.4786L48.4786 41.9123ZM59.0356 46.9565H59.5825C62.4434 46.9565 62.4443 53.0434 59.6878 53.0434H59.0356V46.9565Z" fill="#0050AA"/>
</svg>
