<svg width="324" height="286" viewBox="0 0 324 286" fill="none" xmlns="http://www.w3.org/2000/svg">
<path d="M318 0H6C2.68629 0 0 2.68629 0 6V280C0 283.314 2.68629 286 6 286H318C321.314 286 324 283.314 324 280V6C324 2.68629 321.314 0 318 0Z" fill="#F8F8F8"/>
<path d="M149.892 125.32H158.148V130.504H149.892V138.76H144.276V130.504H135.972V125.32H144.276V117.016H149.892V125.32ZM181.636 126.856C185.604 128.392 187.588 131.208 187.588 135.304C187.588 138.504 186.388 141.032 183.988 142.888C181.556 144.808 178.292 145.768 174.196 145.768C170.1 145.768 166.852 144.808 164.452 142.888C162.052 141.032 160.852 138.504 160.852 135.304C160.852 131.272 162.82 128.456 166.756 126.856C163.748 125.288 162.244 122.84 162.244 119.512C162.244 116.6 163.348 114.296 165.556 112.6C167.796 110.904 170.676 110.056 174.196 110.056C177.716 110.056 180.596 110.904 182.836 112.6C185.044 114.296 186.148 116.6 186.148 119.512C186.148 122.84 184.644 125.288 181.636 126.856ZM180.244 119.896C180.244 118.328 179.7 117.112 178.612 116.248C177.524 115.384 176.052 114.952 174.196 114.952C172.404 114.952 170.948 115.384 169.828 116.248C168.708 117.112 168.148 118.328 168.148 119.896C168.148 121.4 168.692 122.584 169.78 123.448C170.868 124.312 172.34 124.744 174.196 124.744C176.052 124.744 177.524 124.312 178.612 123.448C179.7 122.584 180.244 121.4 180.244 119.896ZM174.196 140.584C176.404 140.584 178.1 140.088 179.284 139.096C180.5 138.104 181.108 136.712 181.108 134.92C181.108 133.096 180.5 131.688 179.284 130.696C178.068 129.704 176.372 129.208 174.196 129.208C172.02 129.208 170.324 129.704 169.108 130.696C167.892 131.688 167.284 133.096 167.284 134.92C167.284 136.712 167.892 138.104 169.108 139.096C170.324 140.088 172.02 140.584 174.196 140.584Z" fill="#929292"/>
<path d="M119.344 171.328C120.688 171.328 121.736 171.728 122.488 172.528C123.24 173.312 123.616 174.368 123.616 175.696V184H121.192V176.008C121.192 174.296 120.4 173.44 118.816 173.44C117.968 173.44 117.272 173.768 116.728 174.424C116.184 175.064 115.912 175.992 115.912 177.208V184H113.512V176.008C113.512 174.296 112.712 173.44 111.112 173.44C110.264 173.44 109.568 173.768 109.024 174.424C108.48 175.08 108.208 176.008 108.208 177.208V184H105.808V171.616H108.112V173.464C108.96 172.04 110.152 171.328 111.688 171.328C113.56 171.328 114.832 172.104 115.504 173.656C116.384 172.104 117.664 171.328 119.344 171.328ZM136.829 182.152H137.501V184C137.149 184.048 136.757 184.072 136.325 184.072C135.557 184.072 134.981 183.936 134.597 183.664C134.229 183.376 134.005 182.928 133.925 182.32C133.093 183.632 131.749 184.288 129.893 184.288C128.533 184.288 127.453 183.968 126.653 183.328C125.869 182.672 125.477 181.768 125.477 180.616C125.477 178.376 127.029 177.096 130.133 176.776L131.957 176.584C132.597 176.504 133.061 176.344 133.349 176.104C133.653 175.848 133.805 175.488 133.805 175.024C133.805 174.4 133.605 173.952 133.205 173.68C132.821 173.392 132.173 173.248 131.261 173.248C130.269 173.248 129.557 173.416 129.125 173.752C128.693 174.072 128.445 174.648 128.381 175.48H126.005C126.181 172.712 127.933 171.328 131.261 171.328C134.525 171.328 136.157 172.544 136.157 174.976V181.528C136.157 181.944 136.381 182.152 136.829 182.152ZM130.253 182.416C131.277 182.416 132.125 182.128 132.797 181.552C133.469 180.976 133.805 180.16 133.805 179.104V177.808C133.501 178.064 132.989 178.232 132.269 178.312L130.541 178.504C129.613 178.616 128.949 178.84 128.549 179.176C128.149 179.496 127.949 179.952 127.949 180.544C127.949 181.136 128.141 181.6 128.525 181.936C128.925 182.256 129.501 182.416 130.253 182.416ZM147.924 173.368V171.616H150.228V183.544C150.228 185.24 149.716 186.568 148.692 187.528C147.668 188.504 146.212 188.992 144.324 188.992C142.708 188.992 141.42 188.624 140.46 187.888C139.516 187.152 138.98 186.144 138.852 184.864H141.252C141.444 186.32 142.476 187.048 144.348 187.048C146.668 187.048 147.828 185.896 147.828 183.592V182.224C146.884 183.504 145.556 184.144 143.844 184.144C142.116 184.144 140.74 183.56 139.716 182.392C138.676 181.208 138.156 179.656 138.156 177.736C138.156 175.816 138.676 174.264 139.716 173.08C140.74 171.912 142.108 171.328 143.82 171.328C145.628 171.328 146.996 172.008 147.924 173.368ZM144.276 182.08C145.396 182.08 146.276 181.696 146.916 180.928C147.572 180.144 147.9 179.08 147.9 177.736C147.9 176.392 147.572 175.336 146.916 174.568C146.276 173.784 145.396 173.392 144.276 173.392C143.172 173.392 142.292 173.784 141.636 174.568C140.98 175.352 140.652 176.408 140.652 177.736C140.652 179.08 140.98 180.144 141.636 180.928C142.292 181.696 143.172 182.08 144.276 182.08ZM163.472 182.152H164.144V184C163.792 184.048 163.4 184.072 162.968 184.072C162.2 184.072 161.624 183.936 161.24 183.664C160.872 183.376 160.648 182.928 160.568 182.32C159.736 183.632 158.392 184.288 156.536 184.288C155.176 184.288 154.096 183.968 153.296 183.328C152.512 182.672 152.12 181.768 152.12 180.616C152.12 178.376 153.672 177.096 156.776 176.776L158.6 176.584C159.24 176.504 159.704 176.344 159.992 176.104C160.296 175.848 160.448 175.488 160.448 175.024C160.448 174.4 160.248 173.952 159.848 173.68C159.464 173.392 158.816 173.248 157.904 173.248C156.912 173.248 156.2 173.416 155.768 173.752C155.336 174.072 155.088 174.648 155.024 175.48H152.648C152.824 172.712 154.576 171.328 157.904 171.328C161.168 171.328 162.8 172.544 162.8 174.976V181.528C162.8 181.944 163.024 182.152 163.472 182.152ZM156.896 182.416C157.92 182.416 158.768 182.128 159.44 181.552C160.112 180.976 160.448 180.16 160.448 179.104V177.808C160.144 178.064 159.632 178.232 158.912 178.312L157.184 178.504C156.256 178.616 155.592 178.84 155.192 179.176C154.792 179.496 154.592 179.952 154.592 180.544C154.592 181.136 154.784 181.6 155.168 181.936C155.568 182.256 156.144 182.416 156.896 182.416ZM170.674 182.032H175.282V184H165.058V182.32L170.386 175.528C170.962 174.776 171.49 174.12 171.97 173.56C171.586 173.576 170.722 173.584 169.378 173.584H165.25V171.616H174.994V173.296L169.666 180.088C169.09 180.84 168.562 181.496 168.082 182.056C168.466 182.04 169.33 182.032 170.674 182.032ZM179.539 169.864H177.091V167.296H179.539V169.864ZM179.515 184H177.115V171.616H179.515V184ZM188.273 171.328C189.633 171.328 190.697 171.712 191.465 172.48C192.233 173.232 192.617 174.304 192.617 175.696V184H190.217V176.032C190.217 174.304 189.345 173.44 187.601 173.44C186.801 173.44 186.081 173.744 185.441 174.352C184.801 174.976 184.481 175.864 184.481 177.016V184H182.081V171.616H184.385V173.464C185.329 172.04 186.625 171.328 188.273 171.328ZM206.387 177.904V178.6H197.051C197.163 179.816 197.523 180.736 198.131 181.36C198.739 181.968 199.563 182.272 200.603 182.272C202.171 182.272 203.195 181.584 203.675 180.208H206.099C205.763 181.472 205.107 182.472 204.131 183.208C203.171 183.928 201.979 184.288 200.555 184.288C198.779 184.288 197.347 183.696 196.259 182.512C195.171 181.328 194.627 179.76 194.627 177.808C194.627 175.856 195.171 174.288 196.259 173.104C197.347 171.92 198.763 171.328 200.507 171.328C202.331 171.328 203.771 171.944 204.827 173.176C205.867 174.408 206.387 175.984 206.387 177.904ZM200.507 173.344C199.563 173.344 198.787 173.632 198.179 174.208C197.587 174.784 197.219 175.616 197.075 176.704H203.915C203.803 175.696 203.443 174.888 202.835 174.28C202.243 173.656 201.467 173.344 200.507 173.344ZM212.909 184.312C209.469 184.312 207.661 182.896 207.485 180.064H209.885C209.981 180.928 210.261 181.536 210.725 181.888C211.189 182.24 211.925 182.416 212.933 182.416C214.757 182.416 215.669 181.84 215.669 180.688C215.669 180.192 215.477 179.808 215.093 179.536C214.709 179.264 214.021 179.04 213.029 178.864L211.757 178.624C209.133 178.144 207.821 176.912 207.821 174.928C207.821 173.824 208.245 172.952 209.093 172.312C209.941 171.656 211.109 171.328 212.597 171.328C216.005 171.328 217.749 172.712 217.829 175.48H215.501C215.453 174.648 215.197 174.064 214.733 173.728C214.269 173.376 213.557 173.2 212.597 173.2C211.829 173.2 211.237 173.344 210.821 173.632C210.405 173.92 210.197 174.328 210.197 174.856C210.197 175.336 210.381 175.712 210.749 175.984C211.117 176.24 211.701 176.448 212.501 176.608L213.797 176.824C215.317 177.112 216.413 177.544 217.085 178.12C217.757 178.696 218.093 179.496 218.093 180.52C218.093 181.72 217.637 182.656 216.725 183.328C215.813 183.984 214.541 184.312 212.909 184.312Z" fill="#929292"/>
</svg>
