<svg width="343" height="376" viewBox="0 0 343 376" fill="none" xmlns="http://www.w3.org/2000/svg">
<path d="M10.02 16.54L12.4 9.76H16.32V24H13.74V19.66C13.74 16.9933 13.7667 14.64 13.82 12.6C13.5267 13.6 13.1667 14.6933 12.74 15.88L9.86 24H7.64L4.74 15.88C4.23333 14.4 3.88 13.32 3.68 12.64C3.73333 14.6667 3.76 17.0067 3.76 19.66V24H1.16V9.76H5.08L7.54 16.68C7.7 17.1467 8.10667 18.4333 8.76 20.54C9.18667 19.06 9.60667 17.7267 10.02 16.54ZM28.1209 19.02V19.62H20.4009C20.4943 20.5 20.7676 21.1667 21.2209 21.62C21.6876 22.06 22.3076 22.28 23.0809 22.28C24.2276 22.28 25.0143 21.7867 25.4409 20.8H27.8609C27.5943 21.8533 27.0343 22.6933 26.1809 23.32C25.3276 23.9333 24.2876 24.24 23.0609 24.24C21.5276 24.24 20.2876 23.7467 19.3409 22.76C18.3943 21.7733 17.9209 20.4667 17.9209 18.84C17.9209 17.2133 18.3876 15.9067 19.3209 14.92C20.2676 13.9333 21.5009 13.44 23.0209 13.44C24.5809 13.44 25.8209 13.9533 26.7409 14.98C27.6609 16.0067 28.1209 17.3533 28.1209 19.02ZM23.0009 15.4C21.5209 15.4 20.6609 16.22 20.4209 17.86H25.6009C25.4943 17.1 25.2143 16.5 24.7609 16.06C24.3076 15.62 23.7209 15.4 23.0009 15.4ZM37.0081 15.02V9.76H39.5281V24H37.0881V22.56C36.3281 23.68 35.2415 24.24 33.8281 24.24C32.4015 24.24 31.2748 23.7467 30.4481 22.76C29.6081 21.7733 29.1881 20.4667 29.1881 18.84C29.1881 17.1867 29.6081 15.8733 30.4481 14.9C31.2615 13.9267 32.3881 13.44 33.8281 13.44C35.2148 13.44 36.2748 13.9667 37.0081 15.02ZM31.7681 18.92C31.7681 19.9867 32.0015 20.7933 32.4681 21.34C32.9348 21.8867 33.5815 22.16 34.4081 22.16C35.2348 22.16 35.8881 21.8733 36.3681 21.3C36.8348 20.7267 37.0681 19.9067 37.0681 18.84C37.0681 17.7733 36.8348 16.9533 36.3681 16.38C35.9015 15.8067 35.2481 15.52 34.4081 15.52C33.5948 15.52 32.9481 15.82 32.4681 16.42C32.0015 17.02 31.7681 17.8533 31.7681 18.92ZM43.9622 12.34H41.4822V9.98H43.9622V12.34ZM43.9822 24H41.4622V13.68H43.9822V24ZM55.193 24H52.673C52.553 23.7867 52.4596 23.3667 52.393 22.74C51.6996 23.74 50.593 24.24 49.073 24.24C47.9396 24.24 47.033 23.9667 46.353 23.42C45.6863 22.8733 45.353 22.1133 45.353 21.14C45.353 19.26 46.673 18.1867 49.313 17.92L50.873 17.78C51.393 17.7133 51.7663 17.5933 51.993 17.42C52.2196 17.2333 52.333 16.96 52.333 16.6C52.333 16.16 52.1863 15.84 51.893 15.64C51.613 15.4267 51.133 15.32 50.453 15.32C49.7196 15.32 49.193 15.4467 48.873 15.7C48.553 15.94 48.3663 16.36 48.313 16.96H45.833C45.9796 14.6133 47.5263 13.44 50.473 13.44C53.3396 13.44 54.773 14.4733 54.773 16.54V22.04C54.773 22.9467 54.913 23.6 55.193 24ZM49.673 22.44C50.4596 22.44 51.0996 22.2267 51.593 21.8C52.0863 21.36 52.333 20.7333 52.333 19.92V18.98C52.093 19.1933 51.6996 19.3333 51.153 19.4L49.793 19.56C49.1263 19.64 48.6463 19.8 48.353 20.04C48.073 20.2667 47.933 20.6 47.933 21.04C47.933 21.48 48.0796 21.8267 48.373 22.08C48.6796 22.32 49.113 22.44 49.673 22.44ZM67.2506 24.32C65.1973 24.32 63.5373 23.6467 62.2706 22.3C60.9906 20.9533 60.3506 19.1467 60.3506 16.88C60.3506 14.6 60.984 12.7867 62.2506 11.44C63.504 10.1067 65.1706 9.44 67.2506 9.44C68.9173 9.44 70.3373 9.88667 71.5106 10.78C72.684 11.6733 73.4173 12.9667 73.7106 14.66H70.9706C70.7306 13.7267 70.284 13.02 69.6306 12.54C68.9906 12.0467 68.1973 11.8 67.2506 11.8C65.984 11.8 64.984 12.2533 64.2506 13.16C63.5306 14.0533 63.1706 15.2933 63.1706 16.88C63.1706 18.48 63.5306 19.7267 64.2506 20.62C64.9706 21.5133 65.9706 21.96 67.2506 21.96C68.2373 21.96 69.084 21.6667 69.7906 21.08C70.4973 20.4933 70.924 19.68 71.0706 18.64H73.7706C73.5973 20.4533 72.8906 21.8533 71.6506 22.84C70.424 23.8267 68.9573 24.32 67.2506 24.32ZM85.2428 18.84C85.2428 20.4667 84.7628 21.7733 83.8028 22.76C82.8428 23.7467 81.5761 24.24 80.0028 24.24C78.4295 24.24 77.1628 23.7467 76.2028 22.76C75.2295 21.7867 74.7428 20.48 74.7428 18.84C74.7428 17.2 75.2295 15.8933 76.2028 14.92C77.1628 13.9333 78.4295 13.44 80.0028 13.44C81.5761 13.44 82.8428 13.9267 83.8028 14.9C84.7628 15.8733 85.2428 17.1867 85.2428 18.84ZM78.0228 21.3C78.5028 21.8733 79.1628 22.16 80.0028 22.16C80.8428 22.16 81.4961 21.8733 81.9628 21.3C82.4428 20.7133 82.6828 19.8933 82.6828 18.84C82.6828 17.7867 82.4428 16.9733 81.9628 16.4C81.4961 15.8133 80.8428 15.52 80.0028 15.52C79.1628 15.52 78.5028 15.8067 78.0228 16.38C77.5561 16.9533 77.3228 17.7733 77.3228 18.84C77.3228 19.9067 77.5561 20.7267 78.0228 21.3ZM92.1766 16.44L93.1766 13.68H95.7966L91.9566 24H89.0566L85.2366 13.68H87.9366L88.9366 16.46C89.4032 17.9133 89.9432 19.6667 90.5566 21.72C91.0499 20.0667 91.5899 18.3067 92.1766 16.44ZM105.993 19.02V19.62H98.2728C98.3661 20.5 98.6395 21.1667 99.0928 21.62C99.5595 22.06 100.179 22.28 100.953 22.28C102.099 22.28 102.886 21.7867 103.313 20.8H105.733C105.466 21.8533 104.906 22.6933 104.053 23.32C103.199 23.9333 102.159 24.24 100.933 24.24C99.3995 24.24 98.1595 23.7467 97.2128 22.76C96.2661 21.7733 95.7928 20.4667 95.7928 18.84C95.7928 17.2133 96.2595 15.9067 97.1928 14.92C98.1395 13.9333 99.3728 13.44 100.893 13.44C102.453 13.44 103.693 13.9533 104.613 14.98C105.533 16.0067 105.993 17.3533 105.993 19.02ZM100.873 15.4C99.3928 15.4 98.5328 16.22 98.2928 17.86H103.473C103.366 17.1 103.086 16.5 102.633 16.06C102.179 15.62 101.593 15.4 100.873 15.4ZM113.04 13.52C113.267 13.52 113.473 13.5333 113.66 13.56V15.88H113.02C112.06 15.88 111.32 16.1267 110.8 16.62C110.293 17.1 110.04 17.8133 110.04 18.76V24H107.52V13.68H109.96V15.52C110.533 14.1867 111.56 13.52 113.04 13.52ZM123.595 24H121.075C120.955 23.7867 120.861 23.3667 120.795 22.74C120.101 23.74 118.995 24.24 117.475 24.24C116.341 24.24 115.435 23.9667 114.755 23.42C114.088 22.8733 113.755 22.1133 113.755 21.14C113.755 19.26 115.075 18.1867 117.715 17.92L119.275 17.78C119.795 17.7133 120.168 17.5933 120.395 17.42C120.621 17.2333 120.735 16.96 120.735 16.6C120.735 16.16 120.588 15.84 120.295 15.64C120.015 15.4267 119.535 15.32 118.855 15.32C118.121 15.32 117.595 15.4467 117.275 15.7C116.955 15.94 116.768 16.36 116.715 16.96H114.235C114.381 14.6133 115.928 13.44 118.875 13.44C121.741 13.44 123.175 14.4733 123.175 16.54V22.04C123.175 22.9467 123.315 23.6 123.595 24ZM118.075 22.44C118.861 22.44 119.501 22.2267 119.995 21.8C120.488 21.36 120.735 20.7333 120.735 19.92V18.98C120.495 19.1933 120.101 19.3333 119.555 19.4L118.195 19.56C117.528 19.64 117.048 19.8 116.755 20.04C116.475 20.2667 116.335 20.6 116.335 21.04C116.335 21.48 116.481 21.8267 116.775 22.08C117.081 22.32 117.515 22.44 118.075 22.44ZM132.24 15.1V13.68H134.68V23.66C134.68 25.06 134.234 26.16 133.34 26.96C132.46 27.76 131.207 28.16 129.58 28.16C128.14 28.16 127.007 27.84 126.18 27.2C125.367 26.56 124.92 25.68 124.84 24.56H127.32C127.44 25.6667 128.207 26.22 129.62 26.22C130.447 26.22 131.074 26.0067 131.5 25.58C131.94 25.1533 132.16 24.5333 132.16 23.72V22.42C131.414 23.4467 130.36 23.96 129 23.96C127.6 23.96 126.474 23.4733 125.62 22.5C124.767 21.5533 124.34 20.2867 124.34 18.7C124.34 17.1 124.767 15.8267 125.62 14.88C126.46 13.92 127.58 13.44 128.98 13.44C130.434 13.44 131.52 13.9933 132.24 15.1ZM129.56 21.88C130.4 21.88 131.054 21.6 131.52 21.04C131.987 20.48 132.22 19.7 132.22 18.7C132.22 17.7 131.987 16.92 131.52 16.36C131.054 15.8 130.4 15.52 129.56 15.52C128.747 15.52 128.1 15.8067 127.62 16.38C127.154 16.94 126.92 17.72 126.92 18.72C126.92 19.7067 127.154 20.48 127.62 21.04C128.1 21.6 128.747 21.88 129.56 21.88ZM146.355 19.02V19.62H138.635C138.728 20.5 139.001 21.1667 139.455 21.62C139.921 22.06 140.541 22.28 141.315 22.28C142.461 22.28 143.248 21.7867 143.675 20.8H146.095C145.828 21.8533 145.268 22.6933 144.415 23.32C143.561 23.9333 142.521 24.24 141.295 24.24C139.761 24.24 138.521 23.7467 137.575 22.76C136.628 21.7733 136.155 20.4667 136.155 18.84C136.155 17.2133 136.621 15.9067 137.555 14.92C138.501 13.9333 139.735 13.44 141.255 13.44C142.815 13.44 144.055 13.9533 144.975 14.98C145.895 16.0067 146.355 17.3533 146.355 19.02ZM141.235 15.4C139.755 15.4 138.895 16.22 138.655 17.86H143.835C143.728 17.1 143.448 16.5 142.995 16.06C142.541 15.62 141.955 15.4 141.235 15.4Z" fill="#131315"/>
<path d="M28.576 58.608V59.824H22.384V63.456H27.936V64.672H22.384V70H21.04V58.608H28.576ZM36.2901 68.96H36.7541V70C36.5408 70.032 36.3061 70.048 36.0501 70.048C35.1861 70.048 34.7221 69.6533 34.6581 68.864C34.0821 69.7493 33.1861 70.192 31.9701 70.192C31.0635 70.192 30.3488 69.984 29.8261 69.568C29.3141 69.1413 29.0581 68.544 29.0581 67.776C29.0581 66.2827 30.0768 65.4293 32.1141 65.216L33.2981 65.088C34.1621 64.992 34.5941 64.6133 34.5941 63.952C34.5941 63.4933 34.4501 63.1627 34.1621 62.96C33.8848 62.7573 33.4101 62.656 32.7381 62.656C32.0235 62.656 31.5061 62.7787 31.1861 63.024C30.8768 63.2587 30.7008 63.68 30.6581 64.288H29.3781C29.4848 62.464 30.6048 61.552 32.7381 61.552C34.8075 61.552 35.8421 62.352 35.8421 63.952V68.56C35.8421 68.8267 35.9915 68.96 36.2901 68.96ZM32.0341 69.104C32.7168 69.104 33.3141 68.896 33.8261 68.48C34.3381 68.0747 34.5941 67.4933 34.5941 66.736V65.76C34.3595 65.9413 33.9968 66.0587 33.5061 66.112L32.3061 66.256C31.6128 66.3413 31.1168 66.5013 30.8181 66.736C30.5301 66.9707 30.3861 67.3067 30.3861 67.744C30.3861 68.1707 30.5248 68.5067 30.8021 68.752C31.0795 68.9867 31.4901 69.104 32.0341 69.104ZM41.2278 70.192C40.0864 70.192 39.1638 69.7973 38.4598 69.008C37.7558 68.2187 37.4038 67.1733 37.4038 65.872C37.4038 64.5493 37.7558 63.4987 38.4598 62.72C39.1424 61.9413 40.0651 61.552 41.2278 61.552C42.2091 61.552 43.0144 61.8187 43.6438 62.352C44.2731 62.8853 44.6518 63.616 44.7798 64.544H43.4518C43.3558 63.9573 43.0998 63.504 42.6838 63.184C42.2784 62.864 41.7931 62.704 41.2278 62.704C40.4704 62.704 39.8678 62.9813 39.4198 63.536C38.9718 64.08 38.7478 64.8587 38.7478 65.872C38.7478 66.8747 38.9718 67.6533 39.4198 68.208C39.8784 68.7627 40.4811 69.04 41.2278 69.04C41.7931 69.04 42.2838 68.8747 42.6998 68.544C43.1158 68.2133 43.3718 67.7547 43.4678 67.168H44.7798C44.6411 68.096 44.2464 68.832 43.5958 69.376C42.9558 69.92 42.1664 70.192 41.2278 70.192ZM53.3475 65.872V66.32H47.0755C47.1395 67.216 47.3902 67.8933 47.8275 68.352C48.2648 68.8 48.8622 69.024 49.6195 69.024C50.7608 69.024 51.4915 68.512 51.8115 67.488H53.1395C52.9155 68.32 52.4995 68.9813 51.8915 69.472C51.2835 69.952 50.5155 70.192 49.5875 70.192C48.4462 70.192 47.5235 69.8027 46.8195 69.024C46.1048 68.2453 45.7475 67.1947 45.7475 65.872C45.7475 64.5707 46.0995 63.5253 46.8035 62.736C47.4968 61.9467 48.4142 61.552 49.5555 61.552C50.7395 61.552 51.6675 61.9627 52.3395 62.784C53.0115 63.6053 53.3475 64.6347 53.3475 65.872ZM49.5555 62.72C48.8835 62.72 48.3342 62.9333 47.9075 63.36C47.4808 63.776 47.2142 64.3787 47.1075 65.168H51.9715C51.9075 64.4427 51.6622 63.856 51.2355 63.408C50.8088 62.9493 50.2488 62.72 49.5555 62.72ZM58.9143 61.552C60.0769 61.552 61.0103 61.9413 61.7143 62.72C62.4076 63.5093 62.7543 64.56 62.7543 65.872C62.7543 67.1733 62.4076 68.2187 61.7143 69.008C61.0103 69.7973 60.0769 70.192 58.9143 70.192C57.6876 70.192 56.7436 69.7013 56.0823 68.72V70H54.8663V58.608H56.1463V62.928C56.8076 62.0107 57.7303 61.552 58.9143 61.552ZM58.7543 69.04C59.5543 69.04 60.1943 68.752 60.6743 68.176C61.1649 67.5893 61.4103 66.8 61.4103 65.808C61.4103 64.8373 61.1703 64.08 60.6903 63.536C60.2209 62.9813 59.5756 62.704 58.7543 62.704C57.9436 62.704 57.2983 62.9813 56.8183 63.536C56.3383 64.0907 56.0983 64.8693 56.0983 65.872C56.0983 66.864 56.3383 67.6373 56.8183 68.192C57.2983 68.7573 57.9436 69.04 58.7543 69.04ZM70.7525 69.008C69.9952 69.7973 69.0352 70.192 67.8725 70.192C66.7098 70.192 65.7498 69.7973 64.9925 69.008C64.2458 68.2293 63.8725 67.184 63.8725 65.872C63.8725 64.56 64.2458 63.5147 64.9925 62.736C65.7498 61.9467 66.7098 61.552 67.8725 61.552C69.0352 61.552 69.9952 61.9467 70.7525 62.736C71.4992 63.5147 71.8725 64.56 71.8725 65.872C71.8725 67.184 71.4992 68.2293 70.7525 69.008ZM65.9365 68.192C66.4165 68.7573 67.0618 69.04 67.8725 69.04C68.6832 69.04 69.3285 68.7573 69.8085 68.192C70.2885 67.6373 70.5285 66.864 70.5285 65.872C70.5285 64.8693 70.2885 64.0907 69.8085 63.536C69.3285 62.9813 68.6832 62.704 67.8725 62.704C67.0618 62.704 66.4165 62.9813 65.9365 63.536C65.4565 64.0907 65.2165 64.8693 65.2165 65.872C65.2165 66.864 65.4565 67.6373 65.9365 68.192ZM79.8775 69.008C79.1202 69.7973 78.1602 70.192 76.9975 70.192C75.8348 70.192 74.8748 69.7973 74.1175 69.008C73.3708 68.2293 72.9975 67.184 72.9975 65.872C72.9975 64.56 73.3708 63.5147 74.1175 62.736C74.8748 61.9467 75.8348 61.552 76.9975 61.552C78.1602 61.552 79.1202 61.9467 79.8775 62.736C80.6242 63.5147 80.9975 64.56 80.9975 65.872C80.9975 67.184 80.6242 68.2293 79.8775 69.008ZM75.0615 68.192C75.5415 68.7573 76.1868 69.04 76.9975 69.04C77.8082 69.04 78.4535 68.7573 78.9335 68.192C79.4135 67.6373 79.6535 66.864 79.6535 65.872C79.6535 64.8693 79.4135 64.0907 78.9335 63.536C78.4535 62.9813 77.8082 62.704 76.9975 62.704C76.1868 62.704 75.5415 62.9813 75.0615 63.536C74.5815 64.0907 74.3415 64.8693 74.3415 65.872C74.3415 66.864 74.5815 67.6373 75.0615 68.192ZM89.5465 70H88.0585L85.2745 65.568L83.8025 66.944V70H82.5225V58.608H83.8025V65.44L87.6265 61.744H89.3225L86.1865 64.72L89.5465 70Z" fill="#131315"/>
<rect y="60" width="8" height="8" rx="2" fill="#4769E7"/>
<path d="M122.32 58.608H131.456V59.824H127.584V70H126.192V59.824H122.32V58.608ZM140.012 65.472L141.18 61.744H142.556L139.804 70H138.46L137.244 66.176C136.828 64.8213 136.55 63.888 136.412 63.376C136.166 64.2507 135.884 65.184 135.564 66.176L134.364 70H133.02L130.268 61.744H131.644L132.812 65.472C133.1 66.3787 133.398 67.3813 133.708 68.48C134.049 67.264 134.342 66.2613 134.588 65.472L135.74 61.744H137.084L138.236 65.472C138.822 67.424 139.121 68.416 139.132 68.448C139.217 68.1173 139.51 67.1253 140.012 65.472ZM144.835 60.496H143.475V58.928H144.835V60.496ZM144.803 70H143.523V61.744H144.803V70ZM150.342 61.744V62.864H148.646V68.224C148.646 68.6933 148.96 68.928 149.59 68.928H150.342V70C149.99 70.032 149.686 70.048 149.43 70.048C148.054 70.048 147.366 69.4773 147.366 68.336V62.864H146.006V61.744H147.366V59.408H148.646V61.744H150.342ZM154.67 61.744V62.864H152.974V68.224C152.974 68.6933 153.288 68.928 153.918 68.928H154.67V70C154.318 70.032 154.014 70.048 153.758 70.048C152.382 70.048 151.694 69.4773 151.694 68.336V62.864H150.334V61.744H151.694V59.408H152.974V61.744H154.67ZM163.066 65.872V66.32H156.794C156.858 67.216 157.109 67.8933 157.546 68.352C157.984 68.8 158.581 69.024 159.338 69.024C160.48 69.024 161.21 68.512 161.53 67.488H162.858C162.634 68.32 162.218 68.9813 161.61 69.472C161.002 69.952 160.234 70.192 159.306 70.192C158.165 70.192 157.242 69.8027 156.538 69.024C155.824 68.2453 155.466 67.1947 155.466 65.872C155.466 64.5707 155.818 63.5253 156.522 62.736C157.216 61.9467 158.133 61.552 159.274 61.552C160.458 61.552 161.386 61.9627 162.058 62.784C162.73 63.6053 163.066 64.6347 163.066 65.872ZM159.274 62.72C158.602 62.72 158.053 62.9333 157.626 63.36C157.2 63.776 156.933 64.3787 156.826 65.168H161.69C161.626 64.4427 161.381 63.856 160.954 63.408C160.528 62.9493 159.968 62.72 159.274 62.72ZM168.457 61.616C168.67 61.616 168.814 61.6213 168.889 61.632V62.864H168.569C167.716 62.864 167.049 63.0773 166.569 63.504C166.1 63.92 165.865 64.5173 165.865 65.296V70H164.585V61.744H165.801V63.2C166.356 62.144 167.241 61.616 168.457 61.616Z" fill="#131315"/>
<rect x="102" y="60" width="8" height="8" rx="2" fill="#FF708C"/>
<path d="M203.514 70H202.17V58.608H203.514V70ZM209.32 61.552C210.238 61.552 210.952 61.8027 211.464 62.304C211.976 62.8053 212.232 63.5093 212.232 64.416V70H210.952V64.544C210.952 63.3173 210.323 62.704 209.064 62.704C208.467 62.704 207.939 62.928 207.48 63.376C207.022 63.824 206.792 64.4747 206.792 65.328V70H205.512V61.744H206.728V62.976C207.358 62.0267 208.222 61.552 209.32 61.552ZM217.065 70.192C214.857 70.192 213.689 69.2533 213.561 67.376H214.857C214.932 67.9947 215.134 68.4373 215.465 68.704C215.806 68.96 216.34 69.088 217.065 69.088C218.388 69.088 219.049 68.6613 219.049 67.808C219.049 67.4347 218.91 67.152 218.633 66.96C218.366 66.768 217.876 66.6027 217.161 66.464L216.393 66.32C214.676 66 213.817 65.1893 213.817 63.888C213.817 63.1733 214.084 62.608 214.617 62.192C215.161 61.7653 215.897 61.552 216.825 61.552C219.012 61.552 220.132 62.464 220.185 64.288H218.905C218.873 63.6907 218.692 63.2693 218.361 63.024C218.03 62.7787 217.518 62.656 216.825 62.656C216.27 62.656 215.844 62.7627 215.545 62.976C215.246 63.1893 215.097 63.488 215.097 63.872C215.097 64.2347 215.225 64.5067 215.481 64.688C215.737 64.8693 216.164 65.024 216.761 65.152L217.497 65.296C218.51 65.4987 219.236 65.7867 219.673 66.16C220.121 66.5333 220.345 67.056 220.345 67.728C220.345 68.5067 220.052 69.1147 219.465 69.552C218.889 69.9787 218.089 70.192 217.065 70.192ZM225.081 61.744V62.864H223.385V68.224C223.385 68.6933 223.7 68.928 224.329 68.928H225.081V70C224.729 70.032 224.425 70.048 224.169 70.048C222.793 70.048 222.105 69.4773 222.105 68.336V62.864H220.745V61.744H222.105V59.408H223.385V61.744H225.081ZM233.108 68.96H233.572V70C233.359 70.032 233.124 70.048 232.868 70.048C232.004 70.048 231.54 69.6533 231.476 68.864C230.9 69.7493 230.004 70.192 228.788 70.192C227.881 70.192 227.167 69.984 226.644 69.568C226.132 69.1413 225.876 68.544 225.876 67.776C225.876 66.2827 226.895 65.4293 228.932 65.216L230.116 65.088C230.98 64.992 231.412 64.6133 231.412 63.952C231.412 63.4933 231.268 63.1627 230.98 62.96C230.703 62.7573 230.228 62.656 229.556 62.656C228.841 62.656 228.324 62.7787 228.004 63.024C227.695 63.2587 227.519 63.68 227.476 64.288H226.196C226.303 62.464 227.423 61.552 229.556 61.552C231.625 61.552 232.66 62.352 232.66 63.952V68.56C232.66 68.8267 232.809 68.96 233.108 68.96ZM228.852 69.104C229.535 69.104 230.132 68.896 230.644 68.48C231.156 68.0747 231.412 67.4933 231.412 66.736V65.76C231.177 65.9413 230.815 66.0587 230.324 66.112L229.124 66.256C228.431 66.3413 227.935 66.5013 227.636 66.736C227.348 66.9707 227.204 67.3067 227.204 67.744C227.204 68.1707 227.343 68.5067 227.62 68.752C227.897 68.9867 228.308 69.104 228.852 69.104ZM240.815 62.944V61.744H242.031V69.68C242.031 70.8107 241.701 71.7013 241.039 72.352C240.378 73.0027 239.429 73.328 238.191 73.328C237.167 73.328 236.346 73.0933 235.727 72.624C235.109 72.1547 234.757 71.504 234.671 70.672H235.951C236.111 71.7173 236.858 72.24 238.191 72.24C239.898 72.24 240.751 71.3867 240.751 69.68V68.88C240.101 69.7547 239.178 70.192 237.983 70.192C236.821 70.192 235.893 69.7973 235.199 69.008C234.495 68.2187 234.143 67.1733 234.143 65.872C234.143 64.5493 234.495 63.4987 235.199 62.72C235.882 61.9413 236.81 61.552 237.983 61.552C239.21 61.552 240.154 62.016 240.815 62.944ZM238.143 69.04C238.954 69.04 239.599 68.7573 240.079 68.192C240.559 67.6267 240.799 66.8533 240.799 65.872C240.799 64.8907 240.559 64.1173 240.079 63.552C239.599 62.9867 238.954 62.704 238.143 62.704C237.343 62.704 236.698 62.992 236.207 63.568C235.727 64.144 235.487 64.912 235.487 65.872C235.487 66.832 235.727 67.6 236.207 68.176C236.698 68.752 237.343 69.04 238.143 69.04ZM247.822 61.616C248.035 61.616 248.179 61.6213 248.254 61.632V62.864H247.934C247.08 62.864 246.414 63.0773 245.934 63.504C245.464 63.92 245.23 64.5173 245.23 65.296V70H243.95V61.744H245.166V63.2C245.72 62.144 246.606 61.616 247.822 61.616ZM255.639 68.96H256.103V70C255.89 70.032 255.655 70.048 255.399 70.048C254.535 70.048 254.071 69.6533 254.007 68.864C253.431 69.7493 252.535 70.192 251.319 70.192C250.413 70.192 249.698 69.984 249.175 69.568C248.663 69.1413 248.407 68.544 248.407 67.776C248.407 66.2827 249.426 65.4293 251.463 65.216L252.647 65.088C253.511 64.992 253.943 64.6133 253.943 63.952C253.943 63.4933 253.799 63.1627 253.511 62.96C253.234 62.7573 252.759 62.656 252.087 62.656C251.373 62.656 250.855 62.7787 250.535 63.024C250.226 63.2587 250.05 63.68 250.007 64.288H248.727C248.834 62.464 249.954 61.552 252.087 61.552C254.157 61.552 255.191 62.352 255.191 63.952V68.56C255.191 68.8267 255.341 68.96 255.639 68.96ZM251.383 69.104C252.066 69.104 252.663 68.896 253.175 68.48C253.687 68.0747 253.943 67.4933 253.943 66.736V65.76C253.709 65.9413 253.346 66.0587 252.855 66.112L251.655 66.256C250.962 66.3413 250.466 66.5013 250.167 66.736C249.879 66.9707 249.735 67.3067 249.735 67.744C249.735 68.1707 249.874 68.5067 250.151 68.752C250.429 68.9867 250.839 69.104 251.383 69.104ZM265.919 61.552C266.815 61.552 267.508 61.8133 267.999 62.336C268.5 62.848 268.751 63.536 268.751 64.4V70H267.471V64.528C267.471 63.312 266.895 62.704 265.743 62.704C265.135 62.704 264.628 62.9493 264.223 63.44C263.828 63.92 263.631 64.6027 263.631 65.488V70H262.351V64.528C262.351 63.312 261.775 62.704 260.623 62.704C260.026 62.704 259.524 62.9493 259.119 63.44C258.714 63.92 258.511 64.6027 258.511 65.488V70H257.231V61.744H258.447V62.96C258.991 62.0213 259.786 61.552 260.831 61.552C262.068 61.552 262.916 62.0693 263.375 63.104C263.951 62.0693 264.799 61.552 265.919 61.552Z" fill="#131315"/>
<rect x="182" y="60" width="7.65217" height="8" rx="2" fill="#16D9CE"/>
<path d="M22.384 95.608V105.784H28.112V107H21.04V95.608H22.384ZM30.7095 97.496H29.3495V95.928H30.7095V97.496ZM30.6775 107H29.3975V98.744H30.6775V107ZM36.4086 98.552C37.326 98.552 38.0406 98.8027 38.5526 99.304C39.0646 99.8053 39.3206 100.509 39.3206 101.416V107H38.0406V101.544C38.0406 100.317 37.4113 99.704 36.1526 99.704C35.5553 99.704 35.0273 99.928 34.5686 100.376C34.11 100.824 33.8806 101.475 33.8806 102.328V107H32.6006V98.744H33.8166V99.976C34.446 99.0267 35.31 98.552 36.4086 98.552ZM48.2653 107H46.7773L43.9933 102.568L42.5213 103.944V107H41.2413V95.608H42.5213V102.44L46.3453 98.744H48.0413L44.9053 101.72L48.2653 107ZM55.9413 102.872V103.32H49.6693C49.7333 104.216 49.9839 104.893 50.4213 105.352C50.8586 105.8 51.4559 106.024 52.2133 106.024C53.3546 106.024 54.0853 105.512 54.4053 104.488H55.7333C55.5093 105.32 55.0933 105.981 54.4853 106.472C53.8773 106.952 53.1093 107.192 52.1813 107.192C51.0399 107.192 50.1173 106.803 49.4133 106.024C48.6986 105.245 48.3413 104.195 48.3413 102.872C48.3413 101.571 48.6933 100.525 49.3973 99.736C50.0906 98.9467 51.0079 98.552 52.1493 98.552C53.3333 98.552 54.2613 98.9627 54.9333 99.784C55.6053 100.605 55.9413 101.635 55.9413 102.872ZM52.1493 99.72C51.4773 99.72 50.9279 99.9333 50.5013 100.36C50.0746 100.776 49.8079 101.379 49.7013 102.168H54.5653C54.5013 101.443 54.2559 100.856 53.8293 100.408C53.4026 99.9493 52.8426 99.72 52.1493 99.72ZM63.668 99.928V95.608H64.948V107H63.732V105.72C63.0707 106.701 62.1267 107.192 60.9 107.192C59.7373 107.192 58.8093 106.797 58.116 106.008C57.412 105.219 57.06 104.173 57.06 102.872C57.06 101.549 57.412 100.499 58.116 99.72C58.7987 98.9413 59.7267 98.552 60.9 98.552C62.084 98.552 63.0067 99.0107 63.668 99.928ZM58.404 102.936C58.404 103.917 58.644 104.68 59.124 105.224C59.604 105.768 60.2493 106.04 61.06 106.04C61.8707 106.04 62.516 105.757 62.996 105.192C63.476 104.637 63.716 103.864 63.716 102.872C63.716 101.891 63.476 101.117 62.996 100.552C62.516 99.9867 61.8707 99.704 61.06 99.704C60.26 99.704 59.6147 99.9973 59.124 100.584C58.644 101.16 58.404 101.944 58.404 102.936ZM68.2903 107H66.9463V95.608H68.2903V107ZM74.0961 98.552C75.0135 98.552 75.7281 98.8027 76.2401 99.304C76.7521 99.8053 77.0081 100.509 77.0081 101.416V107H75.7281V101.544C75.7281 100.317 75.0988 99.704 73.8401 99.704C73.2428 99.704 72.7148 99.928 72.2561 100.376C71.7975 100.824 71.5681 101.475 71.5681 102.328V107H70.2881V98.744H71.5041V99.976C72.1335 99.0267 72.9975 98.552 74.0961 98.552Z" fill="#131315"/>
<rect y="97" width="7.65217" height="8" rx="2" fill="#FEBA66"/>
<path d="M118.104 98.264L119.768 95.608H121.288L116.936 102.424V107H115.592V102.424L111.24 95.608H112.776L114.456 98.28C115.181 99.4107 115.789 100.392 116.28 101.224C116.963 100.072 117.571 99.0853 118.104 98.264ZM126.565 106.008C125.808 106.797 124.848 107.192 123.685 107.192C122.522 107.192 121.562 106.797 120.805 106.008C120.058 105.229 119.685 104.184 119.685 102.872C119.685 101.56 120.058 100.515 120.805 99.736C121.562 98.9467 122.522 98.552 123.685 98.552C124.848 98.552 125.808 98.9467 126.565 99.736C127.312 100.515 127.685 101.56 127.685 102.872C127.685 104.184 127.312 105.229 126.565 106.008ZM121.749 105.192C122.229 105.757 122.874 106.04 123.685 106.04C124.496 106.04 125.141 105.757 125.621 105.192C126.101 104.637 126.341 103.864 126.341 102.872C126.341 101.869 126.101 101.091 125.621 100.536C125.141 99.9813 124.496 99.704 123.685 99.704C122.874 99.704 122.229 99.9813 121.749 100.536C121.269 101.091 121.029 101.869 121.029 102.872C121.029 103.864 121.269 104.637 121.749 105.192ZM134.416 103.416V98.744H135.696V107H134.48V105.768C133.85 106.717 132.986 107.192 131.888 107.192C130.97 107.192 130.256 106.941 129.744 106.44C129.232 105.939 128.976 105.235 128.976 104.328V98.744H130.256V104.2C130.256 105.427 130.885 106.04 132.144 106.04C132.741 106.04 133.269 105.816 133.728 105.368C134.186 104.92 134.416 104.269 134.416 103.416ZM141.232 98.744V99.864H139.536V105.224C139.536 105.693 139.851 105.928 140.48 105.928H141.232V107C140.88 107.032 140.576 107.048 140.32 107.048C138.944 107.048 138.256 106.477 138.256 105.336V99.864H136.896V98.744H138.256V96.408H139.536V98.744H141.232ZM148.025 103.416V98.744H149.305V107H148.089V105.768C147.46 106.717 146.596 107.192 145.497 107.192C144.58 107.192 143.865 106.941 143.353 106.44C142.841 105.939 142.585 105.235 142.585 104.328V98.744H143.865V104.2C143.865 105.427 144.494 106.04 145.753 106.04C146.35 106.04 146.878 105.816 147.337 105.368C147.796 104.92 148.025 104.269 148.025 103.416ZM155.274 98.552C156.436 98.552 157.37 98.9413 158.074 99.72C158.767 100.509 159.114 101.56 159.114 102.872C159.114 104.173 158.767 105.219 158.074 106.008C157.37 106.797 156.436 107.192 155.274 107.192C154.047 107.192 153.103 106.701 152.442 105.72V107H151.226V95.608H152.506V99.928C153.167 99.0107 154.09 98.552 155.274 98.552ZM155.114 106.04C155.914 106.04 156.554 105.752 157.034 105.176C157.524 104.589 157.77 103.8 157.77 102.808C157.77 101.837 157.53 101.08 157.05 100.536C156.58 99.9813 155.935 99.704 155.114 99.704C154.303 99.704 153.658 99.9813 153.178 100.536C152.698 101.091 152.458 101.869 152.458 102.872C152.458 103.864 152.698 104.637 153.178 105.192C153.658 105.757 154.303 106.04 155.114 106.04ZM167.832 102.872V103.32H161.56C161.624 104.216 161.875 104.893 162.312 105.352C162.749 105.8 163.347 106.024 164.104 106.024C165.245 106.024 165.976 105.512 166.296 104.488H167.624C167.4 105.32 166.984 105.981 166.376 106.472C165.768 106.952 165 107.192 164.072 107.192C162.931 107.192 162.008 106.803 161.304 106.024C160.589 105.245 160.232 104.195 160.232 102.872C160.232 101.571 160.584 100.525 161.288 99.736C161.981 98.9467 162.899 98.552 164.04 98.552C165.224 98.552 166.152 98.9627 166.824 99.784C167.496 100.605 167.832 101.635 167.832 102.872ZM164.04 99.72C163.368 99.72 162.819 99.9333 162.392 100.36C161.965 100.776 161.699 101.379 161.592 102.168H166.456C166.392 101.443 166.147 100.856 165.72 100.408C165.293 99.9493 164.733 99.72 164.04 99.72Z" fill="#131315"/>
<rect x="91" y="97" width="7.65217" height="8" rx="2" fill="#F79DFF"/>
<path d="M209.96 95.608V96.824H203.384V100.456H209.32V101.672H203.384V105.784H209.896V107H202.04V95.608H209.96ZM220.007 98.552C220.903 98.552 221.597 98.8133 222.087 99.336C222.589 99.848 222.839 100.536 222.839 101.4V107H221.559V101.528C221.559 100.312 220.983 99.704 219.831 99.704C219.223 99.704 218.717 99.9493 218.311 100.44C217.917 100.92 217.719 101.603 217.719 102.488V107H216.439V101.528C216.439 100.312 215.863 99.704 214.711 99.704C214.114 99.704 213.613 99.9493 213.207 100.44C212.802 100.92 212.599 101.603 212.599 102.488V107H211.319V98.744H212.535V99.96C213.079 99.0213 213.874 98.552 214.919 98.552C216.157 98.552 217.005 99.0693 217.463 100.104C218.039 99.0693 218.887 98.552 220.007 98.552ZM231.509 105.96H231.973V107C231.76 107.032 231.525 107.048 231.269 107.048C230.405 107.048 229.941 106.653 229.877 105.864C229.301 106.749 228.405 107.192 227.189 107.192C226.282 107.192 225.568 106.984 225.045 106.568C224.533 106.141 224.277 105.544 224.277 104.776C224.277 103.283 225.296 102.429 227.333 102.216L228.517 102.088C229.381 101.992 229.813 101.613 229.813 100.952C229.813 100.493 229.669 100.163 229.381 99.96C229.104 99.7573 228.629 99.656 227.957 99.656C227.242 99.656 226.725 99.7787 226.405 100.024C226.096 100.259 225.92 100.68 225.877 101.288H224.597C224.704 99.464 225.824 98.552 227.957 98.552C230.026 98.552 231.061 99.352 231.061 100.952V105.56C231.061 105.827 231.21 105.96 231.509 105.96ZM227.253 106.104C227.936 106.104 228.533 105.896 229.045 105.48C229.557 105.075 229.813 104.493 229.813 103.736V102.76C229.578 102.941 229.216 103.059 228.725 103.112L227.525 103.256C226.832 103.341 226.336 103.501 226.037 103.736C225.749 103.971 225.605 104.307 225.605 104.744C225.605 105.171 225.744 105.507 226.021 105.752C226.298 105.987 226.709 106.104 227.253 106.104ZM234.335 97.496H232.975V95.928H234.335V97.496ZM234.303 107H233.023V98.744H234.303V107ZM237.506 107H236.226V95.608H237.506V107Z" fill="#131315"/>
<rect x="181" y="97" width="7.65217" height="8" rx="2" fill="#8674FE"/>
<path d="M209.96 95.608V96.824H203.384V100.456H209.32V101.672H203.384V105.784H209.896V107H202.04V95.608H209.96ZM220.007 98.552C220.903 98.552 221.597 98.8133 222.087 99.336C222.589 99.848 222.839 100.536 222.839 101.4V107H221.559V101.528C221.559 100.312 220.983 99.704 219.831 99.704C219.223 99.704 218.717 99.9493 218.311 100.44C217.917 100.92 217.719 101.603 217.719 102.488V107H216.439V101.528C216.439 100.312 215.863 99.704 214.711 99.704C214.114 99.704 213.613 99.9493 213.207 100.44C212.802 100.92 212.599 101.603 212.599 102.488V107H211.319V98.744H212.535V99.96C213.079 99.0213 213.874 98.552 214.919 98.552C216.157 98.552 217.005 99.0693 217.463 100.104C218.039 99.0693 218.887 98.552 220.007 98.552ZM231.509 105.96H231.973V107C231.76 107.032 231.525 107.048 231.269 107.048C230.405 107.048 229.941 106.653 229.877 105.864C229.301 106.749 228.405 107.192 227.189 107.192C226.282 107.192 225.568 106.984 225.045 106.568C224.533 106.141 224.277 105.544 224.277 104.776C224.277 103.283 225.296 102.429 227.333 102.216L228.517 102.088C229.381 101.992 229.813 101.613 229.813 100.952C229.813 100.493 229.669 100.163 229.381 99.96C229.104 99.7573 228.629 99.656 227.957 99.656C227.242 99.656 226.725 99.7787 226.405 100.024C226.096 100.259 225.92 100.68 225.877 101.288H224.597C224.704 99.464 225.824 98.552 227.957 98.552C230.026 98.552 231.061 99.352 231.061 100.952V105.56C231.061 105.827 231.21 105.96 231.509 105.96ZM227.253 106.104C227.936 106.104 228.533 105.896 229.045 105.48C229.557 105.075 229.813 104.493 229.813 103.736V102.76C229.578 102.941 229.216 103.059 228.725 103.112L227.525 103.256C226.832 103.341 226.336 103.501 226.037 103.736C225.749 103.971 225.605 104.307 225.605 104.744C225.605 105.171 225.744 105.507 226.021 105.752C226.298 105.987 226.709 106.104 227.253 106.104ZM234.335 97.496H232.975V95.928H234.335V97.496ZM234.303 107H233.023V98.744H234.303V107ZM237.506 107H236.226V95.608H237.506V107Z" fill="#131315"/>
<rect x="181" y="97" width="7.65217" height="8" rx="2" fill="#8674FE"/>
<path d="M307.216 70.256C305.733 70.256 304.576 69.92 303.744 69.248C302.912 68.576 302.491 67.5733 302.48 66.24H303.872C303.904 68.1067 305.019 69.04 307.216 69.04C308.144 69.04 308.853 68.8587 309.344 68.496C309.845 68.1333 310.096 67.6053 310.096 66.912C310.096 66.368 309.888 65.9467 309.472 65.648C309.067 65.3387 308.352 65.072 307.328 64.848L306.32 64.624C305.168 64.3573 304.304 63.9733 303.728 63.472C303.152 62.96 302.864 62.2453 302.864 61.328C302.864 60.4213 303.216 59.7013 303.92 59.168C304.624 58.624 305.568 58.352 306.752 58.352C307.552 58.352 308.245 58.448 308.832 58.64C309.429 58.832 309.893 59.104 310.224 59.456C310.555 59.7973 310.795 60.1707 310.944 60.576C311.104 60.9813 311.189 61.4293 311.2 61.92H309.824C309.76 61.1093 309.493 60.5173 309.024 60.144C308.565 59.76 307.808 59.568 306.752 59.568C305.952 59.568 305.333 59.7227 304.896 60.032C304.469 60.3413 304.256 60.7733 304.256 61.328C304.256 61.8827 304.443 62.3147 304.816 62.624C305.179 62.9333 305.883 63.2053 306.928 63.44L307.936 63.664C309.195 63.9413 310.101 64.3413 310.656 64.864C311.211 65.376 311.488 66.0587 311.488 66.912C311.488 67.9467 311.109 68.7627 310.352 69.36C309.595 69.9573 308.549 70.256 307.216 70.256ZM319.971 64.896L322.515 58.608H324.275V70H322.963V66.352C322.963 63.952 322.979 62.016 323.011 60.544C322.755 61.248 322.419 62.112 322.003 63.136L319.187 70H318.035L315.203 63.136C314.787 62.112 314.451 61.248 314.195 60.544C314.227 62.016 314.243 63.952 314.243 66.352V70H312.931V58.608H314.691L317.331 65.088C317.725 66.0587 318.157 67.152 318.627 68.368C319.277 66.64 319.725 65.4827 319.971 64.896ZM330.529 70.256C329.046 70.256 327.889 69.92 327.057 69.248C326.225 68.576 325.803 67.5733 325.793 66.24H327.185C327.217 68.1067 328.331 69.04 330.529 69.04C331.457 69.04 332.166 68.8587 332.657 68.496C333.158 68.1333 333.409 67.6053 333.409 66.912C333.409 66.368 333.201 65.9467 332.785 65.648C332.379 65.3387 331.665 65.072 330.641 64.848L329.633 64.624C328.481 64.3573 327.617 63.9733 327.041 63.472C326.465 62.96 326.177 62.2453 326.177 61.328C326.177 60.4213 326.529 59.7013 327.233 59.168C327.937 58.624 328.881 58.352 330.065 58.352C330.865 58.352 331.558 58.448 332.145 58.64C332.742 58.832 333.206 59.104 333.536 59.456C333.867 59.7973 334.107 60.1707 334.257 60.576C334.417 60.9813 334.502 61.4293 334.513 61.92H333.137C333.073 61.1093 332.806 60.5173 332.337 60.144C331.878 59.76 331.121 59.568 330.065 59.568C329.265 59.568 328.646 59.7227 328.209 60.032C327.782 60.3413 327.569 60.7733 327.569 61.328C327.569 61.8827 327.755 62.3147 328.129 62.624C328.491 62.9333 329.195 63.2053 330.241 63.44L331.249 63.664C332.507 63.9413 333.414 64.3413 333.969 64.864C334.523 65.376 334.801 66.0587 334.801 66.912C334.801 67.9467 334.422 68.7627 333.665 69.36C332.907 69.9573 331.862 70.256 330.529 70.256Z" fill="#131315"/>
<rect x="282" y="60" width="7.65217" height="8" rx="2" fill="#4DD383"/>
<path d="M283.112 101.224L284.664 95.608H286.056L282.824 107H281.32L279.688 101.192C279.229 99.5493 278.883 98.264 278.648 97.336C278.413 98.264 278.067 99.5493 277.608 101.192L275.976 107H274.472L271.24 95.608H272.632L274.184 101.224C274.675 102.963 275.032 104.323 275.256 105.304C275.629 103.875 275.992 102.504 276.344 101.192L277.896 95.608H279.4L280.952 101.192C281.315 102.504 281.677 103.875 282.04 105.304C282.264 104.323 282.621 102.963 283.112 101.224ZM293.41 102.872V103.32H287.138C287.202 104.216 287.453 104.893 287.89 105.352C288.327 105.8 288.925 106.024 289.682 106.024C290.823 106.024 291.554 105.512 291.874 104.488H293.202C292.978 105.32 292.562 105.981 291.954 106.472C291.346 106.952 290.578 107.192 289.65 107.192C288.509 107.192 287.586 106.803 286.882 106.024C286.167 105.245 285.81 104.195 285.81 102.872C285.81 101.571 286.162 100.525 286.866 99.736C287.559 98.9467 288.477 98.552 289.618 98.552C290.802 98.552 291.73 98.9627 292.402 99.784C293.074 100.605 293.41 101.635 293.41 102.872ZM289.618 99.72C288.946 99.72 288.397 99.9333 287.97 100.36C287.543 100.776 287.277 101.379 287.17 102.168H292.034C291.97 101.443 291.725 100.856 291.298 100.408C290.871 99.9493 290.311 99.72 289.618 99.72ZM298.977 98.552C300.139 98.552 301.073 98.9413 301.777 99.72C302.47 100.509 302.817 101.56 302.817 102.872C302.817 104.173 302.47 105.219 301.777 106.008C301.073 106.797 300.139 107.192 298.977 107.192C297.75 107.192 296.806 106.701 296.145 105.72V107H294.929V95.608H296.209V99.928C296.87 99.0107 297.793 98.552 298.977 98.552ZM298.817 106.04C299.617 106.04 300.257 105.752 300.737 105.176C301.227 104.589 301.473 103.8 301.473 102.808C301.473 101.837 301.233 101.08 300.753 100.536C300.283 99.9813 299.638 99.704 298.817 99.704C298.006 99.704 297.361 99.9813 296.881 100.536C296.401 101.091 296.161 101.869 296.161 102.872C296.161 103.864 296.401 104.637 296.881 105.192C297.361 105.757 298.006 106.04 298.817 106.04ZM307.091 107.192C304.883 107.192 303.715 106.253 303.587 104.376H304.883C304.957 104.995 305.16 105.437 305.491 105.704C305.832 105.96 306.365 106.088 307.091 106.088C308.413 106.088 309.075 105.661 309.075 104.808C309.075 104.435 308.936 104.152 308.659 103.96C308.392 103.768 307.901 103.603 307.187 103.464L306.419 103.32C304.701 103 303.843 102.189 303.843 100.888C303.843 100.173 304.109 99.608 304.643 99.192C305.187 98.7653 305.923 98.552 306.851 98.552C309.037 98.552 310.157 99.464 310.211 101.288H308.931C308.899 100.691 308.717 100.269 308.387 100.024C308.056 99.7787 307.544 99.656 306.851 99.656C306.296 99.656 305.869 99.7627 305.571 99.976C305.272 100.189 305.123 100.488 305.123 100.872C305.123 101.235 305.251 101.507 305.507 101.688C305.763 101.869 306.189 102.024 306.787 102.152L307.523 102.296C308.536 102.499 309.261 102.787 309.699 103.16C310.147 103.533 310.371 104.056 310.371 104.728C310.371 105.507 310.077 106.115 309.491 106.552C308.915 106.979 308.115 107.192 307.091 107.192ZM312.96 97.496H311.6V95.928H312.96V97.496ZM312.928 107H311.648V98.744H312.928V107ZM318.467 98.744V99.864H316.771V105.224C316.771 105.693 317.085 105.928 317.715 105.928H318.467V107C318.115 107.032 317.811 107.048 317.555 107.048C316.179 107.048 315.491 106.477 315.491 105.336V99.864H314.131V98.744H315.491V96.408H316.771V98.744H318.467ZM326.863 102.872V103.32H320.591C320.655 104.216 320.906 104.893 321.343 105.352C321.78 105.8 322.378 106.024 323.135 106.024C324.276 106.024 325.007 105.512 325.327 104.488H326.655C326.431 105.32 326.015 105.981 325.407 106.472C324.799 106.952 324.031 107.192 323.103 107.192C321.962 107.192 321.039 106.803 320.335 106.024C319.62 105.245 319.263 104.195 319.263 102.872C319.263 101.571 319.615 100.525 320.319 99.736C321.012 98.9467 321.93 98.552 323.071 98.552C324.255 98.552 325.183 98.9627 325.855 99.784C326.527 100.605 326.863 101.635 326.863 102.872ZM323.071 99.72C322.399 99.72 321.85 99.9333 321.423 100.36C320.996 100.776 320.73 101.379 320.623 102.168H325.487C325.423 101.443 325.178 100.856 324.751 100.408C324.324 99.9493 323.764 99.72 323.071 99.72Z" fill="#131315"/>
<rect x="251" y="97" width="7.65217" height="8" rx="2" fill="#26B7D7"/>
<path d="M43.724 362.456H45.008V371H43.388V365.24H41.42V364.1L41.612 364.088C42.236 364.048 42.712 363.908 43.04 363.668C43.376 363.42 43.604 363.016 43.724 362.456Z" fill="#BCBCBC"/>
<path d="M102.532 366.464C103.524 366.848 104.02 367.552 104.02 368.576C104.02 369.376 103.72 370.008 103.12 370.472C102.512 370.952 101.696 371.192 100.672 371.192C99.648 371.192 98.836 370.952 98.236 370.472C97.636 370.008 97.336 369.376 97.336 368.576C97.336 367.568 97.828 366.864 98.812 366.464C98.06 366.072 97.684 365.46 97.684 364.628C97.684 363.9 97.96 363.324 98.512 362.9C99.072 362.476 99.792 362.264 100.672 362.264C101.552 362.264 102.272 362.476 102.832 362.9C103.384 363.324 103.66 363.9 103.66 364.628C103.66 365.46 103.284 366.072 102.532 366.464ZM102.184 364.724C102.184 364.332 102.048 364.028 101.776 363.812C101.504 363.596 101.136 363.488 100.672 363.488C100.224 363.488 99.86 363.596 99.58 363.812C99.3 364.028 99.16 364.332 99.16 364.724C99.16 365.1 99.296 365.396 99.568 365.612C99.84 365.828 100.208 365.936 100.672 365.936C101.136 365.936 101.504 365.828 101.776 365.612C102.048 365.396 102.184 365.1 102.184 364.724ZM100.672 369.896C101.224 369.896 101.648 369.772 101.944 369.524C102.248 369.276 102.4 368.928 102.4 368.48C102.4 368.024 102.248 367.672 101.944 367.424C101.64 367.176 101.216 367.052 100.672 367.052C100.128 367.052 99.704 367.176 99.4 367.424C99.096 367.672 98.944 368.024 98.944 368.48C98.944 368.928 99.096 369.276 99.4 369.524C99.704 369.772 100.128 369.896 100.672 369.896Z" fill="#BCBCBC"/>
<path d="M158.724 362.456H160.008V371H158.388V365.24H156.42V364.1L156.612 364.088C157.236 364.048 157.712 363.908 158.04 363.668C158.376 363.42 158.604 363.016 158.724 362.456ZM164.623 365.384C165.551 365.384 166.275 365.656 166.795 366.2C167.299 366.744 167.551 367.42 167.551 368.228C167.551 369.116 167.255 369.832 166.663 370.376C166.071 370.92 165.303 371.192 164.359 371.192C163.487 371.192 162.755 370.956 162.163 370.484C161.587 370.02 161.267 369.38 161.203 368.564H162.751C162.807 368.972 162.979 369.296 163.267 369.536C163.563 369.768 163.927 369.884 164.359 369.884C164.847 369.884 165.239 369.732 165.535 369.428C165.839 369.116 165.991 368.716 165.991 368.228C165.991 367.74 165.839 367.344 165.535 367.04C165.239 366.728 164.847 366.572 164.359 366.572C163.639 366.572 163.139 366.86 162.859 367.436H161.371L162.163 362.456H167.107V363.824H163.435L163.063 365.948C163.527 365.572 164.047 365.384 164.623 365.384Z" fill="#BCBCBC"/>
<path d="M221.28 369.632H225.684V371H219.468L219.504 370.364C219.536 369.708 219.672 369.12 219.912 368.6C220.208 367.952 220.82 367.416 221.748 366.992L222.588 366.56C223.084 366.32 223.436 366.076 223.644 365.828C223.852 365.58 223.956 365.272 223.956 364.904C223.956 364.512 223.832 364.204 223.584 363.98C223.336 363.748 222.992 363.632 222.552 363.632C221.568 363.632 221.076 364.152 221.076 365.192H219.516C219.508 364.272 219.768 363.556 220.296 363.044C220.832 362.524 221.6 362.264 222.6 362.264C223.52 362.264 224.248 362.496 224.784 362.96C225.32 363.424 225.588 364.032 225.588 364.784C225.588 365.432 225.408 365.984 225.048 366.44C224.688 366.888 224.116 367.308 223.332 367.7L222.54 368.12C222.092 368.36 221.776 368.588 221.592 368.804C221.416 369.012 221.312 369.288 221.28 369.632ZM228.358 369.632H232.762V371H226.546L226.582 370.364C226.614 369.708 226.75 369.12 226.99 368.6C227.286 367.952 227.898 367.416 228.826 366.992L229.666 366.56C230.162 366.32 230.514 366.076 230.722 365.828C230.93 365.58 231.034 365.272 231.034 364.904C231.034 364.512 230.91 364.204 230.662 363.98C230.414 363.748 230.07 363.632 229.63 363.632C228.646 363.632 228.154 364.152 228.154 365.192H226.594C226.586 364.272 226.846 363.556 227.374 363.044C227.91 362.524 228.678 362.264 229.678 362.264C230.598 362.264 231.326 362.496 231.862 362.96C232.398 363.424 232.666 364.032 232.666 364.784C232.666 365.432 232.486 365.984 232.126 366.44C231.766 366.888 231.194 367.308 230.41 367.7L229.618 368.12C229.17 368.36 228.854 368.588 228.67 368.804C228.494 369.012 228.39 369.288 228.358 369.632Z" fill="#BCBCBC"/>
<path d="M288.259 369.632H292.663V371H286.447L286.483 370.364C286.515 369.708 286.651 369.12 286.891 368.6C287.187 367.952 287.799 367.416 288.727 366.992L289.567 366.56C290.063 366.32 290.415 366.076 290.623 365.828C290.831 365.58 290.935 365.272 290.935 364.904C290.935 364.512 290.811 364.204 290.563 363.98C290.315 363.748 289.971 363.632 289.531 363.632C288.547 363.632 288.055 364.152 288.055 365.192H286.495C286.487 364.272 286.747 363.556 287.275 363.044C287.811 362.524 288.579 362.264 289.579 362.264C290.499 362.264 291.227 362.496 291.763 362.96C292.299 363.424 292.567 364.032 292.567 364.784C292.567 365.432 292.387 365.984 292.027 366.44C291.667 366.888 291.095 367.308 290.311 367.7L289.519 368.12C289.071 368.36 288.755 368.588 288.571 368.804C288.395 369.012 288.291 369.288 288.259 369.632ZM292.991 363.824V362.456H298.835V363.752C297.867 364.776 297.167 365.848 296.735 366.968C296.287 368.12 296.051 369.464 296.027 371H294.347C294.395 368.24 295.339 365.848 297.179 363.824H292.991Z" fill="#BCBCBC"/>
<line y1="335.5" x2="343" y2="335.5" stroke="#BCBCBC"/>
<path d="M339.67 349.384C340.598 349.384 341.322 349.656 341.842 350.2C342.346 350.744 342.598 351.42 342.598 352.228C342.598 353.116 342.302 353.832 341.71 354.376C341.118 354.92 340.35 355.192 339.406 355.192C338.534 355.192 337.802 354.956 337.21 354.484C336.634 354.02 336.314 353.38 336.25 352.564H337.798C337.854 352.972 338.026 353.296 338.314 353.536C338.61 353.768 338.974 353.884 339.406 353.884C339.894 353.884 340.286 353.732 340.582 353.428C340.886 353.116 341.038 352.716 341.038 352.228C341.038 351.74 340.886 351.344 340.582 351.04C340.286 350.728 339.894 350.572 339.406 350.572C338.686 350.572 338.186 350.86 337.906 351.436H336.418L337.21 346.456H342.154V347.824H338.482L338.11 349.948C338.574 349.572 339.094 349.384 339.67 349.384Z" fill="#BCBCBC"/>
<path d="M339.67 349.384C340.598 349.384 341.322 349.656 341.842 350.2C342.346 350.744 342.598 351.42 342.598 352.228C342.598 353.116 342.302 353.832 341.71 354.376C341.118 354.92 340.35 355.192 339.406 355.192C338.534 355.192 337.802 354.956 337.21 354.484C336.634 354.02 336.314 353.38 336.25 352.564H337.798C337.854 352.972 338.026 353.296 338.314 353.536C338.61 353.768 338.974 353.884 339.406 353.884C339.894 353.884 340.286 353.732 340.582 353.428C340.886 353.116 341.038 352.716 341.038 352.228C341.038 351.74 340.886 351.344 340.582 351.04C340.286 350.728 339.894 350.572 339.406 350.572C338.686 350.572 338.186 350.86 337.906 351.436H336.418L337.21 346.456H342.154V347.824H338.482L338.11 349.948C338.574 349.572 339.094 349.384 339.67 349.384Z" fill="#BCBCBC"/>
<line y1="292.5" x2="343" y2="292.5" stroke="#BCBCBC"/>
<path d="M333.771 303.456H335.055V312H333.435V306.24H331.467V305.1L331.659 305.088C332.283 305.048 332.759 304.908 333.087 304.668C333.423 304.42 333.651 304.016 333.771 303.456ZM339.67 306.384C340.598 306.384 341.322 306.656 341.842 307.2C342.346 307.744 342.598 308.42 342.598 309.228C342.598 310.116 342.302 310.832 341.71 311.376C341.118 311.92 340.35 312.192 339.406 312.192C338.534 312.192 337.802 311.956 337.21 311.484C336.634 311.02 336.314 310.38 336.25 309.564H337.798C337.854 309.972 338.026 310.296 338.314 310.536C338.61 310.768 338.974 310.884 339.406 310.884C339.894 310.884 340.286 310.732 340.582 310.428C340.886 310.116 341.038 309.716 341.038 309.228C341.038 308.74 340.886 308.344 340.582 308.04C340.286 307.728 339.894 307.572 339.406 307.572C338.686 307.572 338.186 307.86 337.906 308.436H336.418L337.21 303.456H342.154V304.824H338.482L338.11 306.948C338.574 306.572 339.094 306.384 339.67 306.384Z" fill="#BCBCBC"/>
<line y1="249.5" x2="343" y2="249.5" stroke="#BCBCBC"/>
<path d="M331.323 267.632H335.727V269H329.511L329.547 268.364C329.579 267.708 329.715 267.12 329.955 266.6C330.251 265.952 330.863 265.416 331.791 264.992L332.631 264.56C333.127 264.32 333.479 264.076 333.687 263.828C333.895 263.58 333.999 263.272 333.999 262.904C333.999 262.512 333.875 262.204 333.627 261.98C333.379 261.748 333.035 261.632 332.595 261.632C331.611 261.632 331.119 262.152 331.119 263.192H329.559C329.551 262.272 329.811 261.556 330.339 261.044C330.875 260.524 331.643 260.264 332.643 260.264C333.563 260.264 334.291 260.496 334.827 260.96C335.363 261.424 335.631 262.032 335.631 262.784C335.631 263.432 335.451 263.984 335.091 264.44C334.731 264.888 334.159 265.308 333.375 265.7L332.583 266.12C332.135 266.36 331.819 266.588 331.635 266.804C331.459 267.012 331.355 267.288 331.323 267.632ZM339.67 263.384C340.598 263.384 341.322 263.656 341.842 264.2C342.346 264.744 342.598 265.42 342.598 266.228C342.598 267.116 342.302 267.832 341.71 268.376C341.118 268.92 340.35 269.192 339.406 269.192C338.534 269.192 337.802 268.956 337.21 268.484C336.634 268.02 336.314 267.38 336.25 266.564H337.798C337.854 266.972 338.026 267.296 338.314 267.536C338.61 267.768 338.974 267.884 339.406 267.884C339.894 267.884 340.286 267.732 340.582 267.428C340.886 267.116 341.038 266.716 341.038 266.228C341.038 265.74 340.886 265.344 340.582 265.04C340.286 264.728 339.894 264.572 339.406 264.572C338.686 264.572 338.186 264.86 337.906 265.436H336.418L337.21 260.456H342.154V261.824H338.482L338.11 263.948C338.574 263.572 339.094 263.384 339.67 263.384Z" fill="#BCBCBC"/>
<line y1="206.5" x2="343" y2="206.5" stroke="#BCBCBC"/>
<path d="M334.107 221.44C334.555 221.632 334.907 221.912 335.163 222.28C335.427 222.64 335.559 223.064 335.559 223.552C335.559 224.344 335.271 224.98 334.695 225.46C334.111 225.948 333.331 226.192 332.355 226.192C331.267 226.192 330.435 225.928 329.859 225.4C329.291 224.864 329.007 224.12 329.007 223.168H330.579C330.603 224.272 331.179 224.824 332.307 224.824C332.795 224.824 333.179 224.704 333.459 224.464C333.739 224.224 333.879 223.9 333.879 223.492C333.879 223.052 333.735 222.712 333.447 222.472C333.159 222.232 332.759 222.112 332.247 222.112H331.611V220.924H332.235C333.235 220.924 333.735 220.528 333.735 219.736C333.735 219.376 333.607 219.096 333.351 218.896C333.095 218.688 332.743 218.584 332.295 218.584C331.327 218.584 330.819 219.036 330.771 219.94H329.211C329.227 219.084 329.499 218.424 330.027 217.96C330.563 217.496 331.323 217.264 332.307 217.264C333.227 217.264 333.955 217.476 334.491 217.9C335.035 218.316 335.307 218.884 335.307 219.604C335.307 220.42 334.907 221.032 334.107 221.44ZM339.67 220.384C340.598 220.384 341.322 220.656 341.842 221.2C342.346 221.744 342.598 222.42 342.598 223.228C342.598 224.116 342.302 224.832 341.71 225.376C341.118 225.92 340.35 226.192 339.406 226.192C338.534 226.192 337.802 225.956 337.21 225.484C336.634 225.02 336.314 224.38 336.25 223.564H337.798C337.854 223.972 338.026 224.296 338.314 224.536C338.61 224.768 338.974 224.884 339.406 224.884C339.894 224.884 340.286 224.732 340.582 224.428C340.886 224.116 341.038 223.716 341.038 223.228C341.038 222.74 340.886 222.344 340.582 222.04C340.286 221.728 339.894 221.572 339.406 221.572C338.686 221.572 338.186 221.86 337.906 222.436H336.418L337.21 217.456H342.154V218.824H338.482L338.11 220.948C338.574 220.572 339.094 220.384 339.67 220.384Z" fill="#BCBCBC"/>
<line y1="163.5" x2="343" y2="163.5" stroke="#BCBCBC"/>
<path d="M334.472 179.664H335.612V181.032H334.472V183H332.852V181.032H328.7V179.496L332.696 174.456H334.472V179.664ZM332.888 179.664V176.196L330.14 179.664H332.888ZM339.67 177.384C340.598 177.384 341.322 177.656 341.842 178.2C342.346 178.744 342.598 179.42 342.598 180.228C342.598 181.116 342.302 181.832 341.71 182.376C341.118 182.92 340.35 183.192 339.406 183.192C338.534 183.192 337.802 182.956 337.21 182.484C336.634 182.02 336.314 181.38 336.25 180.564H337.798C337.854 180.972 338.026 181.296 338.314 181.536C338.61 181.768 338.974 181.884 339.406 181.884C339.894 181.884 340.286 181.732 340.582 181.428C340.886 181.116 341.038 180.716 341.038 180.228C341.038 179.74 340.886 179.344 340.582 179.04C340.286 178.728 339.894 178.572 339.406 178.572C338.686 178.572 338.186 178.86 337.906 179.436H336.418L337.21 174.456H342.154V175.824H338.482L338.11 177.948C338.574 177.572 339.094 177.384 339.67 177.384Z" fill="#BCBCBC"/>
<rect x="35" y="221" width="18" height="130" fill="#E77894"/>
<rect x="35" y="279.117" width="18" height="71.8824" fill="#F587FF"/>
<rect x="35" y="299" width="18" height="52" fill="#8674FE"/>
<rect x="35" y="335.705" width="18" height="15.2941" fill="#4DD383"/>
<rect x="92" y="210" width="18" height="141" fill="#4769E7"/>
<rect x="92" y="284.953" width="18" height="66.0474" fill="#F2C26D"/>
<rect x="92" y="325.363" width="18" height="25.6364" fill="#F587FF"/>
<rect x="153" y="229" width="18" height="122" fill="#16D9CE"/>
<rect x="153" y="293.854" width="18" height="57.1474" fill="#F587FF"/>
<rect x="153" y="331.736" width="18" height="19.2632" fill="#8674FE"/>
<rect x="217" y="195" width="18" height="156" fill="#16D9CE"/>
<rect x="217" y="334.693" width="18" height="16.3066" fill="#F2C26D"/>
<rect x="283" y="285" width="18" height="66" fill="#4769E7"/>
<rect x="283" y="315.881" width="18" height="35.1193" fill="#8674FE"/>
</svg>
