<svg width="1368" height="751" viewBox="0 0 1368 751" fill="none" xmlns="http://www.w3.org/2000/svg">
<path d="M0 9.59998C0 6.23968 0 4.55953 0.653961 3.27606C1.2292 2.14708 2.14708 1.2292 3.27606 0.653961C4.55953 0 6.23969 0 9.6 0H1358.4C1361.76 0 1363.44 0 1364.72 0.653961C1365.85 1.2292 1366.77 2.14708 1367.35 3.27606C1368 4.55953 1368 6.23969 1368 9.6V741.4C1368 744.76 1368 746.44 1367.35 747.724C1366.77 748.853 1365.85 749.771 1364.72 750.346C1363.44 751 1361.76 751 1358.4 751H9.60001C6.23969 751 4.55953 751 3.27606 750.346C2.14708 749.771 1.2292 748.853 0.653961 747.724C0 746.44 0 744.76 0 741.4V9.59998Z" fill="#F8F8F8"/>
<path d="M56.032 64.064L59.84 53.216H66.112V76H61.984V69.056C61.984 64.7893 62.0267 61.024 62.112 57.76C61.6427 59.36 61.0667 61.1093 60.384 63.008L55.776 76H52.224L47.584 63.008C46.7733 60.64 46.208 58.912 45.888 57.824C45.9733 61.0667 46.016 64.8107 46.016 69.056V76H41.856V53.216H48.128L52.064 64.288C52.32 65.0347 52.9707 67.0933 54.016 70.464C54.6987 68.096 55.3707 65.9627 56.032 64.064ZM85.1535 68.032V68.992H72.8015C72.9508 70.4 73.3882 71.4667 74.1135 72.192C74.8602 72.896 75.8522 73.248 77.0895 73.248C78.9242 73.248 80.1828 72.4587 80.8655 70.88H84.7375C84.3108 72.5653 83.4148 73.9093 82.0495 74.912C80.6842 75.8933 79.0202 76.384 77.0575 76.384C74.6042 76.384 72.6202 75.5947 71.1055 74.016C69.5908 72.4373 68.8335 70.3467 68.8335 67.744C68.8335 65.1413 69.5802 63.0507 71.0735 61.472C72.5882 59.8933 74.5615 59.104 76.9935 59.104C79.4895 59.104 81.4735 59.9253 82.9455 61.568C84.4175 63.2107 85.1535 65.3653 85.1535 68.032ZM76.9615 62.24C74.5935 62.24 73.2175 63.552 72.8335 66.176H81.1215C80.9508 64.96 80.5028 64 79.7775 63.296C79.0522 62.592 78.1135 62.24 76.9615 62.24ZM99.533 61.632V53.216H103.565V76H99.661V73.696C98.445 75.488 96.7063 76.384 94.445 76.384C92.1623 76.384 90.3597 75.5947 89.037 74.016C87.693 72.4373 87.021 70.3467 87.021 67.744C87.021 65.0987 87.693 62.9973 89.037 61.44C90.3383 59.8827 92.141 59.104 94.445 59.104C96.6637 59.104 98.3597 59.9467 99.533 61.632ZM91.149 67.872C91.149 69.5787 91.5223 70.8693 92.269 71.744C93.0157 72.6187 94.0503 73.056 95.373 73.056C96.6957 73.056 97.741 72.5973 98.509 71.68C99.2557 70.7627 99.629 69.4507 99.629 67.744C99.629 66.0373 99.2557 64.7253 98.509 63.808C97.7623 62.8907 96.717 62.432 95.373 62.432C94.0717 62.432 93.037 62.912 92.269 63.872C91.5223 64.832 91.149 66.1653 91.149 67.872ZM110.82 57.344H106.852V53.568H110.82V57.344ZM110.852 76H106.82V59.488H110.852V76ZM128.949 76H124.917C124.725 75.6587 124.575 74.9867 124.469 73.984C123.359 75.584 121.589 76.384 119.157 76.384C117.343 76.384 115.893 75.9467 114.805 75.072C113.738 74.1973 113.205 72.9813 113.205 71.424C113.205 68.416 115.317 66.6987 119.541 66.272L122.037 66.048C122.869 65.9413 123.466 65.7493 123.829 65.472C124.191 65.1733 124.373 64.736 124.373 64.16C124.373 63.456 124.138 62.944 123.669 62.624C123.221 62.2827 122.453 62.112 121.365 62.112C120.191 62.112 119.349 62.3147 118.837 62.72C118.325 63.104 118.026 63.776 117.941 64.736H113.973C114.207 60.9813 116.682 59.104 121.397 59.104C125.983 59.104 128.277 60.7573 128.277 64.064V72.864C128.277 74.3147 128.501 75.36 128.949 76ZM120.117 73.504C121.375 73.504 122.399 73.1627 123.189 72.48C123.978 71.776 124.373 70.7733 124.373 69.472V67.968C123.989 68.3093 123.359 68.5333 122.485 68.64L120.309 68.896C119.242 69.024 118.474 69.28 118.005 69.664C117.557 70.0267 117.333 70.56 117.333 71.264C117.333 71.968 117.567 72.5227 118.037 72.928C118.527 73.312 119.221 73.504 120.117 73.504ZM148.561 76.512C145.276 76.512 142.62 75.4347 140.593 73.28C138.545 71.1253 137.521 68.2347 137.521 64.608C137.521 60.96 138.534 58.0587 140.561 55.904C142.566 53.7707 145.233 52.704 148.561 52.704C151.228 52.704 153.5 53.4187 155.377 54.848C157.254 56.2773 158.428 58.3467 158.897 61.056H154.513C154.129 59.5627 153.414 58.432 152.369 57.664C151.345 56.8747 150.076 56.48 148.561 56.48C146.534 56.48 144.934 57.2053 143.761 58.656C142.609 60.0853 142.033 62.0693 142.033 64.608C142.033 67.168 142.609 69.1627 143.761 70.592C144.913 72.0213 146.513 72.736 148.561 72.736C150.14 72.736 151.494 72.2667 152.625 71.328C153.756 70.3893 154.438 69.088 154.673 67.424H158.993C158.716 70.3253 157.585 72.5653 155.601 74.144C153.638 75.7227 151.292 76.512 148.561 76.512ZM177.509 67.744C177.509 70.3467 176.741 72.4373 175.205 74.016C173.669 75.5947 171.642 76.384 169.125 76.384C166.607 76.384 164.581 75.5947 163.045 74.016C161.487 72.4587 160.709 70.368 160.709 67.744C160.709 65.12 161.487 63.0293 163.045 61.472C164.581 59.8933 166.607 59.104 169.125 59.104C171.642 59.104 173.669 59.8827 175.205 61.44C176.741 62.9973 177.509 65.0987 177.509 67.744ZM165.957 71.68C166.725 72.5973 167.781 73.056 169.125 73.056C170.469 73.056 171.514 72.5973 172.261 71.68C173.029 70.7413 173.413 69.4293 173.413 67.744C173.413 66.0587 173.029 64.7573 172.261 63.84C171.514 62.9013 170.469 62.432 169.125 62.432C167.781 62.432 166.725 62.8907 165.957 63.808C165.21 64.7253 164.837 66.0373 164.837 67.744C164.837 69.4507 165.21 70.7627 165.957 71.68ZM188.763 63.904L190.363 59.488H194.555L188.411 76H183.771L177.659 59.488H181.979L183.579 63.936C184.325 66.2613 185.189 69.0667 186.171 72.352C186.96 69.7067 187.824 66.8907 188.763 63.904ZM211.029 68.032V68.992H198.677C198.826 70.4 199.263 71.4667 199.989 72.192C200.735 72.896 201.727 73.248 202.965 73.248C204.799 73.248 206.058 72.4587 206.741 70.88H210.613C210.186 72.5653 209.29 73.9093 207.925 74.912C206.559 75.8933 204.895 76.384 202.933 76.384C200.479 76.384 198.495 75.5947 196.981 74.016C195.466 72.4373 194.709 70.3467 194.709 67.744C194.709 65.1413 195.455 63.0507 196.949 61.472C198.463 59.8933 200.437 59.104 202.869 59.104C205.365 59.104 207.349 59.9253 208.821 61.568C210.293 63.2107 211.029 65.3653 211.029 68.032ZM202.837 62.24C200.469 62.24 199.093 63.552 198.709 66.176H206.997C206.826 64.96 206.378 64 205.653 63.296C204.927 62.592 203.989 62.24 202.837 62.24ZM222.464 59.232C222.827 59.232 223.157 59.2533 223.456 59.296V63.008H222.432C220.896 63.008 219.712 63.4027 218.88 64.192C218.069 64.96 217.664 66.1013 217.664 67.616V76H213.632V59.488H217.536V62.432C218.453 60.2987 220.096 59.232 222.464 59.232ZM239.511 76H235.479C235.287 75.6587 235.138 74.9867 235.031 73.984C233.922 75.584 232.151 76.384 229.719 76.384C227.906 76.384 226.455 75.9467 225.367 75.072C224.301 74.1973 223.767 72.9813 223.767 71.424C223.767 68.416 225.879 66.6987 230.103 66.272L232.599 66.048C233.431 65.9413 234.029 65.7493 234.391 65.472C234.754 65.1733 234.935 64.736 234.935 64.16C234.935 63.456 234.701 62.944 234.231 62.624C233.783 62.2827 233.015 62.112 231.927 62.112C230.754 62.112 229.911 62.3147 229.399 62.72C228.887 63.104 228.589 63.776 228.503 64.736H224.535C224.77 60.9813 227.245 59.104 231.959 59.104C236.546 59.104 238.839 60.7573 238.839 64.064V72.864C238.839 74.3147 239.063 75.36 239.511 76ZM230.679 73.504C231.938 73.504 232.962 73.1627 233.751 72.48C234.541 71.776 234.935 70.7733 234.935 69.472V67.968C234.551 68.3093 233.922 68.5333 233.047 68.64L230.871 68.896C229.805 69.024 229.037 69.28 228.567 69.664C228.119 70.0267 227.895 70.56 227.895 71.264C227.895 71.968 228.13 72.5227 228.599 72.928C229.09 73.312 229.783 73.504 230.679 73.504ZM253.505 61.76V59.488H257.409V75.456C257.409 77.696 256.694 79.456 255.265 80.736C253.857 82.016 251.851 82.656 249.249 82.656C246.945 82.656 245.131 82.144 243.809 81.12C242.507 80.096 241.793 78.688 241.665 76.896H245.633C245.825 78.6667 247.051 79.552 249.313 79.552C250.635 79.552 251.638 79.2107 252.321 78.528C253.025 77.8453 253.377 76.8533 253.377 75.552V73.472C252.182 75.1147 250.497 75.936 248.321 75.936C246.081 75.936 244.278 75.1573 242.913 73.6C241.547 72.0853 240.865 70.0587 240.865 67.52C240.865 64.96 241.547 62.9227 242.913 61.408C244.257 59.872 246.049 59.104 248.289 59.104C250.614 59.104 252.353 59.9893 253.505 61.76ZM249.217 72.608C250.561 72.608 251.606 72.16 252.353 71.264C253.099 70.368 253.473 69.12 253.473 67.52C253.473 65.92 253.099 64.672 252.353 63.776C251.606 62.88 250.561 62.432 249.217 62.432C247.915 62.432 246.881 62.8907 246.113 63.808C245.366 64.704 244.993 65.952 244.993 67.552C244.993 69.1307 245.366 70.368 246.113 71.264C246.881 72.16 247.915 72.608 249.217 72.608ZM276.247 68.032V68.992H263.895C264.045 70.4 264.482 71.4667 265.207 72.192C265.954 72.896 266.946 73.248 268.183 73.248C270.018 73.248 271.277 72.4587 271.959 70.88H275.831C275.405 72.5653 274.509 73.9093 273.143 74.912C271.778 75.8933 270.114 76.384 268.151 76.384C265.698 76.384 263.714 75.5947 262.199 74.016C260.685 72.4373 259.927 70.3467 259.927 67.744C259.927 65.1413 260.674 63.0507 262.167 61.472C263.682 59.8933 265.655 59.104 268.087 59.104C270.583 59.104 272.567 59.9253 274.039 61.568C275.511 63.2107 276.247 65.3653 276.247 68.032ZM268.055 62.24C265.687 62.24 264.311 63.552 263.927 66.176H272.215C272.045 64.96 271.597 64 270.871 63.296C270.146 62.592 269.207 62.24 268.055 62.24Z" fill="#131315"/>
<path d="M90.178 698.032H91.676V708H89.786V701.28H87.49V699.95L87.714 699.936C88.442 699.889 88.9973 699.726 89.38 699.446C89.772 699.157 90.038 698.685 90.178 698.032Z" fill="#BCBCBC"/>
<path d="M101 620H78C76.8954 620 76 620.895 76 622V669C76 670.105 76.8954 671 78 671H101C102.105 671 103 670.105 103 669V622C103 620.895 102.105 620 101 620Z" fill="#8674FE"/>
<path d="M128.66 706.404H133.798V708H126.546L126.588 707.258C126.625 706.493 126.784 705.807 127.064 705.2C127.409 704.444 128.123 703.819 129.206 703.324L130.186 702.82C130.765 702.54 131.175 702.255 131.418 701.966C131.661 701.677 131.782 701.317 131.782 700.888C131.782 700.431 131.637 700.071 131.348 699.81C131.059 699.539 130.657 699.404 130.144 699.404C128.996 699.404 128.422 700.011 128.422 701.224H126.602C126.593 700.151 126.896 699.315 127.512 698.718C128.137 698.111 129.033 697.808 130.2 697.808C131.273 697.808 132.123 698.079 132.748 698.62C133.373 699.161 133.686 699.871 133.686 700.748C133.686 701.504 133.476 702.148 133.056 702.68C132.636 703.203 131.969 703.693 131.054 704.15L130.13 704.64C129.607 704.92 129.239 705.186 129.024 705.438C128.819 705.681 128.697 706.003 128.66 706.404Z" fill="#BCBCBC"/>
<path d="M173.482 702.68C174.005 702.904 174.415 703.231 174.714 703.66C175.022 704.08 175.176 704.575 175.176 705.144C175.176 706.068 174.84 706.81 174.168 707.37C173.487 707.939 172.577 708.224 171.438 708.224C170.169 708.224 169.198 707.916 168.526 707.3C167.863 706.675 167.532 705.807 167.532 704.696H169.366C169.394 705.984 170.066 706.628 171.382 706.628C171.951 706.628 172.399 706.488 172.726 706.208C173.053 705.928 173.216 705.55 173.216 705.074C173.216 704.561 173.048 704.164 172.712 703.884C172.376 703.604 171.909 703.464 171.312 703.464H170.57V702.078H171.298C172.465 702.078 173.048 701.616 173.048 700.692C173.048 700.272 172.899 699.945 172.6 699.712C172.301 699.469 171.891 699.348 171.368 699.348C170.239 699.348 169.646 699.875 169.59 700.93H167.77C167.789 699.931 168.106 699.161 168.722 698.62C169.347 698.079 170.234 697.808 171.382 697.808C172.455 697.808 173.305 698.055 173.93 698.55C174.565 699.035 174.882 699.698 174.882 700.538C174.882 701.49 174.415 702.204 173.482 702.68Z" fill="#BCBCBC"/>
<path d="M215.14 704.108H216.47V705.704H215.14V708H213.25V705.704H208.406V703.912L213.068 698.032H215.14V704.108ZM213.292 704.108V700.062L210.086 704.108H213.292Z" fill="#BCBCBC"/>
<path d="M253.564 701.448C254.647 701.448 255.491 701.765 256.098 702.4C256.686 703.035 256.98 703.823 256.98 704.766C256.98 705.802 256.635 706.637 255.944 707.272C255.253 707.907 254.357 708.224 253.256 708.224C252.239 708.224 251.385 707.949 250.694 707.398C250.022 706.857 249.649 706.11 249.574 705.158H251.38C251.445 705.634 251.646 706.012 251.982 706.292C252.327 706.563 252.752 706.698 253.256 706.698C253.825 706.698 254.283 706.521 254.628 706.166C254.983 705.802 255.16 705.335 255.16 704.766C255.16 704.197 254.983 703.735 254.628 703.38C254.283 703.016 253.825 702.834 253.256 702.834C252.416 702.834 251.833 703.17 251.506 703.842H249.77L250.694 698.032H256.462V699.628H252.178L251.744 702.106C252.285 701.667 252.892 701.448 253.564 701.448Z" fill="#BCBCBC"/>
<path d="M294.83 701.448C295.885 701.448 296.715 701.765 297.322 702.4C297.919 703.035 298.218 703.823 298.218 704.766C298.218 705.811 297.877 706.647 297.196 707.272C296.505 707.907 295.614 708.224 294.522 708.224C293.589 708.224 292.8 707.986 292.156 707.51C291.101 706.707 290.574 705.256 290.574 703.156C290.574 701.439 290.915 700.118 291.596 699.194C292.277 698.27 293.262 697.808 294.55 697.808C295.511 697.808 296.305 698.055 296.93 698.55C297.555 699.035 297.938 699.712 298.078 700.58H296.3C296.123 699.703 295.544 699.264 294.564 699.264C293.836 699.264 293.29 699.539 292.926 700.09C292.571 700.641 292.375 701.509 292.338 702.694C292.898 701.863 293.729 701.448 294.83 701.448ZM292.632 704.794C292.632 705.354 292.809 705.811 293.164 706.166C293.519 706.521 293.971 706.698 294.522 706.698C295.073 706.698 295.525 706.521 295.88 706.166C296.216 705.821 296.384 705.363 296.384 704.794C296.384 704.234 296.211 703.777 295.866 703.422C295.521 703.067 295.073 702.89 294.522 702.89C293.962 702.89 293.505 703.067 293.15 703.422C292.805 703.777 292.632 704.234 292.632 704.794Z" fill="#BCBCBC"/>
<path d="M331.224 699.628V698.032H338.042V699.544C336.913 700.739 336.096 701.989 335.592 703.296C335.069 704.64 334.794 706.208 334.766 708H332.806C332.862 704.78 333.963 701.989 336.11 699.628H331.224Z" fill="#BCBCBC"/>
<path d="M378.454 702.708C379.611 703.156 380.19 703.977 380.19 705.172C380.19 706.105 379.84 706.843 379.14 707.384C378.431 707.944 377.479 708.224 376.284 708.224C375.089 708.224 374.142 707.944 373.442 707.384C372.742 706.843 372.392 706.105 372.392 705.172C372.392 703.996 372.966 703.175 374.114 702.708C373.237 702.251 372.798 701.537 372.798 700.566C372.798 699.717 373.12 699.045 373.764 698.55C374.417 698.055 375.257 697.808 376.284 697.808C377.311 697.808 378.151 698.055 378.804 698.55C379.448 699.045 379.77 699.717 379.77 700.566C379.77 701.537 379.331 702.251 378.454 702.708ZM378.048 700.678C378.048 700.221 377.889 699.866 377.572 699.614C377.255 699.362 376.825 699.236 376.284 699.236C375.761 699.236 375.337 699.362 375.01 699.614C374.683 699.866 374.52 700.221 374.52 700.678C374.52 701.117 374.679 701.462 374.996 701.714C375.313 701.966 375.743 702.092 376.284 702.092C376.825 702.092 377.255 701.966 377.572 701.714C377.889 701.462 378.048 701.117 378.048 700.678ZM376.284 706.712C376.928 706.712 377.423 706.567 377.768 706.278C378.123 705.989 378.3 705.583 378.3 705.06C378.3 704.528 378.123 704.117 377.768 703.828C377.413 703.539 376.919 703.394 376.284 703.394C375.649 703.394 375.155 703.539 374.8 703.828C374.445 704.117 374.268 704.528 374.268 705.06C374.268 705.583 374.445 705.989 374.8 706.278C375.155 706.567 375.649 706.712 376.284 706.712Z" fill="#BCBCBC"/>
<path d="M419.566 698.578C420.621 699.381 421.148 700.832 421.148 702.932C421.148 704.631 420.812 705.947 420.14 706.88C419.477 707.813 418.516 708.28 417.256 708.28C416.267 708.28 415.45 708.037 414.806 707.552C414.171 707.057 413.789 706.376 413.658 705.508H415.422C415.599 706.385 416.206 706.824 417.242 706.824C417.942 706.824 418.465 706.549 418.81 705.998C419.155 705.447 419.347 704.579 419.384 703.394C418.824 704.225 417.993 704.64 416.892 704.64C415.847 704.64 415.021 704.318 414.414 703.674C413.807 703.039 413.504 702.26 413.504 701.336C413.504 700.3 413.849 699.46 414.54 698.816C415.231 698.181 416.122 697.864 417.214 697.864C418.138 697.864 418.922 698.102 419.566 698.578ZM415.856 702.666C416.211 703.021 416.663 703.198 417.214 703.198C417.765 703.198 418.217 703.021 418.572 702.666C418.917 702.321 419.09 701.863 419.09 701.294C419.09 700.734 418.917 700.277 418.572 699.922C418.227 699.567 417.774 699.39 417.214 699.39C416.663 699.39 416.211 699.572 415.856 699.936C415.511 700.291 415.338 700.743 415.338 701.294C415.338 701.863 415.511 702.321 415.856 702.666Z" fill="#BCBCBC"/>
<path d="M454.178 698.032H455.676V708H453.786V701.28H451.49V699.95L451.714 699.936C452.442 699.889 452.997 699.726 453.38 699.446C453.772 699.157 454.038 698.685 454.178 698.032ZM464.042 706.88C463.361 707.776 462.367 708.224 461.06 708.224C459.753 708.224 458.759 707.776 458.078 706.88C457.406 705.984 457.07 704.696 457.07 703.016C457.07 701.336 457.406 700.048 458.078 699.152C458.759 698.256 459.753 697.808 461.06 697.808C462.367 697.808 463.361 698.256 464.042 699.152C464.723 700.048 465.064 701.336 465.064 703.016C465.064 704.696 464.723 705.984 464.042 706.88ZM461.06 706.628C462.413 706.628 463.09 705.424 463.09 703.016C463.09 700.608 462.413 699.404 461.06 699.404C459.716 699.404 459.044 700.608 459.044 703.016C459.044 705.424 459.716 706.628 461.06 706.628Z" fill="#BCBCBC"/>
<path d="M497.178 698.032H498.676V708H496.786V701.28H494.49V699.95L494.714 699.936C495.442 699.889 495.997 699.726 496.38 699.446C496.772 699.157 497.038 698.685 497.178 698.032ZM502.619 698.032H504.117V708H502.227V701.28H499.931V699.95L500.155 699.936C500.883 699.889 501.439 699.726 501.821 699.446C502.213 699.157 502.479 698.685 502.619 698.032Z" fill="#BCBCBC"/>
<path d="M537.178 698.032H538.676V708H536.786V701.28H534.49V699.95L534.714 699.936C535.442 699.889 535.997 699.726 536.38 699.446C536.772 699.157 537.038 698.685 537.178 698.032ZM542.156 706.404H547.294V708H540.042L540.084 707.258C540.121 706.493 540.28 705.807 540.56 705.2C540.905 704.444 541.619 703.819 542.702 703.324L543.682 702.82C544.261 702.54 544.671 702.255 544.914 701.966C545.157 701.677 545.278 701.317 545.278 700.888C545.278 700.431 545.133 700.071 544.844 699.81C544.555 699.539 544.153 699.404 543.64 699.404C542.492 699.404 541.918 700.011 541.918 701.224H540.098C540.089 700.151 540.392 699.315 541.008 698.718C541.633 698.111 542.529 697.808 543.696 697.808C544.769 697.808 545.619 698.079 546.244 698.62C546.869 699.161 547.182 699.871 547.182 700.748C547.182 701.504 546.972 702.148 546.552 702.68C546.132 703.203 545.465 703.693 544.55 704.15L543.626 704.64C543.103 704.92 542.735 705.186 542.52 705.438C542.315 705.681 542.193 706.003 542.156 706.404Z" fill="#BCBCBC"/>
<path d="M577.178 698.032H578.676V708H576.786V701.28H574.49V699.95L574.714 699.936C575.442 699.889 575.997 699.726 576.38 699.446C576.772 699.157 577.038 698.685 577.178 698.032ZM586.06 702.68C586.583 702.904 586.993 703.231 587.292 703.66C587.6 704.08 587.754 704.575 587.754 705.144C587.754 706.068 587.418 706.81 586.746 707.37C586.065 707.939 585.155 708.224 584.016 708.224C582.747 708.224 581.776 707.916 581.104 707.3C580.441 706.675 580.11 705.807 580.11 704.696H581.944C581.972 705.984 582.644 706.628 583.96 706.628C584.529 706.628 584.977 706.488 585.304 706.208C585.631 705.928 585.794 705.55 585.794 705.074C585.794 704.561 585.626 704.164 585.29 703.884C584.954 703.604 584.487 703.464 583.89 703.464H583.148V702.078H583.876C585.043 702.078 585.626 701.616 585.626 700.692C585.626 700.272 585.477 699.945 585.178 699.712C584.879 699.469 584.469 699.348 583.946 699.348C582.817 699.348 582.224 699.875 582.168 700.93H580.348C580.367 699.931 580.684 699.161 581.3 698.62C581.925 698.079 582.812 697.808 583.96 697.808C585.033 697.808 585.883 698.055 586.508 698.55C587.143 699.035 587.46 699.698 587.46 700.538C587.46 701.49 586.993 702.204 586.06 702.68Z" fill="#BCBCBC"/>
<path d="M618.178 698.032H619.676V708H617.786V701.28H615.49V699.95L615.714 699.936C616.442 699.889 616.997 699.726 617.38 699.446C617.772 699.157 618.038 698.685 618.178 698.032ZM627.472 704.108H628.802V705.704H627.472V708H625.582V705.704H620.738V703.912L625.4 698.032H627.472V704.108ZM625.624 704.108V700.062L622.418 704.108H625.624Z" fill="#BCBCBC"/>
<path d="M659.178 698.032H660.676V708H658.786V701.28H656.49V699.95L656.714 699.936C657.442 699.889 657.997 699.726 658.38 699.446C658.772 699.157 659.038 698.685 659.178 698.032ZM666.06 701.448C667.143 701.448 667.987 701.765 668.594 702.4C669.182 703.035 669.476 703.823 669.476 704.766C669.476 705.802 669.131 706.637 668.44 707.272C667.749 707.907 666.853 708.224 665.752 708.224C664.735 708.224 663.881 707.949 663.19 707.398C662.518 706.857 662.145 706.11 662.07 705.158H663.876C663.941 705.634 664.142 706.012 664.478 706.292C664.823 706.563 665.248 706.698 665.752 706.698C666.321 706.698 666.779 706.521 667.124 706.166C667.479 705.802 667.656 705.335 667.656 704.766C667.656 704.197 667.479 703.735 667.124 703.38C666.779 703.016 666.321 702.834 665.752 702.834C664.912 702.834 664.329 703.17 664.002 703.842H662.266L663.19 698.032H668.958V699.628H664.674L664.24 702.106C664.781 701.667 665.388 701.448 666.06 701.448Z" fill="#BCBCBC"/>
<path d="M700.178 698.032H701.676V708H699.786V701.28H697.49V699.95L697.714 699.936C698.442 699.889 698.997 699.726 699.38 699.446C699.772 699.157 700.038 698.685 700.178 698.032ZM707.326 701.448C708.381 701.448 709.211 701.765 709.818 702.4C710.415 703.035 710.714 703.823 710.714 704.766C710.714 705.811 710.373 706.647 709.692 707.272C709.001 707.907 708.11 708.224 707.018 708.224C706.085 708.224 705.296 707.986 704.652 707.51C703.597 706.707 703.07 705.256 703.07 703.156C703.07 701.439 703.411 700.118 704.092 699.194C704.773 698.27 705.758 697.808 707.046 697.808C708.007 697.808 708.801 698.055 709.426 698.55C710.051 699.035 710.434 699.712 710.574 700.58H708.796C708.619 699.703 708.04 699.264 707.06 699.264C706.332 699.264 705.786 699.539 705.422 700.09C705.067 700.641 704.871 701.509 704.834 702.694C705.394 701.863 706.225 701.448 707.326 701.448ZM705.128 704.794C705.128 705.354 705.305 705.811 705.66 706.166C706.015 706.521 706.467 706.698 707.018 706.698C707.569 706.698 708.021 706.521 708.376 706.166C708.712 705.821 708.88 705.363 708.88 704.794C708.88 704.234 708.707 703.777 708.362 703.422C708.017 703.067 707.569 702.89 707.018 702.89C706.458 702.89 706.001 703.067 705.646 703.422C705.301 703.777 705.128 704.234 705.128 704.794Z" fill="#BCBCBC"/>
<path d="M742.178 698.032H743.676V708H741.786V701.28H739.49V699.95L739.714 699.936C740.442 699.889 740.997 699.726 741.38 699.446C741.772 699.157 742.038 698.685 742.178 698.032ZM744.72 699.628V698.032H751.538V699.544C750.409 700.739 749.592 701.989 749.088 703.296C748.565 704.64 748.29 706.208 748.262 708H746.302C746.358 704.78 747.459 701.989 749.606 699.628H744.72Z" fill="#BCBCBC"/>
<path d="M782.178 698.032H783.676V708H781.786V701.28H779.49V699.95L779.714 699.936C780.442 699.889 780.997 699.726 781.38 699.446C781.772 699.157 782.038 698.685 782.178 698.032ZM790.95 702.708C792.107 703.156 792.686 703.977 792.686 705.172C792.686 706.105 792.336 706.843 791.636 707.384C790.927 707.944 789.975 708.224 788.78 708.224C787.585 708.224 786.638 707.944 785.938 707.384C785.238 706.843 784.888 706.105 784.888 705.172C784.888 703.996 785.462 703.175 786.61 702.708C785.733 702.251 785.294 701.537 785.294 700.566C785.294 699.717 785.616 699.045 786.26 698.55C786.913 698.055 787.753 697.808 788.78 697.808C789.807 697.808 790.647 698.055 791.3 698.55C791.944 699.045 792.266 699.717 792.266 700.566C792.266 701.537 791.827 702.251 790.95 702.708ZM790.544 700.678C790.544 700.221 790.385 699.866 790.068 699.614C789.751 699.362 789.321 699.236 788.78 699.236C788.257 699.236 787.833 699.362 787.506 699.614C787.179 699.866 787.016 700.221 787.016 700.678C787.016 701.117 787.175 701.462 787.492 701.714C787.809 701.966 788.239 702.092 788.78 702.092C789.321 702.092 789.751 701.966 790.068 701.714C790.385 701.462 790.544 701.117 790.544 700.678ZM788.78 706.712C789.424 706.712 789.919 706.567 790.264 706.278C790.619 705.989 790.796 705.583 790.796 705.06C790.796 704.528 790.619 704.117 790.264 703.828C789.909 703.539 789.415 703.394 788.78 703.394C788.145 703.394 787.651 703.539 787.296 703.828C786.941 704.117 786.764 704.528 786.764 705.06C786.764 705.583 786.941 705.989 787.296 706.278C787.651 706.567 788.145 706.712 788.78 706.712Z" fill="#BCBCBC"/>
<path d="M823.178 698.032H824.676V708H822.786V701.28H820.49V699.95L820.714 699.936C821.442 699.889 821.997 699.726 822.38 699.446C822.772 699.157 823.038 698.685 823.178 698.032ZM832.062 698.578C833.117 699.381 833.644 700.832 833.644 702.932C833.644 704.631 833.308 705.947 832.636 706.88C831.973 707.813 831.012 708.28 829.752 708.28C828.763 708.28 827.946 708.037 827.302 707.552C826.667 707.057 826.285 706.376 826.154 705.508H827.918C828.095 706.385 828.702 706.824 829.738 706.824C830.438 706.824 830.961 706.549 831.306 705.998C831.651 705.447 831.843 704.579 831.88 703.394C831.32 704.225 830.489 704.64 829.388 704.64C828.343 704.64 827.517 704.318 826.91 703.674C826.303 703.039 826 702.26 826 701.336C826 700.3 826.345 699.46 827.036 698.816C827.727 698.181 828.618 697.864 829.71 697.864C830.634 697.864 831.418 698.102 832.062 698.578ZM828.352 702.666C828.707 703.021 829.159 703.198 829.71 703.198C830.261 703.198 830.713 703.021 831.068 702.666C831.413 702.321 831.586 701.863 831.586 701.294C831.586 700.734 831.413 700.277 831.068 699.922C830.723 699.567 830.27 699.39 829.71 699.39C829.159 699.39 828.707 699.572 828.352 699.936C828.007 700.291 827.834 700.743 827.834 701.294C827.834 701.863 828.007 702.321 828.352 702.666Z" fill="#BCBCBC"/>
<path d="M862.66 706.404H867.798V708H860.546L860.588 707.258C860.625 706.493 860.784 705.807 861.064 705.2C861.409 704.444 862.123 703.819 863.206 703.324L864.186 702.82C864.765 702.54 865.175 702.255 865.418 701.966C865.661 701.677 865.782 701.317 865.782 700.888C865.782 700.431 865.637 700.071 865.348 699.81C865.059 699.539 864.657 699.404 864.144 699.404C862.996 699.404 862.422 700.011 862.422 701.224H860.602C860.593 700.151 860.896 699.315 861.512 698.718C862.137 698.111 863.033 697.808 864.2 697.808C865.273 697.808 866.123 698.079 866.748 698.62C867.373 699.161 867.686 699.871 867.686 700.748C867.686 701.504 867.476 702.148 867.056 702.68C866.636 703.203 865.969 703.693 865.054 704.15L864.13 704.64C863.607 704.92 863.239 705.186 863.024 705.438C862.819 705.681 862.697 706.003 862.66 706.404ZM875.571 706.88C874.89 707.776 873.896 708.224 872.589 708.224C871.283 708.224 870.289 707.776 869.607 706.88C868.935 705.984 868.599 704.696 868.599 703.016C868.599 701.336 868.935 700.048 869.607 699.152C870.289 698.256 871.283 697.808 872.589 697.808C873.896 697.808 874.89 698.256 875.571 699.152C876.253 700.048 876.593 701.336 876.593 703.016C876.593 704.696 876.253 705.984 875.571 706.88ZM872.589 706.628C873.943 706.628 874.619 705.424 874.619 703.016C874.619 700.608 873.943 699.404 872.589 699.404C871.245 699.404 870.573 700.608 870.573 703.016C870.573 705.424 871.245 706.628 872.589 706.628Z" fill="#BCBCBC"/>
<path d="M904.66 706.404H909.798V708H902.546L902.588 707.258C902.625 706.493 902.784 705.807 903.064 705.2C903.409 704.444 904.123 703.819 905.206 703.324L906.186 702.82C906.765 702.54 907.175 702.255 907.418 701.966C907.661 701.677 907.782 701.317 907.782 700.888C907.782 700.431 907.637 700.071 907.348 699.81C907.059 699.539 906.657 699.404 906.144 699.404C904.996 699.404 904.422 700.011 904.422 701.224H902.602C902.593 700.151 902.896 699.315 903.512 698.718C904.137 698.111 905.033 697.808 906.2 697.808C907.273 697.808 908.123 698.079 908.748 698.62C909.373 699.161 909.686 699.871 909.686 700.748C909.686 701.504 909.476 702.148 909.056 702.68C908.636 703.203 907.969 703.693 907.054 704.15L906.13 704.64C905.607 704.92 905.239 705.186 905.024 705.438C904.819 705.681 904.697 706.003 904.66 706.404ZM913.436 698.032H914.934V708H913.044V701.28H910.748V699.95L910.972 699.936C911.7 699.889 912.255 699.726 912.638 699.446C913.03 699.157 913.296 698.685 913.436 698.032Z" fill="#BCBCBC"/>
<path d="M944.66 706.404H949.798V708H942.546L942.588 707.258C942.625 706.493 942.784 705.807 943.064 705.2C943.409 704.444 944.123 703.819 945.206 703.324L946.186 702.82C946.765 702.54 947.175 702.255 947.418 701.966C947.661 701.677 947.782 701.317 947.782 700.888C947.782 700.431 947.637 700.071 947.348 699.81C947.059 699.539 946.657 699.404 946.144 699.404C944.996 699.404 944.422 700.011 944.422 701.224H942.602C942.593 700.151 942.896 699.315 943.512 698.718C944.137 698.111 945.033 697.808 946.2 697.808C947.273 697.808 948.123 698.079 948.748 698.62C949.373 699.161 949.686 699.871 949.686 700.748C949.686 701.504 949.476 702.148 949.056 702.68C948.636 703.203 947.969 703.693 947.054 704.15L946.13 704.64C945.607 704.92 945.239 705.186 945.024 705.438C944.819 705.681 944.697 706.003 944.66 706.404ZM952.918 706.404H958.056V708H950.804L950.846 707.258C950.883 706.493 951.042 705.807 951.322 705.2C951.667 704.444 952.381 703.819 953.464 703.324L954.444 702.82C955.022 702.54 955.433 702.255 955.676 701.966C955.918 701.677 956.04 701.317 956.04 700.888C956.04 700.431 955.895 700.071 955.606 699.81C955.316 699.539 954.915 699.404 954.402 699.404C953.254 699.404 952.68 700.011 952.68 701.224H950.86C950.85 700.151 951.154 699.315 951.77 698.718C952.395 698.111 953.291 697.808 954.458 697.808C955.531 697.808 956.38 698.079 957.006 698.62C957.631 699.161 957.944 699.871 957.944 700.748C957.944 701.504 957.734 702.148 957.314 702.68C956.894 703.203 956.226 703.693 955.312 704.15L954.388 704.64C953.865 704.92 953.496 705.186 953.282 705.438C953.076 705.681 952.955 706.003 952.918 706.404Z" fill="#BCBCBC"/>
<path d="M985.66 706.404H990.798V708H983.546L983.588 707.258C983.625 706.493 983.784 705.807 984.064 705.2C984.409 704.444 985.123 703.819 986.206 703.324L987.186 702.82C987.765 702.54 988.175 702.255 988.418 701.966C988.661 701.677 988.782 701.317 988.782 700.888C988.782 700.431 988.637 700.071 988.348 699.81C988.059 699.539 987.657 699.404 987.144 699.404C985.996 699.404 985.422 700.011 985.422 701.224H983.602C983.593 700.151 983.896 699.315 984.512 698.718C985.137 698.111 986.033 697.808 987.2 697.808C988.273 697.808 989.123 698.079 989.748 698.62C990.373 699.161 990.686 699.871 990.686 700.748C990.686 701.504 990.476 702.148 990.056 702.68C989.636 703.203 988.969 703.693 988.054 704.15L987.13 704.64C986.607 704.92 986.239 705.186 986.024 705.438C985.819 705.681 985.697 706.003 985.66 706.404ZM997.466 702.68C997.989 702.904 998.4 703.231 998.698 703.66C999.006 704.08 999.16 704.575 999.16 705.144C999.16 706.068 998.824 706.81 998.152 707.37C997.471 707.939 996.561 708.224 995.422 708.224C994.153 708.224 993.182 707.916 992.51 707.3C991.848 706.675 991.516 705.807 991.516 704.696H993.35C993.378 705.984 994.05 706.628 995.366 706.628C995.936 706.628 996.384 706.488 996.71 706.208C997.037 705.928 997.2 705.55 997.2 705.074C997.2 704.561 997.032 704.164 996.696 703.884C996.36 703.604 995.894 703.464 995.296 703.464H994.554V702.078H995.282C996.449 702.078 997.032 701.616 997.032 700.692C997.032 700.272 996.883 699.945 996.584 699.712C996.286 699.469 995.875 699.348 995.352 699.348C994.223 699.348 993.63 699.875 993.574 700.93H991.754C991.773 699.931 992.09 699.161 992.706 698.62C993.332 698.079 994.218 697.808 995.366 697.808C996.44 697.808 997.289 698.055 997.914 698.55C998.549 699.035 998.866 699.698 998.866 700.538C998.866 701.49 998.4 702.204 997.466 702.68Z" fill="#BCBCBC"/>
<path d="M1026.66 706.404H1031.8V708H1024.55L1024.59 707.258C1024.63 706.493 1024.78 705.807 1025.06 705.2C1025.41 704.444 1026.12 703.819 1027.21 703.324L1028.19 702.82C1028.76 702.54 1029.18 702.255 1029.42 701.966C1029.66 701.677 1029.78 701.317 1029.78 700.888C1029.78 700.431 1029.64 700.071 1029.35 699.81C1029.06 699.539 1028.66 699.404 1028.14 699.404C1027 699.404 1026.42 700.011 1026.42 701.224H1024.6C1024.59 700.151 1024.9 699.315 1025.51 698.718C1026.14 698.111 1027.03 697.808 1028.2 697.808C1029.27 697.808 1030.12 698.079 1030.75 698.62C1031.37 699.161 1031.69 699.871 1031.69 700.748C1031.69 701.504 1031.48 702.148 1031.06 702.68C1030.64 703.203 1029.97 703.693 1029.05 704.15L1028.13 704.64C1027.61 704.92 1027.24 705.186 1027.02 705.438C1026.82 705.681 1026.7 706.003 1026.66 706.404ZM1038.74 704.108H1040.07V705.704H1038.74V708H1036.85V705.704H1032.01V703.912L1036.67 698.032H1038.74V704.108ZM1036.89 704.108V700.062L1033.69 704.108H1036.89Z" fill="#BCBCBC"/>
<path d="M1067.66 706.404H1072.8V708H1065.55L1065.59 707.258C1065.63 706.493 1065.78 705.807 1066.06 705.2C1066.41 704.444 1067.12 703.819 1068.21 703.324L1069.19 702.82C1069.76 702.54 1070.18 702.255 1070.42 701.966C1070.66 701.677 1070.78 701.317 1070.78 700.888C1070.78 700.431 1070.64 700.071 1070.35 699.81C1070.06 699.539 1069.66 699.404 1069.14 699.404C1068 699.404 1067.42 700.011 1067.42 701.224H1065.6C1065.59 700.151 1065.9 699.315 1066.51 698.718C1067.14 698.111 1068.03 697.808 1069.2 697.808C1070.27 697.808 1071.12 698.079 1071.75 698.62C1072.37 699.161 1072.69 699.871 1072.69 700.748C1072.69 701.504 1072.48 702.148 1072.06 702.68C1071.64 703.203 1070.97 703.693 1070.05 704.15L1069.13 704.64C1068.61 704.92 1068.24 705.186 1068.02 705.438C1067.82 705.681 1067.7 706.003 1067.66 706.404ZM1077.4 701.448C1078.48 701.448 1079.33 701.765 1079.93 702.4C1080.52 703.035 1080.81 703.823 1080.81 704.766C1080.81 705.802 1080.47 706.637 1079.78 707.272C1079.09 707.907 1078.19 708.224 1077.09 708.224C1076.07 708.224 1075.22 707.949 1074.53 707.398C1073.86 706.857 1073.48 706.11 1073.41 705.158H1075.21C1075.28 705.634 1075.48 706.012 1075.82 706.292C1076.16 706.563 1076.59 706.698 1077.09 706.698C1077.66 706.698 1078.12 706.521 1078.46 706.166C1078.82 705.802 1078.99 705.335 1078.99 704.766C1078.99 704.197 1078.82 703.735 1078.46 703.38C1078.12 703.016 1077.66 702.834 1077.09 702.834C1076.25 702.834 1075.67 703.17 1075.34 703.842H1073.6L1074.53 698.032H1080.3V699.628H1076.01L1075.58 702.106C1076.12 701.667 1076.73 701.448 1077.4 701.448Z" fill="#BCBCBC"/>
<path d="M1108.66 706.404H1113.8V708H1106.55L1106.59 707.258C1106.63 706.493 1106.78 705.807 1107.06 705.2C1107.41 704.444 1108.12 703.819 1109.21 703.324L1110.19 702.82C1110.76 702.54 1111.18 702.255 1111.42 701.966C1111.66 701.677 1111.78 701.317 1111.78 700.888C1111.78 700.431 1111.64 700.071 1111.35 699.81C1111.06 699.539 1110.66 699.404 1110.14 699.404C1109 699.404 1108.42 700.011 1108.42 701.224H1106.6C1106.59 700.151 1106.9 699.315 1107.51 698.718C1108.14 698.111 1109.03 697.808 1110.2 697.808C1111.27 697.808 1112.12 698.079 1112.75 698.62C1113.37 699.161 1113.69 699.871 1113.69 700.748C1113.69 701.504 1113.48 702.148 1113.06 702.68C1112.64 703.203 1111.97 703.693 1111.05 704.15L1110.13 704.64C1109.61 704.92 1109.24 705.186 1109.02 705.438C1108.82 705.681 1108.7 706.003 1108.66 706.404ZM1118.86 701.448C1119.91 701.448 1120.74 701.765 1121.35 702.4C1121.94 703.035 1122.24 703.823 1122.24 704.766C1122.24 705.811 1121.9 706.647 1121.22 707.272C1120.53 707.907 1119.64 708.224 1118.55 708.224C1117.61 708.224 1116.83 707.986 1116.18 707.51C1115.13 706.707 1114.6 705.256 1114.6 703.156C1114.6 701.439 1114.94 700.118 1115.62 699.194C1116.3 698.27 1117.29 697.808 1118.58 697.808C1119.54 697.808 1120.33 698.055 1120.96 698.55C1121.58 699.035 1121.96 699.712 1122.1 700.58H1120.33C1120.15 699.703 1119.57 699.264 1118.59 699.264C1117.86 699.264 1117.32 699.539 1116.95 700.09C1116.6 700.641 1116.4 701.509 1116.36 702.694C1116.92 701.863 1117.75 701.448 1118.86 701.448ZM1116.66 704.794C1116.66 705.354 1116.83 705.811 1117.19 706.166C1117.54 706.521 1118 706.698 1118.55 706.698C1119.1 706.698 1119.55 706.521 1119.91 706.166C1120.24 705.821 1120.41 705.363 1120.41 704.794C1120.41 704.234 1120.24 703.777 1119.89 703.422C1119.55 703.067 1119.1 702.89 1118.55 702.89C1117.99 702.89 1117.53 703.067 1117.18 703.422C1116.83 703.777 1116.66 704.234 1116.66 704.794Z" fill="#BCBCBC"/>
<path d="M1150.66 706.404H1155.8V708H1148.55L1148.59 707.258C1148.63 706.493 1148.78 705.807 1149.06 705.2C1149.41 704.444 1150.12 703.819 1151.21 703.324L1152.19 702.82C1152.76 702.54 1153.18 702.255 1153.42 701.966C1153.66 701.677 1153.78 701.317 1153.78 700.888C1153.78 700.431 1153.64 700.071 1153.35 699.81C1153.06 699.539 1152.66 699.404 1152.14 699.404C1151 699.404 1150.42 700.011 1150.42 701.224H1148.6C1148.59 700.151 1148.9 699.315 1149.51 698.718C1150.14 698.111 1151.03 697.808 1152.2 697.808C1153.27 697.808 1154.12 698.079 1154.75 698.62C1155.37 699.161 1155.69 699.871 1155.69 700.748C1155.69 701.504 1155.48 702.148 1155.06 702.68C1154.64 703.203 1153.97 703.693 1153.05 704.15L1152.13 704.64C1151.61 704.92 1151.24 705.186 1151.02 705.438C1150.82 705.681 1150.7 706.003 1150.66 706.404ZM1156.18 699.628V698.032H1163V699.544C1161.87 700.739 1161.05 701.989 1160.55 703.296C1160.03 704.64 1159.75 706.208 1159.72 708H1157.76C1157.82 704.78 1158.92 701.989 1161.07 699.628H1156.18Z" fill="#BCBCBC"/>
<path d="M1190.66 706.404H1195.8V708H1188.55L1188.59 707.258C1188.63 706.493 1188.78 705.807 1189.06 705.2C1189.41 704.444 1190.12 703.819 1191.21 703.324L1192.19 702.82C1192.76 702.54 1193.18 702.255 1193.42 701.966C1193.66 701.677 1193.78 701.317 1193.78 700.888C1193.78 700.431 1193.64 700.071 1193.35 699.81C1193.06 699.539 1192.66 699.404 1192.14 699.404C1191 699.404 1190.42 700.011 1190.42 701.224H1188.6C1188.59 700.151 1188.9 699.315 1189.51 698.718C1190.14 698.111 1191.03 697.808 1192.2 697.808C1193.27 697.808 1194.12 698.079 1194.75 698.62C1195.37 699.161 1195.69 699.871 1195.69 700.748C1195.69 701.504 1195.48 702.148 1195.06 702.68C1194.64 703.203 1193.97 703.693 1193.05 704.15L1192.13 704.64C1191.61 704.92 1191.24 705.186 1191.02 705.438C1190.82 705.681 1190.7 706.003 1190.66 706.404ZM1202.66 702.708C1203.81 703.156 1204.39 703.977 1204.39 705.172C1204.39 706.105 1204.04 706.843 1203.34 707.384C1202.63 707.944 1201.68 708.224 1200.49 708.224C1199.29 708.224 1198.35 707.944 1197.65 707.384C1196.95 706.843 1196.6 706.105 1196.6 705.172C1196.6 703.996 1197.17 703.175 1198.32 702.708C1197.44 702.251 1197 701.537 1197 700.566C1197 699.717 1197.32 699.045 1197.97 698.55C1198.62 698.055 1199.46 697.808 1200.49 697.808C1201.51 697.808 1202.35 698.055 1203.01 698.55C1203.65 699.045 1203.97 699.717 1203.97 700.566C1203.97 701.537 1203.53 702.251 1202.66 702.708ZM1202.25 700.678C1202.25 700.221 1202.09 699.866 1201.78 699.614C1201.46 699.362 1201.03 699.236 1200.49 699.236C1199.96 699.236 1199.54 699.362 1199.21 699.614C1198.89 699.866 1198.72 700.221 1198.72 700.678C1198.72 701.117 1198.88 701.462 1199.2 701.714C1199.52 701.966 1199.95 702.092 1200.49 702.092C1201.03 702.092 1201.46 701.966 1201.78 701.714C1202.09 701.462 1202.25 701.117 1202.25 700.678ZM1200.49 706.712C1201.13 706.712 1201.63 706.567 1201.97 706.278C1202.33 705.989 1202.5 705.583 1202.5 705.06C1202.5 704.528 1202.33 704.117 1201.97 703.828C1201.62 703.539 1201.12 703.394 1200.49 703.394C1199.85 703.394 1199.36 703.539 1199 703.828C1198.65 704.117 1198.47 704.528 1198.47 705.06C1198.47 705.583 1198.65 705.989 1199 706.278C1199.36 706.567 1199.85 706.712 1200.49 706.712Z" fill="#BCBCBC"/>
<path d="M1231.66 706.404H1236.8V708H1229.55L1229.59 707.258C1229.63 706.493 1229.78 705.807 1230.06 705.2C1230.41 704.444 1231.12 703.819 1232.21 703.324L1233.19 702.82C1233.76 702.54 1234.18 702.255 1234.42 701.966C1234.66 701.677 1234.78 701.317 1234.78 700.888C1234.78 700.431 1234.64 700.071 1234.35 699.81C1234.06 699.539 1233.66 699.404 1233.14 699.404C1232 699.404 1231.42 700.011 1231.42 701.224H1229.6C1229.59 700.151 1229.9 699.315 1230.51 698.718C1231.14 698.111 1232.03 697.808 1233.2 697.808C1234.27 697.808 1235.12 698.079 1235.75 698.62C1236.37 699.161 1236.69 699.871 1236.69 700.748C1236.69 701.504 1236.48 702.148 1236.06 702.68C1235.64 703.203 1234.97 703.693 1234.05 704.15L1233.13 704.64C1232.61 704.92 1232.24 705.186 1232.02 705.438C1231.82 705.681 1231.7 706.003 1231.66 706.404ZM1243.77 698.578C1244.82 699.381 1245.35 700.832 1245.35 702.932C1245.35 704.631 1245.02 705.947 1244.34 706.88C1243.68 707.813 1242.72 708.28 1241.46 708.28C1240.47 708.28 1239.65 708.037 1239.01 707.552C1238.37 707.057 1237.99 706.376 1237.86 705.508H1239.63C1239.8 706.385 1240.41 706.824 1241.45 706.824C1242.15 706.824 1242.67 706.549 1243.01 705.998C1243.36 705.447 1243.55 704.579 1243.59 703.394C1243.03 704.225 1242.2 704.64 1241.1 704.64C1240.05 704.64 1239.22 704.318 1238.62 703.674C1238.01 703.039 1237.71 702.26 1237.71 701.336C1237.71 700.3 1238.05 699.46 1238.74 698.816C1239.43 698.181 1240.33 697.864 1241.42 697.864C1242.34 697.864 1243.13 698.102 1243.77 698.578ZM1240.06 702.666C1240.41 703.021 1240.87 703.198 1241.42 703.198C1241.97 703.198 1242.42 703.021 1242.78 702.666C1243.12 702.321 1243.29 701.863 1243.29 701.294C1243.29 700.734 1243.12 700.277 1242.78 699.922C1242.43 699.567 1241.98 699.39 1241.42 699.39C1240.87 699.39 1240.41 699.572 1240.06 699.936C1239.71 700.291 1239.54 700.743 1239.54 701.294C1239.54 701.863 1239.71 702.321 1240.06 702.666Z" fill="#BCBCBC"/>
<path d="M1276.48 702.68C1277 702.904 1277.42 703.231 1277.71 703.66C1278.02 704.08 1278.18 704.575 1278.18 705.144C1278.18 706.068 1277.84 706.81 1277.17 707.37C1276.49 707.939 1275.58 708.224 1274.44 708.224C1273.17 708.224 1272.2 707.916 1271.53 707.3C1270.86 706.675 1270.53 705.807 1270.53 704.696H1272.37C1272.39 705.984 1273.07 706.628 1274.38 706.628C1274.95 706.628 1275.4 706.488 1275.73 706.208C1276.05 705.928 1276.22 705.55 1276.22 705.074C1276.22 704.561 1276.05 704.164 1275.71 703.884C1275.38 703.604 1274.91 703.464 1274.31 703.464H1273.57V702.078H1274.3C1275.46 702.078 1276.05 701.616 1276.05 700.692C1276.05 700.272 1275.9 699.945 1275.6 699.712C1275.3 699.469 1274.89 699.348 1274.37 699.348C1273.24 699.348 1272.65 699.875 1272.59 700.93H1270.77C1270.79 699.931 1271.11 699.161 1271.72 698.62C1272.35 698.079 1273.23 697.808 1274.38 697.808C1275.46 697.808 1276.3 698.055 1276.93 698.55C1277.56 699.035 1277.88 699.698 1277.88 700.538C1277.88 701.49 1277.42 702.204 1276.48 702.68ZM1286.06 706.88C1285.38 707.776 1284.39 708.224 1283.08 708.224C1281.77 708.224 1280.78 707.776 1280.1 706.88C1279.43 705.984 1279.09 704.696 1279.09 703.016C1279.09 701.336 1279.43 700.048 1280.1 699.152C1280.78 698.256 1281.77 697.808 1283.08 697.808C1284.39 697.808 1285.38 698.256 1286.06 699.152C1286.74 700.048 1287.09 701.336 1287.09 703.016C1287.09 704.696 1286.74 705.984 1286.06 706.88ZM1283.08 706.628C1284.43 706.628 1285.11 705.424 1285.11 703.016C1285.11 700.608 1284.43 699.404 1283.08 699.404C1281.74 699.404 1281.07 700.608 1281.07 703.016C1281.07 705.424 1281.74 706.628 1283.08 706.628Z" fill="#BCBCBC"/>
<path d="M40 632.5H1328" stroke="#BCBCBC"/>
<path d="M1323.56 646.448C1324.65 646.448 1325.49 646.765 1326.1 647.4C1326.69 648.035 1326.98 648.823 1326.98 649.766C1326.98 650.802 1326.63 651.637 1325.94 652.272C1325.25 652.907 1324.36 653.224 1323.26 653.224C1322.24 653.224 1321.38 652.949 1320.69 652.398C1320.02 651.857 1319.65 651.11 1319.57 650.158H1321.38C1321.45 650.634 1321.65 651.012 1321.98 651.292C1322.33 651.563 1322.75 651.698 1323.26 651.698C1323.83 651.698 1324.28 651.521 1324.63 651.166C1324.98 650.802 1325.16 650.335 1325.16 649.766C1325.16 649.197 1324.98 648.735 1324.63 648.38C1324.28 648.016 1323.83 647.834 1323.26 647.834C1322.42 647.834 1321.83 648.17 1321.51 648.842H1319.77L1320.69 643.032H1326.46V644.628H1322.18L1321.74 647.106C1322.29 646.667 1322.89 646.448 1323.56 646.448Z" fill="#BCBCBC"/>
<path d="M40 585.5H1328" stroke="#BCBCBC"/>
<path d="M1316.18 596.032H1317.68V606H1315.79V599.28H1313.49V597.95L1313.71 597.936C1314.44 597.889 1315 597.726 1315.38 597.446C1315.77 597.157 1316.04 596.685 1316.18 596.032ZM1326.04 604.88C1325.36 605.776 1324.37 606.224 1323.06 606.224C1321.75 606.224 1320.76 605.776 1320.08 604.88C1319.41 603.984 1319.07 602.696 1319.07 601.016C1319.07 599.336 1319.41 598.048 1320.08 597.152C1320.76 596.256 1321.75 595.808 1323.06 595.808C1324.37 595.808 1325.36 596.256 1326.04 597.152C1326.72 598.048 1327.06 599.336 1327.06 601.016C1327.06 602.696 1326.72 603.984 1326.04 604.88ZM1323.06 604.628C1324.41 604.628 1325.09 603.424 1325.09 601.016C1325.09 598.608 1324.41 597.404 1323.06 597.404C1321.72 597.404 1321.04 598.608 1321.04 601.016C1321.04 603.424 1321.72 604.628 1323.06 604.628Z" fill="#BCBCBC"/>
<path d="M40 538.5H1328" stroke="#BCBCBC"/>
<path d="M1316.18 549.032H1317.68V559H1315.79V552.28H1313.49V550.95L1313.71 550.936C1314.44 550.889 1315 550.726 1315.38 550.446C1315.77 550.157 1316.04 549.685 1316.18 549.032ZM1323.06 552.448C1324.14 552.448 1324.99 552.765 1325.59 553.4C1326.18 554.035 1326.48 554.823 1326.48 555.766C1326.48 556.802 1326.13 557.637 1325.44 558.272C1324.75 558.907 1323.85 559.224 1322.75 559.224C1321.73 559.224 1320.88 558.949 1320.19 558.398C1319.52 557.857 1319.14 557.11 1319.07 556.158H1320.88C1320.94 556.634 1321.14 557.012 1321.48 557.292C1321.82 557.563 1322.25 557.698 1322.75 557.698C1323.32 557.698 1323.78 557.521 1324.12 557.166C1324.48 556.802 1324.66 556.335 1324.66 555.766C1324.66 555.197 1324.48 554.735 1324.12 554.38C1323.78 554.016 1323.32 553.834 1322.75 553.834C1321.91 553.834 1321.33 554.17 1321 554.842H1319.27L1320.19 549.032H1325.96V550.628H1321.67L1321.24 553.106C1321.78 552.667 1322.39 552.448 1323.06 552.448Z" fill="#BCBCBC"/>
<path d="M40 491.5H1328" stroke="#BCBCBC"/>
<path d="M1312.66 510.404H1317.8V512H1310.55L1310.59 511.258C1310.63 510.493 1310.78 509.807 1311.06 509.2C1311.41 508.444 1312.12 507.819 1313.21 507.324L1314.19 506.82C1314.76 506.54 1315.18 506.255 1315.42 505.966C1315.66 505.677 1315.78 505.317 1315.78 504.888C1315.78 504.431 1315.64 504.071 1315.35 503.81C1315.06 503.539 1314.66 503.404 1314.14 503.404C1313 503.404 1312.42 504.011 1312.42 505.224H1310.6C1310.59 504.151 1310.9 503.315 1311.51 502.718C1312.14 502.111 1313.03 501.808 1314.2 501.808C1315.27 501.808 1316.12 502.079 1316.75 502.62C1317.37 503.161 1317.69 503.871 1317.69 504.748C1317.69 505.504 1317.48 506.148 1317.06 506.68C1316.64 507.203 1315.97 507.693 1315.05 508.15L1314.13 508.64C1313.61 508.92 1313.24 509.186 1313.02 509.438C1312.82 509.681 1312.7 510.003 1312.66 510.404ZM1325.57 510.88C1324.89 511.776 1323.9 512.224 1322.59 512.224C1321.28 512.224 1320.29 511.776 1319.61 510.88C1318.94 509.984 1318.6 508.696 1318.6 507.016C1318.6 505.336 1318.94 504.048 1319.61 503.152C1320.29 502.256 1321.28 501.808 1322.59 501.808C1323.9 501.808 1324.89 502.256 1325.57 503.152C1326.25 504.048 1326.59 505.336 1326.59 507.016C1326.59 508.696 1326.25 509.984 1325.57 510.88ZM1322.59 510.628C1323.94 510.628 1324.62 509.424 1324.62 507.016C1324.62 504.608 1323.94 503.404 1322.59 503.404C1321.25 503.404 1320.57 504.608 1320.57 507.016C1320.57 509.424 1321.25 510.628 1322.59 510.628Z" fill="#BCBCBC"/>
<path d="M40 444.5H1328" stroke="#BCBCBC"/>
<path d="M1312.66 463.404H1317.8V465H1310.55L1310.59 464.258C1310.63 463.493 1310.78 462.807 1311.06 462.2C1311.41 461.444 1312.12 460.819 1313.21 460.324L1314.19 459.82C1314.76 459.54 1315.18 459.255 1315.42 458.966C1315.66 458.677 1315.78 458.317 1315.78 457.888C1315.78 457.431 1315.64 457.071 1315.35 456.81C1315.06 456.539 1314.66 456.404 1314.14 456.404C1313 456.404 1312.42 457.011 1312.42 458.224H1310.6C1310.59 457.151 1310.9 456.315 1311.51 455.718C1312.14 455.111 1313.03 454.808 1314.2 454.808C1315.27 454.808 1316.12 455.079 1316.75 455.62C1317.37 456.161 1317.69 456.871 1317.69 457.748C1317.69 458.504 1317.48 459.148 1317.06 459.68C1316.64 460.203 1315.97 460.693 1315.05 461.15L1314.13 461.64C1313.61 461.92 1313.24 462.186 1313.02 462.438C1312.82 462.681 1312.7 463.003 1312.66 463.404ZM1322.4 458.448C1323.48 458.448 1324.33 458.765 1324.93 459.4C1325.52 460.035 1325.81 460.823 1325.81 461.766C1325.81 462.802 1325.47 463.637 1324.78 464.272C1324.09 464.907 1323.19 465.224 1322.09 465.224C1321.07 465.224 1320.22 464.949 1319.53 464.398C1318.86 463.857 1318.48 463.11 1318.41 462.158H1320.21C1320.28 462.634 1320.48 463.012 1320.82 463.292C1321.16 463.563 1321.59 463.698 1322.09 463.698C1322.66 463.698 1323.12 463.521 1323.46 463.166C1323.82 462.802 1323.99 462.335 1323.99 461.766C1323.99 461.197 1323.82 460.735 1323.46 460.38C1323.12 460.016 1322.66 459.834 1322.09 459.834C1321.25 459.834 1320.67 460.17 1320.34 460.842H1318.6L1319.53 455.032H1325.3V456.628H1321.01L1320.58 459.106C1321.12 458.667 1321.73 458.448 1322.4 458.448Z" fill="#BCBCBC"/>
<path d="M40 397.5H1328" stroke="#BCBCBC"/>
<path d="M1316.48 412.68C1317 412.904 1317.42 413.231 1317.71 413.66C1318.02 414.08 1318.18 414.575 1318.18 415.144C1318.18 416.068 1317.84 416.81 1317.17 417.37C1316.49 417.939 1315.58 418.224 1314.44 418.224C1313.17 418.224 1312.2 417.916 1311.53 417.3C1310.86 416.675 1310.53 415.807 1310.53 414.696H1312.37C1312.39 415.984 1313.07 416.628 1314.38 416.628C1314.95 416.628 1315.4 416.488 1315.73 416.208C1316.05 415.928 1316.22 415.55 1316.22 415.074C1316.22 414.561 1316.05 414.164 1315.71 413.884C1315.38 413.604 1314.91 413.464 1314.31 413.464H1313.57V412.078H1314.3C1315.46 412.078 1316.05 411.616 1316.05 410.692C1316.05 410.272 1315.9 409.945 1315.6 409.712C1315.3 409.469 1314.89 409.348 1314.37 409.348C1313.24 409.348 1312.65 409.875 1312.59 410.93H1310.77C1310.79 409.931 1311.11 409.161 1311.72 408.62C1312.35 408.079 1313.23 407.808 1314.38 407.808C1315.46 407.808 1316.3 408.055 1316.93 408.55C1317.56 409.035 1317.88 409.698 1317.88 410.538C1317.88 411.49 1317.42 412.204 1316.48 412.68ZM1326.06 416.88C1325.38 417.776 1324.39 418.224 1323.08 418.224C1321.77 418.224 1320.78 417.776 1320.1 416.88C1319.43 415.984 1319.09 414.696 1319.09 413.016C1319.09 411.336 1319.43 410.048 1320.1 409.152C1320.78 408.256 1321.77 407.808 1323.08 407.808C1324.39 407.808 1325.38 408.256 1326.06 409.152C1326.74 410.048 1327.09 411.336 1327.09 413.016C1327.09 414.696 1326.74 415.984 1326.06 416.88ZM1323.08 416.628C1324.43 416.628 1325.11 415.424 1325.11 413.016C1325.11 410.608 1324.43 409.404 1323.08 409.404C1321.74 409.404 1321.07 410.608 1321.07 413.016C1321.07 415.424 1321.74 416.628 1323.08 416.628Z" fill="#BCBCBC"/>
<path d="M40 350.5H1328" stroke="#BCBCBC"/>
<path d="M1316.48 365.68C1317 365.904 1317.42 366.231 1317.71 366.66C1318.02 367.08 1318.18 367.575 1318.18 368.144C1318.18 369.068 1317.84 369.81 1317.17 370.37C1316.49 370.939 1315.58 371.224 1314.44 371.224C1313.17 371.224 1312.2 370.916 1311.53 370.3C1310.86 369.675 1310.53 368.807 1310.53 367.696H1312.37C1312.39 368.984 1313.07 369.628 1314.38 369.628C1314.95 369.628 1315.4 369.488 1315.73 369.208C1316.05 368.928 1316.22 368.55 1316.22 368.074C1316.22 367.561 1316.05 367.164 1315.71 366.884C1315.38 366.604 1314.91 366.464 1314.31 366.464H1313.57V365.078H1314.3C1315.46 365.078 1316.05 364.616 1316.05 363.692C1316.05 363.272 1315.9 362.945 1315.6 362.712C1315.3 362.469 1314.89 362.348 1314.37 362.348C1313.24 362.348 1312.65 362.875 1312.59 363.93H1310.77C1310.79 362.931 1311.11 362.161 1311.72 361.62C1312.35 361.079 1313.23 360.808 1314.38 360.808C1315.46 360.808 1316.3 361.055 1316.93 361.55C1317.56 362.035 1317.88 362.698 1317.88 363.538C1317.88 364.49 1317.42 365.204 1316.48 365.68ZM1322.97 364.448C1324.05 364.448 1324.9 364.765 1325.51 365.4C1326.09 366.035 1326.39 366.823 1326.39 367.766C1326.39 368.802 1326.04 369.637 1325.35 370.272C1324.66 370.907 1323.77 371.224 1322.66 371.224C1321.65 371.224 1320.79 370.949 1320.1 370.398C1319.43 369.857 1319.06 369.11 1318.98 368.158H1320.79C1320.85 368.634 1321.05 369.012 1321.39 369.292C1321.74 369.563 1322.16 369.698 1322.66 369.698C1323.23 369.698 1323.69 369.521 1324.04 369.166C1324.39 368.802 1324.57 368.335 1324.57 367.766C1324.57 367.197 1324.39 366.735 1324.04 366.38C1323.69 366.016 1323.23 365.834 1322.66 365.834C1321.82 365.834 1321.24 366.17 1320.91 366.842H1319.18L1320.1 361.032H1325.87V362.628H1321.59L1321.15 365.106C1321.69 364.667 1322.3 364.448 1322.97 364.448Z" fill="#BCBCBC"/>
<path d="M40 303.5H1328" stroke="#BCBCBC"/>
<path d="M1317.14 320.108H1318.47V321.704H1317.14V324H1315.25V321.704H1310.41V319.912L1315.07 314.032H1317.14V320.108ZM1315.29 320.108V316.062L1312.09 320.108H1315.29ZM1326.21 322.88C1325.53 323.776 1324.54 324.224 1323.23 324.224C1321.93 324.224 1320.93 323.776 1320.25 322.88C1319.58 321.984 1319.24 320.696 1319.24 319.016C1319.24 317.336 1319.58 316.048 1320.25 315.152C1320.93 314.256 1321.93 313.808 1323.23 313.808C1324.54 313.808 1325.53 314.256 1326.21 315.152C1326.9 316.048 1327.24 317.336 1327.24 319.016C1327.24 320.696 1326.9 321.984 1326.21 322.88ZM1323.23 322.628C1324.59 322.628 1325.26 321.424 1325.26 319.016C1325.26 316.608 1324.59 315.404 1323.23 315.404C1321.89 315.404 1321.22 316.608 1321.22 319.016C1321.22 321.424 1321.89 322.628 1323.23 322.628Z" fill="#BCBCBC"/>
<path d="M40 256.5H1328" stroke="#BCBCBC"/>
<path d="M1317.14 273.108H1318.47V274.704H1317.14V277H1315.25V274.704H1310.41V272.912L1315.07 267.032H1317.14V273.108ZM1315.29 273.108V269.062L1312.09 273.108H1315.29ZM1323.2 270.448C1324.29 270.448 1325.13 270.765 1325.74 271.4C1326.33 272.035 1326.62 272.823 1326.62 273.766C1326.62 274.802 1326.28 275.637 1325.58 276.272C1324.89 276.907 1324 277.224 1322.9 277.224C1321.88 277.224 1321.03 276.949 1320.33 276.398C1319.66 275.857 1319.29 275.11 1319.21 274.158H1321.02C1321.09 274.634 1321.29 275.012 1321.62 275.292C1321.97 275.563 1322.39 275.698 1322.9 275.698C1323.47 275.698 1323.92 275.521 1324.27 275.166C1324.62 274.802 1324.8 274.335 1324.8 273.766C1324.8 273.197 1324.62 272.735 1324.27 272.38C1323.92 272.016 1323.47 271.834 1322.9 271.834C1322.06 271.834 1321.47 272.17 1321.15 272.842H1319.41L1320.33 267.032H1326.1V268.628H1321.82L1321.38 271.106C1321.93 270.667 1322.53 270.448 1323.2 270.448Z" fill="#BCBCBC"/>
<path d="M40 209.5H1328" stroke="#BCBCBC"/>
<path d="M1314.56 223.448C1315.65 223.448 1316.49 223.765 1317.1 224.4C1317.69 225.035 1317.98 225.823 1317.98 226.766C1317.98 227.802 1317.63 228.637 1316.94 229.272C1316.25 229.907 1315.36 230.224 1314.26 230.224C1313.24 230.224 1312.38 229.949 1311.69 229.398C1311.02 228.857 1310.65 228.11 1310.57 227.158H1312.38C1312.45 227.634 1312.65 228.012 1312.98 228.292C1313.33 228.563 1313.75 228.698 1314.26 228.698C1314.83 228.698 1315.28 228.521 1315.63 228.166C1315.98 227.802 1316.16 227.335 1316.16 226.766C1316.16 226.197 1315.98 225.735 1315.63 225.38C1315.28 225.016 1314.83 224.834 1314.26 224.834C1313.42 224.834 1312.83 225.17 1312.51 225.842H1310.77L1311.69 220.032H1317.46V221.628H1313.18L1312.74 224.106C1313.29 223.667 1313.89 223.448 1314.56 223.448ZM1325.95 228.88C1325.27 229.776 1324.28 230.224 1322.97 230.224C1321.67 230.224 1320.67 229.776 1319.99 228.88C1319.32 227.984 1318.98 226.696 1318.98 225.016C1318.98 223.336 1319.32 222.048 1319.99 221.152C1320.67 220.256 1321.67 219.808 1322.97 219.808C1324.28 219.808 1325.27 220.256 1325.95 221.152C1326.64 222.048 1326.98 223.336 1326.98 225.016C1326.98 226.696 1326.64 227.984 1325.95 228.88ZM1322.97 228.628C1324.33 228.628 1325 227.424 1325 225.016C1325 222.608 1324.33 221.404 1322.97 221.404C1321.63 221.404 1320.96 222.608 1320.96 225.016C1320.96 227.424 1321.63 228.628 1322.97 228.628Z" fill="#BCBCBC"/>
<path d="M103 501H76V671H103V501Z" fill="#E77894"/>
<path d="M103 577H76V671H103V577Z" fill="#F587FF"/>
<path d="M103 603H76V671H103V603Z" fill="#8674FE"/>
<path d="M103 651H76V671H103V651Z" fill="#4DD383"/>
<path d="M144 421H117V671H144V421Z" fill="#4769E7"/>
<path d="M144 512H117V671H144V512Z" fill="#E3758A"/>
<path d="M144 613H117V671H144V613Z" fill="#16D9CE"/>
<path d="M185 481H158V671H185V481Z" fill="#F587FF"/>
<path d="M185 582H158V671H185V582Z" fill="#8674FE"/>
<path d="M185 613H158V671H185V613Z" fill="#4DD383"/>
<path d="M226 574H199V671H226V574Z" fill="#4769E7"/>
<path d="M226 620H199V671H226V620Z" fill="#16D9CE"/>
<path d="M226 641H199V671H226V641Z" fill="#26B7D7"/>
<path d="M267 365H240V671H267V365Z" fill="#E3758A"/>
<path d="M267 596H240V671H267V596Z" fill="#F2C26D"/>
<path d="M267 628H240V671H267V628Z" fill="#26B7D7"/>
<path d="M308 544H281V670H308V544Z" fill="#E3758A"/>
<path d="M308 619H281V670H308V619Z" fill="#16D9CE"/>
<path d="M308 640H281V670H308V640Z" fill="#F587FF"/>
<path d="M349 444H322V670H349V444Z" fill="#F2C26D"/>
<path d="M349 581H322V670H349V581Z" fill="#8674FE"/>
<path d="M349 640H322V670H349V640Z" fill="#4DD383"/>
<path d="M390 480H363V670H390V480Z" fill="#4769E7"/>
<path d="M390 581H363V670H390V581Z" fill="#F2C26D"/>
<path d="M390 649H363V670H390V649Z" fill="#F587FF"/>
<path d="M431 428H404V670H431V428Z" fill="#8674FE"/>
<path d="M431 581H404V670H431V581Z" fill="#4DD383"/>
<path d="M431 612H404V670H431V612Z" fill="#26B7D7"/>
<path d="M595 326H568V670H595V326Z" fill="#4769E7"/>
<path d="M595 548.988H568V670H595V548.988Z" fill="#4769E7"/>
<path d="M595 629.209H568V670H595V629.209Z" fill="#4769E7"/>
<path d="M472 480H445V670H472V480Z" fill="#E16C83"/>
<path d="M472 581H445V670H472V581Z" fill="#F2C26D"/>
<path d="M472 640H445V670H472V640Z" fill="#8674FE"/>
<path d="M513 602H486V670H513V602Z" fill="#4769E7"/>
<path d="M513 623H486V670H513V623Z" fill="#4DD383"/>
<path d="M554 467H527V670H554V467Z" fill="#E3758A"/>
<path d="M554 640H527V670H554V640Z" fill="#26B7D7"/>
<path d="M636 553H609V670H636V553Z" fill="#F587FF"/>
<path d="M595 581H568V671H595V581Z" fill="#4DD383"/>
<path d="M636 612H609V670H636V612Z" fill="#8674FE"/>
<path d="M636 640H609V670H636V640Z" fill="#26B7D7"/>
<path d="M677 480H650V670H677V480Z" fill="#16D9CE"/>
<path d="M677 581H650V670H677V581Z" fill="#F587FF"/>
<path d="M677 640H650V670H677V640Z" fill="#8674FE"/>
<path d="M718 514H691V670H718V514Z" fill="#26B7D7"/>
<path d="M718 591H691V670H718V591Z" fill="#8674FE"/>
<path d="M718 619H691V670H718V619Z" fill="#4DD383"/>
<path d="M759 428H732V670H759V428Z" fill="#F2C26D"/>
<path d="M759 612.87H732V670H759V612.87Z" fill="#F2C26D"/>
<path d="M759 650.743H732V670H759V650.743Z" fill="#F2C26D"/>
<path d="M800 527H773V670H800V527Z" fill="#4DD383"/>
<path d="M800 581H773V670H800V581Z" fill="#26B7D7"/>
<path d="M841 480H814V670H841V480Z" fill="#F587FF"/>
<path d="M841 581H814V670H841V581Z" fill="#8674FE"/>
<path d="M841 649H814V670H841V649Z" fill="#E3758A"/>
<path d="M882 480H855V670H882V480Z" fill="#4769E7"/>
<path d="M882 602H855V670H882V602Z" fill="#E3758A"/>
<path d="M882 640H855V670H882V640Z" fill="#26B7D7"/>
<path d="M923 468H896V671H923V468Z" fill="#E3758A"/>
<path d="M923 641H896V671H923V641Z" fill="#F587FF"/>
<path d="M964 398H937V671H964V398Z" fill="#16D9CE"/>
<path d="M964 642.463H937V671H964V642.463Z" fill="#F2C26D"/>
<path d="M1005 465H978V671H1005V465Z" fill="#F587FF"/>
<path d="M1005 575.735H978V671H1005V575.735Z" fill="#4DD383"/>
<path d="M1046 465H1019V671H1046V465Z" fill="#8674FE"/>
<path d="M1046 582H1019V671H1046V582Z" fill="#26B7D7"/>
<path d="M1087 481H1060V671H1087V481Z" fill="#4769E7"/>
<path d="M1087 515H1060V671H1087V515Z" fill="#4DD383"/>
<path d="M1128 528H1101V671H1128V528Z" fill="#8674FE"/>
<path d="M1128 641H1101V671H1128V641Z" fill="#4DD383"/>
<path d="M1169 562H1142V671H1169V562Z" fill="#4769E7"/>
<path d="M1169 613H1142V671H1169V613Z" fill="#8674FE"/>
<path d="M1210 465H1183V671H1210V465Z" fill="#F587FF"/>
<path d="M1210 603.772H1183V671H1210V603.772Z" fill="#26B7D7"/>
<path d="M1251 539H1224V671H1251V539Z" fill="#F2C26D"/>
<path d="M1251 613H1224V671H1251V613Z" fill="#F587FF"/>
<path d="M1251 641H1224V671H1251V641Z" fill="#8674FE"/>
<path d="M1292 371H1265V671H1292V371Z" fill="#4769E7"/>
<path d="M1292 582H1265V671H1292V582Z" fill="#F587FF"/>
<path d="M1292 613H1265V671H1292V613Z" fill="#26B7D7"/>
<path d="M74.72 126.76V128.28H66.98V132.82H73.92V134.34H66.98V141H65.3V126.76H74.72ZM84.3627 139.7H84.9427V141C84.676 141.04 84.3827 141.06 84.0627 141.06C82.9827 141.06 82.4027 140.567 82.3227 139.58C81.6027 140.687 80.4827 141.24 78.9627 141.24C77.8293 141.24 76.936 140.98 76.2827 140.46C75.6427 139.927 75.3227 139.18 75.3227 138.22C75.3227 136.353 76.596 135.287 79.1427 135.02L80.6227 134.86C81.7027 134.74 82.2427 134.267 82.2427 133.44C82.2427 132.867 82.0627 132.453 81.7027 132.2C81.356 131.947 80.7627 131.82 79.9227 131.82C79.0293 131.82 78.3827 131.973 77.9827 132.28C77.596 132.573 77.376 133.1 77.3227 133.86H75.7227C75.856 131.58 77.256 130.44 79.9227 130.44C82.5093 130.44 83.8027 131.44 83.8027 133.44V139.2C83.8027 139.533 83.9893 139.7 84.3627 139.7ZM79.0427 139.88C79.896 139.88 80.6427 139.62 81.2827 139.1C81.9227 138.593 82.2427 137.867 82.2427 136.92V135.7C81.9493 135.927 81.496 136.073 80.8827 136.14L79.3827 136.32C78.516 136.427 77.896 136.627 77.5227 136.92C77.1627 137.213 76.9827 137.633 76.9827 138.18C76.9827 138.713 77.156 139.133 77.5027 139.44C77.8493 139.733 78.3627 139.88 79.0427 139.88ZM90.5347 141.24C89.108 141.24 87.9547 140.747 87.0747 139.76C86.1947 138.773 85.7547 137.467 85.7547 135.84C85.7547 134.187 86.1947 132.873 87.0747 131.9C87.928 130.927 89.0814 130.44 90.5347 130.44C91.7614 130.44 92.768 130.773 93.5547 131.44C94.3414 132.107 94.8147 133.02 94.9747 134.18H93.3147C93.1947 133.447 92.8747 132.88 92.3547 132.48C91.848 132.08 91.2414 131.88 90.5347 131.88C89.588 131.88 88.8347 132.227 88.2747 132.92C87.7147 133.6 87.4347 134.573 87.4347 135.84C87.4347 137.093 87.7147 138.067 88.2747 138.76C88.848 139.453 89.6014 139.8 90.5347 139.8C91.2414 139.8 91.8547 139.593 92.3747 139.18C92.8947 138.767 93.2147 138.193 93.3347 137.46H94.9747C94.8014 138.62 94.308 139.54 93.4947 140.22C92.6947 140.9 91.708 141.24 90.5347 141.24ZM105.684 135.84V136.4H97.8444C97.9244 137.52 98.2377 138.367 98.7844 138.94C99.331 139.5 100.078 139.78 101.024 139.78C102.451 139.78 103.364 139.14 103.764 137.86H105.424C105.144 138.9 104.624 139.727 103.864 140.34C103.104 140.94 102.144 141.24 100.984 141.24C99.5577 141.24 98.4044 140.753 97.5244 139.78C96.631 138.807 96.1844 137.493 96.1844 135.84C96.1844 134.213 96.6244 132.907 97.5044 131.92C98.371 130.933 99.5177 130.44 100.944 130.44C102.424 130.44 103.584 130.953 104.424 131.98C105.264 133.007 105.684 134.293 105.684 135.84ZM100.944 131.9C100.104 131.9 99.4177 132.167 98.8844 132.7C98.351 133.22 98.0177 133.973 97.8844 134.96H103.964C103.884 134.053 103.578 133.32 103.044 132.76C102.511 132.187 101.811 131.9 100.944 131.9ZM112.643 130.44C114.096 130.44 115.263 130.927 116.143 131.9C117.009 132.887 117.443 134.2 117.443 135.84C117.443 137.467 117.009 138.773 116.143 139.76C115.263 140.747 114.096 141.24 112.643 141.24C111.109 141.24 109.929 140.627 109.103 139.4V141H107.583V126.76H109.183V132.16C110.009 131.013 111.163 130.44 112.643 130.44ZM112.443 139.8C113.443 139.8 114.243 139.44 114.843 138.72C115.456 137.987 115.763 137 115.763 135.76C115.763 134.547 115.463 133.6 114.863 132.92C114.276 132.227 113.469 131.88 112.443 131.88C111.429 131.88 110.623 132.227 110.023 132.92C109.423 133.613 109.123 134.587 109.123 135.84C109.123 137.08 109.423 138.047 110.023 138.74C110.623 139.447 111.429 139.8 112.443 139.8ZM127.441 139.76C126.494 140.747 125.294 141.24 123.841 141.24C122.387 141.24 121.187 140.747 120.241 139.76C119.307 138.787 118.841 137.48 118.841 135.84C118.841 134.2 119.307 132.893 120.241 131.92C121.187 130.933 122.387 130.44 123.841 130.44C125.294 130.44 126.494 130.933 127.441 131.92C128.374 132.893 128.841 134.2 128.841 135.84C128.841 137.48 128.374 138.787 127.441 139.76ZM121.421 138.74C122.021 139.447 122.827 139.8 123.841 139.8C124.854 139.8 125.661 139.447 126.261 138.74C126.861 138.047 127.161 137.08 127.161 135.84C127.161 134.587 126.861 133.613 126.261 132.92C125.661 132.227 124.854 131.88 123.841 131.88C122.827 131.88 122.021 132.227 121.421 132.92C120.821 133.613 120.521 134.587 120.521 135.84C120.521 137.08 120.821 138.047 121.421 138.74ZM138.847 139.76C137.9 140.747 136.7 141.24 135.247 141.24C133.794 141.24 132.594 140.747 131.647 139.76C130.714 138.787 130.247 137.48 130.247 135.84C130.247 134.2 130.714 132.893 131.647 131.92C132.594 130.933 133.794 130.44 135.247 130.44C136.7 130.44 137.9 130.933 138.847 131.92C139.78 132.893 140.247 134.2 140.247 135.84C140.247 137.48 139.78 138.787 138.847 139.76ZM132.827 138.74C133.427 139.447 134.234 139.8 135.247 139.8C136.26 139.8 137.067 139.447 137.667 138.74C138.267 138.047 138.567 137.08 138.567 135.84C138.567 134.587 138.267 133.613 137.667 132.92C137.067 132.227 136.26 131.88 135.247 131.88C134.234 131.88 133.427 132.227 132.827 132.92C132.227 133.613 131.927 134.587 131.927 135.84C131.927 137.08 132.227 138.047 132.827 138.74ZM150.933 141H149.073L145.593 135.46L143.753 137.18V141H142.153V126.76H143.753V135.3L148.533 130.68H150.653L146.733 134.4L150.933 141Z" fill="#131315"/>
<path d="M50 128H42C40.8954 128 40 128.895 40 130V138C40 139.105 40.8954 140 42 140H50C51.1046 140 52 139.105 52 138V130C52 128.895 51.1046 128 50 128Z" fill="#4769E7"/>
<path d="M209.4 126.76H220.82V128.28H215.98V141H214.24V128.28H209.4V126.76ZM231.514 135.34L232.974 130.68H234.694L231.254 141H229.574L228.054 136.22C227.534 134.527 227.188 133.36 227.014 132.72C226.708 133.813 226.354 134.98 225.954 136.22L224.454 141H222.774L219.334 130.68H221.054L222.514 135.34C222.874 136.473 223.248 137.727 223.634 139.1C224.061 137.58 224.428 136.327 224.734 135.34L226.174 130.68H227.854L229.294 135.34C230.028 137.78 230.401 139.02 230.414 139.06C230.521 138.647 230.888 137.407 231.514 135.34ZM237.543 129.12H235.843V127.16H237.543V129.12ZM237.503 141H235.903V130.68H237.503V141ZM244.427 130.68V132.08H242.307V138.78C242.307 139.367 242.7 139.66 243.487 139.66H244.427V141C243.987 141.04 243.607 141.06 243.287 141.06C241.567 141.06 240.707 140.347 240.707 138.92V132.08H239.007V130.68H240.707V127.76H242.307V130.68H244.427ZM249.837 130.68V132.08H247.717V138.78C247.717 139.367 248.111 139.66 248.897 139.66H249.837V141C249.397 141.04 249.017 141.06 248.697 141.06C246.977 141.06 246.117 140.347 246.117 138.92V132.08H244.417V130.68H246.117V127.76H247.717V130.68H249.837ZM260.333 135.84V136.4H252.493C252.573 137.52 252.886 138.367 253.433 138.94C253.979 139.5 254.726 139.78 255.673 139.78C257.099 139.78 258.013 139.14 258.413 137.86H260.073C259.793 138.9 259.273 139.727 258.513 140.34C257.753 140.94 256.793 141.24 255.633 141.24C254.206 141.24 253.053 140.753 252.173 139.78C251.279 138.807 250.833 137.493 250.833 135.84C250.833 134.213 251.273 132.907 252.153 131.92C253.019 130.933 254.166 130.44 255.593 130.44C257.073 130.44 258.233 130.953 259.073 131.98C259.913 133.007 260.333 134.293 260.333 135.84ZM255.593 131.9C254.753 131.9 254.066 132.167 253.533 132.7C252.999 133.22 252.666 133.973 252.533 134.96H258.613C258.533 134.053 258.226 133.32 257.693 132.76C257.159 132.187 256.459 131.9 255.593 131.9ZM267.071 130.52C267.338 130.52 267.518 130.527 267.611 130.54V132.08H267.211C266.145 132.08 265.311 132.347 264.711 132.88C264.125 133.4 263.831 134.147 263.831 135.12V141H262.231V130.68H263.751V132.5C264.445 131.18 265.551 130.52 267.071 130.52Z" fill="#131315"/>
<path d="M195 128H187C185.895 128 185 128.895 185 130V138C185 139.105 185.895 140 187 140H195C196.105 140 197 139.105 197 138V130C197 128.895 196.105 128 195 128Z" fill="#FF708C"/>
<path d="M330.98 141H329.3V126.76H330.98V141ZM338.237 130.44C339.384 130.44 340.277 130.753 340.917 131.38C341.557 132.007 341.877 132.887 341.877 134.02V141H340.277V134.18C340.277 132.647 339.491 131.88 337.917 131.88C337.171 131.88 336.511 132.16 335.937 132.72C335.364 133.28 335.077 134.093 335.077 135.16V141H333.477V130.68H334.997V132.22C335.784 131.033 336.864 130.44 338.237 130.44ZM347.918 141.24C345.158 141.24 343.698 140.067 343.538 137.72H345.158C345.251 138.493 345.505 139.047 345.918 139.38C346.345 139.7 347.011 139.86 347.918 139.86C349.571 139.86 350.398 139.327 350.398 138.26C350.398 137.793 350.225 137.44 349.878 137.2C349.545 136.96 348.931 136.753 348.038 136.58L347.078 136.4C344.931 136 343.858 134.987 343.858 133.36C343.858 132.467 344.191 131.76 344.858 131.24C345.538 130.707 346.458 130.44 347.618 130.44C350.351 130.44 351.751 131.58 351.818 133.86H350.218C350.178 133.113 349.951 132.587 349.538 132.28C349.125 131.973 348.485 131.82 347.618 131.82C346.925 131.82 346.391 131.953 346.018 132.22C345.645 132.487 345.458 132.86 345.458 133.34C345.458 133.793 345.618 134.133 345.938 134.36C346.258 134.587 346.791 134.78 347.538 134.94L348.458 135.12C349.725 135.373 350.631 135.733 351.178 136.2C351.738 136.667 352.018 137.32 352.018 138.16C352.018 139.133 351.651 139.893 350.918 140.44C350.198 140.973 349.198 141.24 347.918 141.24ZM357.939 130.68V132.08H355.819V138.78C355.819 139.367 356.212 139.66 356.999 139.66H357.939V141C357.499 141.04 357.119 141.06 356.799 141.06C355.079 141.06 354.219 140.347 354.219 138.92V132.08H352.519V130.68H354.219V127.76H355.819V130.68H357.939ZM367.972 139.7H368.552V141C368.285 141.04 367.992 141.06 367.672 141.06C366.592 141.06 366.012 140.567 365.932 139.58C365.212 140.687 364.092 141.24 362.572 141.24C361.439 141.24 360.545 140.98 359.892 140.46C359.252 139.927 358.932 139.18 358.932 138.22C358.932 136.353 360.205 135.287 362.752 135.02L364.232 134.86C365.312 134.74 365.852 134.267 365.852 133.44C365.852 132.867 365.672 132.453 365.312 132.2C364.965 131.947 364.372 131.82 363.532 131.82C362.639 131.82 361.992 131.973 361.592 132.28C361.205 132.573 360.985 133.1 360.932 133.86H359.332C359.465 131.58 360.865 130.44 363.532 130.44C366.119 130.44 367.412 131.44 367.412 133.44V139.2C367.412 139.533 367.599 139.7 367.972 139.7ZM362.652 139.88C363.505 139.88 364.252 139.62 364.892 139.1C365.532 138.593 365.852 137.867 365.852 136.92V135.7C365.559 135.927 365.105 136.073 364.492 136.14L362.992 136.32C362.125 136.427 361.505 136.627 361.132 136.92C360.772 137.213 360.592 137.633 360.592 138.18C360.592 138.713 360.765 139.133 361.112 139.44C361.459 139.733 361.972 139.88 362.652 139.88ZM377.606 132.18V130.68H379.126V140.6C379.126 142.013 378.713 143.127 377.886 143.94C377.06 144.753 375.873 145.16 374.326 145.16C373.046 145.16 372.02 144.867 371.246 144.28C370.473 143.693 370.033 142.88 369.926 141.84H371.526C371.726 143.147 372.66 143.8 374.326 143.8C376.46 143.8 377.526 142.733 377.526 140.6V139.6C376.713 140.693 375.56 141.24 374.066 141.24C372.613 141.24 371.453 140.747 370.586 139.76C369.706 138.773 369.266 137.467 369.266 135.84C369.266 134.187 369.706 132.873 370.586 131.9C371.44 130.927 372.6 130.44 374.066 130.44C375.6 130.44 376.78 131.02 377.606 132.18ZM374.266 139.8C375.28 139.8 376.086 139.447 376.686 138.74C377.286 138.033 377.586 137.067 377.586 135.84C377.586 134.613 377.286 133.647 376.686 132.94C376.086 132.233 375.28 131.88 374.266 131.88C373.266 131.88 372.46 132.24 371.846 132.96C371.246 133.68 370.946 134.64 370.946 135.84C370.946 137.04 371.246 138 371.846 138.72C372.46 139.44 373.266 139.8 374.266 139.8ZM386.364 130.52C386.631 130.52 386.811 130.527 386.904 130.54V132.08H386.504C385.438 132.08 384.604 132.347 384.004 132.88C383.418 133.4 383.124 134.147 383.124 135.12V141H381.524V130.68H383.044V132.5C383.738 131.18 384.844 130.52 386.364 130.52ZM396.136 139.7H396.716V141C396.449 141.04 396.156 141.06 395.836 141.06C394.756 141.06 394.176 140.567 394.096 139.58C393.376 140.687 392.256 141.24 390.736 141.24C389.603 141.24 388.709 140.98 388.056 140.46C387.416 139.927 387.096 139.18 387.096 138.22C387.096 136.353 388.369 135.287 390.916 135.02L392.396 134.86C393.476 134.74 394.016 134.267 394.016 133.44C394.016 132.867 393.836 132.453 393.476 132.2C393.129 131.947 392.536 131.82 391.696 131.82C390.803 131.82 390.156 131.973 389.756 132.28C389.369 132.573 389.149 133.1 389.096 133.86H387.496C387.629 131.58 389.029 130.44 391.696 130.44C394.283 130.44 395.576 131.44 395.576 133.44V139.2C395.576 139.533 395.763 139.7 396.136 139.7ZM390.816 139.88C391.669 139.88 392.416 139.62 393.056 139.1C393.696 138.593 394.016 137.867 394.016 136.92V135.7C393.723 135.927 393.269 136.073 392.656 136.14L391.156 136.32C390.289 136.427 389.669 136.627 389.296 136.92C388.936 137.213 388.756 137.633 388.756 138.18C388.756 138.713 388.929 139.133 389.276 139.44C389.623 139.733 390.136 139.88 390.816 139.88ZM408.986 130.44C410.106 130.44 410.972 130.767 411.586 131.42C412.212 132.06 412.526 132.92 412.526 134V141H410.926V134.16C410.926 132.64 410.206 131.88 408.766 131.88C408.006 131.88 407.372 132.187 406.866 132.8C406.372 133.4 406.126 134.253 406.126 135.36V141H404.526V134.16C404.526 132.64 403.806 131.88 402.366 131.88C401.619 131.88 400.992 132.187 400.486 132.8C399.979 133.4 399.726 134.253 399.726 135.36V141H398.126V130.68H399.646V132.2C400.326 131.027 401.319 130.44 402.626 130.44C404.172 130.44 405.232 131.087 405.806 132.38C406.526 131.087 407.586 130.44 408.986 130.44Z" fill="#131315"/>
<path d="M314 128H306C304.895 128 304 128.895 304 130V138C304 139.105 304.895 140 306 140H314C315.105 140 316 139.105 316 138V130C316 128.895 315.105 128 314 128Z" fill="#16D9CE"/>
<path d="M472.98 126.76V139.48H480.14V141H471.3V126.76H472.98ZM483.387 129.12H481.687V127.16H483.387V129.12ZM483.347 141H481.747V130.68H483.347V141ZM490.511 130.44C491.657 130.44 492.551 130.753 493.191 131.38C493.831 132.007 494.151 132.887 494.151 134.02V141H492.551V134.18C492.551 132.647 491.764 131.88 490.191 131.88C489.444 131.88 488.784 132.16 488.211 132.72C487.637 133.28 487.351 134.093 487.351 135.16V141H485.751V130.68H487.271V132.22C488.057 131.033 489.137 130.44 490.511 130.44ZM505.332 141H503.472L499.992 135.46L498.152 137.18V141H496.552V126.76H498.152V135.3L502.932 130.68H505.052L501.132 134.4L505.332 141ZM514.927 135.84V136.4H507.087C507.167 137.52 507.48 138.367 508.027 138.94C508.573 139.5 509.32 139.78 510.267 139.78C511.693 139.78 512.607 139.14 513.007 137.86H514.667C514.387 138.9 513.867 139.727 513.107 140.34C512.347 140.94 511.387 141.24 510.227 141.24C508.8 141.24 507.647 140.753 506.767 139.78C505.873 138.807 505.427 137.493 505.427 135.84C505.427 134.213 505.867 132.907 506.747 131.92C507.613 130.933 508.76 130.44 510.187 130.44C511.667 130.44 512.827 130.953 513.667 131.98C514.507 133.007 514.927 134.293 514.927 135.84ZM510.187 131.9C509.347 131.9 508.66 132.167 508.127 132.7C507.593 133.22 507.26 133.973 507.127 134.96H513.207C513.127 134.053 512.82 133.32 512.287 132.76C511.753 132.187 511.053 131.9 510.187 131.9ZM524.585 132.16V126.76H526.185V141H524.665V139.4C523.838 140.627 522.658 141.24 521.125 141.24C519.672 141.24 518.512 140.747 517.645 139.76C516.765 138.773 516.325 137.467 516.325 135.84C516.325 134.187 516.765 132.873 517.645 131.9C518.498 130.927 519.658 130.44 521.125 130.44C522.605 130.44 523.758 131.013 524.585 132.16ZM518.005 135.92C518.005 137.147 518.305 138.1 518.905 138.78C519.505 139.46 520.312 139.8 521.325 139.8C522.338 139.8 523.145 139.447 523.745 138.74C524.345 138.047 524.645 137.08 524.645 135.84C524.645 134.613 524.345 133.647 523.745 132.94C523.145 132.233 522.338 131.88 521.325 131.88C520.325 131.88 519.518 132.247 518.905 132.98C518.305 133.7 518.005 134.68 518.005 135.92ZM530.363 141H528.683V126.76H530.363V141ZM537.62 130.44C538.767 130.44 539.66 130.753 540.3 131.38C540.94 132.007 541.26 132.887 541.26 134.02V141H539.66V134.18C539.66 132.647 538.873 131.88 537.3 131.88C536.553 131.88 535.893 132.16 535.32 132.72C534.747 133.28 534.46 134.093 534.46 135.16V141H532.86V130.68H534.38V132.22C535.167 131.033 536.247 130.44 537.62 130.44Z" fill="#131315"/>
<path d="M456 128H448C446.895 128 446 128.895 446 130V138C446 139.105 446.895 140 448 140H456C457.105 140 458 139.105 458 138V130C458 128.895 457.105 128 456 128Z" fill="#FEBA66"/>
<path d="M623.88 130.08L625.96 126.76H627.86L622.42 135.28V141H620.74V135.28L615.3 126.76H617.22L619.32 130.1C620.227 131.513 620.987 132.74 621.6 133.78C622.453 132.34 623.213 131.107 623.88 130.08ZM634.456 139.76C633.51 140.747 632.31 141.24 630.856 141.24C629.403 141.24 628.203 140.747 627.256 139.76C626.323 138.787 625.856 137.48 625.856 135.84C625.856 134.2 626.323 132.893 627.256 131.92C628.203 130.933 629.403 130.44 630.856 130.44C632.31 130.44 633.51 130.933 634.456 131.92C635.39 132.893 635.856 134.2 635.856 135.84C635.856 137.48 635.39 138.787 634.456 139.76ZM628.436 138.74C629.036 139.447 629.843 139.8 630.856 139.8C631.87 139.8 632.676 139.447 633.276 138.74C633.876 138.047 634.176 137.08 634.176 135.84C634.176 134.587 633.876 133.613 633.276 132.92C632.676 132.227 631.87 131.88 630.856 131.88C629.843 131.88 629.036 132.227 628.436 132.92C627.836 133.613 627.536 134.587 627.536 135.84C627.536 137.08 627.836 138.047 628.436 138.74ZM644.27 136.52V130.68H645.87V141H644.35V139.46C643.563 140.647 642.483 141.24 641.11 141.24C639.963 141.24 639.07 140.927 638.43 140.3C637.79 139.673 637.47 138.793 637.47 137.66V130.68H639.07V137.5C639.07 139.033 639.856 139.8 641.43 139.8C642.176 139.8 642.836 139.52 643.41 138.96C643.983 138.4 644.27 137.587 644.27 136.52ZM652.79 130.68V132.08H650.67V138.78C650.67 139.367 651.064 139.66 651.85 139.66H652.79V141C652.35 141.04 651.97 141.06 651.65 141.06C649.93 141.06 649.07 140.347 649.07 138.92V132.08H647.37V130.68H649.07V127.76H650.67V130.68H652.79ZM661.281 136.52V130.68H662.881V141H661.361V139.46C660.575 140.647 659.495 141.24 658.121 141.24C656.975 141.24 656.081 140.927 655.441 140.3C654.801 139.673 654.481 138.793 654.481 137.66V130.68H656.081V137.5C656.081 139.033 656.868 139.8 658.441 139.8C659.188 139.8 659.848 139.52 660.421 138.96C660.995 138.4 661.281 137.587 661.281 136.52ZM670.342 130.44C671.795 130.44 672.962 130.927 673.842 131.9C674.709 132.887 675.142 134.2 675.142 135.84C675.142 137.467 674.709 138.773 673.842 139.76C672.962 140.747 671.795 141.24 670.342 141.24C668.809 141.24 667.629 140.627 666.802 139.4V141H665.282V126.76H666.882V132.16C667.709 131.013 668.862 130.44 670.342 130.44ZM670.142 139.8C671.142 139.8 671.942 139.44 672.542 138.72C673.155 137.987 673.462 137 673.462 135.76C673.462 134.547 673.162 133.6 672.562 132.92C671.975 132.227 671.169 131.88 670.142 131.88C669.129 131.88 668.322 132.227 667.722 132.92C667.122 133.613 666.822 134.587 666.822 135.84C666.822 137.08 667.122 138.047 667.722 138.74C668.322 139.447 669.129 139.8 670.142 139.8ZM686.04 135.84V136.4H678.2C678.28 137.52 678.593 138.367 679.14 138.94C679.687 139.5 680.433 139.78 681.38 139.78C682.807 139.78 683.72 139.14 684.12 137.86H685.78C685.5 138.9 684.98 139.727 684.22 140.34C683.46 140.94 682.5 141.24 681.34 141.24C679.913 141.24 678.76 140.753 677.88 139.78C676.987 138.807 676.54 137.493 676.54 135.84C676.54 134.213 676.98 132.907 677.86 131.92C678.727 130.933 679.873 130.44 681.3 130.44C682.78 130.44 683.94 130.953 684.78 131.98C685.62 133.007 686.04 134.293 686.04 135.84ZM681.3 131.9C680.46 131.9 679.773 132.167 679.24 132.7C678.707 133.22 678.373 133.973 678.24 134.96H684.32C684.24 134.053 683.933 133.32 683.4 132.76C682.867 132.187 682.167 131.9 681.3 131.9Z" fill="#131315"/>
<path d="M601 128H593C591.895 128 591 128.895 591 130V138C591 139.105 591.895 140 593 140H601C602.105 140 603 139.105 603 138V130C603 128.895 602.105 128 601 128Z" fill="#F79DFF"/>
<path d="M755.2 126.76V128.28H746.98V132.82H754.4V134.34H746.98V139.48H755.12V141H745.3V126.76H755.2ZM767.759 130.44C768.879 130.44 769.746 130.767 770.359 131.42C770.986 132.06 771.299 132.92 771.299 134V141H769.699V134.16C769.699 132.64 768.979 131.88 767.539 131.88C766.779 131.88 766.146 132.187 765.639 132.8C765.146 133.4 764.899 134.253 764.899 135.36V141H763.299V134.16C763.299 132.64 762.579 131.88 761.139 131.88C760.393 131.88 759.766 132.187 759.259 132.8C758.753 133.4 758.499 134.253 758.499 135.36V141H756.899V130.68H758.419V132.2C759.099 131.027 760.093 130.44 761.399 130.44C762.946 130.44 764.006 131.087 764.579 132.38C765.299 131.087 766.359 130.44 767.759 130.44ZM782.136 139.7H782.716V141C782.449 141.04 782.156 141.06 781.836 141.06C780.756 141.06 780.176 140.567 780.096 139.58C779.376 140.687 778.256 141.24 776.736 141.24C775.603 141.24 774.709 140.98 774.056 140.46C773.416 139.927 773.096 139.18 773.096 138.22C773.096 136.353 774.369 135.287 776.916 135.02L778.396 134.86C779.476 134.74 780.016 134.267 780.016 133.44C780.016 132.867 779.836 132.453 779.476 132.2C779.129 131.947 778.536 131.82 777.696 131.82C776.803 131.82 776.156 131.973 775.756 132.28C775.369 132.573 775.149 133.1 775.096 133.86H773.496C773.629 131.58 775.029 130.44 777.696 130.44C780.283 130.44 781.576 131.44 781.576 133.44V139.2C781.576 139.533 781.763 139.7 782.136 139.7ZM776.816 139.88C777.669 139.88 778.416 139.62 779.056 139.1C779.696 138.593 780.016 137.867 780.016 136.92V135.7C779.723 135.927 779.269 136.073 778.656 136.14L777.156 136.32C776.289 136.427 775.669 136.627 775.296 136.92C774.936 137.213 774.756 137.633 774.756 138.18C774.756 138.713 774.929 139.133 775.276 139.44C775.623 139.733 776.136 139.88 776.816 139.88ZM785.668 129.12H783.968V127.16H785.668V129.12ZM785.628 141H784.028V130.68H785.628V141ZM789.632 141H788.032V126.76H789.632V141Z" fill="#131315"/>
<path d="M730 128H722C720.895 128 720 128.895 720 130V138C720 139.105 720.895 140 722 140H730C731.105 140 732 139.105 732 138V130C732 128.895 731.105 128 730 128Z" fill="#8674FE"/>
<path d="M853.52 141.32C851.667 141.32 850.22 140.9 849.18 140.06C848.14 139.22 847.613 137.967 847.6 136.3H849.34C849.38 138.633 850.773 139.8 853.52 139.8C854.68 139.8 855.567 139.573 856.18 139.12C856.807 138.667 857.12 138.007 857.12 137.14C857.12 136.46 856.86 135.933 856.34 135.56C855.833 135.173 854.94 134.84 853.66 134.56L852.4 134.28C850.96 133.947 849.88 133.467 849.16 132.84C848.44 132.2 848.08 131.307 848.08 130.16C848.08 129.027 848.52 128.127 849.4 127.46C850.28 126.78 851.46 126.44 852.94 126.44C853.94 126.44 854.807 126.56 855.54 126.8C856.287 127.04 856.867 127.38 857.28 127.82C857.693 128.247 857.993 128.713 858.18 129.22C858.38 129.727 858.487 130.287 858.5 130.9H856.78C856.7 129.887 856.367 129.147 855.78 128.68C855.207 128.2 854.26 127.96 852.94 127.96C851.94 127.96 851.167 128.153 850.62 128.54C850.087 128.927 849.82 129.467 849.82 130.16C849.82 130.853 850.053 131.393 850.52 131.78C850.973 132.167 851.853 132.507 853.16 132.8L854.42 133.08C855.993 133.427 857.127 133.927 857.82 134.58C858.513 135.22 858.86 136.073 858.86 137.14C858.86 138.433 858.387 139.453 857.44 140.2C856.493 140.947 855.187 141.32 853.52 141.32ZM869.463 134.62L872.643 126.76H874.843V141H873.203V136.44C873.203 133.44 873.223 131.02 873.263 129.18C872.943 130.06 872.523 131.14 872.003 132.42L868.483 141H867.043L863.503 132.42C862.983 131.14 862.563 130.06 862.243 129.18C862.283 131.02 862.303 133.44 862.303 136.44V141H860.663V126.76H862.863L866.163 134.86C866.657 136.073 867.197 137.44 867.783 138.96C868.597 136.8 869.157 135.353 869.463 134.62ZM882.661 141.32C880.807 141.32 879.361 140.9 878.321 140.06C877.281 139.22 876.754 137.967 876.741 136.3H878.481C878.521 138.633 879.914 139.8 882.661 139.8C883.821 139.8 884.707 139.573 885.321 139.12C885.947 138.667 886.261 138.007 886.261 137.14C886.261 136.46 886.001 135.933 885.481 135.56C884.974 135.173 884.081 134.84 882.801 134.56L881.541 134.28C880.101 133.947 879.021 133.467 878.301 132.84C877.581 132.2 877.221 131.307 877.221 130.16C877.221 129.027 877.661 128.127 878.541 127.46C879.421 126.78 880.601 126.44 882.081 126.44C883.081 126.44 883.947 126.56 884.681 126.8C885.427 127.04 886.007 127.38 886.421 127.82C886.834 128.247 887.134 128.713 887.321 129.22C887.521 129.727 887.627 130.287 887.641 130.9H885.921C885.841 129.887 885.507 129.147 884.921 128.68C884.347 128.2 883.401 127.96 882.081 127.96C881.081 127.96 880.307 128.153 879.761 128.54C879.227 128.927 878.961 129.467 878.961 130.16C878.961 130.853 879.194 131.393 879.661 131.78C880.114 132.167 880.994 132.507 882.301 132.8L883.561 133.08C885.134 133.427 886.267 133.927 886.961 134.58C887.654 135.22 888.001 136.073 888.001 137.14C888.001 138.433 887.527 139.453 886.581 140.2C885.634 140.947 884.327 141.32 882.661 141.32Z" fill="#131315"/>
<path d="M833 128H825C823.895 128 823 128.895 823 130V138C823 139.105 823.895 140 825 140H833C834.105 140 835 139.105 835 138V130C835 128.895 834.105 128 833 128Z" fill="#4DD383"/>
<path d="M960.14 133.78L962.08 126.76H963.82L959.78 141H957.9L955.86 133.74C955.287 131.687 954.853 130.08 954.56 128.92C954.267 130.08 953.833 131.687 953.26 133.74L951.22 141H949.34L945.3 126.76H947.04L948.98 133.78C949.593 135.953 950.04 137.653 950.32 138.88C950.787 137.093 951.24 135.38 951.68 133.74L953.62 126.76H955.5L957.44 133.74C957.893 135.38 958.347 137.093 958.8 138.88C959.08 137.653 959.527 135.953 960.14 133.78ZM973.013 135.84V136.4H965.173C965.253 137.52 965.566 138.367 966.113 138.94C966.659 139.5 967.406 139.78 968.353 139.78C969.779 139.78 970.693 139.14 971.093 137.86H972.753C972.473 138.9 971.953 139.727 971.193 140.34C970.433 140.94 969.473 141.24 968.313 141.24C966.886 141.24 965.733 140.753 964.853 139.78C963.959 138.807 963.513 137.493 963.513 135.84C963.513 134.213 963.953 132.907 964.833 131.92C965.699 130.933 966.846 130.44 968.273 130.44C969.753 130.44 970.913 130.953 971.753 131.98C972.593 133.007 973.013 134.293 973.013 135.84ZM968.273 131.9C967.433 131.9 966.746 132.167 966.213 132.7C965.679 133.22 965.346 133.973 965.213 134.96H971.293C971.213 134.053 970.906 133.32 970.373 132.76C969.839 132.187 969.139 131.9 968.273 131.9ZM979.971 130.44C981.424 130.44 982.591 130.927 983.471 131.9C984.338 132.887 984.771 134.2 984.771 135.84C984.771 137.467 984.338 138.773 983.471 139.76C982.591 140.747 981.424 141.24 979.971 141.24C978.438 141.24 977.258 140.627 976.431 139.4V141H974.911V126.76H976.511V132.16C977.338 131.013 978.491 130.44 979.971 130.44ZM979.771 139.8C980.771 139.8 981.571 139.44 982.171 138.72C982.784 137.987 983.091 137 983.091 135.76C983.091 134.547 982.791 133.6 982.191 132.92C981.604 132.227 980.798 131.88 979.771 131.88C978.758 131.88 977.951 132.227 977.351 132.92C976.751 133.613 976.451 134.587 976.451 135.84C976.451 137.08 976.751 138.047 977.351 138.74C977.951 139.447 978.758 139.8 979.771 139.8ZM990.113 141.24C987.353 141.24 985.893 140.067 985.733 137.72H987.353C987.447 138.493 987.7 139.047 988.113 139.38C988.54 139.7 989.207 139.86 990.113 139.86C991.767 139.86 992.593 139.327 992.593 138.26C992.593 137.793 992.42 137.44 992.073 137.2C991.74 136.96 991.127 136.753 990.233 136.58L989.273 136.4C987.127 136 986.053 134.987 986.053 133.36C986.053 132.467 986.387 131.76 987.053 131.24C987.733 130.707 988.653 130.44 989.813 130.44C992.547 130.44 993.947 131.58 994.013 133.86H992.413C992.373 133.113 992.147 132.587 991.733 132.28C991.32 131.973 990.68 131.82 989.813 131.82C989.12 131.82 988.587 131.953 988.213 132.22C987.84 132.487 987.653 132.86 987.653 133.34C987.653 133.793 987.813 134.133 988.133 134.36C988.453 134.587 988.987 134.78 989.733 134.94L990.653 135.12C991.92 135.373 992.827 135.733 993.373 136.2C993.933 136.667 994.213 137.32 994.213 138.16C994.213 139.133 993.847 139.893 993.113 140.44C992.393 140.973 991.393 141.24 990.113 141.24ZM997.449 129.12H995.749V127.16H997.449V129.12ZM997.409 141H995.809V130.68H997.409V141ZM1004.33 130.68V132.08H1002.21V138.78C1002.21 139.367 1002.61 139.66 1003.39 139.66H1004.33V141C1003.89 141.04 1003.51 141.06 1003.19 141.06C1001.47 141.06 1000.61 140.347 1000.61 138.92V132.08H998.913V130.68H1000.61V127.76H1002.21V130.68H1004.33ZM1014.83 135.84V136.4H1006.99C1007.07 137.52 1007.38 138.367 1007.93 138.94C1008.48 139.5 1009.22 139.78 1010.17 139.78C1011.6 139.78 1012.51 139.14 1012.91 137.86H1014.57C1014.29 138.9 1013.77 139.727 1013.01 140.34C1012.25 140.94 1011.29 141.24 1010.13 141.24C1008.7 141.24 1007.55 140.753 1006.67 139.78C1005.78 138.807 1005.33 137.493 1005.33 135.84C1005.33 134.213 1005.77 132.907 1006.65 131.92C1007.52 130.933 1008.66 130.44 1010.09 130.44C1011.57 130.44 1012.73 130.953 1013.57 131.98C1014.41 133.007 1014.83 134.293 1014.83 135.84ZM1010.09 131.9C1009.25 131.9 1008.56 132.167 1008.03 132.7C1007.5 133.22 1007.16 133.973 1007.03 134.96H1013.11C1013.03 134.053 1012.72 133.32 1012.19 132.76C1011.66 132.187 1010.96 131.9 1010.09 131.9Z" fill="#131315"/>
<path d="M931 128H923C921.895 128 921 128.895 921 130V138C921 139.105 921.895 140 923 140H931C932.105 140 933 139.105 933 138V130C933 128.895 932.105 128 931 128Z" fill="#26B7D7"/>
</svg>
