<svg width="150" height="78" viewBox="0 0 150 78" fill="none" xmlns="http://www.w3.org/2000/svg">
<g clip-path="url(#clip0)">
<path d="M57.2305 77.654C58.3844 77.654 59.3075 77.0771 59.3075 75.9232C59.3075 75.0002 58.7305 74.5386 57.5767 74.3078C56.6536 74.0771 56.4229 73.9617 56.4229 73.6155C56.4229 73.3848 56.6536 73.154 57.1152 73.154C57.5767 73.154 58.0382 73.3848 58.4998 73.7309L59.0767 72.8078C58.4998 72.3463 57.8075 72.1155 56.9998 72.1155C55.8459 72.1155 55.0382 72.8078 55.0382 73.7309C55.0382 74.8848 55.7305 75.1155 56.8844 75.4617C57.8075 75.6925 58.0382 75.8079 58.0382 76.154C58.0382 76.5002 57.6921 76.7309 57.2305 76.7309C56.6536 76.7309 56.0767 76.5002 55.6152 76.0386L54.9229 76.8463C55.4998 77.4232 56.4229 77.654 57.2305 77.654ZM60.1152 72.9232H61.3844V71.8848H60.1152V72.9232ZM60.1152 77.5386H61.269V73.2694H60.1152V77.5386ZM62.4228 77.5386H63.5767V75.1155C63.5767 74.5386 63.9228 74.3078 64.3844 74.3078C64.8459 74.3078 65.0767 74.654 65.0767 75.1155V77.5386H66.2305V74.7694C66.2305 73.8463 65.6536 73.154 64.8459 73.154C64.269 73.154 63.9228 73.5002 63.5767 73.8463V73.2694H62.4228V77.5386ZM69.2305 77.654C70.0382 77.654 70.4998 77.3079 70.9613 76.8463L70.269 76.154C69.9229 76.3848 69.6921 76.6155 69.3459 76.6155C68.6536 76.6155 68.3075 76.0386 68.3075 75.4617C68.3075 74.8848 68.769 74.3078 69.3459 74.3078C69.8075 74.3078 70.0382 74.5386 70.269 74.7694L70.9613 73.9617C70.6152 73.5002 70.0382 73.2694 69.2305 73.2694C67.9613 73.2694 67.0382 74.3078 67.0382 75.4617C67.0382 76.7309 67.9613 77.654 69.2305 77.654ZM73.6152 77.654C74.4228 77.654 74.9998 77.3079 75.3459 76.8463L74.6536 76.2694C74.3075 76.6155 74.0767 76.7309 73.6152 76.7309C73.0382 76.7309 72.6921 76.5002 72.5767 75.9232H75.5767C75.5767 75.8078 75.5767 75.6925 75.5767 75.5771C75.5767 74.4232 74.8844 73.2694 73.4998 73.2694C72.2305 73.2694 71.4228 74.3078 71.4228 75.4617C71.4228 76.8463 72.3459 77.654 73.6152 77.654ZM72.5767 75.1155C72.6921 74.5386 73.0382 74.1925 73.4998 74.1925C73.9613 74.1925 74.3075 74.5386 74.4228 75.1155H72.5767ZM78.6921 77.5386H79.8459V72.0001H79.0382L77.5382 72.4617L77.769 73.5002L78.6921 73.2694V77.5386ZM83.0767 77.654C84.3459 77.654 85.269 77.0771 85.269 76.0386C85.269 75.3463 84.9228 75.0002 84.3459 74.7694C84.8075 74.5386 85.0382 74.1925 85.0382 73.6155C85.0382 72.8078 84.2305 72.1155 83.0767 72.1155C81.9228 72.1155 81.1152 72.8078 81.1152 73.6155C81.1152 74.1925 81.3459 74.5386 81.8075 74.7694C81.2305 75.0002 80.8844 75.4617 80.8844 76.154C80.8844 77.0771 81.8075 77.654 83.0767 77.654ZM83.0767 74.3078C82.6152 74.3078 82.269 73.9617 82.269 73.6155C82.269 73.2694 82.6152 72.9232 83.0767 72.9232C83.5382 72.9232 83.8844 73.2694 83.8844 73.6155C83.8844 74.0771 83.5382 74.3078 83.0767 74.3078ZM83.0767 76.6155C82.4998 76.6155 82.1536 76.2694 82.1536 75.9232C82.1536 75.4617 82.4998 75.2309 83.0767 75.2309C83.6536 75.2309 83.9998 75.4617 83.9998 75.9232C83.9998 76.3848 83.6536 76.6155 83.0767 76.6155ZM87.8075 77.654C89.4228 77.654 90.2305 76.3848 90.2305 74.654C90.2305 73.6155 89.9998 72.9232 89.5382 72.5771C89.0767 72.1155 88.7305 72.0001 87.9228 72.0001C86.6536 72.0001 85.8459 72.8078 85.8459 73.9617C85.8459 75.1155 86.6536 75.8079 87.8075 75.8079C88.269 75.8079 88.6151 75.6925 88.9613 75.4617C88.8459 76.154 88.4998 76.7309 87.8075 76.7309C87.3459 76.7309 86.9998 76.6155 86.6536 76.2694L85.9613 77.1925C86.5382 77.4232 86.9998 77.654 87.8075 77.654ZM88.0382 74.654C87.4613 74.654 87.1152 74.3078 87.1152 73.8463C87.1152 73.3848 87.4613 73.0386 88.0382 73.0386C88.6152 73.0386 88.9613 73.3848 88.9613 73.8463C89.0767 74.3078 88.6152 74.654 88.0382 74.654ZM92.9998 77.654C94.6151 77.654 95.4228 76.3848 95.4228 74.654C95.4228 73.6155 95.1921 72.9232 94.7305 72.5771C94.269 72.1155 93.9228 72.0001 93.1151 72.0001C91.8459 72.0001 91.0382 72.8078 91.0382 73.9617C91.0382 75.1155 91.8459 75.8079 92.9998 75.8079C93.4613 75.8079 93.8075 75.6925 94.1536 75.4617C94.0382 76.154 93.6921 76.7309 92.9998 76.7309C92.5382 76.7309 92.1921 76.6155 91.8459 76.2694L91.1536 77.1925C91.6152 77.4232 92.1921 77.654 92.9998 77.654ZM93.2305 74.654C92.6536 74.654 92.3075 74.3078 92.3075 73.8463C92.3075 73.3848 92.6536 73.0386 93.2305 73.0386C93.8075 73.0386 94.1536 73.3848 94.1536 73.8463C94.1536 74.3078 93.8075 74.654 93.2305 74.654Z" fill="#00563F"/>
<path d="M78.2308 43.7308C78.2308 45.4615 76.8462 46.8461 75.1154 46.8461C73.3846 46.8461 72 45.4615 72 43.7308C72 42 73.3846 40.6154 75.1154 40.6154C76.8462 40.5 78.2308 42 78.2308 43.7308ZM144.577 56.3077C144.346 56.1923 144.231 56.1923 144 56.0769C142.269 55.5 141.231 55.1538 141.231 54.3461V54.2308C141.231 53.5385 142.038 53.0769 142.962 53.0769C144.115 53.0769 145.269 53.4231 147 54.3461H147.115C147.231 54.3461 147.231 54.3461 147.346 54.2308L149.192 51V50.8846C149.192 50.7692 149.192 50.7692 149.077 50.6538C147.115 49.6154 145.269 49.0385 143.077 49.0385C138.923 49.0385 136.154 51.1154 136.154 54.4615V54.5769C136.154 57.9231 138.808 59.1923 141.692 60C141.923 60.1154 142.154 60.1154 142.385 60.2308C144.231 60.8077 144.923 61.1538 144.923 61.9615V62.0769C144.808 62.7692 144.231 63.1154 143.077 63.1154C141.346 63.1154 139.846 62.5385 137.885 61.2692H137.769C137.654 61.2692 137.654 61.2692 137.538 61.3846L135.577 64.5V64.6154C135.577 64.7308 135.577 64.7308 135.692 64.8461C138 66.4615 140.192 67.3846 142.731 67.3846C147.346 67.3846 150 65.4231 150 61.8461V61.7308C150.115 58.6154 147.346 57.2308 144.577 56.3077ZM94.3846 61.7308C94.3846 65.3077 91.6154 67.3846 87.1154 67.3846C84.4615 67.3846 82.3846 66.4615 80.0769 64.8461C79.9615 64.8461 79.9615 64.7308 79.9615 64.6154V64.5L81.9231 61.3846C81.9231 61.2692 82.0385 61.2692 82.1538 61.2692H82.2692C84.2308 62.5385 85.6154 63.1154 87.4615 63.1154C88.6154 63.1154 89.3077 62.7692 89.3077 62.0769V61.9615C89.3077 61.1538 88.5 60.6923 86.7692 60.2308C86.5385 60.1154 86.3077 60.1154 86.0769 60C83.0769 59.1923 80.5385 57.9231 80.5385 54.5769C80.5385 51.2308 83.1923 49.1538 87.4615 49.1538C89.5385 49.1538 91.5 49.7308 93.4615 50.7692C93.5769 50.7692 93.5769 50.8846 93.5769 51V51.1154L91.7308 54.3461C91.7308 54.4615 91.6154 54.4615 91.5 54.4615H91.3846C89.6539 53.6538 88.6154 53.1923 87.3462 53.1923C86.3077 53.1923 85.6154 53.6538 85.6154 54.3461V54.4615C85.6154 55.2692 86.6539 55.6154 88.3846 56.1923C88.6154 56.3077 88.7308 56.3077 88.9615 56.4231C91.6154 57.1154 94.3846 58.5 94.3846 61.7308ZM64.6154 67.1538H60C59.8846 67.1538 59.7692 67.0385 59.7692 66.9231V50.0769C59.7692 49.9615 59.8846 49.8461 60 49.8461H64.3846C64.5 49.8461 64.6154 49.9615 64.6154 50.0769V52.1538C65.7692 50.5385 67.5 49.6154 69.2308 49.6154C69.4615 49.6154 69.6923 49.6154 69.9231 49.6154C70.0385 49.6154 70.1539 49.7308 70.1539 49.8461V54.3461C70.1539 54.4615 70.1539 54.4615 70.0385 54.5769C70.0385 54.5769 69.9231 54.6923 69.8077 54.5769C69.6923 54.5769 69.3462 54.5769 69 54.5769C67.5 54.5769 65.7692 55.3846 65.0769 57.6923C64.9615 58.3846 64.8462 59.1923 64.8462 60.1154V66.8077C64.8462 67.0385 64.7308 67.1538 64.6154 67.1538ZM52.0385 66.9231V60.2308C52.0385 59.1923 52.1539 58.3846 52.3846 57.6923C53.0769 55.3846 54.9231 54.5769 56.3077 54.5769C56.6539 54.5769 57 54.5769 57.1154 54.5769C57.2308 54.5769 57.2308 54.5769 57.3462 54.5769C57.3462 54.5769 57.4615 54.4615 57.4615 54.3461V49.8461C57.4615 49.7308 57.3462 49.6154 57.2308 49.6154C57.1154 49.6154 56.8846 49.6154 56.5385 49.6154C54.6923 49.6154 52.9615 50.5385 51.9231 52.1538V50.0769C51.9231 49.9615 51.8077 49.8461 51.6923 49.8461H47.3077C47.1923 49.8461 47.0769 49.9615 47.0769 50.0769V66.9231C47.0769 67.0385 47.1923 67.1538 47.3077 67.1538H51.9231C52.0385 67.1538 52.0385 67.0385 52.0385 66.9231ZM23.1923 67.1538H18.5769C18.4615 67.1538 18.3462 67.0385 18.3462 66.9231C18.3462 61.6154 17.8846 55.6154 17.7692 53.7692C16.1538 55.9615 14.5385 58.9615 13.2692 61.8461C13.2692 61.9615 13.1538 61.9615 13.0385 61.9615H10.3846C10.2692 61.9615 10.1538 61.9615 10.1538 61.8461C8.88462 58.9615 7.38462 55.9615 5.65385 53.7692C5.53846 55.6154 5.07692 61.6154 5.07692 66.9231C5.07692 67.0385 4.96154 67.1538 4.84615 67.1538H0.230769C0.115385 67.1538 0 67.0385 0 66.9231C0 59.7692 0.576923 50.3077 1.73077 45.4615C1.73077 45.3461 1.84615 45.2308 1.96154 45.2308H5.65385C5.76923 45.2308 5.76923 45.2308 5.88462 45.3461C8.30769 48 10.2692 51 11.7692 53.8846C13.2692 50.8846 15.2308 48 17.6538 45.3461C17.6538 45.3461 17.7692 45.2308 17.8846 45.2308H21.5769C21.6923 45.2308 21.8077 45.3461 21.8077 45.4615C22.9615 50.3077 23.5385 59.7692 23.5385 66.9231C23.4231 67.0385 23.3077 67.1538 23.1923 67.1538ZM133.5 66.9231V56.1923C133.5 51.8077 131.423 49.5 127.385 49.5C124.731 49.5 123 50.7692 122.077 51.8077V50.0769C122.077 49.9615 121.962 49.8461 121.846 49.8461H117.462C117.346 49.8461 117.231 49.9615 117.231 50.0769V66.9231C117.231 67.0385 117.346 67.1538 117.462 67.1538H122.077C122.192 67.1538 122.308 67.0385 122.308 66.9231V59.1923C122.308 58.3846 122.423 57.6923 122.538 57.1154C123.115 55.2692 124.615 54.1154 126.462 54.1154C127.962 54.1154 128.538 54.8077 128.538 56.8846V66.8077C128.538 66.9231 128.654 67.0385 128.769 67.0385H133.269C133.5 67.1538 133.5 67.0385 133.5 66.9231ZM105.577 53.8846C103.038 53.8846 101.192 55.8461 101.192 58.5C101.192 61.1538 103.038 63.1154 105.577 63.1154C108 63.1154 109.846 61.1538 109.846 58.5C109.846 55.8461 108 53.8846 105.577 53.8846ZM105.577 67.5C100.154 67.5 96.1154 63.5769 96.1154 58.5C96.1154 53.3077 100.154 49.5 105.577 49.5C111 49.5 115.038 53.4231 115.038 58.5C115.038 63.5769 111 67.5 105.577 67.5ZM77.6539 66.9231V50.0769C77.6539 49.9615 77.5385 49.8461 77.4231 49.8461H72.8077C72.6923 49.8461 72.5769 49.9615 72.5769 50.0769V66.9231C72.5769 67.0385 72.6923 67.1538 72.8077 67.1538H77.4231C77.5385 67.1538 77.6539 67.0385 77.6539 66.9231ZM35.1923 53.8846C32.6539 53.8846 30.8077 55.8461 30.8077 58.5C30.8077 61.1538 32.6539 63.1154 35.1923 63.1154C37.6154 63.1154 39.4615 61.1538 39.4615 58.5C39.4615 55.8461 37.6154 53.8846 35.1923 53.8846ZM35.1923 67.5C29.7692 67.5 25.7308 63.5769 25.7308 58.5C25.7308 53.3077 29.7692 49.5 35.1923 49.5C40.6154 49.5 44.6539 53.4231 44.6539 58.5C44.5385 63.5769 40.5 67.5 35.1923 67.5Z" fill="#00563F"/>
<path d="M89.7692 42.6922C85.6154 44.1922 81.9231 41.423 81.9231 41.423C81.9231 41.423 82.9615 36.923 87.1154 35.423C91.2692 33.923 94.9615 36.6922 94.9615 36.6922C94.9615 36.6922 93.9231 41.0768 89.7692 42.6922ZM100.731 21.6922C100.731 21.6922 96.6923 19.6153 92.7692 21.8076C88.9615 23.9999 88.7308 28.6153 88.7308 28.6153C88.7308 28.6153 92.7692 30.6922 96.6923 28.4999C100.5 26.3076 100.731 21.6922 100.731 21.6922ZM83.3077 31.8461C81.4615 35.8845 76.9615 36.4615 76.9615 36.4615C76.9615 36.4615 74.5385 32.6538 76.3846 28.6153C78.2308 24.5768 82.7308 23.9999 82.7308 23.9999C82.7308 23.9999 85.1538 27.8076 83.3077 31.8461ZM55.5 36.6922C55.5 36.6922 56.5385 41.1922 60.6923 42.6922C64.8462 44.1922 68.5385 41.423 68.5385 41.423C68.5385 41.423 67.5 36.923 63.3462 35.423C59.0769 33.923 55.5 36.6922 55.5 36.6922ZM57.4615 21.8076C61.2692 23.9999 61.5 28.6153 61.5 28.6153C61.5 28.6153 57.4615 30.6922 53.5385 28.4999C49.7308 26.3076 49.5 21.6922 49.5 21.6922C49.5 21.6922 53.6538 19.6153 57.4615 21.8076ZM62.5385 14.423C62.5385 14.423 61.6154 18.923 64.7308 22.0384C67.8461 25.1538 72.3462 24.2307 72.3462 24.2307C72.3462 24.2307 73.2692 19.7307 70.1538 16.6153C67.0385 13.4999 62.5385 14.423 62.5385 14.423ZM78.9231 7.73069C78.9231 12.2307 75.1154 14.6538 75.1154 14.6538C75.1154 14.6538 71.3077 12.2307 71.3077 7.73069C71.3077 3.23069 75.1154 0.807617 75.1154 0.807617C75 0.807617 78.9231 3.23069 78.9231 7.73069ZM86.5385 17.6538C86.5385 19.4999 85.0385 20.8845 83.3077 20.8845C81.4615 20.8845 80.0769 19.3845 80.0769 17.6538C80.0769 15.923 81.5769 14.423 83.3077 14.423C85.0385 14.423 86.5385 15.8076 86.5385 17.6538ZM72 30.923C72 32.7692 70.5 34.1538 68.7692 34.1538C67.0385 34.1538 65.5385 32.6538 65.5385 30.923C65.5385 29.0768 67.0385 27.6922 68.7692 27.6922C70.5 27.6922 72 29.1922 72 30.923Z" fill="#FFC20E"/>
</g>
<defs>
<clipPath id="clip0">
<rect width="150" height="77.3077" fill="white" transform="translate(0 0.346191)"/>
</clipPath>
</defs>
</svg>
