<svg width="324" height="286" viewBox="0 0 324 286" fill="none" xmlns="http://www.w3.org/2000/svg">
<path d="M318 0H6C2.68629 0 0 2.68629 0 6V280C0 283.314 2.68629 286 6 286H318C321.314 286 324 283.314 324 280V6C324 2.68629 321.314 0 318 0Z" fill="#F8F8F8"/>
<path d="M150.392 125.32H158.648V130.504H150.392V138.76H144.776V130.504H136.472V125.32H144.776V117.016H150.392V125.32ZM182.136 126.856C186.104 128.392 188.088 131.208 188.088 135.304C188.088 138.504 186.888 141.032 184.488 142.888C182.056 144.808 178.792 145.768 174.696 145.768C170.6 145.768 167.352 144.808 164.952 142.888C162.552 141.032 161.352 138.504 161.352 135.304C161.352 131.272 163.32 128.456 167.256 126.856C164.248 125.288 162.744 122.84 162.744 119.512C162.744 116.6 163.848 114.296 166.056 112.6C168.296 110.904 171.176 110.056 174.696 110.056C178.216 110.056 181.096 110.904 183.336 112.6C185.544 114.296 186.648 116.6 186.648 119.512C186.648 122.84 185.144 125.288 182.136 126.856ZM180.744 119.896C180.744 118.328 180.2 117.112 179.112 116.248C178.024 115.384 176.552 114.952 174.696 114.952C172.904 114.952 171.448 115.384 170.328 116.248C169.208 117.112 168.648 118.328 168.648 119.896C168.648 121.4 169.192 122.584 170.28 123.448C171.368 124.312 172.84 124.744 174.696 124.744C176.552 124.744 178.024 124.312 179.112 123.448C180.2 122.584 180.744 121.4 180.744 119.896ZM174.696 140.584C176.904 140.584 178.6 140.088 179.784 139.096C181 138.104 181.608 136.712 181.608 134.92C181.608 133.096 181 131.688 179.784 130.696C178.568 129.704 176.872 129.208 174.696 129.208C172.52 129.208 170.824 129.704 169.608 130.696C168.392 131.688 167.784 133.096 167.784 134.92C167.784 136.712 168.392 138.104 169.608 139.096C170.824 140.088 172.52 140.584 174.696 140.584Z" fill="#929292"/>
<path d="M114.74 171.328C116.1 171.328 117.164 171.712 117.932 172.48C118.7 173.232 119.084 174.304 119.084 175.696V184H116.684V176.032C116.684 174.304 115.812 173.44 114.068 173.44C113.268 173.44 112.548 173.744 111.908 174.352C111.268 174.976 110.948 175.864 110.948 177.016V184H108.548V171.616H110.852V173.464C111.796 172.04 113.092 171.328 114.74 171.328ZM132.854 177.904V178.6H123.518C123.63 179.816 123.99 180.736 124.598 181.36C125.206 181.968 126.03 182.272 127.07 182.272C128.638 182.272 129.662 181.584 130.142 180.208H132.566C132.23 181.472 131.574 182.472 130.598 183.208C129.638 183.928 128.446 184.288 127.022 184.288C125.246 184.288 123.814 183.696 122.726 182.512C121.638 181.328 121.094 179.76 121.094 177.808C121.094 175.856 121.638 174.288 122.726 173.104C123.814 171.92 125.23 171.328 126.974 171.328C128.798 171.328 130.238 171.944 131.294 173.176C132.334 174.408 132.854 175.984 132.854 177.904ZM126.974 173.344C126.03 173.344 125.254 173.632 124.646 174.208C124.054 174.784 123.686 175.616 123.542 176.704H130.382C130.27 175.696 129.91 174.888 129.302 174.28C128.71 173.656 127.934 173.344 126.974 173.344ZM147.813 176.776L149.421 171.616H151.989L147.885 184H145.365L143.661 178.552C143.229 177.176 142.837 175.848 142.485 174.568C141.957 176.44 141.573 177.768 141.333 178.552L139.653 184H137.109L133.005 171.616H135.597L137.181 176.776C137.613 178.168 138.045 179.64 138.477 181.192C138.765 180.04 139.181 178.568 139.725 176.776L141.309 171.616H143.709L145.269 176.776C145.925 179 146.349 180.464 146.541 181.168C146.733 180.464 147.157 179 147.813 176.776ZM157.655 184.312C154.215 184.312 152.407 182.896 152.231 180.064H154.631C154.727 180.928 155.007 181.536 155.471 181.888C155.935 182.24 156.671 182.416 157.679 182.416C159.503 182.416 160.415 181.84 160.415 180.688C160.415 180.192 160.223 179.808 159.839 179.536C159.455 179.264 158.767 179.04 157.775 178.864L156.503 178.624C153.879 178.144 152.567 176.912 152.567 174.928C152.567 173.824 152.991 172.952 153.839 172.312C154.687 171.656 155.855 171.328 157.343 171.328C160.751 171.328 162.495 172.712 162.575 175.48H160.247C160.199 174.648 159.943 174.064 159.479 173.728C159.015 173.376 158.303 173.2 157.343 173.2C156.575 173.2 155.983 173.344 155.567 173.632C155.151 173.92 154.943 174.328 154.943 174.856C154.943 175.336 155.127 175.712 155.495 175.984C155.863 176.24 156.447 176.448 157.247 176.608L158.543 176.824C160.063 177.112 161.159 177.544 161.831 178.12C162.503 178.696 162.839 179.496 162.839 180.52C162.839 181.72 162.383 182.656 161.471 183.328C160.559 183.984 159.287 184.312 157.655 184.312ZM166.906 184H164.506V166.912H166.906V184ZM180.656 177.904V178.6H171.32C171.432 179.816 171.792 180.736 172.4 181.36C173.008 181.968 173.832 182.272 174.872 182.272C176.44 182.272 177.464 181.584 177.944 180.208H180.368C180.032 181.472 179.376 182.472 178.4 183.208C177.44 183.928 176.248 184.288 174.824 184.288C173.048 184.288 171.616 183.696 170.528 182.512C169.44 181.328 168.896 179.76 168.896 177.808C168.896 175.856 169.44 174.288 170.528 173.104C171.616 171.92 173.032 171.328 174.776 171.328C176.6 171.328 178.04 171.944 179.096 173.176C180.136 174.408 180.656 175.984 180.656 177.904ZM174.776 173.344C173.832 173.344 173.056 173.632 172.448 174.208C171.856 174.784 171.488 175.616 171.344 176.704H178.184C178.072 175.696 177.712 174.888 177.104 174.28C176.512 173.656 175.736 173.344 174.776 173.344ZM187.864 171.616V173.584H185.368V181.024C185.368 181.392 185.472 181.664 185.68 181.84C185.904 182 186.272 182.08 186.784 182.08H187.864V184C187.336 184.048 186.848 184.072 186.4 184.072C185.232 184.072 184.368 183.848 183.808 183.4C183.248 182.952 182.968 182.232 182.968 181.24V173.584H180.976V171.616H182.968V168.064H185.368V171.616H187.864ZM194.588 171.616V173.584H192.092V181.024C192.092 181.392 192.196 181.664 192.404 181.84C192.628 182 192.996 182.08 193.508 182.08H194.588V184C194.06 184.048 193.572 184.072 193.124 184.072C191.956 184.072 191.092 183.848 190.532 183.4C189.972 182.952 189.692 182.232 189.692 181.24V173.584H187.7V171.616H189.692V168.064H192.092V171.616H194.588ZM207.342 177.904V178.6H198.006C198.118 179.816 198.478 180.736 199.086 181.36C199.694 181.968 200.518 182.272 201.558 182.272C203.126 182.272 204.15 181.584 204.63 180.208H207.054C206.718 181.472 206.062 182.472 205.086 183.208C204.126 183.928 202.934 184.288 201.51 184.288C199.734 184.288 198.302 183.696 197.214 182.512C196.126 181.328 195.582 179.76 195.582 177.808C195.582 175.856 196.126 174.288 197.214 173.104C198.302 171.92 199.718 171.328 201.462 171.328C203.286 171.328 204.726 171.944 205.782 173.176C206.822 174.408 207.342 175.984 207.342 177.904ZM201.462 173.344C200.518 173.344 199.742 173.632 199.134 174.208C198.542 174.784 198.174 175.616 198.03 176.704H204.87C204.758 175.696 204.398 174.888 203.79 174.28C203.198 173.656 202.422 173.344 201.462 173.344ZM215.519 171.424C215.871 171.424 216.103 171.432 216.215 171.448V173.728H215.615C214.383 173.728 213.431 174.032 212.759 174.64C212.087 175.248 211.751 176.128 211.751 177.28V184H209.351V171.616H211.655V173.824C212.439 172.224 213.727 171.424 215.519 171.424Z" fill="#929292"/>
</svg>
