<svg width="244" height="54" viewBox="0 0 244 54" fill="none" xmlns="http://www.w3.org/2000/svg">
<rect width="244" height="54" rx="27" fill="#EFF1F2"/>
<path d="M12.6501 33V21L22.6501 27L12.6501 33Z" fill="black"/>
<path d="M43.7184 27.7549C43.7184 29.236 43.4655 30.3366 42.9596 31.0566C42.4538 31.7767 41.6631 32.1367 40.5876 32.1367C39.5257 32.1367 38.7396 31.7858 38.2292 31.084C37.7187 30.3776 37.4544 29.3249 37.4362 27.9258V26.2373C37.4362 24.7744 37.6891 23.6875 38.195 22.9766C38.7008 22.2656 39.4938 21.9102 40.5739 21.9102C41.6448 21.9102 42.4333 22.2542 42.9391 22.9424C43.445 23.626 43.7047 24.6833 43.7184 26.1143V27.7549ZM42.4538 26.0254C42.4538 24.9544 42.3034 24.1751 42.0026 23.6875C41.7018 23.1953 41.2256 22.9492 40.5739 22.9492C39.9267 22.9492 39.4551 23.193 39.1588 23.6807C38.8626 24.1683 38.71 24.918 38.7008 25.9297V27.9531C38.7008 29.0286 38.8558 29.8239 39.1657 30.3389C39.4801 30.8493 39.9541 31.1045 40.5876 31.1045C41.2119 31.1045 41.6745 30.863 41.9753 30.3799C42.2806 29.8968 42.4401 29.1357 42.4538 28.0967V26.0254ZM45.5674 31.3369C45.5674 31.1182 45.6312 30.9359 45.7588 30.79C45.891 30.6442 46.0869 30.5713 46.3467 30.5713C46.6065 30.5713 46.8024 30.6442 46.9346 30.79C47.0713 30.9359 47.1397 31.1182 47.1397 31.3369C47.1397 31.5465 47.0713 31.722 46.9346 31.8633C46.8024 32.0046 46.6065 32.0752 46.3467 32.0752C46.0869 32.0752 45.891 32.0046 45.7588 31.8633C45.6312 31.722 45.5674 31.5465 45.5674 31.3369ZM45.5742 25.3008C45.5742 25.082 45.638 24.8997 45.7656 24.7539C45.8978 24.6081 46.0938 24.5352 46.3535 24.5352C46.6133 24.5352 46.8093 24.6081 46.9414 24.7539C47.0781 24.8997 47.1465 25.082 47.1465 25.3008C47.1465 25.5104 47.0781 25.6859 46.9414 25.8271C46.8093 25.9684 46.6133 26.0391 46.3535 26.0391C46.0938 26.0391 45.8978 25.9684 45.7656 25.8271C45.638 25.6859 45.5742 25.5104 45.5742 25.3008ZM55.2504 27.7549C55.2504 29.236 54.9974 30.3366 54.4916 31.0566C53.9857 31.7767 53.195 32.1367 52.1195 32.1367C51.0577 32.1367 50.2715 31.7858 49.7611 31.084C49.2507 30.3776 48.9864 29.3249 48.9681 27.9258V26.2373C48.9681 24.7744 49.2211 23.6875 49.7269 22.9766C50.2328 22.2656 51.0258 21.9102 52.1058 21.9102C53.1768 21.9102 53.9652 22.2542 54.4711 22.9424C54.9769 23.626 55.2367 24.6833 55.2504 26.1143V27.7549ZM53.9857 26.0254C53.9857 24.9544 53.8353 24.1751 53.5345 23.6875C53.2338 23.1953 52.7575 22.9492 52.1058 22.9492C51.4587 22.9492 50.987 23.193 50.6908 23.6807C50.3946 24.1683 50.2419 24.918 50.2328 25.9297V27.9531C50.2328 29.0286 50.3877 29.8239 50.6976 30.3389C51.0121 30.8493 51.486 31.1045 52.1195 31.1045C52.7439 31.1045 53.2064 30.863 53.5072 30.3799C53.8125 29.8968 53.972 29.1357 53.9857 28.0967V26.0254ZM63.2517 27.7549C63.2517 29.236 62.9988 30.3366 62.4929 31.0566C61.987 31.7767 61.1964 32.1367 60.1208 32.1367C59.059 32.1367 58.2729 31.7858 57.7624 31.084C57.252 30.3776 56.9877 29.3249 56.9695 27.9258V26.2373C56.9695 24.7744 57.2224 23.6875 57.7283 22.9766C58.2341 22.2656 59.0271 21.9102 60.1072 21.9102C61.1781 21.9102 61.9665 22.2542 62.4724 22.9424C62.9783 23.626 63.238 24.6833 63.2517 26.1143V27.7549ZM61.987 26.0254C61.987 24.9544 61.8367 24.1751 61.5359 23.6875C61.2351 23.1953 60.7589 22.9492 60.1072 22.9492C59.46 22.9492 58.9883 23.193 58.6921 23.6807C58.3959 24.1683 58.2432 24.918 58.2341 25.9297V27.9531C58.2341 29.0286 58.3891 29.8239 58.699 30.3389C59.0134 30.8493 59.4874 31.1045 60.1208 31.1045C60.7452 31.1045 61.2078 30.863 61.5085 30.3799C61.8139 29.8968 61.9734 29.1357 61.987 28.0967V26.0254ZM69.0073 32.8545H67.9204L72.0766 22.0469H73.1567L69.0073 32.8545ZM84.3879 27.7549C84.3879 29.236 84.1349 30.3366 83.6291 31.0566C83.1232 31.7767 82.3325 32.1367 81.257 32.1367C80.1952 32.1367 79.409 31.7858 78.8986 31.084C78.3882 30.3776 78.1239 29.3249 78.1056 27.9258V26.2373C78.1056 24.7744 78.3586 23.6875 78.8644 22.9766C79.3703 22.2656 80.1633 21.9102 81.2433 21.9102C82.3143 21.9102 83.1027 22.2542 83.6086 22.9424C84.1144 23.626 84.3742 24.6833 84.3879 26.1143V27.7549ZM83.1232 26.0254C83.1232 24.9544 82.9728 24.1751 82.672 23.6875C82.3713 23.1953 81.895 22.9492 81.2433 22.9492C80.5962 22.9492 80.1245 23.193 79.8283 23.6807C79.5321 24.1683 79.3794 24.918 79.3703 25.9297V27.9531C79.3703 29.0286 79.5252 29.8239 79.8351 30.3389C80.1496 30.8493 80.6235 31.1045 81.257 31.1045C81.8814 31.1045 82.3439 30.863 82.6447 30.3799C82.95 29.8968 83.1095 29.1357 83.1232 28.0967V26.0254ZM86.2369 31.3369C86.2369 31.1182 86.3007 30.9359 86.4283 30.79C86.5604 30.6442 86.7564 30.5713 87.0161 30.5713C87.2759 30.5713 87.4719 30.6442 87.604 30.79C87.7408 30.9359 87.8091 31.1182 87.8091 31.3369C87.8091 31.5465 87.7408 31.722 87.604 31.8633C87.4719 32.0046 87.2759 32.0752 87.0161 32.0752C86.7564 32.0752 86.5604 32.0046 86.4283 31.8633C86.3007 31.722 86.2369 31.5465 86.2369 31.3369ZM86.2437 25.3008C86.2437 25.082 86.3075 24.8997 86.4351 24.7539C86.5673 24.6081 86.7632 24.5352 87.023 24.5352C87.2827 24.5352 87.4787 24.6081 87.6109 24.7539C87.7476 24.8997 87.816 25.082 87.816 25.3008C87.816 25.5104 87.7476 25.6859 87.6109 25.8271C87.4787 25.9684 87.2827 26.0391 87.023 26.0391C86.7632 26.0391 86.5673 25.9684 86.4351 25.8271C86.3075 25.6859 86.2437 25.5104 86.2437 25.3008ZM91.5175 26.4082H92.4677C93.0647 26.3991 93.5341 26.2419 93.8759 25.9365C94.2177 25.6312 94.3886 25.2188 94.3886 24.6992C94.3886 23.5326 93.8075 22.9492 92.6454 22.9492C92.0985 22.9492 91.661 23.1064 91.3329 23.4209C91.0093 23.7308 90.8476 24.1432 90.8476 24.6582H89.5829C89.5829 23.8698 89.87 23.2158 90.4442 22.6963C91.023 22.1722 91.7567 21.9102 92.6454 21.9102C93.5842 21.9102 94.3202 22.1585 94.8534 22.6553C95.3866 23.152 95.6532 23.8424 95.6532 24.7266C95.6532 25.1595 95.5119 25.5788 95.2294 25.9844C94.9514 26.39 94.5709 26.693 94.0878 26.8936C94.6347 27.0667 95.0562 27.3538 95.3524 27.7549C95.6532 28.1559 95.8036 28.6458 95.8036 29.2246C95.8036 30.1178 95.5119 30.8265 94.9286 31.3506C94.3453 31.8747 93.5865 32.1367 92.6522 32.1367C91.718 32.1367 90.9569 31.8838 90.369 31.3779C89.7857 30.8721 89.494 30.2044 89.494 29.375H90.7655C90.7655 29.8991 90.9364 30.3184 91.2782 30.6328C91.62 30.9473 92.078 31.1045 92.6522 31.1045C93.2629 31.1045 93.73 30.945 94.0536 30.626C94.3772 30.307 94.539 29.849 94.539 29.252C94.539 28.6732 94.3612 28.2288 94.0058 27.9189C93.6503 27.609 93.1376 27.4495 92.4677 27.4404H91.5175V26.4082ZM103.921 27.7549C103.921 29.236 103.668 30.3366 103.162 31.0566C102.657 31.7767 101.866 32.1367 100.79 32.1367C99.7284 32.1367 98.9423 31.7858 98.4319 31.084C97.9215 30.3776 97.6572 29.3249 97.6389 27.9258V26.2373C97.6389 24.7744 97.8919 23.6875 98.3977 22.9766C98.9036 22.2656 99.6965 21.9102 100.777 21.9102C101.848 21.9102 102.636 22.2542 103.142 22.9424C103.648 23.626 103.907 24.6833 103.921 26.1143V27.7549ZM102.657 26.0254C102.657 24.9544 102.506 24.1751 102.205 23.6875C101.905 23.1953 101.428 22.9492 100.777 22.9492C100.129 22.9492 99.6578 23.193 99.3616 23.6807C99.0654 24.1683 98.9127 24.918 98.9036 25.9297V27.9531C98.9036 29.0286 99.0585 29.8239 99.3684 30.3389C99.6829 30.8493 100.157 31.1045 100.79 31.1045C101.415 31.1045 101.877 30.863 102.178 30.3799C102.483 29.8968 102.643 29.1357 102.657 28.0967V26.0254Z" fill="black"/>
<rect x="123.65" y="25" width="68.3222" height="4" rx="2" fill="#4F4F4F"/>
<path d="M222.279 21.6798V32.5817C222.279 33.2774 221.438 33.6201 220.95 33.1325L218.063 30.246H214.751C214.321 30.246 213.972 29.8973 213.972 29.4672V24.7944C213.972 24.3643 214.321 24.0156 214.751 24.0156H218.063L220.95 21.129C221.437 20.642 222.279 20.9833 222.279 21.6798ZM228.187 19.1527C227.698 18.8535 227.059 19.0075 226.759 19.4968C226.46 19.986 226.614 20.6252 227.104 20.9244C229.19 22.2004 230.587 24.5018 230.587 27.1308C230.587 29.5136 229.416 31.7481 227.455 33.1082C226.984 33.4351 226.867 34.0821 227.194 34.5533C227.52 35.0247 228.168 35.1415 228.639 34.8148C231.159 33.0667 232.663 30.1942 232.663 27.1308C232.663 23.7805 230.892 20.807 228.187 19.1527ZM229.548 27.1308C229.548 24.9064 228.375 22.9195 226.564 21.8122C226.075 21.513 225.436 21.6671 225.137 22.1564C224.837 22.6457 224.992 23.2848 225.481 23.584C226.727 24.3462 227.471 25.6721 227.471 27.1308C227.471 28.4925 226.802 29.7696 225.682 30.547C225.21 30.8738 225.093 31.5208 225.42 31.992C225.622 32.2828 225.945 32.4387 226.274 32.4387C226.486 32.4388 226.692 32.3741 226.865 32.2535C228.545 31.0881 229.548 29.1731 229.548 27.1308ZM226.433 27.1308C226.433 26.0367 225.875 25.0426 224.941 24.4717C224.452 24.1727 223.813 24.3269 223.514 24.8162C223.215 25.3055 223.369 25.9446 223.858 26.2437C224.17 26.4343 224.356 26.7659 224.356 27.1308C224.356 27.2988 224.315 27.4643 224.237 27.6131C224.159 27.7619 224.046 27.8896 223.908 27.9853C223.437 28.312 223.32 28.9589 223.647 29.4302C223.973 29.9016 224.62 30.0188 225.092 29.692C225.932 29.1097 226.433 28.1522 226.433 27.1308Z" fill="black"/>
</svg>
