<svg width="323" height="286" viewBox="0 0 323 286" fill="none" xmlns="http://www.w3.org/2000/svg">
<path d="M317 0H6C2.68629 0 0 2.68629 0 6V280C0 283.314 2.68629 286 6 286H317C320.314 286 323 283.314 323 280V6C323 2.68629 320.314 0 317 0Z" fill="#F8F8F8"/>
<path d="M149.892 125.32H158.148V130.504H149.892V138.76H144.276V130.504H135.972V125.32H144.276V117.016H149.892V125.32ZM181.636 126.856C185.604 128.392 187.588 131.208 187.588 135.304C187.588 138.504 186.388 141.032 183.988 142.888C181.556 144.808 178.292 145.768 174.196 145.768C170.1 145.768 166.852 144.808 164.452 142.888C162.052 141.032 160.852 138.504 160.852 135.304C160.852 131.272 162.82 128.456 166.756 126.856C163.748 125.288 162.244 122.84 162.244 119.512C162.244 116.6 163.348 114.296 165.556 112.6C167.796 110.904 170.676 110.056 174.196 110.056C177.716 110.056 180.596 110.904 182.836 112.6C185.044 114.296 186.148 116.6 186.148 119.512C186.148 122.84 184.644 125.288 181.636 126.856ZM180.244 119.896C180.244 118.328 179.7 117.112 178.612 116.248C177.524 115.384 176.052 114.952 174.196 114.952C172.404 114.952 170.948 115.384 169.828 116.248C168.708 117.112 168.148 118.328 168.148 119.896C168.148 121.4 168.692 122.584 169.78 123.448C170.868 124.312 172.34 124.744 174.196 124.744C176.052 124.744 177.524 124.312 178.612 123.448C179.7 122.584 180.244 121.4 180.244 119.896ZM174.196 140.584C176.404 140.584 178.1 140.088 179.284 139.096C180.5 138.104 181.108 136.712 181.108 134.92C181.108 133.096 180.5 131.688 179.284 130.696C178.068 129.704 176.372 129.208 174.196 129.208C172.02 129.208 170.324 129.704 169.108 130.696C167.892 131.688 167.284 133.096 167.284 134.92C167.284 136.712 167.892 138.104 169.108 139.096C170.324 140.088 172.02 140.584 174.196 140.584Z" fill="#929292"/>
<path d="M125.952 184.312C122.512 184.312 120.704 182.896 120.528 180.064H122.928C123.024 180.928 123.304 181.536 123.768 181.888C124.232 182.24 124.968 182.416 125.976 182.416C127.8 182.416 128.712 181.84 128.712 180.688C128.712 180.192 128.52 179.808 128.136 179.536C127.752 179.264 127.064 179.04 126.072 178.864L124.8 178.624C122.176 178.144 120.864 176.912 120.864 174.928C120.864 173.824 121.288 172.952 122.136 172.312C122.984 171.656 124.152 171.328 125.64 171.328C129.048 171.328 130.792 172.712 130.872 175.48H128.544C128.496 174.648 128.24 174.064 127.776 173.728C127.312 173.376 126.6 173.2 125.64 173.2C124.872 173.2 124.28 173.344 123.864 173.632C123.448 173.92 123.24 174.328 123.24 174.856C123.24 175.336 123.424 175.712 123.792 175.984C124.16 176.24 124.744 176.448 125.544 176.608L126.84 176.824C128.36 177.112 129.456 177.544 130.128 178.12C130.8 178.696 131.136 179.496 131.136 180.52C131.136 181.72 130.68 182.656 129.768 183.328C128.856 183.984 127.584 184.312 125.952 184.312ZM138.131 184.288C136.371 184.288 134.947 183.696 133.859 182.512C132.771 181.328 132.227 179.76 132.227 177.808C132.227 175.84 132.771 174.264 133.859 173.08C134.931 171.912 136.355 171.328 138.131 171.328C139.651 171.328 140.899 171.744 141.875 172.576C142.867 173.408 143.459 174.528 143.651 175.936H141.203C141.043 175.12 140.683 174.496 140.123 174.064C139.579 173.632 138.915 173.416 138.131 173.416C137.091 173.416 136.259 173.8 135.635 174.568C135.027 175.32 134.723 176.4 134.723 177.808C134.723 179.216 135.027 180.304 135.635 181.072C136.259 181.824 137.091 182.2 138.131 182.2C138.931 182.2 139.611 181.976 140.171 181.528C140.731 181.08 141.083 180.432 141.227 179.584H143.675C143.483 181.024 142.883 182.168 141.875 183.016C140.867 183.864 139.619 184.288 138.131 184.288ZM151.601 171.424C151.953 171.424 152.185 171.432 152.297 171.448V173.728H151.697C150.465 173.728 149.513 174.032 148.841 174.64C148.169 175.248 147.833 176.128 147.833 177.28V184H145.433V171.616H147.737V173.824C148.521 172.224 149.809 171.424 151.601 171.424ZM164.442 177.904V178.6H155.106C155.218 179.816 155.578 180.736 156.186 181.36C156.794 181.968 157.618 182.272 158.658 182.272C160.226 182.272 161.25 181.584 161.73 180.208H164.154C163.818 181.472 163.162 182.472 162.186 183.208C161.226 183.928 160.034 184.288 158.61 184.288C156.834 184.288 155.402 183.696 154.314 182.512C153.226 181.328 152.682 179.76 152.682 177.808C152.682 175.856 153.226 174.288 154.314 173.104C155.402 171.92 156.818 171.328 158.562 171.328C160.386 171.328 161.826 171.944 162.882 173.176C163.922 174.408 164.442 175.984 164.442 177.904ZM158.562 173.344C157.618 173.344 156.842 173.632 156.234 174.208C155.642 174.784 155.274 175.616 155.13 176.704H161.97C161.858 175.696 161.498 174.888 160.89 174.28C160.298 173.656 159.522 173.344 158.562 173.344ZM177.635 177.904V178.6H168.299C168.411 179.816 168.771 180.736 169.379 181.36C169.987 181.968 170.811 182.272 171.851 182.272C173.419 182.272 174.443 181.584 174.923 180.208H177.347C177.011 181.472 176.355 182.472 175.379 183.208C174.419 183.928 173.227 184.288 171.803 184.288C170.027 184.288 168.595 183.696 167.507 182.512C166.419 181.328 165.875 179.76 165.875 177.808C165.875 175.856 166.419 174.288 167.507 173.104C168.595 171.92 170.011 171.328 171.755 171.328C173.579 171.328 175.019 171.944 176.075 173.176C177.115 174.408 177.635 175.984 177.635 177.904ZM171.755 173.344C170.811 173.344 170.035 173.632 169.427 174.208C168.835 174.784 168.467 175.616 168.323 176.704H175.163C175.051 175.696 174.691 174.888 174.083 174.28C173.491 173.656 172.715 173.344 171.755 173.344ZM185.835 171.328C187.195 171.328 188.259 171.712 189.027 172.48C189.795 173.232 190.179 174.304 190.179 175.696V184H187.779V176.032C187.779 174.304 186.907 173.44 185.163 173.44C184.363 173.44 183.643 173.744 183.003 174.352C182.363 174.976 182.043 175.864 182.043 177.016V184H179.643V171.616H181.947V173.464C182.891 172.04 184.187 171.328 185.835 171.328ZM197.349 184.312C193.909 184.312 192.101 182.896 191.925 180.064H194.325C194.421 180.928 194.701 181.536 195.165 181.888C195.629 182.24 196.365 182.416 197.373 182.416C199.197 182.416 200.109 181.84 200.109 180.688C200.109 180.192 199.917 179.808 199.533 179.536C199.149 179.264 198.461 179.04 197.469 178.864L196.197 178.624C193.573 178.144 192.261 176.912 192.261 174.928C192.261 173.824 192.685 172.952 193.533 172.312C194.381 171.656 195.549 171.328 197.037 171.328C200.445 171.328 202.189 172.712 202.269 175.48H199.941C199.893 174.648 199.637 174.064 199.173 173.728C198.709 173.376 197.997 173.2 197.037 173.2C196.269 173.2 195.677 173.344 195.261 173.632C194.845 173.92 194.637 174.328 194.637 174.856C194.637 175.336 194.821 175.712 195.189 175.984C195.557 176.24 196.141 176.448 196.941 176.608L198.237 176.824C199.757 177.112 200.853 177.544 201.525 178.12C202.197 178.696 202.533 179.496 202.533 180.52C202.533 181.72 202.077 182.656 201.165 183.328C200.253 183.984 198.981 184.312 197.349 184.312Z" fill="#929292"/>
</svg>
