<svg width="70" height="92" viewBox="0 0 70 92" fill="none" xmlns="http://www.w3.org/2000/svg">
<path fill-rule="evenodd" clip-rule="evenodd" d="M23.4854 91.9998H46.51V68.9719H23.4854V91.9998Z" fill="#EC1D24"/>
<path fill-rule="evenodd" clip-rule="evenodd" d="M58.4389 0.0202637H0.479492V23.0219H31.0655C37.9273 13.007 47.3917 5.05421 58.4389 0.0202637Z" fill="#F4811F"/>
<path fill-rule="evenodd" clip-rule="evenodd" d="M48.6945 46.0099C50.4474 40.9849 53.1956 36.3649 56.7749 32.4264C60.3541 28.4878 64.6909 25.3114 69.5258 23.0872V0.00012207C47.5583 6.03742 30.4181 23.7284 25.1602 46.0099H48.6945Z" fill="#ED2525"/>
<path fill-rule="evenodd" clip-rule="evenodd" d="M23.5281 69.0328L23.4854 91.9966H46.4804L46.51 69.0328H23.5281Z" fill="#ED2525"/>
<path fill-rule="evenodd" clip-rule="evenodd" d="M52.4067 71.6552C52.7191 71.6552 52.8934 71.5023 52.8934 71.2442C52.8934 70.9746 52.7191 70.8217 52.4067 70.8217H52.045V71.6552H52.4067ZM52.045 73.1547H51.5189V70.3629H52.4823C53.0249 70.3629 53.4277 70.7444 53.4277 71.2376C53.4277 71.4228 53.3683 71.6031 53.2582 71.7519C53.1481 71.9008 52.9932 72.0104 52.8161 72.0646L53.4409 73.1547H52.8375L52.2538 72.114H52.045V73.1547ZM52.3656 73.8436C53.4771 73.8436 54.3517 72.9475 54.3517 71.7802C54.3517 70.6129 53.4771 69.725 52.3656 69.725C51.2542 69.725 50.3778 70.6129 50.3778 71.7802C50.3778 72.9475 51.2542 73.8436 52.3656 73.8436ZM52.3656 69.217C53.7746 69.217 54.914 70.3695 54.914 71.7802C54.9154 72.4585 54.648 73.1096 54.1704 73.5912C53.6928 74.0728 53.0439 74.3457 52.3656 74.35C50.9615 74.35 49.8369 73.1892 49.8369 71.7802C49.8369 70.3695 50.9615 69.2153 52.3656 69.2153V69.217Z" fill="#007F5F"/>
<path fill-rule="evenodd" clip-rule="evenodd" d="M16.0486 49.4882H11.1491V65.6946H20.2724V62.2123H16.047V49.4882H16.0486ZM46.388 65.6946H55.5098V62.2123H51.2843V58.8845H55.5098V55.8461H51.2843V53.0988H55.5098V49.4882H46.388V65.6946ZM21.8278 65.6946H30.9495V62.2123H26.7241V58.8845H30.9495V55.8461H26.7241V53.0988H30.9495V49.4882H21.8278V65.6946ZM0.473633 65.6929H9.59535V62.2123H5.3699V58.8845H9.59535V55.8461H5.3699V53.0988H9.59535V49.4882H0.473633V65.6946V65.6929ZM65.2678 49.4932C63.7239 49.4932 62.8574 49.8384 61.963 50.4089V49.4948H57.0635V65.6946H61.963V54.664C61.963 53.9899 62.5122 53.4408 63.1863 53.4408H63.4C64.0725 53.4408 64.6216 53.9915 64.6216 54.664V65.6946H69.5179V54.5522C69.5179 51.0962 67.9543 49.4932 65.2678 49.4932ZM45.0826 49.4652L41.3915 65.6699H35.9461L32.2533 49.4652H36.732L38.6688 60.4119L40.6056 49.4652H45.0826Z" fill="#008062"/>
</svg>
