<svg width="160" height="26" viewBox="0 0 160 26" fill="none" xmlns="http://www.w3.org/2000/svg">
<path d="M0 0.767325L127.842 0.765747V25.1992L0 25.2008V0.767325Z" fill="#EC1B24"/>
<path d="M90.8782 5.15161C91.9781 5.15161 92.6598 5.55715 93.6886 6.87161L101.339 17.8181C101.746 18.3909 101.706 19.3045 101.004 19.8978C100.382 20.4233 99.2826 20.4707 98.6861 19.6832L96.8556 17.1506H84.8061L82.9773 19.7306C82.3319 20.4959 81.5429 20.4959 80.8265 20.0178C80.0817 19.5207 79.8923 18.5597 80.3483 17.8907L88.0694 6.87319C89.0509 5.50981 89.8273 5.15161 90.8782 5.15161ZM91.3358 9.20229C91.1339 8.90721 91.0597 8.8788 90.8451 8.8788C90.6052 8.8788 90.5106 8.99873 90.348 9.21649C90.0845 9.56838 87.0169 14.0893 86.9822 14.0893H94.7285C94.7127 14.0893 91.7635 9.83506 91.3358 9.20229Z" fill="white"/>
<path d="M38.6992 5.16089H49.7198C52.4545 5.16089 52.7054 8.30739 52.7054 8.30739H39.1474C38.4767 8.30739 37.8534 8.81392 37.8534 9.69601C37.8534 10.7012 38.6172 11.1793 39.1 11.1793H48.6815C50.5798 11.1793 53.2813 12.7605 53.2813 15.4904C53.2813 19.0345 50.1427 20.2937 49.0508 20.2937H37.8408C34.5097 20.2937 34.6943 17.1173 34.6943 17.1173H48.5884C49.1439 17.1173 49.9628 16.5666 49.9628 15.7428C49.9628 14.957 49.2449 14.3542 48.7162 14.3542H39.3272C36.6636 14.3542 34.5996 12.377 34.5996 9.69444C34.5949 6.67733 37.1843 5.16089 38.6992 5.16089Z" fill="white"/>
<path d="M109.335 5.15002H120.716C122.441 5.15002 125.115 6.55916 125.115 9.92973V10.1443C125.115 11.9385 123.992 13.5149 122.414 14.2787C122.414 14.2787 122.527 14.4507 124.972 17.7676C125.289 18.1968 125.306 19.2256 124.614 19.8474C123.952 20.4407 122.851 20.5148 122.295 19.871C121.519 18.9732 120.621 17.7912 118.16 14.6621H113.713C112.446 14.6621 110.726 13.6569 110.726 11.4351H120.336C120.858 11.413 121.694 10.9128 121.694 9.93131C121.694 9.02397 120.889 8.40067 120.331 8.40067H109.717L109.725 18.4603C109.727 19.5586 108.884 20.2987 107.977 20.2987C107.115 20.2987 106.257 19.5349 106.257 18.5061V8.25707C106.254 6.53392 108.07 5.15002 109.335 5.15002Z" fill="white"/>
<path d="M62.4343 5.16345H73.8148C75.5395 5.16345 78.2142 6.57417 78.2142 9.94316V10.1578C78.2142 11.9535 77.0907 13.5283 75.5127 14.2921C75.5127 14.2921 74.6969 14.5556 73.9315 14.6519H66.7833C65.5161 14.6519 63.8908 13.6246 63.8908 11.4012H73.4045C73.9268 11.3791 74.79 10.9262 74.79 9.94474C74.79 9.0374 73.9852 8.41409 73.4266 8.41409L62.8146 8.41252L62.8209 18.4737C62.8225 19.572 61.9799 20.3121 61.0725 20.3121C60.211 20.3121 59.3525 19.5483 59.3525 18.5195V8.2705C59.351 6.54734 61.1672 5.16345 62.4343 5.16345Z" fill="white"/>
<path d="M133.935 13.3212C133.935 18.0093 136.295 22.2084 140.455 24.2629C144.363 26.1944 149.572 26.1944 153.492 24.2629C157.358 22.3583 160 18.0109 160 13.3212C160 6.14921 154.262 0.288574 146.967 0.288574C139.637 0.288574 133.935 6.10345 133.935 13.3212Z" fill="#157946"/>
<path d="M146.974 3.69047C145.662 8.13723 141.754 14.6543 138.902 17.8497H145.662L145.678 19.7859C145.662 20.8842 144.79 22.0235 143.519 22.0077C141.754 21.9872 139.546 21.1714 138.213 18.907C137.241 17.2548 136.535 15.953 136.535 13.3446C136.535 7.64332 141.127 2.92041 146.969 2.92041C152.746 2.92041 157.402 7.78218 157.402 13.3446C157.402 15.9546 156.184 18.2111 155.782 18.8612C154.355 21.1714 152.184 21.9872 150.502 22.0077C149.342 22.0219 148.274 21.1714 148.274 19.7796V17.8481H155.138C152.182 14.6543 148.274 8.13881 146.974 3.69047Z" fill="white"/>
</svg>
