<svg width="304" height="304" viewBox="0 0 304 304" fill="none" xmlns="http://www.w3.org/2000/svg">
<path d="M304 0H0V304H304V0Z" fill="#F8F8F8"/>
<path d="M78 140.158L205.842 140.156V164.751L78 164.753V140.158Z" fill="#EC1B24"/>
<path d="M168.878 144.57C169.978 144.57 170.659 144.979 171.688 146.302L179.338 157.322C179.745 157.898 179.706 158.818 179.004 159.415C178.382 159.944 177.282 159.992 176.686 159.199L174.855 156.65H162.806L160.977 159.247C160.331 160.017 159.542 160.017 158.826 159.536C158.081 159.036 157.892 158.068 158.348 157.395L166.069 146.303C167.05 144.931 167.827 144.57 168.878 144.57ZM169.335 148.648C169.133 148.351 169.059 148.322 168.845 148.322C168.605 148.322 168.51 148.443 168.348 148.662C168.084 149.017 165.016 153.568 164.982 153.568H172.728C172.712 153.568 169.763 149.285 169.335 148.648Z" fill="white"/>
<path d="M116.7 144.58H127.72C130.455 144.58 130.706 147.747 130.706 147.747H117.148C116.477 147.747 115.854 148.257 115.854 149.145C115.854 150.157 116.618 150.638 117.101 150.638H126.682C128.58 150.638 131.282 152.23 131.282 154.978C131.282 158.546 128.143 159.813 127.051 159.813H115.841C112.51 159.813 112.695 156.616 112.695 156.616H126.589C127.144 156.616 127.963 156.061 127.963 155.232C127.963 154.441 127.245 153.834 126.717 153.834H117.328C114.664 153.834 112.6 151.844 112.6 149.144C112.595 146.107 115.185 144.58 116.7 144.58Z" fill="white"/>
<path d="M187.336 144.568H198.716C200.441 144.568 203.115 145.987 203.115 149.38V149.596C203.115 151.402 201.992 152.989 200.414 153.758C200.414 153.758 200.527 153.931 202.972 157.27C203.289 157.702 203.306 158.738 202.614 159.364C201.952 159.961 200.851 160.036 200.296 159.388C199.519 158.484 198.621 157.294 196.16 154.144H191.713C190.446 154.144 188.726 153.132 188.726 150.895H198.336C198.858 150.873 199.694 150.37 199.694 149.382C199.694 148.468 198.89 147.841 198.331 147.841H187.717L187.725 157.968C187.727 159.073 186.884 159.818 185.977 159.818C185.115 159.818 184.257 159.049 184.257 158.014V147.696C184.254 145.962 186.07 144.568 187.336 144.568Z" fill="white"/>
<path d="M140.435 144.583H151.815C153.54 144.583 156.215 146.003 156.215 149.394V149.61C156.215 151.418 155.091 153.003 153.513 153.772C153.513 153.772 152.697 154.037 151.932 154.134H144.784C143.517 154.134 141.891 153.1 141.891 150.862H151.405C151.927 150.84 152.791 150.384 152.791 149.396C152.791 148.483 151.986 147.855 151.427 147.855L140.815 147.854L140.821 157.981C140.823 159.087 139.98 159.832 139.073 159.832C138.212 159.832 137.353 159.063 137.353 158.028V147.711C137.352 145.976 139.168 144.583 140.435 144.583Z" fill="white"/>
<path d="M211.935 152.795C211.935 157.514 214.296 161.741 218.455 163.809C222.364 165.754 227.573 165.754 231.492 163.809C235.358 161.892 238 157.516 238 152.795C238 145.575 232.262 139.675 224.967 139.675C217.638 139.675 211.935 145.529 211.935 152.795Z" fill="#157946"/>
<path d="M224.974 143.1C223.662 147.577 219.754 154.137 216.902 157.353H223.662L223.678 159.302C223.662 160.408 222.79 161.555 221.519 161.539C219.754 161.518 217.546 160.697 216.213 158.418C215.241 156.754 214.535 155.444 214.535 152.818C214.535 147.079 219.127 142.325 224.969 142.325C230.746 142.325 235.403 147.219 235.403 152.818C235.403 155.446 234.184 157.717 233.782 158.371C232.355 160.697 230.184 161.518 228.502 161.539C227.342 161.553 226.274 160.697 226.274 159.296V157.352H233.138C230.183 154.137 226.274 147.578 224.974 143.1Z" fill="white"/>
</svg>
