<svg width="141" height="40" viewBox="0 0 141 40" fill="none" xmlns="http://www.w3.org/2000/svg">
<g clip-path="url(#clip0)">
<path fill-rule="evenodd" clip-rule="evenodd" d="M124.762 0C114.454 0 108.571 5.9944 108.571 13.2773C108.571 20.5042 114.454 26.5546 124.762 26.5546C135.07 26.5546 140.952 20.5042 140.952 13.2773C140.896 5.9944 135.014 0 124.762 0ZM124.762 22.6891C119.552 22.6891 116.19 18.3753 116.19 13.2773C116.19 8.12325 119.552 3.86555 124.762 3.86555C129.972 3.86555 133.333 8.12325 133.333 13.2773C133.277 18.3753 129.916 22.6891 124.762 22.6891ZM1.17645 0.504202H29.8039V6.77871C27.7871 5.04202 23.4734 4.36975 18.8795 4.36975V21.4566C18.8795 23.9776 19.1036 24.7059 20.056 25.9944H10.9244C11.9328 24.7059 12.1008 23.9776 12.1008 21.4566V4.36975C7.50698 4.36975 3.19326 5.04202 1.17645 6.77871V0.504202ZM43.5294 22.1289C46.4426 22.1289 51.3725 21.4566 53.2773 19.7199V25.9944H32.437C33.4454 24.8179 33.6134 23.9776 33.6134 21.5686V4.98599C33.6134 2.52101 33.4454 1.73669 32.437 0.560224H52.2129V6.83473C50.2521 5.09804 45.3781 4.36975 42.4089 4.36975H40.112V11.1485H41.7927C43.4734 11.1485 46.0504 11.0924 47.7311 10.4762V15.5182C46.0504 14.902 43.4734 14.8459 41.7927 14.8459H40.112V22.1849L43.5294 22.1289ZM70.8683 10.3081C75.8543 10.9804 79.9439 12.7731 79.9439 18.1513C79.9439 24.5378 73.9496 26.5546 67.451 26.4986C62.9131 26.4426 59.0476 26.0504 56.2465 24.8739V19.2157C60.2801 21.8487 64.4258 22.6891 67.451 22.6891C70.5882 22.6891 73.5014 21.9048 73.5014 19.4958C73.5014 17.0868 70.8123 16.5266 65.3221 15.6863C60.5602 14.958 56.2465 12.9412 56.2465 8.23529C56.1905 1.90476 62.1849 0 67.8991 0C71.5966 0 75.1821 0.448179 78.4874 1.5126V7.67507C75.7423 5.21008 71.6526 3.86555 67.619 3.86555C64.8739 3.86555 62.2969 4.7619 62.2969 6.77871C62.2969 9.29972 66.1064 9.69188 70.8683 10.3081ZM99.1596 0C102.129 0 104.706 0.336134 106.779 0.896358V7.22689C104.762 5.15406 102.353 3.86555 99.2157 3.86555C93.4454 3.86555 89.6358 7.89916 89.6358 13.2773C89.6358 18.6555 93.5014 22.6891 99.2717 22.6891C102.409 22.6891 104.818 21.4006 106.835 19.3277V25.6583C104.762 26.2185 102.185 26.6106 99.2157 26.6106C89.2437 26.6106 82.0168 21.6246 82.0168 13.2773C81.9608 4.92997 89.1877 0 99.1596 0Z" fill="#E62432"/>
<path d="M140.616 32.9412H123.361C120.56 32.9412 118.319 34.6779 117.255 35.9664C117.255 35.9664 114.566 38.7675 112.773 39.7759L112.717 39.8319L112.661 39.8879L112.717 40H129.188C132.381 40 133.894 38.7675 135.91 36.8627C135.91 36.8627 138.599 34.0616 140.616 33.1653H140.672L140.728 33.1092V32.9412H140.616Z" fill="#02549F"/>
<path d="M112.437 32.9412H95.1821C92.3809 32.9412 90.14 34.6779 89.0756 35.9664C89.0756 35.9664 86.3865 38.7675 84.5938 39.7759L84.5378 39.8319L84.4818 39.8879L84.5378 40H101.008C104.202 40 105.714 38.7675 107.731 36.8627C107.731 36.8627 110.42 34.0616 112.437 33.1653H112.493L112.549 33.1092V32.9412H112.437Z" fill="#02549F"/>
<path d="M84.3137 32.9412H67.0588C64.2577 32.9412 62.0168 34.6779 60.9524 35.9664C60.9524 35.9664 58.2633 38.7675 56.4706 39.7759L56.4145 39.8319L56.3585 39.8879L56.4145 40H72.8291C76.0224 40 77.535 38.7675 79.5518 36.8627C79.5518 36.8627 82.2409 34.0616 84.2577 33.1653H84.3137L84.3697 33.1092V32.9412H84.3137Z" fill="#02549F"/>
<path d="M56.1344 32.9412H38.8795C36.0784 32.9412 33.8375 34.6779 32.7731 35.9664C32.7731 35.9664 30.084 38.7675 28.2913 39.7759L28.2353 39.8319L28.1793 39.8879L28.2353 40H44.7059C47.8991 40 49.4118 38.7675 51.4286 36.8627C51.4286 36.8627 54.1176 34.0616 56.1344 33.1653H56.1905L56.2465 33.1092V32.9412H56.1344Z" fill="#02549F"/>
<path d="M28.0112 32.9412H10.7003C7.89916 32.9412 5.65826 34.6779 4.59384 35.9664C4.59384 35.9664 1.90476 38.7675 0.112045 39.7759L0.0560224 39.8319L0 39.8879L0.0560224 40H16.5266C19.7199 40 21.2325 38.7675 23.2493 36.8627C23.2493 36.8627 25.9384 34.0616 27.9552 33.1653H28.0112L28.0672 33.1092L28.0112 32.9412Z" fill="#02549F"/>
</g>
<defs>
<clipPath id="clip0">
<rect width="140.952" height="40" fill="white"/>
</clipPath>
</defs>
</svg>
