<svg width="160" height="34" viewBox="0 0 160 34" fill="none" xmlns="http://www.w3.org/2000/svg">
<g clip-path="url(#clip0)">
<path d="M28.2183 33.5833L20.1215 14.1194L12.0254 33.5833L0 4.39079H4.87847L12.1044 23.2201L20.1215 3.54688L28.1123 23.2201L35.3646 4.39079H40.2437L28.2183 33.5833Z" fill="#7BB134"/>
<path d="M55.3026 22.4774C55.3026 26.6497 53.0341 29.4177 48.6039 29.4177C45.3863 29.4177 42.3273 27.0413 42.3273 22.5314C42.3273 17.8393 45.3863 15.6519 48.6039 15.6519C53.0341 15.6519 55.3026 18.3119 55.3026 22.4774ZM59.6538 32.8947V12.1682H55.3026V14.8822C53.9044 12.9041 51.3727 11.7699 48.6039 11.7699C42.6702 11.7699 37.8438 16.2798 37.8438 22.5314C37.8438 28.9384 43.0395 33.239 48.6039 33.239C51.3727 33.239 53.7727 32.0238 55.3026 30.0726V32.8947H59.6538Z" fill="#7BB134"/>
<path d="M65.7984 7.23972C64.4002 7.23972 63.293 6.15276 63.293 4.75524C63.293 3.35772 64.4002 2.22351 65.7984 2.22351C67.1959 2.22351 68.2768 3.35772 68.2768 4.75524C68.2768 6.15276 67.1959 7.23972 65.7984 7.23972ZM63.6089 12.1682H67.9608V32.8946H63.6089V12.1682Z" fill="#7BB134"/>
<path d="M79.0105 15.9422V32.8946H74.6593V15.9422H70.624V12.1682H74.6593V4.70803L79.0105 0.407471V12.1682H83.652V15.9422H79.0105Z" fill="#7BB134"/>
<path d="M97.8669 16.3878C97.2336 16.0165 96.495 15.6519 95.1502 15.6519C92.6184 15.6519 90.6673 17.2317 90.6673 20.6883V32.8947H86.3154V12.1682H90.6673V15.0713C91.9062 12.7218 93.779 11.7699 95.8624 11.7699C97.3653 11.7699 99.3434 12.2222 100.767 13.5387L97.8669 16.3878Z" fill="#7BB134"/>
<path d="M117.408 22.4774C117.408 26.4607 114.956 29.4177 110.894 29.4177C106.807 29.4177 104.407 26.4607 104.407 22.4774C104.407 18.4942 106.807 15.6519 110.894 15.6519C114.956 15.6519 117.408 18.4942 117.408 22.4774ZM121.865 22.4774C121.865 16.2798 116.986 11.7699 110.894 11.7699C104.776 11.7699 99.9502 16.2798 99.9502 22.4774C99.9502 28.6751 104.776 33.293 110.894 33.293C116.986 33.293 121.865 28.6751 121.865 22.4774Z" fill="#7BB134"/>
<path d="M131.096 33.293C128.933 33.293 126.823 32.7934 124.055 31.3149V26.886C126.085 28.2835 128.881 29.573 130.964 29.573C132.652 29.573 134.049 29.1815 134.049 27.6489C134.049 26.5957 133.68 25.9071 131.518 24.6919L127.746 22.5854C125.373 21.2149 124.134 19.7094 124.134 17.522C124.134 14.1734 126.639 11.7699 131.148 11.7699C133.232 11.7699 135.447 12.3033 137.478 13.3835V17.6773C135.579 16.4688 133.232 15.5168 131.148 15.5168C129.487 15.5168 128.485 16.1515 128.485 17.2857C128.485 17.9676 128.564 18.3659 130.331 19.4191L133.944 21.5052C136.845 23.1661 138.427 24.5636 138.427 27.2236C138.427 31.1326 135.368 33.293 131.096 33.293Z" fill="#7BB134"/>
<path d="M155.174 20.0537H145.179C145.838 17.549 147.658 15.5709 150.48 15.5709C153.17 15.5709 155.042 17.414 155.174 20.0537ZM160 23.6116V23.2943C160 15.5709 156.124 11.7699 150.48 11.7699C144.941 11.7699 140.432 15.9624 140.432 22.2141C140.432 29.546 145.495 33.293 151.139 33.293C154.119 33.293 157.073 32.3951 158.84 30.552L156.071 27.8312C154.805 28.8102 153.275 29.4177 151.139 29.4177C147.342 29.4177 145.363 26.6497 144.941 23.6116H160Z" fill="#7BB134"/>
</g>
<defs>
<clipPath id="clip0">
<rect width="160" height="33.1852" fill="white" transform="translate(0 0.407471)"/>
</clipPath>
</defs>
</svg>
