<svg width="304" height="304" viewBox="0 0 304 304" fill="none" xmlns="http://www.w3.org/2000/svg">
<rect width="304" height="304" fill="#F8F8F8"/>
<g clip-path="url(#clip0)">
<path d="M164.8 153.415C164.8 149.627 163.178 146.279 157.693 146.279C154.879 146.279 152.644 147.081 151.432 147.783L152.32 150.823C153.436 150.123 155.217 149.546 156.897 149.546C159.674 149.542 160.129 151.113 160.129 152.123V152.366C154.068 152.356 150.236 154.451 150.236 158.716C150.236 161.322 152.181 163.766 155.581 163.766C157.656 163.766 159.409 162.928 160.456 161.606H160.558C160.558 161.606 161.249 164.495 165.067 163.391C164.873 162.181 164.8 160.906 164.8 159.357V153.415ZM160.278 157.416C160.278 157.722 160.253 158.039 160.162 158.312C159.813 159.479 158.609 160.455 157.111 160.455C155.846 160.455 154.854 159.74 154.854 158.239C154.854 155.945 157.387 155.314 160.278 155.329" fill="#0071CE"/>
<path d="M72 141.125C72 141.125 75.9592 157.323 76.5887 159.947C77.33 163.014 78.6576 164.147 82.4894 163.392L84.9641 153.348C85.5897 150.859 86.0152 149.075 86.4192 146.539H86.4878C86.7682 149.1 87.1722 150.859 87.684 153.356C87.684 153.356 88.6939 157.919 89.2175 160.309C89.7274 162.7 91.1628 164.208 94.9221 163.392L100.813 141.125H96.0575L94.0357 150.757C93.5003 153.548 93.014 155.746 92.6355 158.303H92.5669C92.2257 155.774 91.7923 153.666 91.2354 150.932L89.1411 141.125H84.1797L81.9442 150.681C81.3068 153.599 80.7107 155.938 80.3361 158.415H80.2715C79.8852 156.091 79.3616 153.132 78.8066 150.324C78.8066 150.324 77.479 143.482 77.0103 141.125" fill="#0071CE"/>
<path d="M114.065 153.415C114.065 149.627 112.44 146.279 106.955 146.279C104.149 146.279 101.909 147.081 100.697 147.783L101.586 150.823C102.698 150.123 104.476 149.546 106.163 149.546C108.939 149.542 109.394 151.113 109.394 152.123V152.366C103.333 152.356 99.4972 154.451 99.4972 158.716C99.4972 161.322 101.45 163.766 104.835 163.766C106.929 163.766 108.667 162.928 109.714 161.606H109.82C109.82 161.606 110.514 164.495 114.328 163.391C114.132 162.181 114.065 160.906 114.065 159.357V153.415ZM109.539 157.416C109.539 157.722 109.514 158.039 109.428 158.312C109.075 159.479 107.871 160.455 106.369 160.455C105.112 160.455 104.115 159.74 104.115 158.239C104.115 155.945 106.649 155.314 109.539 155.329" fill="#0071CE"/>
<path d="M116.533 141.125V163.384H121.059V158.664V141.125H116.533Z" fill="#0071CE"/>
<path d="M178.691 141.125V157.548C178.691 159.815 179.116 161.396 180.032 162.365C180.836 163.214 182.152 163.767 183.719 163.767C185.064 163.767 186.38 163.508 187.002 163.282L186.947 159.747C186.482 159.854 185.95 159.947 185.221 159.947C183.676 159.947 183.166 158.968 183.166 156.933V150.646H187.108V146.392H183.166V141.125" fill="#0071CE"/>
<path d="M166.993 146.666V163.391H171.672V154.825C171.672 154.364 171.701 153.966 171.774 153.598C172.123 151.792 173.493 150.648 175.468 150.648C176.019 150.648 176.394 150.709 176.81 150.774V146.389C176.46 146.326 176.223 146.293 175.794 146.293C174.043 146.293 172.058 147.405 171.221 149.827H171.105V146.666" fill="#0071CE"/>
<path d="M123.687 146.666V163.391H128.247V153.574C128.247 153.113 128.297 152.643 128.46 152.217C128.831 151.223 129.751 150.072 131.227 150.072C133.063 150.072 133.929 151.621 133.929 153.857V163.391H138.477V153.456C138.477 153.023 138.538 152.492 138.665 152.107C139.03 150.98 140.026 150.072 141.403 150.072C143.258 150.072 144.156 151.588 144.156 154.223V163.391H148.7V153.529C148.7 148.348 146.064 146.293 143.072 146.293C141.756 146.293 140.709 146.617 139.767 147.197C138.971 147.685 138.273 148.374 137.648 149.274H137.579C136.859 147.473 135.169 146.293 132.961 146.293C130.129 146.293 128.843 147.723 128.086 148.931H128.017V146.666" fill="#0071CE"/>
<path d="M211.594 145.915C212.488 145.915 213.241 145.448 213.339 144.848L214.226 134.808C214.226 133.814 213.055 133 211.594 133C210.125 133 208.962 133.814 208.962 134.808L209.857 144.848C209.951 145.448 210.7 145.915 211.594 145.915Z" fill="#FCB61A"/>
<path d="M206.156 149.056C206.599 148.272 206.573 147.401 206.095 147.013L197.819 141.226C196.959 140.724 195.67 141.322 194.933 142.589C194.197 143.854 194.346 145.274 195.19 145.766L204.351 150.013C204.938 150.233 205.705 149.825 206.156 149.049" fill="#FCB61A"/>
<path d="M217.031 149.049C217.5 149.825 218.267 150.233 218.837 150.025L227.999 145.766C228.85 145.264 228.978 143.858 228.258 142.593C227.523 141.326 226.226 140.732 225.368 141.224L217.09 147.005C216.631 147.399 216.598 148.274 217.041 149.056" fill="#FCB61A"/>
<path d="M211.594 158.457C212.488 158.457 213.241 158.924 213.339 159.524L214.226 169.564C214.226 170.558 213.055 171.364 211.594 171.364C210.125 171.364 208.962 170.558 208.962 169.564L209.857 159.524C209.951 158.924 210.7 158.457 211.594 158.457Z" fill="#FCB61A"/>
<path d="M217.031 155.324C217.5 154.545 218.267 154.13 218.837 154.355L227.999 158.606C228.85 159.099 228.978 160.516 228.258 161.783C227.523 163.04 226.226 163.638 225.368 163.146L217.09 157.357C216.631 156.967 216.598 156.096 217.041 155.324" fill="#FCB61A"/>
<path d="M206.156 155.315C206.599 156.098 206.573 156.967 206.095 157.359L197.819 163.138C196.959 163.64 195.67 163.04 194.933 161.783C194.197 160.518 194.346 159.098 195.19 158.606L204.351 154.355C204.938 154.131 205.705 154.543 206.156 155.315Z" fill="#FCB61A"/>
<path d="M230.68 162.265H230.794C230.949 162.265 231.012 162.314 231.029 162.437C231.063 162.575 231.08 162.667 231.114 162.706H231.408C231.382 162.677 231.349 162.602 231.331 162.43C231.298 162.281 231.221 162.196 231.114 162.167V162.139C231.263 162.106 231.349 162.006 231.349 161.882C231.349 161.771 231.298 161.69 231.247 161.639C231.149 161.592 231.055 161.555 230.847 161.555C230.663 161.555 230.527 161.571 230.419 161.596V162.706H230.68V162.265ZM230.688 161.759L230.821 161.741C230.978 161.741 231.063 161.814 231.063 161.916C231.063 162.03 230.949 162.082 230.804 162.082H230.688V161.759ZM230.855 161.006C230.212 161.006 229.702 161.508 229.702 162.124C229.702 162.755 230.212 163.257 230.855 163.257C231.506 163.257 232 162.755 232 162.124C232 161.508 231.506 161.006 230.855 161.006ZM230.855 161.231C231.349 161.231 231.716 161.631 231.716 162.124C231.716 162.62 231.349 163.032 230.855 163.024C230.361 163.024 229.986 162.62 229.986 162.124C229.986 161.631 230.361 161.231 230.847 161.231" fill="#FCB61A"/>
</g>
<defs>
<clipPath id="clip0">
<rect width="160" height="38.3639" fill="white" transform="translate(72 133)"/>
</clipPath>
</defs>
</svg>
