<svg width="160" height="40" viewBox="0 0 160 40" fill="none" xmlns="http://www.w3.org/2000/svg">
<g clip-path="url(#clip0)">
<path d="M92.7997 21.2336C92.7997 17.445 91.1779 14.0975 85.693 14.0975C82.879 14.0975 80.6435 14.8996 79.4315 15.6016L80.3199 18.6412C81.4357 17.9411 83.2162 17.3646 84.8968 17.3646C87.6736 17.3606 88.1285 18.9314 88.1285 19.9413V20.1845C82.0671 20.1747 78.2354 22.269 78.2354 26.5342C78.2354 29.1403 80.1807 31.5837 83.5811 31.5837C85.6558 31.5837 87.4088 30.7464 88.456 29.4247H88.558C88.558 29.4247 89.2484 32.3132 93.0663 31.2092C92.8722 29.9993 92.7997 28.7246 92.7997 27.1754V21.2336ZM88.2777 25.234C88.2777 25.5399 88.2522 25.8576 88.1619 26.1302C87.8128 27.297 86.6088 28.2736 85.1106 28.2736C83.8458 28.2736 82.8535 27.5578 82.8535 26.0577C82.8535 23.7633 85.3871 23.1318 88.2777 23.1475" fill="#0071CE"/>
<path d="M0 8.94275C0 8.94275 3.95922 25.1406 4.58872 27.7644C5.32996 30.8314 6.65756 31.9648 10.4894 31.2099L12.9641 21.1656C13.5897 18.6771 14.0152 16.8926 14.4192 14.3571H14.4878C14.7682 16.9181 15.1722 18.6771 15.684 21.1735C15.684 21.1735 16.6939 25.7367 17.2175 28.1272C17.7274 30.5176 19.1628 32.0256 22.9221 31.2099L28.8129 8.94275H24.0575L22.0357 18.5752C21.5003 21.3657 21.014 23.5639 20.6355 26.1211H20.5669C20.2257 23.5914 19.7923 21.4833 19.2354 18.7497L17.1411 8.94275H12.1797L9.94418 18.4987C9.30683 21.4166 8.71072 23.7561 8.33615 26.2329H8.27146C7.88516 23.9091 7.36158 20.9499 6.80657 18.1418C6.80657 18.1418 5.47898 11.2999 5.01033 8.94275" fill="#0071CE"/>
<path d="M42.0653 21.2336C42.0653 17.445 40.4395 14.0975 34.9546 14.0975C32.1485 14.0975 29.9091 14.8996 28.6972 15.6016L29.5855 18.6412C30.6974 17.9411 32.476 17.3646 34.1625 17.3646C36.9392 17.3606 37.3942 18.9314 37.3942 19.9413V20.1845C31.3328 20.1747 27.4971 22.269 27.4971 26.5342C27.4971 29.1403 29.4502 31.5837 32.8349 31.5837C34.9291 31.5837 36.6667 30.7464 37.7138 29.4247H37.8197C37.8197 29.4247 38.5139 32.3132 42.328 31.2092C42.132 29.9993 42.0653 28.7246 42.0653 27.1754V21.2336ZM37.5393 25.234C37.5393 25.5399 37.5138 25.8576 37.4275 26.1302C37.0745 27.297 35.8705 28.2736 34.3684 28.2736C33.1114 28.2736 32.1152 27.5578 32.1152 26.0577C32.1152 23.7633 34.6487 23.1318 37.5393 23.1475" fill="#0071CE"/>
<path d="M44.5332 8.94275V31.202H49.0592V26.4819V8.94275H44.5332Z" fill="#0071CE"/>
<path d="M106.691 8.94275V25.3661C106.691 27.633 107.117 29.2136 108.033 30.1823C108.837 31.0314 110.152 31.5844 111.719 31.5844C113.065 31.5844 114.38 31.3256 115.002 31.1L114.947 27.5644C114.482 27.6722 113.951 27.7644 113.221 27.7644C111.676 27.7644 111.166 26.7859 111.166 24.7503V18.4634H115.108V14.21H111.166V8.94275" fill="#0071CE"/>
<path d="M94.9932 14.4838V31.2091H99.6721V22.6435C99.6721 22.1827 99.7014 21.7846 99.7741 21.4159C100.123 19.6098 101.494 18.4666 103.469 18.4666C104.02 18.4666 104.394 18.5274 104.81 18.5921V14.2073C104.461 14.1445 104.224 14.1112 103.794 14.1112C102.043 14.1112 100.058 15.2231 99.221 17.6449H99.1053V14.4838" fill="#0071CE"/>
<path d="M51.6875 14.4838V31.2091H56.2467V21.3924C56.2467 20.9315 56.2977 20.4609 56.4605 20.0354C56.8312 19.0412 57.7509 17.89 59.2275 17.89C61.0629 17.89 61.9297 19.4392 61.9297 21.6748V31.2091H66.4773V21.2747C66.4773 20.8413 66.5381 20.3099 66.6655 19.9256C67.0303 18.798 68.0265 17.89 69.4031 17.89C71.2582 17.89 72.1564 19.4059 72.1564 22.0415V31.2091H76.6999V21.3473C76.6999 16.1663 74.0643 14.1112 71.0719 14.1112C69.7561 14.1112 68.7089 14.4348 67.7676 15.0152C66.9714 15.5035 66.2734 16.1918 65.6478 17.0919H65.5792C64.8595 15.2917 63.1691 14.1112 60.9609 14.1112C58.1293 14.1112 56.8429 15.5408 56.086 16.7487H56.0173V14.4838" fill="#0071CE"/>
<path d="M139.594 13.7331C140.488 13.7331 141.241 13.2664 141.339 12.6663L142.225 2.62603C142.225 1.63181 141.055 0.817993 139.594 0.817993C138.125 0.817993 136.962 1.63181 136.962 2.62603L137.856 12.6663C137.95 13.2664 138.699 13.7331 139.594 13.7331Z" fill="#FCB61A"/>
<path d="M134.156 16.8748C134.599 16.0904 134.574 15.2197 134.095 14.8314L125.82 9.0445C124.959 8.54249 123.671 9.14059 122.933 10.4074C122.198 11.6722 122.347 13.092 123.19 13.5842L132.352 17.8317C132.938 18.0514 133.705 17.6435 134.156 16.8669" fill="#FCB61A"/>
<path d="M145.031 16.8664C145.5 17.643 146.267 18.0508 146.837 17.843L155.999 13.5837C156.85 13.0817 156.978 11.6756 156.258 10.4108C155.523 9.144 154.226 8.54983 153.367 9.04203L145.09 14.823C144.631 15.2172 144.598 16.0918 145.041 16.8743" fill="#FCB61A"/>
<path d="M139.594 26.2747C140.488 26.2747 141.241 26.7414 141.339 27.3414L142.225 37.3817C142.225 38.376 141.055 39.1819 139.594 39.1819C138.125 39.1819 136.962 38.376 136.962 37.3817L137.856 27.3414C137.95 26.7414 138.699 26.2747 139.594 26.2747Z" fill="#FCB61A"/>
<path d="M145.031 23.1418C145.5 22.3632 146.267 21.9475 146.837 22.173L155.999 26.4245C156.85 26.9167 156.978 28.3345 156.258 29.6013C155.523 30.8583 154.226 31.4564 153.367 30.9642L145.09 25.1753C144.631 24.7851 144.598 23.9144 145.041 23.1418" fill="#FCB61A"/>
<path d="M134.156 23.133C134.599 23.9155 134.574 24.7842 134.095 25.1764L125.82 30.9555C124.959 31.4575 123.671 30.8574 122.933 29.6004C122.198 28.3356 122.347 26.9158 123.19 26.4236L132.352 22.1722C132.938 21.9486 133.705 22.3604 134.156 23.133Z" fill="#FCB61A"/>
<path d="M158.681 30.0832H158.794C158.949 30.0832 159.012 30.1322 159.03 30.2557C159.063 30.393 159.081 30.4852 159.114 30.5244H159.408C159.383 30.495 159.349 30.4205 159.332 30.2479C159.298 30.0989 159.222 30.0145 159.114 29.9851V29.9577C159.263 29.9243 159.349 29.8243 159.349 29.7008C159.349 29.589 159.298 29.5086 159.247 29.4576C159.149 29.4106 159.055 29.3733 158.847 29.3733C158.663 29.3733 158.528 29.389 158.42 29.4145V30.5244H158.681V30.0832ZM158.689 29.5772L158.822 29.5596C158.979 29.5596 159.063 29.6321 159.063 29.7341C159.063 29.8479 158.949 29.9008 158.804 29.9008H158.689V29.5772ZM158.855 28.8242C158.212 28.8242 157.702 29.3262 157.702 29.942C157.702 30.5734 158.212 31.0754 158.855 31.0754C159.506 31.0754 160 30.5734 160 29.942C160 29.3262 159.506 28.8242 158.855 28.8242ZM158.855 29.0497C159.349 29.0497 159.716 29.4498 159.716 29.942C159.716 30.4381 159.349 30.8499 158.855 30.8421C158.361 30.8421 157.986 30.4381 157.986 29.942C157.986 29.4498 158.361 29.0497 158.847 29.0497" fill="#FCB61A"/>
</g>
<defs>
<clipPath id="clip0">
<rect width="160" height="38.3639" fill="white" transform="translate(0 0.817993)"/>
</clipPath>
</defs>
</svg>
